<svg width="363" height="480" viewBox="0 0 363 480" fill="none" xmlns="http://www.w3.org/2000/svg">
<path d="M63.4329 455V443.8H65.1289V448.6H70.5529V443.8H72.2489V455H70.5529V449.992H65.1289V455H63.4329Z" fill="#979797"/>
<path d="M77.1506 455.192C76.4786 455.192 75.9239 455.08 75.4866 454.856C75.0493 454.632 74.7239 454.339 74.5106 453.976C74.2973 453.603 74.1906 453.197 74.1906 452.76C74.1906 451.992 74.4893 451.384 75.0866 450.936C75.6839 450.488 76.5373 450.264 77.6466 450.264H79.7266V450.12C79.7266 449.501 79.5559 449.037 79.2146 448.728C78.8839 448.419 78.4519 448.264 77.9186 448.264C77.4493 448.264 77.0386 448.381 76.6866 448.616C76.3453 448.84 76.1373 449.176 76.0626 449.624H74.3666C74.4199 449.048 74.6119 448.557 74.9426 448.152C75.2839 447.736 75.7106 447.421 76.2226 447.208C76.7453 446.984 77.3159 446.872 77.9346 446.872C79.0439 446.872 79.9026 447.165 80.5106 447.752C81.1186 448.328 81.4226 449.117 81.4226 450.12V455H79.9506L79.8066 453.64C79.5826 454.077 79.2573 454.445 78.8306 454.744C78.4039 455.043 77.8439 455.192 77.1506 455.192ZM77.4866 453.816C77.9453 453.816 78.3293 453.709 78.6386 453.496C78.9586 453.272 79.2039 452.979 79.3746 452.616C79.5559 452.253 79.6679 451.853 79.7106 451.416H77.8226C77.1506 451.416 76.6706 451.533 76.3826 451.768C76.1053 452.003 75.9666 452.296 75.9666 452.648C75.9666 453.011 76.0999 453.299 76.3666 453.512C76.6439 453.715 77.0173 453.816 77.4866 453.816Z" fill="#979797"/>
<path d="M85.3585 455L82.3825 447.064H84.1585L86.3665 453.384L88.5745 447.064H90.3345L87.3745 455H85.3585Z" fill="#979797"/>
<path d="M95.034 455.192C94.2553 455.192 93.562 455.021 92.954 454.68C92.3567 454.328 91.8873 453.843 91.546 453.224C91.2047 452.605 91.034 451.885 91.034 451.064C91.034 450.232 91.1993 449.501 91.53 448.872C91.8713 448.243 92.3407 447.752 92.938 447.4C93.546 447.048 94.25 446.872 95.05 446.872C95.8287 446.872 96.506 447.048 97.082 447.4C97.658 447.741 98.106 448.2 98.426 448.776C98.746 449.352 98.906 449.987 98.906 450.68C98.906 450.787 98.9007 450.904 98.89 451.032C98.89 451.149 98.8847 451.283 98.874 451.432H92.698C92.7513 452.2 93.002 452.787 93.45 453.192C93.9087 453.587 94.4367 453.784 95.034 453.784C95.514 453.784 95.914 453.677 96.234 453.464C96.5647 453.24 96.81 452.941 96.97 452.568H98.666C98.4527 453.315 98.026 453.939 97.386 454.44C96.7567 454.941 95.9727 455.192 95.034 455.192ZM95.034 448.264C94.4687 448.264 93.9673 448.435 93.53 448.776C93.0927 449.107 92.826 449.608 92.73 450.28H97.21C97.178 449.661 96.9593 449.171 96.554 448.808C96.1487 448.445 95.642 448.264 95.034 448.264Z" fill="#979797"/>
<path d="M105.097 455V448.488H103.961V447.064H105.097V445.912C105.097 445.048 105.31 444.429 105.737 444.056C106.174 443.672 106.788 443.48 107.577 443.48H108.409V444.92H107.833C107.46 444.92 107.193 445 107.033 445.16C106.873 445.309 106.793 445.565 106.793 445.928V447.064H108.617V448.488H106.793V455H105.097Z" fill="#979797"/>
<path d="M113.156 455.192C112.196 455.192 111.439 454.893 110.884 454.296C110.34 453.699 110.068 452.808 110.068 451.624V447.064H111.764V451.448C111.764 452.984 112.394 453.752 113.652 453.752C114.282 453.752 114.799 453.528 115.204 453.08C115.61 452.632 115.812 451.992 115.812 451.16V447.064H117.508V455H116.004L115.876 453.608C115.631 454.099 115.268 454.488 114.788 454.776C114.319 455.053 113.775 455.192 113.156 455.192Z" fill="#979797"/>
<path d="M119.666 455V447.064H121.17L121.298 448.456C121.543 447.965 121.9 447.581 122.37 447.304C122.85 447.016 123.399 446.872 124.018 446.872C124.978 446.872 125.73 447.171 126.274 447.768C126.828 448.365 127.106 449.256 127.106 450.44V455H125.426V450.616C125.426 449.08 124.796 448.312 123.538 448.312C122.908 448.312 122.386 448.536 121.97 448.984C121.564 449.432 121.362 450.072 121.362 450.904V455H119.666Z" fill="#979797"/>
<path d="M129.455 451.688L129.263 443.8H131.087L130.895 451.688H129.455ZM130.223 455.096C129.893 455.096 129.621 454.995 129.407 454.792C129.205 454.579 129.103 454.328 129.103 454.04C129.103 453.741 129.205 453.491 129.407 453.288C129.621 453.075 129.893 452.968 130.223 452.968C130.533 452.968 130.789 453.075 130.991 453.288C131.205 453.491 131.311 453.741 131.311 454.04C131.311 454.328 131.205 454.579 130.991 454.792C130.789 454.995 130.533 455.096 130.223 455.096Z" fill="#979797"/>
<path d="M139.846 455.016L136.822 443.8H138.646L140.87 453.08L143.43 443.8H145.302L147.782 453.08L150.006 443.8H151.83L148.758 455H146.774L144.326 446.216L141.798 455L139.846 455.016Z" fill="#979797"/>
<path d="M156.206 455.192C155.427 455.192 154.734 455.021 154.126 454.68C153.529 454.328 153.059 453.843 152.718 453.224C152.377 452.605 152.206 451.885 152.206 451.064C152.206 450.232 152.371 449.501 152.702 448.872C153.043 448.243 153.513 447.752 154.11 447.4C154.718 447.048 155.422 446.872 156.222 446.872C157.001 446.872 157.678 447.048 158.254 447.4C158.83 447.741 159.278 448.2 159.598 448.776C159.918 449.352 160.078 449.987 160.078 450.68C160.078 450.787 160.073 450.904 160.062 451.032C160.062 451.149 160.057 451.283 160.046 451.432H153.87C153.923 452.2 154.174 452.787 154.622 453.192C155.081 453.587 155.609 453.784 156.206 453.784C156.686 453.784 157.086 453.677 157.406 453.464C157.737 453.24 157.982 452.941 158.142 452.568H159.838C159.625 453.315 159.198 453.939 158.558 454.44C157.929 454.941 157.145 455.192 156.206 455.192ZM156.206 448.264C155.641 448.264 155.139 448.435 154.702 448.776C154.265 449.107 153.998 449.608 153.902 450.28H158.382C158.35 449.661 158.131 449.171 157.726 448.808C157.321 448.445 156.814 448.264 156.206 448.264Z" fill="#979797"/>
<path d="M165.869 455V443.48H167.565V448.344C167.832 447.885 168.2 447.528 168.669 447.272C169.149 447.005 169.677 446.872 170.253 446.872C171.202 446.872 171.949 447.171 172.493 447.768C173.037 448.365 173.309 449.256 173.309 450.44V455H171.629V450.616C171.629 449.08 171.016 448.312 169.789 448.312C169.149 448.312 168.616 448.536 168.189 448.984C167.773 449.432 167.565 450.072 167.565 450.904V455H165.869Z" fill="#979797"/>
<path d="M177.994 455.192C177.322 455.192 176.768 455.08 176.33 454.856C175.893 454.632 175.568 454.339 175.354 453.976C175.141 453.603 175.034 453.197 175.034 452.76C175.034 451.992 175.333 451.384 175.93 450.936C176.528 450.488 177.381 450.264 178.49 450.264H180.57V450.12C180.57 449.501 180.4 449.037 180.058 448.728C179.728 448.419 179.296 448.264 178.762 448.264C178.293 448.264 177.882 448.381 177.53 448.616C177.189 448.84 176.981 449.176 176.906 449.624H175.21C175.264 449.048 175.456 448.557 175.786 448.152C176.128 447.736 176.554 447.421 177.066 447.208C177.589 446.984 178.16 446.872 178.778 446.872C179.888 446.872 180.746 447.165 181.354 447.752C181.962 448.328 182.266 449.117 182.266 450.12V455H180.794L180.65 453.64C180.426 454.077 180.101 454.445 179.674 454.744C179.248 455.043 178.688 455.192 177.994 455.192ZM178.33 453.816C178.789 453.816 179.173 453.709 179.482 453.496C179.802 453.272 180.048 452.979 180.218 452.616C180.4 452.253 180.512 451.853 180.554 451.416H178.666C177.994 451.416 177.514 451.533 177.226 451.768C176.949 452.003 176.81 452.296 176.81 452.648C176.81 453.011 176.944 453.299 177.21 453.512C177.488 453.715 177.861 453.816 178.33 453.816Z" fill="#979797"/>
<path d="M186.202 455L183.226 447.064H185.002L187.21 453.384L189.418 447.064H191.178L188.218 455H186.202Z" fill="#979797"/>
<path d="M195.878 455.192C195.099 455.192 194.406 455.021 193.798 454.68C193.2 454.328 192.731 453.843 192.39 453.224C192.048 452.605 191.878 451.885 191.878 451.064C191.878 450.232 192.043 449.501 192.374 448.872C192.715 448.243 193.184 447.752 193.782 447.4C194.39 447.048 195.094 446.872 195.894 446.872C196.672 446.872 197.35 447.048 197.926 447.4C198.502 447.741 198.95 448.2 199.27 448.776C199.59 449.352 199.75 449.987 199.75 450.68C199.75 450.787 199.744 450.904 199.734 451.032C199.734 451.149 199.728 451.283 199.718 451.432H193.542C193.595 452.2 193.846 452.787 194.294 453.192C194.752 453.587 195.28 453.784 195.878 453.784C196.358 453.784 196.758 453.677 197.078 453.464C197.408 453.24 197.654 452.941 197.814 452.568H199.51C199.296 453.315 198.87 453.939 198.23 454.44C197.6 454.941 196.816 455.192 195.878 455.192ZM195.878 448.264C195.312 448.264 194.811 448.435 194.374 448.776C193.936 449.107 193.67 449.608 193.574 450.28H198.054C198.022 449.661 197.803 449.171 197.398 448.808C196.992 448.445 196.486 448.264 195.878 448.264Z" fill="#979797"/>
<path d="M205.541 455V447.064H207.045L207.173 448.456C207.418 447.965 207.775 447.581 208.245 447.304C208.725 447.016 209.274 446.872 209.893 446.872C210.853 446.872 211.605 447.171 212.149 447.768C212.703 448.365 212.981 449.256 212.981 450.44V455H211.301V450.616C211.301 449.08 210.671 448.312 209.413 448.312C208.783 448.312 208.261 448.536 207.845 448.984C207.439 449.432 207.237 450.072 207.237 450.904V455H205.541Z" fill="#979797"/>
<path d="M218.69 455.192C217.933 455.192 217.25 455.021 216.642 454.68C216.045 454.328 215.57 453.843 215.218 453.224C214.866 452.595 214.69 451.864 214.69 451.032C214.69 450.2 214.866 449.475 215.218 448.856C215.581 448.227 216.066 447.741 216.674 447.4C217.282 447.048 217.96 446.872 218.706 446.872C219.464 446.872 220.141 447.048 220.738 447.4C221.346 447.741 221.826 448.227 222.178 448.856C222.541 449.475 222.722 450.2 222.722 451.032C222.722 451.864 222.541 452.595 222.178 453.224C221.826 453.843 221.346 454.328 220.738 454.68C220.13 455.021 219.448 455.192 218.69 455.192ZM218.69 453.736C219.096 453.736 219.469 453.635 219.81 453.432C220.162 453.229 220.445 452.931 220.658 452.536C220.872 452.131 220.978 451.629 220.978 451.032C220.978 450.435 220.872 449.939 220.658 449.544C220.456 449.139 220.178 448.835 219.826 448.632C219.485 448.429 219.112 448.328 218.706 448.328C218.301 448.328 217.922 448.429 217.57 448.632C217.229 448.835 216.952 449.139 216.738 449.544C216.525 449.939 216.418 450.435 216.418 451.032C216.418 451.629 216.525 452.131 216.738 452.536C216.952 452.931 217.229 453.229 217.57 453.432C217.912 453.635 218.285 453.736 218.69 453.736Z" fill="#979797"/>
<path d="M231.916 455C231.137 455 230.518 454.813 230.06 454.44C229.601 454.056 229.372 453.379 229.372 452.408V448.488H228.012V447.064H229.372L229.58 445.048H231.068V447.064H233.308V448.488H231.068V452.408C231.068 452.845 231.158 453.149 231.34 453.32C231.532 453.48 231.857 453.56 232.316 453.56H233.228V455H231.916Z" fill="#979797"/>
<path d="M238.565 455.192C237.808 455.192 237.125 455.021 236.517 454.68C235.92 454.328 235.445 453.843 235.093 453.224C234.741 452.595 234.565 451.864 234.565 451.032C234.565 450.2 234.741 449.475 235.093 448.856C235.456 448.227 235.941 447.741 236.549 447.4C237.157 447.048 237.835 446.872 238.581 446.872C239.339 446.872 240.016 447.048 240.613 447.4C241.221 447.741 241.701 448.227 242.053 448.856C242.416 449.475 242.597 450.2 242.597 451.032C242.597 451.864 242.416 452.595 242.053 453.224C241.701 453.843 241.221 454.328 240.613 454.68C240.005 455.021 239.323 455.192 238.565 455.192ZM238.565 453.736C238.971 453.736 239.344 453.635 239.685 453.432C240.037 453.229 240.32 452.931 240.533 452.536C240.747 452.131 240.853 451.629 240.853 451.032C240.853 450.435 240.747 449.939 240.533 449.544C240.331 449.139 240.053 448.835 239.701 448.632C239.36 448.429 238.987 448.328 238.581 448.328C238.176 448.328 237.797 448.429 237.445 448.632C237.104 448.835 236.827 449.139 236.613 449.544C236.4 449.939 236.293 450.435 236.293 451.032C236.293 451.629 236.4 452.131 236.613 452.536C236.827 452.931 237.104 453.229 237.445 453.432C237.787 453.635 238.16 453.736 238.565 453.736Z" fill="#979797"/>
<path d="M244.431 455V443.48H246.127V455H244.431Z" fill="#979797"/>
<path d="M251.987 455.192C251.208 455.192 250.515 455.021 249.907 454.68C249.31 454.328 248.84 453.843 248.499 453.224C248.158 452.605 247.987 451.885 247.987 451.064C247.987 450.232 248.152 449.501 248.483 448.872C248.824 448.243 249.294 447.752 249.891 447.4C250.499 447.048 251.203 446.872 252.003 446.872C252.782 446.872 253.459 447.048 254.035 447.4C254.611 447.741 255.059 448.2 255.379 448.776C255.699 449.352 255.859 449.987 255.859 450.68C255.859 450.787 255.854 450.904 255.843 451.032C255.843 451.149 255.838 451.283 255.827 451.432H249.651C249.704 452.2 249.955 452.787 250.403 453.192C250.862 453.587 251.39 453.784 251.987 453.784C252.467 453.784 252.867 453.677 253.187 453.464C253.518 453.24 253.763 452.941 253.923 452.568H255.619C255.406 453.315 254.979 453.939 254.339 454.44C253.71 454.941 252.926 455.192 251.987 455.192ZM251.987 448.264C251.422 448.264 250.92 448.435 250.483 448.776C250.046 449.107 249.779 449.608 249.683 450.28H254.163C254.131 449.661 253.912 449.171 253.507 448.808C253.102 448.445 252.595 448.264 251.987 448.264Z" fill="#979797"/>
<path d="M257.619 455V447.064H259.139L259.283 448.568C259.56 448.045 259.944 447.635 260.435 447.336C260.936 447.027 261.539 446.872 262.243 446.872V448.648H261.779C261.31 448.648 260.888 448.728 260.515 448.888C260.152 449.037 259.859 449.299 259.635 449.672C259.422 450.035 259.315 450.541 259.315 451.192V455H257.619Z" fill="#979797"/>
<path d="M266.385 455.192C265.713 455.192 265.158 455.08 264.721 454.856C264.284 454.632 263.958 454.339 263.745 453.976C263.532 453.603 263.425 453.197 263.425 452.76C263.425 451.992 263.724 451.384 264.321 450.936C264.918 450.488 265.772 450.264 266.881 450.264H268.961V450.12C268.961 449.501 268.79 449.037 268.449 448.728C268.118 448.419 267.686 448.264 267.153 448.264C266.684 448.264 266.273 448.381 265.921 448.616C265.58 448.84 265.372 449.176 265.297 449.624H263.601C263.654 449.048 263.846 448.557 264.177 448.152C264.518 447.736 264.945 447.421 265.457 447.208C265.98 446.984 266.55 446.872 267.169 446.872C268.278 446.872 269.137 447.165 269.745 447.752C270.353 448.328 270.657 449.117 270.657 450.12V455H269.185L269.041 453.64C268.817 454.077 268.492 454.445 268.065 454.744C267.638 455.043 267.078 455.192 266.385 455.192ZM266.721 453.816C267.18 453.816 267.564 453.709 267.873 453.496C268.193 453.272 268.438 452.979 268.609 452.616C268.79 452.253 268.902 451.853 268.945 451.416H267.057C266.385 451.416 265.905 451.533 265.617 451.768C265.34 452.003 265.201 452.296 265.201 452.648C265.201 453.011 265.334 453.299 265.601 453.512C265.878 453.715 266.252 453.816 266.721 453.816Z" fill="#979797"/>
<path d="M272.634 455V447.064H274.138L274.266 448.456C274.512 447.965 274.869 447.581 275.338 447.304C275.818 447.016 276.368 446.872 276.986 446.872C277.946 446.872 278.698 447.171 279.242 447.768C279.797 448.365 280.074 449.256 280.074 450.44V455H278.394V450.616C278.394 449.08 277.765 448.312 276.506 448.312C275.877 448.312 275.354 448.536 274.938 448.984C274.533 449.432 274.33 450.072 274.33 450.904V455H272.634Z" fill="#979797"/>
<path d="M285.832 455.192C285.053 455.192 284.355 455.016 283.736 454.664C283.128 454.312 282.648 453.827 282.296 453.208C281.955 452.579 281.784 451.853 281.784 451.032C281.784 450.211 281.955 449.491 282.296 448.872C282.648 448.243 283.128 447.752 283.736 447.4C284.355 447.048 285.053 446.872 285.832 446.872C286.813 446.872 287.635 447.128 288.296 447.64C288.968 448.152 289.4 448.845 289.592 449.72H287.816C287.709 449.283 287.475 448.941 287.112 448.696C286.749 448.451 286.323 448.328 285.832 448.328C285.416 448.328 285.032 448.435 284.68 448.648C284.328 448.851 284.045 449.155 283.832 449.56C283.619 449.955 283.512 450.445 283.512 451.032C283.512 451.619 283.619 452.115 283.832 452.52C284.045 452.915 284.328 453.219 284.68 453.432C285.032 453.645 285.416 453.752 285.832 453.752C286.323 453.752 286.749 453.629 287.112 453.384C287.475 453.139 287.709 452.792 287.816 452.344H289.592C289.411 453.197 288.984 453.885 288.312 454.408C287.64 454.931 286.813 455.192 285.832 455.192Z" fill="#979797"/>
<path d="M295.143 455.192C294.365 455.192 293.671 455.021 293.063 454.68C292.466 454.328 291.997 453.843 291.655 453.224C291.314 452.605 291.143 451.885 291.143 451.064C291.143 450.232 291.309 449.501 291.639 448.872C291.981 448.243 292.45 447.752 293.047 447.4C293.655 447.048 294.359 446.872 295.159 446.872C295.938 446.872 296.615 447.048 297.191 447.4C297.767 447.741 298.215 448.2 298.535 448.776C298.855 449.352 299.015 449.987 299.015 450.68C299.015 450.787 299.01 450.904 298.999 451.032C298.999 451.149 298.994 451.283 298.983 451.432H292.807C292.861 452.2 293.111 452.787 293.559 453.192C294.018 453.587 294.546 453.784 295.143 453.784C295.623 453.784 296.023 453.677 296.343 453.464C296.674 453.24 296.919 452.941 297.079 452.568H298.775C298.562 453.315 298.135 453.939 297.495 454.44C296.866 454.941 296.082 455.192 295.143 455.192ZM295.143 448.264C294.578 448.264 294.077 448.435 293.639 448.776C293.202 449.107 292.935 449.608 292.839 450.28H297.319C297.287 449.661 297.069 449.171 296.663 448.808C296.258 448.445 295.751 448.264 295.143 448.264Z" fill="#979797"/>
<path d="M82.0579 476V469.488H80.9219V468.064H82.0579V466.912C82.0579 466.048 82.2713 465.429 82.6979 465.056C83.1353 464.672 83.7486 464.48 84.5379 464.48H85.3699V465.92H84.7939C84.4206 465.92 84.1539 466 83.9939 466.16C83.8339 466.309 83.7539 466.565 83.7539 466.928V468.064H85.5779V469.488H83.7539V476H82.0579Z" fill="#979797"/>
<path d="M90.5887 476.192C89.8313 476.192 89.1487 476.021 88.5407 475.68C87.9433 475.328 87.4687 474.843 87.1167 474.224C86.7647 473.595 86.5887 472.864 86.5887 472.032C86.5887 471.2 86.7647 470.475 87.1167 469.856C87.4793 469.227 87.9647 468.741 88.5727 468.4C89.1807 468.048 89.858 467.872 90.6047 467.872C91.362 467.872 92.0393 468.048 92.6367 468.4C93.2447 468.741 93.7247 469.227 94.0767 469.856C94.4393 470.475 94.6207 471.2 94.6207 472.032C94.6207 472.864 94.4393 473.595 94.0767 474.224C93.7247 474.843 93.2447 475.328 92.6367 475.68C92.0287 476.021 91.346 476.192 90.5887 476.192ZM90.5887 474.736C90.994 474.736 91.3673 474.635 91.7087 474.432C92.0607 474.229 92.3433 473.931 92.5567 473.536C92.77 473.131 92.8767 472.629 92.8767 472.032C92.8767 471.435 92.77 470.939 92.5567 470.544C92.354 470.139 92.0767 469.835 91.7247 469.632C91.3833 469.429 91.01 469.328 90.6047 469.328C90.1993 469.328 89.8207 469.429 89.4687 469.632C89.1273 469.835 88.85 470.139 88.6367 470.544C88.4233 470.939 88.3167 471.435 88.3167 472.032C88.3167 472.629 88.4233 473.131 88.6367 473.536C88.85 473.931 89.1273 474.229 89.4687 474.432C89.81 474.635 90.1833 474.736 90.5887 474.736Z" fill="#979797"/>
<path d="M96.4548 476V468.064H97.9748L98.1188 469.568C98.3961 469.045 98.7801 468.635 99.2708 468.336C99.7721 468.027 100.375 467.872 101.079 467.872V469.648H100.615C100.145 469.648 99.7241 469.728 99.3508 469.888C98.9881 470.037 98.6948 470.299 98.4708 470.672C98.2575 471.035 98.1508 471.541 98.1508 472.192V476H96.4548Z" fill="#979797"/>
<path d="M107.524 466.56C107.204 466.56 106.938 466.464 106.724 466.272C106.522 466.069 106.42 465.819 106.42 465.52C106.42 465.221 106.522 464.976 106.724 464.784C106.938 464.581 107.204 464.48 107.524 464.48C107.844 464.48 108.106 464.581 108.308 464.784C108.522 464.976 108.628 465.221 108.628 465.52C108.628 465.819 108.522 466.069 108.308 466.272C108.106 466.464 107.844 466.56 107.524 466.56ZM106.676 476V468.064H108.372V476H106.676Z" fill="#979797"/>
<path d="M110.611 476V468.064H112.115L112.243 469.456C112.488 468.965 112.846 468.581 113.315 468.304C113.795 468.016 114.344 467.872 114.963 467.872C115.923 467.872 116.675 468.171 117.219 468.768C117.774 469.365 118.051 470.256 118.051 471.44V476H116.371V471.616C116.371 470.08 115.742 469.312 114.483 469.312C113.854 469.312 113.331 469.536 112.915 469.984C112.51 470.432 112.307 471.072 112.307 471.904V476H110.611Z" fill="#979797"/>
<path d="M122.737 476.192C122.065 476.192 121.51 476.08 121.073 475.856C120.635 475.632 120.31 475.339 120.097 474.976C119.883 474.603 119.777 474.197 119.777 473.76C119.777 472.992 120.075 472.384 120.673 471.936C121.27 471.488 122.123 471.264 123.233 471.264H125.313V471.12C125.313 470.501 125.142 470.037 124.801 469.728C124.47 469.419 124.038 469.264 123.505 469.264C123.035 469.264 122.625 469.381 122.273 469.616C121.931 469.84 121.723 470.176 121.649 470.624H119.953C120.006 470.048 120.198 469.557 120.529 469.152C120.87 468.736 121.297 468.421 121.809 468.208C122.331 467.984 122.902 467.872 123.521 467.872C124.63 467.872 125.489 468.165 126.097 468.752C126.705 469.328 127.009 470.117 127.009 471.12V476H125.537L125.393 474.64C125.169 475.077 124.843 475.445 124.417 475.744C123.99 476.043 123.43 476.192 122.737 476.192ZM123.073 474.816C123.531 474.816 123.915 474.709 124.225 474.496C124.545 474.272 124.79 473.979 124.961 473.616C125.142 473.253 125.254 472.853 125.297 472.416H123.409C122.737 472.416 122.257 472.533 121.969 472.768C121.691 473.003 121.553 473.296 121.553 473.648C121.553 474.011 121.686 474.299 121.953 474.512C122.23 474.715 122.603 474.816 123.073 474.816Z" fill="#979797"/>
<path d="M128.986 479.52V468.064H130.506L130.682 469.296C130.938 468.923 131.29 468.592 131.738 468.304C132.186 468.016 132.762 467.872 133.466 467.872C134.234 467.872 134.911 468.053 135.498 468.416C136.085 468.779 136.543 469.275 136.874 469.904C137.215 470.533 137.386 471.248 137.386 472.048C137.386 472.848 137.215 473.563 136.874 474.192C136.543 474.811 136.085 475.301 135.498 475.664C134.911 476.016 134.229 476.192 133.45 476.192C132.831 476.192 132.282 476.069 131.802 475.824C131.333 475.579 130.959 475.232 130.682 474.784V479.52H128.986ZM133.162 474.72C133.887 474.72 134.485 474.475 134.954 473.984C135.423 473.483 135.658 472.832 135.658 472.032C135.658 471.509 135.551 471.045 135.338 470.64C135.125 470.235 134.831 469.92 134.458 469.696C134.085 469.461 133.653 469.344 133.162 469.344C132.437 469.344 131.839 469.595 131.37 470.096C130.911 470.597 130.682 471.243 130.682 472.032C130.682 472.832 130.911 473.483 131.37 473.984C131.839 474.475 132.437 474.72 133.162 474.72Z" fill="#979797"/>
<path d="M139.22 479.52V468.064H140.74L140.916 469.296C141.172 468.923 141.524 468.592 141.972 468.304C142.42 468.016 142.996 467.872 143.7 467.872C144.468 467.872 145.146 468.053 145.732 468.416C146.319 468.779 146.778 469.275 147.108 469.904C147.45 470.533 147.62 471.248 147.62 472.048C147.62 472.848 147.45 473.563 147.108 474.192C146.778 474.811 146.319 475.301 145.732 475.664C145.146 476.016 144.463 476.192 143.684 476.192C143.066 476.192 142.516 476.069 142.036 475.824C141.567 475.579 141.194 475.232 140.916 474.784V479.52H139.22ZM143.396 474.72C144.122 474.72 144.719 474.475 145.188 473.984C145.658 473.483 145.892 472.832 145.892 472.032C145.892 471.509 145.786 471.045 145.572 470.64C145.359 470.235 145.066 469.92 144.692 469.696C144.319 469.461 143.887 469.344 143.396 469.344C142.671 469.344 142.074 469.595 141.604 470.096C141.146 470.597 140.916 471.243 140.916 472.032C140.916 472.832 141.146 473.483 141.604 473.984C142.074 474.475 142.671 474.72 143.396 474.72Z" fill="#979797"/>
<path d="M149.455 476V468.064H150.975L151.119 469.568C151.396 469.045 151.78 468.635 152.271 468.336C152.772 468.027 153.375 467.872 154.079 467.872V469.648H153.615C153.145 469.648 152.724 469.728 152.351 469.888C151.988 470.037 151.695 470.299 151.471 470.672C151.257 471.035 151.151 471.541 151.151 472.192V476H149.455Z" fill="#979797"/>
<path d="M159.026 476.192C158.269 476.192 157.586 476.021 156.978 475.68C156.381 475.328 155.906 474.843 155.554 474.224C155.202 473.595 155.026 472.864 155.026 472.032C155.026 471.2 155.202 470.475 155.554 469.856C155.917 469.227 156.402 468.741 157.01 468.4C157.618 468.048 158.296 467.872 159.042 467.872C159.8 467.872 160.477 468.048 161.074 468.4C161.682 468.741 162.162 469.227 162.514 469.856C162.877 470.475 163.058 471.2 163.058 472.032C163.058 472.864 162.877 473.595 162.514 474.224C162.162 474.843 161.682 475.328 161.074 475.68C160.466 476.021 159.784 476.192 159.026 476.192ZM159.026 474.736C159.432 474.736 159.805 474.635 160.146 474.432C160.498 474.229 160.781 473.931 160.994 473.536C161.208 473.131 161.314 472.629 161.314 472.032C161.314 471.435 161.208 470.939 160.994 470.544C160.792 470.139 160.514 469.835 160.162 469.632C159.821 469.429 159.448 469.328 159.042 469.328C158.637 469.328 158.258 469.429 157.906 469.632C157.565 469.835 157.288 470.139 157.074 470.544C156.861 470.939 156.754 471.435 156.754 472.032C156.754 472.629 156.861 473.131 157.074 473.536C157.288 473.931 157.565 474.229 157.906 474.432C158.248 474.635 158.621 474.736 159.026 474.736Z" fill="#979797"/>
<path d="M164.892 479.52V468.064H166.412L166.588 469.296C166.844 468.923 167.196 468.592 167.644 468.304C168.092 468.016 168.668 467.872 169.372 467.872C170.14 467.872 170.818 468.053 171.404 468.416C171.991 468.779 172.45 469.275 172.78 469.904C173.122 470.533 173.292 471.248 173.292 472.048C173.292 472.848 173.122 473.563 172.78 474.192C172.45 474.811 171.991 475.301 171.404 475.664C170.818 476.016 170.135 476.192 169.356 476.192C168.738 476.192 168.188 476.069 167.708 475.824C167.239 475.579 166.866 475.232 166.588 474.784V479.52H164.892ZM169.068 474.72C169.794 474.72 170.391 474.475 170.86 473.984C171.33 473.483 171.564 472.832 171.564 472.032C171.564 471.509 171.458 471.045 171.244 470.64C171.031 470.235 170.738 469.92 170.364 469.696C169.991 469.461 169.559 469.344 169.068 469.344C168.343 469.344 167.746 469.595 167.276 470.096C166.818 470.597 166.588 471.243 166.588 472.032C166.588 472.832 166.818 473.483 167.276 473.984C167.746 474.475 168.343 474.72 169.068 474.72Z" fill="#979797"/>
<path d="M175.127 476V468.064H176.647L176.791 469.568C177.068 469.045 177.452 468.635 177.943 468.336C178.444 468.027 179.047 467.872 179.751 467.872V469.648H179.287C178.817 469.648 178.396 469.728 178.023 469.888C177.66 470.037 177.367 470.299 177.143 470.672C176.929 471.035 176.823 471.541 176.823 472.192V476H175.127Z" fill="#979797"/>
<path d="M182.165 466.56C181.845 466.56 181.578 466.464 181.365 466.272C181.162 466.069 181.061 465.819 181.061 465.52C181.061 465.221 181.162 464.976 181.365 464.784C181.578 464.581 181.845 464.48 182.165 464.48C182.485 464.48 182.746 464.581 182.949 464.784C183.162 464.976 183.269 465.221 183.269 465.52C183.269 465.819 183.162 466.069 182.949 466.272C182.746 466.464 182.485 466.56 182.165 466.56ZM181.317 476V468.064H183.013V476H181.317Z" fill="#979797"/>
<path d="M187.94 476.192C187.268 476.192 186.713 476.08 186.276 475.856C185.838 475.632 185.513 475.339 185.3 474.976C185.086 474.603 184.98 474.197 184.98 473.76C184.98 472.992 185.278 472.384 185.876 471.936C186.473 471.488 187.326 471.264 188.436 471.264H190.516V471.12C190.516 470.501 190.345 470.037 190.004 469.728C189.673 469.419 189.241 469.264 188.708 469.264C188.238 469.264 187.828 469.381 187.476 469.616C187.134 469.84 186.926 470.176 186.852 470.624H185.156C185.209 470.048 185.401 469.557 185.732 469.152C186.073 468.736 186.5 468.421 187.012 468.208C187.534 467.984 188.105 467.872 188.724 467.872C189.833 467.872 190.692 468.165 191.3 468.752C191.908 469.328 192.212 470.117 192.212 471.12V476H190.74L190.596 474.64C190.372 475.077 190.046 475.445 189.62 475.744C189.193 476.043 188.633 476.192 187.94 476.192ZM188.276 474.816C188.734 474.816 189.118 474.709 189.428 474.496C189.748 474.272 189.993 473.979 190.164 473.616C190.345 473.253 190.457 472.853 190.5 472.416H188.612C187.94 472.416 187.46 472.533 187.172 472.768C186.894 473.003 186.756 473.296 186.756 473.648C186.756 474.011 186.889 474.299 187.156 474.512C187.433 474.715 187.806 474.816 188.276 474.816Z" fill="#979797"/>
<path d="M197.361 476C196.582 476 195.964 475.813 195.505 475.44C195.046 475.056 194.817 474.379 194.817 473.408V469.488H193.457V468.064H194.817L195.025 466.048H196.513V468.064H198.753V469.488H196.513V473.408C196.513 473.845 196.604 474.149 196.785 474.32C196.977 474.48 197.302 474.56 197.761 474.56H198.673V476H197.361Z" fill="#979797"/>
<path d="M204.011 476.192C203.232 476.192 202.539 476.021 201.931 475.68C201.333 475.328 200.864 474.843 200.523 474.224C200.181 473.605 200.011 472.885 200.011 472.064C200.011 471.232 200.176 470.501 200.507 469.872C200.848 469.243 201.317 468.752 201.915 468.4C202.523 468.048 203.227 467.872 204.027 467.872C204.805 467.872 205.483 468.048 206.059 468.4C206.635 468.741 207.083 469.2 207.403 469.776C207.723 470.352 207.883 470.987 207.883 471.68C207.883 471.787 207.877 471.904 207.867 472.032C207.867 472.149 207.861 472.283 207.851 472.432H201.675C201.728 473.2 201.979 473.787 202.427 474.192C202.885 474.587 203.413 474.784 204.011 474.784C204.491 474.784 204.891 474.677 205.211 474.464C205.541 474.24 205.787 473.941 205.947 473.568H207.643C207.429 474.315 207.003 474.939 206.363 475.44C205.733 475.941 204.949 476.192 204.011 476.192ZM204.011 469.264C203.445 469.264 202.944 469.435 202.507 469.776C202.069 470.107 201.803 470.608 201.707 471.28H206.187C206.155 470.661 205.936 470.171 205.531 469.808C205.125 469.445 204.619 469.264 204.011 469.264Z" fill="#979797"/>
<path d="M218.138 476.192C217.519 476.192 216.97 476.069 216.49 475.824C216.02 475.579 215.647 475.232 215.37 474.784L215.194 476H213.674V464.48H215.37V469.296C215.626 468.923 215.978 468.592 216.426 468.304C216.874 468.016 217.45 467.872 218.154 467.872C218.922 467.872 219.599 468.053 220.186 468.416C220.772 468.779 221.231 469.275 221.562 469.904C221.903 470.533 222.074 471.248 222.074 472.048C222.074 472.848 221.903 473.563 221.562 474.192C221.231 474.811 220.772 475.301 220.186 475.664C219.599 476.016 218.916 476.192 218.138 476.192ZM217.85 474.72C218.575 474.72 219.172 474.475 219.642 473.984C220.111 473.483 220.346 472.832 220.346 472.032C220.346 471.509 220.239 471.045 220.026 470.64C219.812 470.235 219.519 469.92 219.146 469.696C218.772 469.461 218.34 469.344 217.85 469.344C217.124 469.344 216.527 469.595 216.058 470.096C215.599 470.597 215.37 471.243 215.37 472.032C215.37 472.832 215.599 473.483 216.058 473.984C216.527 474.475 217.124 474.72 217.85 474.72Z" fill="#979797"/>
<path d="M227.62 476.192C226.841 476.192 226.148 476.021 225.54 475.68C224.943 475.328 224.473 474.843 224.132 474.224C223.791 473.605 223.62 472.885 223.62 472.064C223.62 471.232 223.785 470.501 224.116 469.872C224.457 469.243 224.927 468.752 225.524 468.4C226.132 468.048 226.836 467.872 227.636 467.872C228.415 467.872 229.092 468.048 229.668 468.4C230.244 468.741 230.692 469.2 231.012 469.776C231.332 470.352 231.492 470.987 231.492 471.68C231.492 471.787 231.487 471.904 231.476 472.032C231.476 472.149 231.471 472.283 231.46 472.432H225.284C225.337 473.2 225.588 473.787 226.036 474.192C226.495 474.587 227.023 474.784 227.62 474.784C228.1 474.784 228.5 474.677 228.82 474.464C229.151 474.24 229.396 473.941 229.556 473.568H231.252C231.039 474.315 230.612 474.939 229.972 475.44C229.343 475.941 228.559 476.192 227.62 476.192ZM227.62 469.264C227.055 469.264 226.553 469.435 226.116 469.776C225.679 470.107 225.412 470.608 225.316 471.28H229.796C229.764 470.661 229.545 470.171 229.14 469.808C228.735 469.445 228.228 469.264 227.62 469.264Z" fill="#979797"/>
<path d="M233.252 476V464.48H234.948V469.344C235.214 468.885 235.582 468.528 236.052 468.272C236.532 468.005 237.06 467.872 237.636 467.872C238.585 467.872 239.332 468.171 239.876 468.768C240.42 469.365 240.692 470.256 240.692 471.44V476H239.012V471.616C239.012 470.08 238.398 469.312 237.172 469.312C236.532 469.312 235.998 469.536 235.572 469.984C235.156 470.432 234.948 471.072 234.948 471.904V476H233.252Z" fill="#979797"/>
<path d="M245.377 476.192C244.705 476.192 244.15 476.08 243.713 475.856C243.276 475.632 242.951 475.339 242.737 474.976C242.524 474.603 242.417 474.197 242.417 473.76C242.417 472.992 242.716 472.384 243.313 471.936C243.911 471.488 244.764 471.264 245.873 471.264H247.953V471.12C247.953 470.501 247.783 470.037 247.441 469.728C247.111 469.419 246.679 469.264 246.145 469.264C245.676 469.264 245.265 469.381 244.913 469.616C244.572 469.84 244.364 470.176 244.289 470.624H242.593C242.646 470.048 242.839 469.557 243.169 469.152C243.511 468.736 243.937 468.421 244.449 468.208C244.972 467.984 245.543 467.872 246.161 467.872C247.271 467.872 248.129 468.165 248.737 468.752C249.345 469.328 249.649 470.117 249.649 471.12V476H248.177L248.033 474.64C247.809 475.077 247.484 475.445 247.057 475.744C246.631 476.043 246.07 476.192 245.377 476.192ZM245.713 474.816C246.172 474.816 246.556 474.709 246.865 474.496C247.185 474.272 247.43 473.979 247.601 473.616C247.783 473.253 247.895 472.853 247.937 472.416H246.049C245.377 472.416 244.897 472.533 244.609 472.768C244.332 473.003 244.193 473.296 244.193 473.648C244.193 474.011 244.327 474.299 244.593 474.512C244.87 474.715 245.244 474.816 245.713 474.816Z" fill="#979797"/>
<path d="M253.585 476L250.609 468.064H252.385L254.593 474.384L256.801 468.064H258.561L255.601 476H253.585Z" fill="#979797"/>
<path d="M260.915 466.56C260.595 466.56 260.328 466.464 260.115 466.272C259.912 466.069 259.811 465.819 259.811 465.52C259.811 465.221 259.912 464.976 260.115 464.784C260.328 464.581 260.595 464.48 260.915 464.48C261.235 464.48 261.496 464.581 261.699 464.784C261.912 464.976 262.019 465.221 262.019 465.52C262.019 465.819 261.912 466.069 261.699 466.272C261.496 466.464 261.235 466.56 260.915 466.56ZM260.067 476V468.064H261.763V476H260.067Z" fill="#979797"/>
<path d="M267.714 476.192C266.956 476.192 266.274 476.021 265.666 475.68C265.068 475.328 264.594 474.843 264.242 474.224C263.89 473.595 263.714 472.864 263.714 472.032C263.714 471.2 263.89 470.475 264.242 469.856C264.604 469.227 265.09 468.741 265.698 468.4C266.306 468.048 266.983 467.872 267.73 467.872C268.487 467.872 269.164 468.048 269.762 468.4C270.37 468.741 270.85 469.227 271.202 469.856C271.564 470.475 271.746 471.2 271.746 472.032C271.746 472.864 271.564 473.595 271.202 474.224C270.85 474.843 270.37 475.328 269.762 475.68C269.154 476.021 268.471 476.192 267.714 476.192ZM267.714 474.736C268.119 474.736 268.492 474.635 268.834 474.432C269.186 474.229 269.468 473.931 269.682 473.536C269.895 473.131 270.002 472.629 270.002 472.032C270.002 471.435 269.895 470.939 269.682 470.544C269.479 470.139 269.202 469.835 268.85 469.632C268.508 469.429 268.135 469.328 267.73 469.328C267.324 469.328 266.946 469.429 266.594 469.632C266.252 469.835 265.975 470.139 265.762 470.544C265.548 470.939 265.442 471.435 265.442 472.032C265.442 472.629 265.548 473.131 265.762 473.536C265.975 473.931 266.252 474.229 266.594 474.432C266.935 474.635 267.308 474.736 267.714 474.736Z" fill="#979797"/>
<path d="M273.58 476V468.064H275.1L275.244 469.568C275.521 469.045 275.905 468.635 276.396 468.336C276.897 468.027 277.5 467.872 278.204 467.872V469.648H277.74C277.27 469.648 276.849 469.728 276.476 469.888C276.113 470.037 275.82 470.299 275.596 470.672C275.382 471.035 275.276 471.541 275.276 472.192V476H273.58Z" fill="#979797"/>
<path d="M279.689 476.096C279.369 476.096 279.103 475.995 278.889 475.792C278.687 475.579 278.585 475.328 278.585 475.04C278.585 474.741 278.687 474.491 278.889 474.288C279.103 474.075 279.369 473.968 279.689 473.968C280.009 473.968 280.271 474.075 280.473 474.288C280.676 474.491 280.777 474.741 280.777 475.04C280.777 475.328 280.676 475.579 280.473 475.792C280.271 475.995 280.009 476.096 279.689 476.096Z" fill="#979797"/>
<path d="M116.766 407.12C115.662 407.12 114.614 406.896 113.622 406.448C112.646 406 111.782 405.384 111.03 404.6C110.294 403.8 109.718 402.872 109.302 401.816C108.886 400.76 108.678 399.616 108.678 398.384C108.678 397.216 108.886 396.12 109.302 395.096C109.718 394.056 110.302 393.144 111.054 392.36C111.806 391.576 112.686 390.96 113.694 390.512C114.702 390.064 115.798 389.84 116.982 389.84C118.582 389.84 119.95 390.184 121.086 390.872C122.238 391.544 123.102 392.44 123.678 393.56L121.206 395.384C120.774 394.536 120.166 393.888 119.382 393.44C118.614 392.992 117.774 392.768 116.862 392.768C116.142 392.768 115.486 392.92 114.894 393.224C114.302 393.528 113.79 393.944 113.358 394.472C112.926 395 112.59 395.608 112.35 396.296C112.126 396.984 112.014 397.712 112.014 398.48C112.014 399.296 112.134 400.048 112.374 400.736C112.63 401.424 112.982 402.024 113.43 402.536C113.894 403.048 114.43 403.456 115.038 403.76C115.646 404.048 116.318 404.192 117.054 404.192C117.918 404.192 118.742 403.968 119.526 403.52C120.326 403.072 121.07 402.416 121.758 401.552V404.816C120.334 406.352 118.67 407.12 116.766 407.12ZM121.518 400.664H118.086V398.24H124.254V407H121.518V400.664Z" fill="black"/>
<path d="M132.573 407.24C131.549 407.24 130.629 407.072 129.813 406.736C128.997 406.384 128.301 405.904 127.725 405.296C127.165 404.688 126.733 403.992 126.429 403.208C126.125 402.424 125.973 401.6 125.973 400.736C125.973 399.856 126.125 399.024 126.429 398.24C126.733 397.456 127.165 396.76 127.725 396.152C128.301 395.544 128.997 395.072 129.813 394.736C130.629 394.384 131.549 394.208 132.573 394.208C133.597 394.208 134.509 394.384 135.309 394.736C136.125 395.072 136.821 395.544 137.397 396.152C137.973 396.76 138.405 397.456 138.693 398.24C138.997 399.024 139.149 399.856 139.149 400.736C139.149 401.6 138.997 402.424 138.693 403.208C138.405 403.992 137.973 404.688 137.397 405.296C136.837 405.904 136.149 406.384 135.333 406.736C134.517 407.072 133.597 407.24 132.573 407.24ZM129.285 400.736C129.285 401.472 129.429 402.128 129.717 402.704C130.005 403.264 130.397 403.704 130.893 404.024C131.389 404.344 131.949 404.504 132.573 404.504C133.181 404.504 133.733 404.344 134.229 404.024C134.725 403.688 135.117 403.24 135.405 402.68C135.709 402.104 135.861 401.448 135.861 400.712C135.861 399.992 135.709 399.344 135.405 398.768C135.117 398.192 134.725 397.744 134.229 397.424C133.733 397.104 133.181 396.944 132.573 396.944C131.949 396.944 131.389 397.112 130.893 397.448C130.397 397.768 130.005 398.216 129.717 398.792C129.429 399.352 129.285 400 129.285 400.736Z" fill="black"/>
<path d="M152.893 407.24C151.869 407.24 150.949 407.072 150.133 406.736C149.317 406.384 148.621 405.904 148.045 405.296C147.485 404.688 147.053 403.992 146.749 403.208C146.445 402.424 146.293 401.6 146.293 400.736C146.293 399.856 146.445 399.024 146.749 398.24C147.053 397.456 147.485 396.76 148.045 396.152C148.621 395.544 149.317 395.072 150.133 394.736C150.949 394.384 151.869 394.208 152.893 394.208C153.917 394.208 154.829 394.384 155.629 394.736C156.445 395.072 157.141 395.544 157.717 396.152C158.293 396.76 158.725 397.456 159.013 398.24C159.317 399.024 159.469 399.856 159.469 400.736C159.469 401.6 159.317 402.424 159.013 403.208C158.725 403.992 158.293 404.688 157.717 405.296C157.157 405.904 156.469 406.384 155.653 406.736C154.837 407.072 153.917 407.24 152.893 407.24ZM149.605 400.736C149.605 401.472 149.749 402.128 150.037 402.704C150.325 403.264 150.717 403.704 151.213 404.024C151.709 404.344 152.269 404.504 152.893 404.504C153.501 404.504 154.053 404.344 154.549 404.024C155.045 403.688 155.437 403.24 155.725 402.68C156.029 402.104 156.181 401.448 156.181 400.712C156.181 399.992 156.029 399.344 155.725 398.768C155.437 398.192 155.045 397.744 154.549 397.424C154.053 397.104 153.501 396.944 152.893 396.944C152.269 396.944 151.709 397.112 151.213 397.448C150.717 397.768 150.325 398.216 150.037 398.792C149.749 399.352 149.605 400 149.605 400.736Z" fill="black"/>
<path d="M173.328 407H170.112V399.944C170.112 398.936 169.936 398.2 169.584 397.736C169.232 397.272 168.744 397.04 168.12 397.04C167.688 397.04 167.248 397.152 166.8 397.376C166.368 397.6 165.976 397.912 165.624 398.312C165.272 398.696 165.016 399.144 164.856 399.656V407H161.64V394.424H164.544V396.752C164.864 396.208 165.272 395.752 165.768 395.384C166.264 395 166.832 394.712 167.472 394.52C168.128 394.312 168.816 394.208 169.536 394.208C170.32 394.208 170.96 394.352 171.456 394.64C171.968 394.912 172.352 395.288 172.608 395.768C172.88 396.232 173.064 396.76 173.16 397.352C173.272 397.944 173.328 398.544 173.328 399.152V407Z" fill="black"/>
<path d="M181.026 403.28C181.026 402.464 181.25 401.752 181.698 401.144C182.162 400.52 182.802 400.04 183.618 399.704C184.434 399.368 185.37 399.2 186.426 399.2C186.954 399.2 187.49 399.24 188.034 399.32C188.578 399.4 189.05 399.528 189.45 399.704V399.032C189.45 398.232 189.21 397.616 188.73 397.184C188.266 396.752 187.57 396.536 186.642 396.536C185.954 396.536 185.298 396.656 184.674 396.896C184.05 397.136 183.394 397.488 182.706 397.952L181.674 395.84C182.506 395.296 183.354 394.888 184.218 394.616C185.098 394.344 186.018 394.208 186.978 394.208C188.77 394.208 190.162 394.656 191.154 395.552C192.162 396.448 192.666 397.728 192.666 399.392V403.4C192.666 403.736 192.722 403.976 192.834 404.12C192.962 404.264 193.162 404.352 193.434 404.384V407C193.146 407.048 192.882 407.088 192.642 407.12C192.418 407.152 192.226 407.168 192.066 407.168C191.426 407.168 190.938 407.024 190.602 406.736C190.282 406.448 190.082 406.096 190.002 405.68L189.93 405.032C189.386 405.736 188.706 406.28 187.89 406.664C187.074 407.048 186.242 407.24 185.394 407.24C184.562 407.24 183.81 407.072 183.138 406.736C182.482 406.384 181.962 405.912 181.578 405.32C181.21 404.712 181.026 404.032 181.026 403.28ZM188.85 403.928C189.026 403.736 189.17 403.544 189.282 403.352C189.394 403.16 189.45 402.984 189.45 402.824V401.552C189.066 401.392 188.65 401.272 188.202 401.192C187.754 401.096 187.33 401.048 186.93 401.048C186.098 401.048 185.41 401.232 184.866 401.6C184.338 401.952 184.074 402.424 184.074 403.016C184.074 403.336 184.162 403.64 184.338 403.928C184.514 404.216 184.77 404.448 185.106 404.624C185.442 404.8 185.842 404.888 186.306 404.888C186.786 404.888 187.258 404.8 187.722 404.624C188.186 404.432 188.562 404.2 188.85 403.928Z" fill="black"/>
<path d="M201.749 407V389.96H207.941C209.797 389.96 211.349 390.344 212.597 391.112C213.845 391.864 214.781 392.888 215.405 394.184C216.029 395.464 216.341 396.888 216.341 398.456C216.341 400.184 215.997 401.688 215.309 402.968C214.621 404.248 213.645 405.24 212.381 405.944C211.133 406.648 209.653 407 207.941 407H201.749ZM213.005 398.456C213.005 397.352 212.805 396.384 212.405 395.552C212.005 394.704 211.429 394.048 210.677 393.584C209.925 393.104 209.013 392.864 207.941 392.864H205.061V404.096H207.941C209.029 404.096 209.949 403.856 210.701 403.376C211.453 402.88 212.021 402.208 212.405 401.36C212.805 400.496 213.005 399.528 213.005 398.456Z" fill="black"/>
<path d="M217.588 403.28C217.588 402.464 217.812 401.752 218.26 401.144C218.724 400.52 219.364 400.04 220.18 399.704C220.996 399.368 221.932 399.2 222.988 399.2C223.516 399.2 224.052 399.24 224.596 399.32C225.14 399.4 225.612 399.528 226.012 399.704V399.032C226.012 398.232 225.772 397.616 225.292 397.184C224.828 396.752 224.132 396.536 223.204 396.536C222.516 396.536 221.86 396.656 221.236 396.896C220.612 397.136 219.956 397.488 219.268 397.952L218.236 395.84C219.068 395.296 219.916 394.888 220.78 394.616C221.66 394.344 222.58 394.208 223.54 394.208C225.332 394.208 226.724 394.656 227.716 395.552C228.724 396.448 229.228 397.728 229.228 399.392V403.4C229.228 403.736 229.284 403.976 229.396 404.12C229.524 404.264 229.724 404.352 229.996 404.384V407C229.708 407.048 229.444 407.088 229.204 407.12C228.98 407.152 228.788 407.168 228.628 407.168C227.988 407.168 227.5 407.024 227.164 406.736C226.844 406.448 226.644 406.096 226.564 405.68L226.492 405.032C225.948 405.736 225.268 406.28 224.452 406.664C223.636 407.048 222.804 407.24 221.956 407.24C221.124 407.24 220.372 407.072 219.7 406.736C219.044 406.384 218.524 405.912 218.14 405.32C217.772 404.712 217.588 404.032 217.588 403.28ZM225.412 403.928C225.588 403.736 225.732 403.544 225.844 403.352C225.956 403.16 226.012 402.984 226.012 402.824V401.552C225.628 401.392 225.212 401.272 224.764 401.192C224.316 401.096 223.892 401.048 223.492 401.048C222.66 401.048 221.972 401.232 221.428 401.6C220.9 401.952 220.636 402.424 220.636 403.016C220.636 403.336 220.724 403.64 220.9 403.928C221.076 404.216 221.332 404.448 221.668 404.624C222.004 404.8 222.404 404.888 222.868 404.888C223.348 404.888 223.82 404.8 224.284 404.624C224.748 404.432 225.124 404.2 225.412 403.928Z" fill="black"/>
<path d="M239.652 406.352C239.38 406.464 239.052 406.592 238.668 406.736C238.284 406.88 237.868 406.992 237.42 407.072C236.988 407.168 236.548 407.216 236.1 407.216C235.508 407.216 234.964 407.112 234.468 406.904C233.972 406.696 233.572 406.368 233.268 405.92C232.98 405.456 232.836 404.856 232.836 404.12V396.896H231.18V394.424H232.836V390.344H236.052V394.424H238.692V396.896H236.052V403.04C236.068 403.472 236.188 403.784 236.412 403.976C236.636 404.168 236.916 404.264 237.252 404.264C237.588 404.264 237.916 404.208 238.236 404.096C238.556 403.984 238.812 403.888 239.004 403.808L239.652 406.352Z" fill="black"/>
<path d="M247.019 407.24C246.011 407.24 245.099 407.072 244.283 406.736C243.467 406.384 242.771 405.912 242.195 405.32C241.619 404.712 241.171 404.024 240.851 403.256C240.547 402.472 240.395 401.648 240.395 400.784C240.395 399.584 240.659 398.488 241.187 397.496C241.731 396.504 242.499 395.712 243.491 395.12C244.499 394.512 245.683 394.208 247.043 394.208C248.419 394.208 249.595 394.512 250.571 395.12C251.547 395.712 252.291 396.504 252.803 397.496C253.331 398.472 253.595 399.528 253.595 400.664C253.595 400.856 253.587 401.056 253.571 401.264C253.555 401.456 253.539 401.616 253.523 401.744H243.803C243.867 402.384 244.051 402.944 244.355 403.424C244.675 403.904 245.075 404.272 245.555 404.528C246.051 404.768 246.579 404.888 247.139 404.888C247.779 404.888 248.379 404.736 248.939 404.432C249.515 404.112 249.907 403.696 250.115 403.184L252.875 403.952C252.571 404.592 252.131 405.16 251.555 405.656C250.995 406.152 250.331 406.544 249.563 406.832C248.795 407.104 247.947 407.24 247.019 407.24ZM243.731 399.704H250.307C250.243 399.064 250.059 398.512 249.755 398.048C249.467 397.568 249.083 397.2 248.603 396.944C248.123 396.672 247.587 396.536 246.995 396.536C246.419 396.536 245.891 396.672 245.411 396.944C244.947 397.2 244.563 397.568 244.259 398.048C243.971 398.512 243.795 399.064 243.731 399.704Z" fill="black"/>
<path d="M228.794 340.048L169.861 233.735C169.844 233.474 169.763 233.222 169.626 233.001C169.489 232.779 169.299 232.595 169.074 232.464C168.816 232.316 168.52 232.244 168.223 232.258C168.213 232.257 168.204 232.258 168.194 232.257C168.184 232.258 168.175 232.257 168.165 232.258C167.762 232.239 167.367 232.377 167.063 232.643C166.759 232.909 166.57 233.282 166.534 233.684L104.073 340.048C103.969 340.228 103.901 340.427 103.874 340.634C103.847 340.84 103.861 341.05 103.914 341.251C103.968 341.452 104.061 341.641 104.188 341.806C104.314 341.971 104.472 342.11 104.652 342.214C104.833 342.318 105.032 342.386 105.238 342.413C105.444 342.44 105.654 342.426 105.855 342.372C106.056 342.318 106.244 342.225 106.409 342.098C106.574 341.972 106.713 341.813 106.817 341.633L168.152 237.187L226.051 341.633C226.155 341.813 226.293 341.972 226.458 342.098C226.623 342.225 226.812 342.318 227.013 342.372C227.214 342.426 227.423 342.44 227.63 342.413C227.836 342.386 228.035 342.318 228.215 342.214C228.395 342.11 228.553 341.971 228.68 341.806C228.807 341.641 228.899 341.452 228.953 341.251C229.007 341.05 229.021 340.84 228.993 340.634C228.966 340.427 228.899 340.228 228.794 340.048Z" fill="#3F3D56"/>
<path d="M158.429 321.807L165.091 320.278L162.366 293.843L152.534 296.1L158.429 321.807Z" fill="#FFB6B6"/>
<path d="M163.579 309.037L154.099 311.213L151.068 305.286L150.897 305.076C149.552 303.425 148.806 301.366 148.779 299.237L140.9 278.383L140.256 278.076C139.757 277.839 139.315 277.498 138.959 277.076C138.602 276.655 138.34 276.162 138.19 275.63C138.039 275.099 138.003 274.542 138.085 273.996C138.167 273.45 138.364 272.927 138.663 272.463L137.829 270.256L114.292 270.299L114.268 270.292L85.3649 262.18L88.3998 244.079L96.5303 249.196C99.2094 249.022 145.103 246.203 149.343 256.494C153.118 265.658 158.559 281.314 162.458 292.834C162.653 293.351 162.894 293.849 163.18 294.322C163.787 295.257 164.143 296.332 164.214 297.444C164.26 297.928 164.352 298.407 164.49 298.873C166.11 303.72 163.641 308.909 163.616 308.961L163.579 309.037Z" fill="#2F2E41"/>
<path d="M156.178 319.597L158.344 319.1L166.011 313.719L171.332 316.119L171.332 316.118C173.893 315.531 176.583 315.985 178.809 317.381C181.036 318.778 182.617 321.001 183.204 323.564L183.276 323.878L158.466 329.573L156.178 319.597Z" fill="#2F2E41"/>
<path d="M57.8249 320.191C58.5022 312.815 62.8203 305.43 69.746 302.814C67.2272 310.465 67.4941 318.76 70.4995 326.232C71.669 329.11 73.2693 332.189 72.3514 335.156C71.7803 337.003 70.2846 338.45 68.5906 339.379C66.8964 340.308 64.9986 340.785 63.1244 341.254L62.7628 341.573C59.5494 334.901 57.1477 327.567 57.8249 320.191Z" fill="#F0F0F0"/>
<path d="M69.8197 302.951C65.8886 307.654 63.5383 313.476 63.1028 319.592C62.9857 320.906 63.0765 322.232 63.3718 323.518C63.6999 324.762 64.355 325.895 65.2689 326.8C66.1041 327.661 67.0581 328.445 67.6696 329.494C67.9747 330.036 68.1619 330.636 68.2189 331.255C68.2759 331.874 68.2015 332.498 68.0005 333.087C67.5378 334.566 66.5716 335.79 65.5851 336.954C64.4898 338.247 63.3317 339.573 62.9025 341.254C62.8505 341.458 62.5376 341.365 62.5895 341.162C63.3363 338.237 66.0952 336.5 67.3523 333.847C67.9389 332.609 68.1561 331.186 67.5283 329.92C66.9792 328.812 65.9962 328.003 65.143 327.138C64.2384 326.268 63.5605 325.19 63.1685 323.998C62.8087 322.731 62.667 321.411 62.7496 320.096C62.8884 317.133 63.492 314.21 64.5383 311.435C65.7148 308.26 67.4254 305.31 69.5961 302.713C69.7305 302.553 69.9533 302.791 69.8197 302.951Z" fill="white"/>
<path d="M63.1276 317.614C62.112 317.402 61.205 316.835 60.5685 316.015C59.932 315.195 59.6075 314.176 59.6528 313.139C59.655 313.097 59.6736 313.057 59.7046 313.028C59.7355 312.999 59.7765 312.984 59.8188 312.984C59.8611 312.985 59.9014 313.002 59.9313 313.032C59.9612 313.062 59.9784 313.102 59.9791 313.145C59.9351 314.11 60.2375 315.06 60.8318 315.822C61.4261 316.584 62.2731 317.109 63.2199 317.301C63.4256 317.343 63.3321 317.656 63.1276 317.614Z" fill="white"/>
<path d="M64.7869 326.42C66.572 325.274 67.8599 323.497 68.3937 321.444C68.4464 321.24 68.7593 321.333 68.7067 321.536C68.1471 323.672 66.8031 325.518 64.9429 326.707C64.7656 326.82 64.6105 326.532 64.7869 326.42Z" fill="white"/>
<path d="M66.0271 308.56C66.4029 308.724 66.8135 308.792 67.2222 308.758C67.6308 308.724 68.0246 308.589 68.3683 308.365C68.5441 308.25 68.699 308.538 68.5243 308.652C68.1435 308.898 67.7084 309.046 67.257 309.085C66.8056 309.123 66.3516 309.051 65.9348 308.873C65.8941 308.86 65.86 308.831 65.8395 308.793C65.819 308.756 65.8136 308.712 65.8244 308.67C65.8369 308.629 65.8651 308.594 65.9031 308.573C65.941 308.553 65.9856 308.548 66.0271 308.56Z" fill="white"/>
<path d="M91.5124 315.25C91.4046 315.325 91.2969 315.4 91.1891 315.478C89.7455 316.496 88.3869 317.629 87.1267 318.867C87.0278 318.961 86.9289 319.058 86.8329 319.155C83.8287 322.169 81.41 325.716 79.6997 329.614C79.0205 331.165 78.4604 332.767 78.024 334.403C77.4215 336.664 76.9481 339.163 75.672 341.037C75.541 341.234 75.398 341.423 75.2438 341.602L63.1807 341.99C63.1528 341.977 63.1249 341.967 63.0969 341.954L62.616 341.991C62.6326 341.905 62.6517 341.816 62.6683 341.73C62.6777 341.68 62.6898 341.63 62.6992 341.581C62.7064 341.547 62.7136 341.514 62.7182 341.483C62.7205 341.472 62.723 341.461 62.7254 341.453C62.7299 341.422 62.7374 341.395 62.742 341.367C62.8473 340.87 62.9562 340.373 63.0688 339.876C63.0687 339.873 63.0687 339.873 63.0713 339.871C63.8932 336.075 65.1621 332.39 66.8516 328.894C66.9034 328.79 66.955 328.683 67.0123 328.58C67.7969 327.031 68.7067 325.548 69.7326 324.148C70.2969 323.383 70.8994 322.647 71.5381 321.942C73.1916 320.126 75.1205 318.581 77.2539 317.365C81.507 314.94 86.488 313.903 91.1566 315.151C91.276 315.183 91.3929 315.215 91.5124 315.25Z" fill="#F0F0F0"/>
<path d="M91.4898 315.404C85.5212 316.791 80.141 320.024 76.1134 324.644C75.2287 325.624 74.5038 326.736 73.9654 327.941C73.4789 329.132 73.3199 330.432 73.5051 331.705C73.6539 332.896 73.944 334.096 73.8009 335.302C73.7186 335.918 73.5069 336.51 73.1799 337.039C72.8529 337.568 72.4179 338.021 71.9034 338.37C70.644 339.272 69.1358 339.667 67.6475 340.003C65.9949 340.375 64.2726 340.736 62.9182 341.82C62.7541 341.951 62.56 341.689 62.7239 341.558C65.0803 339.672 68.328 339.948 70.9284 338.586C72.1417 337.951 73.1711 336.946 73.4321 335.556C73.6604 334.341 73.3624 333.103 73.2013 331.899C73.0025 330.659 73.1099 329.39 73.5144 328.202C73.9897 326.973 74.6705 325.835 75.5277 324.835C77.4216 322.552 79.6624 320.582 82.168 318.996C85.0176 317.17 88.1583 315.846 91.4543 315.079C91.6583 315.032 91.6925 315.357 91.4898 315.404Z" fill="white"/>
<path d="M77.3235 323.081C76.6401 322.299 76.2567 321.3 76.2417 320.262C76.2268 319.224 76.5812 318.215 77.2419 317.414C77.3761 317.253 77.6334 317.454 77.499 317.615C76.8825 318.36 76.5524 319.3 76.5683 320.267C76.5842 321.233 76.9451 322.162 77.5858 322.886C77.7248 323.044 77.4618 323.237 77.3235 323.081Z" fill="white"/>
<path d="M73.3501 331.112C75.4648 331.273 77.5623 330.63 79.2244 329.312C79.3889 329.181 79.583 329.443 79.4187 329.574C77.6866 330.942 75.5024 331.607 73.3021 331.435C73.0924 331.418 73.1415 331.096 73.3501 331.112Z" fill="white"/>
<path d="M85.0866 317.598C85.2879 317.955 85.5748 318.257 85.9215 318.476C86.2682 318.695 86.6639 318.825 87.0729 318.853C87.2827 318.867 87.2334 319.19 87.025 319.176C86.5732 319.143 86.1364 318.999 85.7528 318.758C85.3692 318.517 85.0505 318.185 84.8245 317.792C84.8 317.757 84.79 317.714 84.7963 317.671C84.8026 317.629 84.8248 317.591 84.8584 317.564C84.8932 317.538 84.9367 317.528 84.9794 317.534C85.0222 317.54 85.0607 317.563 85.0866 317.598Z" fill="white"/>
<path d="M255.189 320.191C254.512 312.815 250.194 305.43 243.268 302.814C245.787 310.465 245.52 318.76 242.515 326.232C241.345 329.11 239.745 332.189 240.663 335.156C241.234 337.003 242.73 338.45 244.424 339.379C246.118 340.308 248.016 340.785 249.89 341.254L250.251 341.573C253.465 334.901 255.866 327.567 255.189 320.191Z" fill="#F0F0F0"/>
<path d="M243.194 302.951C247.125 307.654 249.475 313.476 249.911 319.592C250.028 320.906 249.937 322.232 249.642 323.518C249.314 324.762 248.659 325.895 247.745 326.8C246.909 327.661 245.955 328.445 245.344 329.494C245.039 330.036 244.852 330.636 244.795 331.255C244.738 331.874 244.812 332.498 245.013 333.087C245.476 334.566 246.442 335.79 247.428 336.954C248.524 338.247 249.682 339.573 250.111 341.254C250.163 341.458 250.476 341.365 250.424 341.162C249.677 338.237 246.918 336.5 245.661 333.847C245.075 332.609 244.857 331.186 245.485 329.92C246.034 328.812 247.017 328.003 247.871 327.138C248.775 326.268 249.453 325.19 249.845 323.998C250.205 322.731 250.347 321.411 250.264 320.096C250.125 317.133 249.522 314.21 248.475 311.435C247.299 308.26 245.588 305.31 243.417 302.713C243.283 302.553 243.06 302.791 243.194 302.951Z" fill="white"/>
<path d="M249.887 317.614C250.902 317.402 251.809 316.835 252.446 316.015C253.082 315.196 253.407 314.176 253.361 313.139C253.359 313.097 253.341 313.057 253.31 313.028C253.279 312.999 253.238 312.984 253.196 312.984C253.153 312.985 253.113 313.002 253.083 313.032C253.053 313.062 253.036 313.103 253.035 313.145C253.079 314.11 252.777 315.06 252.182 315.822C251.588 316.584 250.741 317.109 249.794 317.301C249.589 317.343 249.682 317.656 249.887 317.614Z" fill="white"/>
<path d="M248.226 326.42C246.44 325.274 245.153 323.497 244.619 321.444C244.566 321.24 244.253 321.333 244.306 321.536C244.865 323.672 246.209 325.518 248.069 326.707C248.247 326.82 248.402 326.532 248.226 326.42Z" fill="white"/>
<path d="M246.986 308.56C246.611 308.724 246.2 308.792 245.791 308.758C245.383 308.724 244.989 308.589 244.645 308.365C244.469 308.25 244.315 308.538 244.489 308.652C244.87 308.898 245.305 309.046 245.757 309.085C246.208 309.123 246.662 309.051 247.079 308.873C247.119 308.86 247.154 308.831 247.174 308.793C247.194 308.756 247.2 308.712 247.189 308.67C247.177 308.629 247.148 308.594 247.11 308.573C247.073 308.553 247.028 308.548 246.986 308.56Z" fill="white"/>
<path d="M221.501 315.25C221.609 315.325 221.717 315.4 221.825 315.478C223.268 316.496 224.627 317.629 225.887 318.867C225.986 318.961 226.085 319.058 226.181 319.155C229.185 322.169 231.604 325.716 233.314 329.614C233.993 331.165 234.553 332.767 234.99 334.403C235.592 336.664 236.066 339.163 237.342 341.037C237.473 341.234 237.616 341.423 237.77 341.602L249.833 341.99C249.861 341.977 249.889 341.967 249.917 341.954L250.398 341.991C250.381 341.905 250.362 341.816 250.346 341.73C250.336 341.68 250.324 341.63 250.315 341.581C250.307 341.547 250.3 341.514 250.296 341.483C250.293 341.472 250.291 341.461 250.288 341.453C250.284 341.422 250.276 341.395 250.272 341.367C250.167 340.87 250.058 340.373 249.945 339.876C249.945 339.873 249.945 339.873 249.943 339.871C249.121 336.075 247.852 332.39 246.162 328.894C246.11 328.79 246.059 328.683 246.002 328.58C245.217 327.031 244.307 325.548 243.281 324.148C242.717 323.383 242.114 322.647 241.476 321.942C239.822 320.126 237.893 318.581 235.76 317.365C231.507 314.94 226.526 313.903 221.857 315.151C221.738 315.183 221.621 315.215 221.501 315.25Z" fill="#F0F0F0"/>
<path d="M221.524 315.404C227.493 316.791 232.873 320.024 236.9 324.644C237.785 325.624 238.51 326.736 239.048 327.941C239.535 329.132 239.694 330.432 239.509 331.705C239.36 332.895 239.07 334.096 239.213 335.302C239.295 335.918 239.507 336.51 239.834 337.039C240.161 337.568 240.596 338.021 241.11 338.37C242.37 339.272 243.878 339.667 245.366 340.003C247.019 340.375 248.741 340.736 250.096 341.82C250.26 341.951 250.454 341.689 250.29 341.558C247.934 339.672 244.686 339.948 242.086 338.586C240.872 337.951 239.843 336.946 239.582 335.556C239.353 334.341 239.651 333.103 239.813 331.899C240.011 330.659 239.904 329.39 239.5 328.202C239.024 326.973 238.343 325.835 237.486 324.835C235.592 322.552 233.351 320.582 230.846 318.996C227.996 317.17 224.856 315.846 221.56 315.079C221.356 315.032 221.321 315.357 221.524 315.404Z" fill="white"/>
<path d="M235.692 323.081C236.375 322.299 236.759 321.3 236.774 320.262C236.789 319.224 236.434 318.215 235.773 317.414C235.639 317.253 235.382 317.454 235.516 317.615C236.133 318.36 236.463 319.3 236.447 320.267C236.431 321.233 236.07 322.162 235.43 322.886C235.29 323.044 235.554 323.237 235.692 323.081Z" fill="white"/>
<path d="M239.664 331.112C237.549 331.273 235.452 330.63 233.79 329.312C233.625 329.181 233.431 329.443 233.595 329.574C235.328 330.942 237.512 331.607 239.712 331.435C239.922 331.418 239.873 331.096 239.664 331.112Z" fill="white"/>
<path d="M227.927 317.598C227.725 317.955 227.438 318.257 227.092 318.476C226.745 318.695 226.349 318.825 225.94 318.853C225.73 318.867 225.78 319.19 225.988 319.176C226.44 319.143 226.877 318.999 227.26 318.758C227.644 318.517 227.963 318.185 228.189 317.792C228.213 317.757 228.223 317.714 228.217 317.671C228.211 317.629 228.188 317.591 228.155 317.564C228.12 317.538 228.076 317.528 228.034 317.534C227.991 317.54 227.952 317.563 227.927 317.598Z" fill="white"/>
<path d="M338.6 342.581C338.6 342.692 338.556 342.798 338.477 342.877C338.398 342.955 338.292 343 338.181 343H24.4189C24.3078 343 24.2013 342.956 24.1227 342.877C24.0441 342.799 24 342.692 24 342.581C24 342.47 24.0441 342.363 24.1227 342.284C24.2013 342.206 24.3078 342.162 24.4189 342.162H338.181C338.292 342.162 338.398 342.206 338.477 342.285C338.556 342.363 338.6 342.47 338.6 342.581Z" fill="#3F3D56"/>
<path d="M226.102 180.44C226.977 180.44 227.686 179.73 227.686 178.855C227.686 177.979 226.977 177.27 226.102 177.27C225.227 177.27 224.518 177.979 224.518 178.855C224.518 179.73 225.227 180.44 226.102 180.44Z" fill="#3F3D56"/>
<path d="M206.267 191.063L227.624 177.639C227.817 177.517 228.033 177.436 228.258 177.4C228.483 177.365 228.714 177.375 228.935 177.431C229.156 177.487 229.364 177.587 229.545 177.725C229.727 177.864 229.878 178.037 229.991 178.236C230.103 178.435 230.174 178.654 230.2 178.881C230.225 179.108 230.204 179.337 230.139 179.556C230.073 179.775 229.963 179.978 229.817 180.153C229.671 180.328 229.49 180.471 229.287 180.575L206.803 192.01C206.678 192.073 206.534 192.086 206.4 192.046C206.266 192.005 206.152 191.915 206.083 191.793C206.014 191.671 205.995 191.527 206.029 191.391C206.063 191.255 206.149 191.138 206.267 191.063Z" fill="#E4E4E4"/>
<path d="M163.421 219.97C163.253 219.72 163.165 219.424 163.17 219.123C163.174 218.821 163.27 218.528 163.446 218.283C163.807 217.799 164.288 217.417 164.842 217.175C165.985 216.593 167.215 216.204 168.485 216.023C169.45 215.886 170.502 215.842 171.251 215.218C171.994 214.598 172.409 213.438 173.372 213.341C174.303 213.248 175.019 214.267 175.952 214.331C177.103 214.409 177.857 213.061 178.977 212.784C179.726 212.599 180.497 212.926 181.2 213.245L185.42 215.161L187.583 216.142C188.339 216.485 189.191 216.947 189.333 217.765C189.529 218.888 188.28 219.681 187.213 220.08C179.587 222.896 171.209 222.897 163.583 220.083" fill="black"/>
<path d="M169.778 240.669C200.4 240.669 225.223 237.121 225.223 232.744C225.223 228.367 200.4 224.819 169.778 224.819C139.157 224.819 114.334 228.367 114.334 232.744C114.334 237.121 139.157 240.669 169.778 240.669Z" fill="#3F3D56"/>
<path d="M282.251 281.879H244.232C242.482 281.879 241.064 283.299 241.064 285.049C241.064 286.8 242.482 288.219 244.232 288.219H282.251C284.001 288.219 285.42 286.8 285.42 285.049C285.42 283.299 284.001 281.879 282.251 281.879Z" fill="#3F3D56"/>
<path d="M300.676 225.362L288.119 285.046L291.39 300.321L297.564 329.151V342.109C297.565 342.127 297.564 342.144 297.561 342.162C297.559 342.448 297.506 342.732 297.406 343H292.442C292.342 342.732 292.29 342.448 292.287 342.162C292.285 342.144 292.283 342.127 292.284 342.109V329.707L286.68 303.541L285.546 298.257L283.353 288.018L282.719 285.053V285.049L283.346 282.076L283.828 279.783L295.509 224.277C295.579 223.937 295.717 223.615 295.912 223.328C296.108 223.041 296.358 222.796 296.648 222.606C296.938 222.416 297.263 222.285 297.604 222.221C297.945 222.157 298.296 222.16 298.635 222.232C298.975 222.303 299.297 222.44 299.583 222.636C299.869 222.832 300.114 223.083 300.304 223.373C300.494 223.664 300.624 223.989 300.688 224.331C300.752 224.672 300.748 225.022 300.676 225.362Z" fill="#3F3D56"/>
<path d="M246.872 285.049V342.109C246.873 342.127 246.872 342.144 246.869 342.162C246.867 342.448 246.814 342.732 246.714 343H241.75C241.65 342.732 241.597 342.448 241.595 342.162C241.592 342.144 241.591 342.127 241.592 342.109V285.049C241.592 284.349 241.87 283.677 242.365 283.181C242.86 282.686 243.532 282.407 244.232 282.407C244.932 282.407 245.604 282.686 246.099 283.181C246.594 283.677 246.872 284.349 246.872 285.049Z" fill="#3F3D56"/>
<path d="M250.569 275.539H275.915C278.436 275.539 280.853 276.541 282.636 278.324C284.418 280.108 285.42 282.527 285.42 285.049H241.064C241.064 282.527 242.065 280.108 243.848 278.324C245.63 276.541 248.048 275.539 250.569 275.539Z" fill="#3F3D56"/>
<path d="M288.588 303.541H244.233C243.533 303.541 242.861 303.263 242.366 302.768C241.871 302.272 241.593 301.6 241.593 300.9C241.593 300.199 241.871 299.527 242.366 299.032C242.861 298.536 243.533 298.258 244.233 298.258H288.588C289.289 298.258 289.96 298.536 290.455 299.032C290.951 299.527 291.229 300.199 291.229 300.9C291.229 301.6 290.951 302.272 290.455 302.768C289.96 303.263 289.289 303.541 288.588 303.541Z" fill="#3F3D56"/>
<path d="M82.2682 288.315H127.008C128.757 288.315 130.176 286.896 130.176 285.145V284.184C130.176 282.434 128.757 281.014 127.008 281.014H82.2682C80.5184 281.014 79.1 282.434 79.1 284.184V285.145C79.1 286.896 80.5184 288.315 82.2682 288.315Z" fill="#3F3D56"/>
<path d="M81.8061 284.707L80.9963 288.046L78.0252 300.276L76.744 305.559L70.7946 330.066V340.7C70.7961 341.221 70.6417 341.73 70.3511 342.162C70.1227 342.511 69.812 342.799 69.4464 343H66.8625C66.4969 342.799 66.1862 342.511 65.9578 342.162C65.6672 341.73 65.5127 341.221 65.5142 340.7V329.432L72.1253 302.206L76.3919 284.623L61.9236 215.852C61.852 215.512 61.8479 215.162 61.9117 214.821C61.9755 214.48 62.1058 214.155 62.2952 213.865C62.4846 213.574 62.7294 213.324 63.0155 213.128C63.3017 212.932 63.6237 212.794 63.963 212.723C64.3023 212.652 64.6523 212.648 64.9931 212.712C65.3338 212.776 65.6586 212.907 65.9488 213.097C66.239 213.287 66.489 213.532 66.6844 213.819C66.8798 214.105 67.0169 214.427 67.0878 214.767L80.4614 278.318L81.0775 281.249L81.7954 284.665L81.8061 284.707Z" fill="#3F3D56"/>
<path d="M129.169 284.665V340.7C129.17 341.221 129.016 341.73 128.725 342.162C128.497 342.511 128.186 342.799 127.82 343H125.233C124.869 342.798 124.56 342.51 124.332 342.162C124.041 341.73 123.887 341.221 123.888 340.7V284.665C123.888 283.965 124.166 283.293 124.662 282.798C125.157 282.302 125.828 282.024 126.528 282.024C127.229 282.024 127.9 282.302 128.395 282.798C128.891 283.293 129.169 283.965 129.169 284.665Z" fill="#3F3D56"/>
<path d="M130.176 284.665H79.0999V283.224C79.0999 281.975 79.3458 280.738 79.8234 279.584C80.3011 278.431 81.0012 277.382 81.8838 276.499C82.7664 275.616 83.8142 274.916 84.9674 274.438C86.1205 273.96 87.3565 273.714 88.6047 273.714H120.671C123.192 273.714 125.61 274.716 127.392 276.499C129.175 278.283 130.176 280.702 130.176 283.224L130.176 284.665Z" fill="#3F3D56"/>
<path d="M126.527 305.558H75.4509C74.7506 305.558 74.0791 305.28 73.584 304.784C73.0888 304.289 72.8107 303.617 72.8107 302.916C72.8107 302.216 73.0888 301.544 73.584 301.048C74.0791 300.553 74.7506 300.275 75.4509 300.275H126.527C127.227 300.275 127.899 300.553 128.394 301.048C128.889 301.544 129.167 302.216 129.167 302.916C129.167 303.617 128.889 304.289 128.394 304.784C127.899 305.28 127.227 305.558 126.527 305.558Z" fill="#3F3D56"/>
<path d="M192.168 328.601L186.619 325.946L194.242 302.738L202.432 306.657L192.168 328.601Z" fill="#9E616A"/>
<path d="M229.774 326.5L223.807 327.973L215.162 305.132L223.969 302.958L229.774 326.5Z" fill="#9E616A"/>
<path d="M206.905 227.731C207.697 229.017 208.959 229.943 210.423 230.31C211.887 230.678 213.437 230.458 214.742 229.698C215.004 229.539 215.253 229.359 215.485 229.159L233.029 239.232L232.267 228.891L215.724 220.911C214.824 220.006 213.649 219.426 212.384 219.261C211.119 219.096 209.835 219.356 208.733 220C208.099 220.381 207.547 220.885 207.11 221.483C206.674 222.08 206.361 222.759 206.191 223.48C206.02 224.2 205.996 224.948 206.119 225.678C206.241 226.408 206.509 227.106 206.905 227.731Z" fill="#9E616A"/>
<path d="M225.486 235.439L228.587 237.33L242.515 245.828C243.43 246.401 244.448 246.787 245.513 246.966C246.577 247.145 247.666 247.111 248.717 246.869C249.769 246.626 250.762 246.178 251.641 245.551C252.519 244.924 253.265 244.129 253.837 243.213C254.868 241.513 255.233 239.491 254.861 237.538L248.671 206.595C248.442 205.38 247.954 204.229 247.24 203.22C246.526 202.212 245.602 201.369 244.533 200.751C243.463 200.132 242.273 199.752 241.043 199.636C239.813 199.52 238.572 199.671 237.406 200.079C235.446 200.768 233.821 202.179 232.864 204.024C231.906 205.868 231.687 208.009 232.251 210.01L238.724 231.97L228.802 227.342L225.486 235.439Z" fill="#E6E6E6"/>
<path d="M218.154 320.098L208.606 300.938L208.607 300.894L209.55 265.751C209.562 265.438 209.587 265.124 209.625 264.815C209.791 263.406 210.237 262.044 210.935 260.809C211.633 259.574 212.569 258.49 213.69 257.621C214.764 256.781 215.994 256.163 217.309 255.803C218.623 255.443 219.997 255.349 221.348 255.526L248.651 259.061L249.598 255.187L249.775 255.123L275.935 245.53L276.086 245.775C279.512 251.353 281.907 262.495 282.56 265.777L282.569 265.824C282.583 265.894 282.591 265.936 282.594 265.948C283.941 271.548 278.376 280.826 272.833 282.22C261.156 285.198 250.713 282.875 238.621 280.185C234.285 279.22 229.803 278.223 224.867 277.361L225.014 280.268C225.134 282.505 225.599 284.71 226.391 286.806C227.271 289.385 227.966 291.422 226.496 295.669L225.785 297.724C226.154 298.744 226.281 299.836 226.156 300.914C226.031 301.991 225.658 303.025 225.066 303.933L224.923 304.152L231.219 320.095L218.154 320.098Z" fill="#2F2E41"/>
<path d="M202.465 311.625L191.079 310.567L195.113 297.659C195.945 289.23 198.043 280.976 201.335 273.173L206.837 260.126C206.85 259.836 206.874 259.544 206.91 259.258C207.076 257.848 207.521 256.487 208.219 255.251C208.917 254.016 209.854 252.932 210.975 252.063C212.049 251.223 213.279 250.605 214.593 250.246C215.908 249.886 217.281 249.792 218.633 249.968L245.896 253.498L247.083 243.526L273.251 240.023L273.371 240.218C277.945 247.664 280.848 253.493 282.509 258.563C282.592 258.821 282.667 259.085 282.73 259.348C284.086 264.986 280.701 270.703 275.184 272.091C261.126 275.677 244.221 275.577 221.994 271.776L211.237 297.389C210.209 299.836 208.936 302.172 207.438 304.362L202.465 311.625Z" fill="#2F2E41"/>
<path d="M242.183 182.32C249.468 182.32 255.373 176.28 255.373 168.829C255.373 161.378 249.468 155.338 242.183 155.338C234.899 155.338 228.994 161.378 228.994 168.829C228.994 176.28 234.899 182.32 242.183 182.32Z" fill="#9E616A"/>
<path d="M245.991 253.969L244.098 247.185L243.633 243.839L240.913 243.93L235.575 231.601L233.501 228.35C233.078 227.905 232.695 227.476 232.352 227.065C230.191 224.622 228.459 221.831 227.228 218.81C226.365 216.639 225.859 214.344 225.728 212.012C225.341 205.123 228.243 197.835 234.601 189.732C234.497 189.445 234.427 189.147 234.394 188.844C234.28 187.859 234.56 186.87 235.171 186.091C235.783 185.312 236.678 184.805 237.66 184.683L243.792 183.994C244.269 183.94 244.752 183.981 245.213 184.115C245.673 184.25 246.103 184.475 246.476 184.777C246.865 185.089 247.189 185.476 247.428 185.915C247.666 186.353 247.815 186.835 247.866 187.332C247.948 188.101 247.797 188.876 247.432 189.558C250.558 189.955 253.503 191.246 255.913 193.275C258.324 195.305 260.099 197.988 261.024 201.001C264.693 207.855 267.618 215.082 269.747 222.559C270.167 224.024 269.98 225.533 269.799 226.992C269.632 228.34 269.46 229.734 269.75 231.123C270.046 232.536 270.756 233.954 271.508 235.454C272.37 237.173 273.261 238.95 273.502 240.762L273.519 240.889L245.991 253.969Z" fill="#E4E4E4"/>
<path opacity="0.2" d="M227.392 218.743C228.617 221.747 230.34 224.522 232.488 226.952C232.856 227.392 233.244 227.823 233.651 228.256L235.737 231.531C243.428 225.763 249.66 203.052 249.66 203.052L240.982 201.363L227.392 218.743Z" fill="black"/>
<path d="M222.138 183.581C222.898 184.887 223.119 186.438 222.753 187.904C222.387 189.37 221.464 190.636 220.18 191.432C219.917 191.589 219.64 191.725 219.355 191.837L219.969 212.066L211.213 206.552L211.972 188.187C211.6 186.965 211.642 185.653 212.092 184.458C212.543 183.262 213.376 182.25 214.463 181.578C215.095 181.195 215.798 180.943 216.53 180.836C217.262 180.73 218.007 180.771 218.723 180.958C219.438 181.144 220.109 181.473 220.696 181.923C221.283 182.374 221.773 182.937 222.138 183.581Z" fill="#9E616A"/>
<path d="M220.738 204.43L211.109 205.8L211.523 225.75C211.547 227.173 211.935 228.567 212.649 229.798C213.363 231.029 214.379 232.057 215.602 232.785C217.096 233.664 218.835 234.034 220.557 233.838C222.28 233.643 223.892 232.892 225.151 231.7L247.883 209.823C249.482 208.305 250.44 206.231 250.558 204.028C250.676 201.826 249.946 199.662 248.518 197.981C247.812 197.144 246.944 196.458 245.967 195.963C244.991 195.468 243.925 195.174 242.832 195.099C241.74 195.025 240.644 195.17 239.609 195.527C238.574 195.884 237.621 196.446 236.807 197.179C236.582 197.38 236.369 197.593 236.167 197.816L221.157 215.094L220.738 204.43Z" fill="#E6E6E6"/>
<path d="M140.206 334.56L147.04 334.56L150.291 308.184L140.204 308.185L140.206 334.56Z" fill="#FFB6B6"/>
<path d="M101.468 182.712C109.001 182.712 115.108 176.601 115.108 169.064C115.108 161.526 109.001 155.416 101.468 155.416C93.9343 155.416 87.8272 161.526 87.8272 169.064C87.8272 176.601 93.9343 182.712 101.468 182.712Z" fill="#FFB6B6"/>
<path d="M149.271 326.435H139.593L137.126 323.126L136.458 320.008L135.883 319.452C135.103 318.703 134.599 317.712 134.452 316.641C134.305 315.569 134.525 314.48 135.074 313.548L128.06 280.805C126.223 280.644 105.506 278.79 91.1047 276.24C87.4191 275.588 84.5416 273.795 82.552 270.913C77.6632 263.829 79.7574 252.368 79.7791 252.253L79.8032 252.125L79.9324 252.111L113.57 248.333L113.616 248.355C114.732 248.884 141.004 261.363 145.297 265.658C147.236 267.598 151.561 279.123 152.529 291.375C152.703 293.57 152.079 295.805 151.475 297.967C150.91 299.99 150.326 302.081 150.441 304.059C150.619 307.109 150.788 310.31 150.943 313.571C150.968 314.09 151.359 314.628 151.737 315.148C152.133 315.691 152.506 316.204 152.53 316.741C152.76 321.948 149.358 326.324 149.324 326.368L149.271 326.435Z" fill="#2F2E41"/>
<path d="M151.474 205.415C150.742 205.215 149.974 205.178 149.225 205.306C148.477 205.435 147.765 205.726 147.141 206.159C146.517 206.593 145.996 207.158 145.613 207.815C145.231 208.472 144.998 209.204 144.929 209.961L133.595 213.506L134.068 220.922L150.003 215.692C151.282 215.723 152.527 215.283 153.504 214.457C154.48 213.63 155.12 212.474 155.301 211.207C155.482 209.941 155.193 208.651 154.488 207.584C153.782 206.516 152.71 205.745 151.474 205.415Z" fill="#FFB6B6"/>
<path d="M144.079 217.688L135.609 220.896L135.392 221.316C134.873 222.324 133.975 223.085 132.895 223.43C131.816 223.775 130.643 223.677 129.636 223.158L110.596 230.368C110.596 230.368 102.094 221.855 96.0405 214.257L98.1036 201.56C98.5814 198.614 99.5971 195.781 101.1 193.203C113.514 195.927 120.641 213.291 120.641 213.291L143.015 209.02L144.079 217.688Z" fill="black"/>
<path d="M99.5288 181.982C96.1139 182.905 92.3491 181.678 89.6841 179.351C87.0191 177.024 85.3521 173.726 84.3915 170.32C83.688 167.825 83.3545 165.056 84.4646 162.714C85.5748 160.372 88.5625 158.792 90.8676 159.975C89.4456 158.318 90.156 155.576 91.8168 154.158C93.4775 152.74 95.758 152.333 97.9299 152.111C101.082 151.789 104.338 151.752 107.337 152.774C110.337 153.796 113.062 156.03 114.001 159.058C114.96 159.504 116.04 159.62 117.071 159.387C118.103 159.154 119.028 158.585 119.702 157.77C119.876 158.706 119.736 159.674 119.305 160.524C118.874 161.373 118.175 162.056 117.316 162.468L121.912 160.977C122.702 162.651 121.317 164.723 119.546 165.259C117.775 165.795 115.863 165.209 114.183 164.434C112.502 163.66 110.874 162.681 109.048 162.379C107.223 162.077 105.078 162.664 104.234 164.311C103.792 165.174 103.769 166.184 103.512 167.119C103.255 168.054 102.605 169.024 101.638 169.1C101.028 169.148 100.431 168.823 99.8219 168.89C99.0673 168.972 98.4897 169.656 98.2887 170.388C98.1372 171.135 98.1353 171.904 98.2833 172.651L99.4507 181.579" fill="#2F2E41"/>
<path d="M82.6299 272.544C82.6273 272.544 82.6247 272.543 82.6222 272.543L82.5143 272.524L82.4831 272.42C82.091 271.1 81.5919 269.749 81.1093 268.442C80.3985 266.633 79.7984 264.782 79.3122 262.9C78.9296 261.1 78.6643 259.277 78.518 257.443C78.3833 256.112 78.2441 254.735 78.0074 253.38C77.9023 252.778 78.3006 252.208 78.6858 251.657C79.043 251.146 79.3804 250.663 79.3096 250.206C79.2372 249.739 78.7197 249.227 78.2192 248.731C77.6706 248.187 77.1032 247.625 77.0229 247.033C75.9295 238.96 75.4205 230.819 75.5001 222.672C75.6131 211.401 76.1222 203.718 77.0132 199.838C79.409 189.402 90.4778 187.498 92.2104 187.263C92.3949 186.771 92.6786 186.323 93.0439 185.945C93.4091 185.568 93.8481 185.27 94.3335 185.07C94.8188 184.869 95.3402 184.771 95.8651 184.781C96.39 184.791 96.9072 184.909 97.3846 185.128L105.249 188.73C106.844 189.463 108.272 190.517 109.443 191.826C110.614 193.134 111.504 194.67 112.057 196.337L113.225 199.901L113.81 223.823L110.567 240.669L116.904 250.179C83.1323 268.731 82.7386 272.544 82.6299 272.544Z" fill="black"/>
<path d="M136.528 331.902L138.75 331.902L147.425 328.372L152.075 331.902H152.076C154.703 331.902 157.223 332.946 159.081 334.805C160.939 336.664 161.983 339.186 161.984 341.815V342.137L136.529 342.138L136.528 331.902Z" fill="#2F2E41"/>
<path d="M154.312 222.486C153.657 222.102 152.925 221.865 152.169 221.794C151.413 221.723 150.65 221.818 149.934 222.074C149.219 222.329 148.568 222.738 148.028 223.273C147.488 223.807 147.071 224.454 146.808 225.167L134.942 225.629L133.344 231.159L150.212 232.023C151.438 232.387 152.755 232.288 153.913 231.745C155.071 231.202 155.99 230.252 156.496 229.077C157.001 227.901 157.058 226.581 156.655 225.367C156.253 224.152 155.419 223.127 154.312 222.486Z" fill="#FFB6B6"/>
<path d="M144.565 232.619L132.377 232.467L130.834 232.446L106.037 232.134C106.037 232.134 99.3032 225.706 93.4397 219.088L94.2615 213.141C95.0632 207.304 97.9571 201.957 102.405 198.095C110.803 203.71 115.673 214.823 115.673 214.823L123.839 218.479C129.585 218.736 135.185 220.377 140.163 223.262L142.848 224.819L144.565 232.619Z" fill="black"/>
<path d="M234.128 337.75L230.073 338.751L228.404 335.099L227.495 339.387L216.74 342.043C216.224 342.171 215.681 342.13 215.191 341.927C214.7 341.723 214.287 341.369 214.012 340.914C213.737 340.46 213.615 339.929 213.662 339.4C213.71 338.871 213.926 338.371 214.278 337.973L221.403 329.917L220.448 326.044L229.615 324.352L234.128 337.75Z" fill="#2F2E41"/>
<path d="M191.167 339.002L187.299 337.423L188.099 333.487L184.841 336.419L174.584 332.23C174.092 332.029 173.678 331.676 173.401 331.223C173.124 330.77 172.999 330.24 173.044 329.71C173.089 329.181 173.302 328.68 173.652 328.28C174.002 327.881 174.471 327.604 174.99 327.489L185.489 325.174L186.996 321.481L195.402 325.514L191.167 339.002Z" fill="#2F2E41"/>
<path d="M177.7 231.336H174.531C171.125 231.332 167.859 229.976 165.45 227.566C163.041 225.156 161.686 221.888 161.682 218.48V218.304H190.549V218.48C190.545 221.888 189.19 225.156 186.781 227.566C184.372 229.976 181.106 231.332 177.7 231.336Z" fill="#E4E4E4"/>
<path d="M174.53 213.725C174.53 214.6 172.946 215.31 172.946 215.31C172.946 215.31 171.362 214.6 171.362 213.725C171.362 212.849 172.946 212.14 172.946 212.14C172.946 212.14 174.53 212.849 174.53 213.725Z" fill="#3F3D56"/>
<path d="M184.036 213.725C184.036 214.6 182.452 215.31 182.452 215.31C182.452 215.31 180.868 214.6 180.868 213.725C180.868 212.849 182.452 212.14 182.452 212.14C182.452 212.14 184.036 212.849 184.036 213.725Z" fill="#3F3D56"/>
<path d="M177.699 216.894C177.699 217.77 176.114 218.479 176.114 218.479C176.114 218.479 174.53 217.77 174.53 216.894C174.53 216.019 176.114 215.309 176.114 215.309C176.114 215.309 177.699 216.019 177.699 216.894Z" fill="#3F3D56"/>
<path d="M166.611 210.378C167.486 210.378 168.195 209.668 168.195 208.793C168.195 207.918 167.486 207.208 166.611 207.208C165.736 207.208 165.026 207.918 165.026 208.793C165.026 209.668 165.736 210.378 166.611 210.378Z" fill="#3F3D56"/>
<path d="M143.571 205.387L168.556 208.839C168.782 208.87 168.999 208.947 169.195 209.065C169.39 209.182 169.56 209.338 169.694 209.524C169.827 209.709 169.922 209.919 169.972 210.142C170.022 210.364 170.027 210.595 169.985 210.819C169.944 211.044 169.857 211.258 169.731 211.448C169.605 211.638 169.441 211.8 169.25 211.926C169.06 212.051 168.845 212.136 168.621 212.176C168.396 212.216 168.166 212.21 167.943 212.158L143.374 206.457C143.238 206.425 143.119 206.342 143.042 206.225C142.965 206.108 142.936 205.965 142.962 205.827C142.987 205.69 143.065 205.567 143.178 205.485C143.292 205.403 143.433 205.368 143.571 205.387Z" fill="#E4E4E4"/>
<path d="M173.932 126.625V79H170.764V126.625C166.435 127.02 162.41 129.02 159.479 132.232C156.548 135.444 154.923 139.635 154.922 143.985V148.74H166.011C166.011 150.421 166.679 152.034 167.867 153.223C169.056 154.412 170.667 155.08 172.348 155.08C174.028 155.08 175.64 154.412 176.828 153.223C178.017 152.034 178.684 150.421 178.684 148.74H189.773V143.985C189.773 139.635 188.147 135.444 185.217 132.232C182.286 129.02 178.261 127.02 173.932 126.625Z" fill="#F0F0F0"/>
<path d="M214.724 114.719V79H212.348V114.719C209.101 115.015 206.082 116.515 203.884 118.924C201.686 121.333 200.467 124.477 200.467 127.739V131.305H208.783C208.783 132.566 209.284 133.775 210.175 134.667C211.066 135.559 212.275 136.06 213.536 136.06C214.796 136.06 216.005 135.559 216.896 134.667C217.787 133.775 218.288 132.566 218.288 131.305H226.605V127.739C226.604 124.477 225.385 121.333 223.187 118.924C220.989 116.515 217.97 115.015 214.724 114.719Z" fill="#F0F0F0"/>
<path d="M134.46 114.719V79H132.084V114.719C128.838 115.015 125.819 116.515 123.621 118.924C121.423 121.333 120.204 124.477 120.203 127.739V131.305H128.52C128.52 132.566 129.021 133.775 129.912 134.667C130.803 135.559 132.012 136.06 133.272 136.06C134.533 136.06 135.742 135.559 136.633 134.667C137.524 133.775 138.025 132.566 138.025 131.305H146.341V127.739C146.341 124.477 145.122 121.333 142.924 118.924C140.726 116.515 137.707 115.015 134.46 114.719Z" fill="#F0F0F0"/>
<path d="M277.476 162.978C275.234 160.362 274.169 156.892 272.376 153.921C270.584 150.951 267.465 148.292 264.17 148.983C261.899 149.46 260.144 151.465 259.255 153.701C258.366 155.937 258.2 158.402 258.044 160.818C258.099 155.854 254.831 151.042 250.328 149.458C245.826 147.874 240.438 149.641 237.609 153.629C236.374 152.484 234.763 151.832 233.08 151.796C231.397 151.761 229.759 152.345 228.478 153.437C225.947 155.7 225.387 160.007 227.248 162.893C229.109 165.78 233.14 166.855 236.097 165.254L237.143 166.217C236.554 168.276 237.696 170.709 239.614 171.484C241.17 172.113 243.366 172.008 243.949 173.642C244.355 174.783 243.595 176.002 242.786 176.879C241.977 177.756 241.017 178.662 240.92 179.875C240.773 181.707 242.664 182.99 244.384 183.376C248.53 184.308 253.13 182.387 255.52 178.726C255.566 178.655 255.616 178.585 255.67 178.514C257.011 176.798 257.988 174.828 258.541 172.722C259.095 170.616 259.214 168.419 258.89 166.265C258.756 165.419 258.891 164.79 259.474 164.589C261.994 163.723 269.055 165.541 271.192 167.184C273.329 168.827 275.04 171.001 277.098 172.75C279.156 174.499 281.779 175.848 284.393 175.372C286.486 174.99 288.266 173.47 289.464 171.636C290.661 169.802 291.351 167.665 291.968 165.54C287.34 168.215 281.005 167.095 277.476 162.978Z" fill="#2F2E41"/>
</svg>
