<svg width="315" height="264" viewBox="0 0 315 264" fill="none" xmlns="http://www.w3.org/2000/svg">
<path d="M204.794 261.048L145.86 154.735C145.844 154.474 145.763 154.222 145.626 154.001C145.489 153.779 145.299 153.595 145.074 153.464C144.815 153.316 144.52 153.244 144.222 153.258C144.213 153.257 144.203 153.258 144.194 153.257C144.184 153.258 144.175 153.257 144.165 153.258C143.762 153.239 143.367 153.377 143.063 153.643C142.759 153.908 142.57 154.281 142.534 154.684L80.073 261.048C79.9689 261.228 79.9012 261.427 79.874 261.634C79.8467 261.84 79.8604 262.05 79.9142 262.251C79.968 262.452 80.0609 262.641 80.1876 262.806C80.3142 262.971 80.4722 263.11 80.6524 263.214C80.8326 263.318 81.0315 263.385 81.2379 263.413C81.4442 263.44 81.6538 263.426 81.8548 263.372C82.0558 263.318 82.2442 263.225 82.4092 263.098C82.5743 262.971 82.7127 262.813 82.8167 262.633L144.152 158.187L202.051 262.633C202.155 262.813 202.293 262.971 202.458 263.098C202.623 263.225 202.812 263.318 203.012 263.372C203.213 263.426 203.423 263.44 203.629 263.413C203.836 263.385 204.035 263.318 204.215 263.214C204.395 263.11 204.553 262.971 204.68 262.806C204.806 262.641 204.899 262.452 204.953 262.251C205.007 262.05 205.021 261.84 204.993 261.634C204.966 261.427 204.898 261.228 204.794 261.048Z" fill="#3F3D56"/>
<path d="M134.429 242.808L141.091 241.278L138.366 214.843L128.534 217.1L134.429 242.808Z" fill="#FFB6B6"/>
<path d="M139.579 230.037L130.099 232.213L127.068 226.286L126.896 226.076C125.552 224.425 124.805 222.366 124.779 220.237L116.9 199.383L116.255 199.076C115.757 198.839 115.315 198.498 114.959 198.076C114.602 197.655 114.34 197.162 114.189 196.63C114.039 196.099 114.003 195.542 114.085 194.996C114.166 194.45 114.364 193.927 114.663 193.463L113.829 191.256L90.2917 191.299L90.2682 191.292L61.3647 183.18L64.3996 165.079L72.5301 170.196C75.2092 170.022 121.103 167.203 125.343 177.494C129.118 186.658 134.559 202.314 138.458 213.834C138.652 214.351 138.894 214.849 139.18 215.322C139.787 216.257 140.143 217.332 140.214 218.444C140.26 218.928 140.352 219.407 140.489 219.873C142.11 224.72 139.641 229.909 139.616 229.961L139.579 230.037Z" fill="#2F2E41"/>
<path d="M132.178 240.597L134.344 240.1L142.011 234.719L147.332 237.119L147.332 237.118C149.893 236.531 152.583 236.985 154.809 238.381C157.036 239.778 158.617 242.002 159.204 244.564L159.276 244.878L134.466 250.574L132.178 240.597Z" fill="#2F2E41"/>
<path d="M33.8249 241.191C34.5022 233.815 38.8203 226.43 45.746 223.814C43.2272 231.465 43.4941 239.76 46.4995 247.232C47.669 250.11 49.2693 253.189 48.3513 256.156C47.7802 258.003 46.2845 259.45 44.5905 260.379C42.8964 261.308 40.9985 261.785 39.1243 262.254L38.7628 262.573C35.5494 255.901 33.1476 248.567 33.8249 241.191Z" fill="#F0F0F0"/>
<path d="M45.82 223.951C41.8888 228.654 39.5386 234.476 39.1031 240.592C38.986 241.906 39.0767 243.232 39.372 244.518C39.7001 245.762 40.3552 246.895 41.2692 247.8C42.1044 248.661 43.0584 249.445 43.6699 250.494C43.9749 251.036 44.1621 251.636 44.2191 252.255C44.2761 252.874 44.2017 253.498 44.0007 254.087C43.538 255.566 42.5718 256.79 41.5854 257.954C40.4901 259.247 39.332 260.573 38.9027 262.254C38.8507 262.458 38.5379 262.365 38.5898 262.162C39.3366 259.237 42.0955 257.5 43.3525 254.847C43.9391 253.609 44.1564 252.186 43.5285 250.92C42.9795 249.812 41.9964 249.003 41.1432 248.138C40.2387 247.268 39.5608 246.19 39.1687 244.998C38.8089 243.731 38.6673 242.411 38.7499 241.096C38.8887 238.133 39.4923 235.21 40.5385 232.435C41.7151 229.26 43.4257 226.31 45.5963 223.713C45.7308 223.553 45.9535 223.791 45.82 223.951Z" fill="white"/>
<path d="M39.1274 238.614C38.1119 238.401 37.2048 237.835 36.5683 237.015C35.9318 236.195 35.6073 235.176 35.6526 234.139C35.6549 234.097 35.6734 234.057 35.7044 234.028C35.7353 233.999 35.7763 233.983 35.8186 233.984C35.8609 233.985 35.9012 234.002 35.9312 234.032C35.9611 234.062 35.9782 234.102 35.9789 234.145C35.9349 235.11 36.2373 236.06 36.8316 236.822C37.4259 237.584 38.2729 238.109 39.2197 238.301C39.4254 238.343 39.3319 238.656 39.1274 238.614Z" fill="white"/>
<path d="M40.7867 247.42C42.5718 246.274 43.8596 244.497 44.3935 242.444C44.4462 242.24 44.7591 242.333 44.7065 242.536C44.1469 244.672 42.8029 246.518 40.9427 247.707C40.7653 247.82 40.6103 247.532 40.7867 247.42Z" fill="white"/>
<path d="M42.0269 229.56C42.4027 229.724 42.8134 229.792 43.222 229.758C43.6307 229.724 44.0245 229.589 44.3681 229.365C44.544 229.25 44.6988 229.538 44.5241 229.652C44.1433 229.898 43.7082 230.046 43.2568 230.085C42.8054 230.123 42.3515 230.051 41.9346 229.873C41.8939 229.86 41.8599 229.831 41.8394 229.793C41.8189 229.756 41.8135 229.712 41.8243 229.67C41.8367 229.629 41.865 229.594 41.9029 229.573C41.9409 229.553 41.9854 229.548 42.0269 229.56Z" fill="white"/>
<path d="M67.5126 236.25C67.4049 236.325 67.2971 236.4 67.1893 236.478C65.7457 237.495 64.3871 238.629 63.127 239.867C63.028 239.961 62.9292 240.058 62.8331 240.154C59.8289 243.169 57.4102 246.715 55.6999 250.613C55.0208 252.165 54.4606 253.766 54.0243 255.403C53.4218 257.664 52.9483 260.163 51.6722 262.037C51.5413 262.234 51.3983 262.422 51.244 262.602L39.1809 262.989C39.153 262.977 39.1251 262.966 39.0971 262.954L38.6162 262.991C38.6328 262.905 38.6519 262.816 38.6685 262.73C38.6779 262.68 38.69 262.63 38.6995 262.58C38.7066 262.547 38.7139 262.514 38.7184 262.483C38.7208 262.472 38.7232 262.461 38.7257 262.453C38.7302 262.422 38.7376 262.394 38.7423 262.367C38.8475 261.87 38.9565 261.373 39.0691 260.876C39.069 260.873 39.069 260.873 39.0716 260.87C39.8934 257.075 41.1623 253.39 42.8518 249.893C42.9036 249.79 42.9552 249.683 43.0126 249.58C43.7971 248.031 44.7069 246.548 45.7329 245.148C46.2971 244.383 46.8997 243.646 47.5383 242.942C49.1919 241.126 51.1207 239.581 53.2541 238.365C57.5073 235.94 62.4882 234.903 67.1569 236.151C67.2763 236.183 67.3931 236.215 67.5126 236.25Z" fill="#F0F0F0"/>
<path d="M67.4896 236.404C61.521 237.791 56.1408 241.024 52.1132 245.644C51.2285 246.624 50.5037 247.736 49.9653 248.941C49.4787 250.132 49.3198 251.432 49.5049 252.705C49.6538 253.896 49.9438 255.096 49.8008 256.302C49.7184 256.918 49.5068 257.51 49.1797 258.039C48.8527 258.568 48.4177 259.021 47.9032 259.37C46.6439 260.272 45.1356 260.667 43.6473 261.003C41.9948 261.375 40.2724 261.736 38.918 262.82C38.7539 262.951 38.5599 262.689 38.7237 262.558C41.0801 260.672 44.3278 260.948 46.9282 259.586C48.1415 258.951 49.1709 257.946 49.432 256.556C49.6602 255.341 49.3622 254.103 49.2011 252.899C49.0023 251.659 49.1098 250.39 49.5142 249.202C49.9895 247.973 50.6703 246.835 51.5275 245.835C53.4214 243.552 55.6622 241.582 58.1678 239.996C61.0174 238.17 64.1581 236.846 67.4541 236.079C67.6582 236.032 67.6923 236.357 67.4896 236.404Z" fill="white"/>
<path d="M53.3235 244.081C52.64 243.299 52.2566 242.3 52.2417 241.262C52.2267 240.224 52.5812 239.215 53.2418 238.414C53.376 238.253 53.6334 238.454 53.499 238.615C52.8824 239.36 52.5523 240.3 52.5682 241.267C52.5841 242.233 52.945 243.162 53.5857 243.886C53.7248 244.044 53.4617 244.237 53.3235 244.081Z" fill="white"/>
<path d="M49.3499 252.112C51.4647 252.273 53.5622 251.63 55.2242 250.312C55.3888 250.181 55.5829 250.443 55.4185 250.574C53.6864 251.942 51.5023 252.607 49.302 252.435C49.0923 252.419 49.1413 252.096 49.3499 252.112Z" fill="white"/>
<path d="M61.0866 238.598C61.2879 238.955 61.5748 239.257 61.9215 239.476C62.2682 239.695 62.6639 239.825 63.0729 239.853C63.2827 239.867 63.2334 240.19 63.025 240.176C62.5732 240.143 62.1364 239.999 61.7528 239.758C61.3692 239.517 61.0505 239.185 60.8245 238.792C60.8 238.757 60.79 238.714 60.7963 238.671C60.8026 238.629 60.8248 238.591 60.8584 238.564C60.8932 238.538 60.9367 238.528 60.9794 238.534C61.0222 238.54 61.0607 238.563 61.0866 238.598Z" fill="white"/>
<path d="M231.189 241.191C230.512 233.815 226.194 226.43 219.268 223.814C221.787 231.465 221.52 239.76 218.514 247.232C217.345 250.11 215.745 253.189 216.663 256.156C217.234 258.003 218.729 259.45 220.423 260.379C222.118 261.308 224.015 261.785 225.89 262.254L226.251 262.573C229.465 255.901 231.866 248.567 231.189 241.191Z" fill="#F0F0F0"/>
<path d="M219.194 223.951C223.125 228.654 225.475 234.476 225.911 240.592C226.028 241.906 225.937 243.232 225.642 244.518C225.314 245.762 224.659 246.895 223.745 247.8C222.91 248.661 221.956 249.445 221.344 250.494C221.039 251.036 220.852 251.636 220.795 252.255C220.738 252.874 220.812 253.498 221.013 254.087C221.476 255.566 222.442 256.79 223.429 257.954C224.524 259.247 225.682 260.573 226.111 262.254C226.163 262.458 226.476 262.365 226.424 262.162C225.677 259.237 222.919 257.5 221.661 254.847C221.075 253.609 220.858 252.186 221.485 250.92C222.034 249.812 223.018 249.003 223.871 248.138C224.775 247.268 225.453 246.19 225.845 244.998C226.205 243.731 226.347 242.411 226.264 241.096C226.125 238.133 225.522 235.21 224.475 232.435C223.299 229.26 221.588 226.31 219.418 223.713C219.283 223.553 219.06 223.791 219.194 223.951Z" fill="white"/>
<path d="M225.887 238.614C226.902 238.402 227.809 237.835 228.446 237.015C229.082 236.195 229.407 235.176 229.362 234.139C229.359 234.097 229.341 234.057 229.31 234.028C229.279 233.999 229.238 233.983 229.196 233.984C229.153 233.985 229.113 234.002 229.083 234.032C229.053 234.062 229.036 234.102 229.035 234.145C229.079 235.11 228.777 236.06 228.183 236.822C227.588 237.584 226.741 238.109 225.795 238.301C225.589 238.343 225.682 238.656 225.887 238.614Z" fill="white"/>
<path d="M224.226 247.42C222.44 246.274 221.153 244.497 220.619 242.444C220.566 242.24 220.253 242.333 220.306 242.536C220.865 244.672 222.209 246.518 224.069 247.707C224.247 247.82 224.402 247.532 224.226 247.42Z" fill="white"/>
<path d="M222.986 229.56C222.611 229.724 222.2 229.792 221.791 229.758C221.383 229.724 220.989 229.589 220.645 229.365C220.469 229.25 220.315 229.538 220.489 229.652C220.87 229.898 221.305 230.046 221.757 230.085C222.208 230.123 222.662 230.051 223.079 229.873C223.119 229.86 223.154 229.831 223.174 229.793C223.194 229.756 223.2 229.712 223.189 229.67C223.177 229.629 223.148 229.594 223.11 229.573C223.073 229.553 223.028 229.548 222.986 229.56Z" fill="white"/>
<path d="M197.501 236.25C197.609 236.325 197.717 236.4 197.825 236.478C199.268 237.495 200.627 238.629 201.887 239.867C201.986 239.961 202.085 240.058 202.181 240.154C205.185 243.169 207.604 246.715 209.314 250.613C209.993 252.165 210.553 253.766 210.99 255.403C211.592 257.664 212.066 260.163 213.342 262.037C213.473 262.234 213.616 262.422 213.77 262.602L225.833 262.989C225.861 262.977 225.889 262.966 225.917 262.954L226.398 262.991C226.381 262.905 226.362 262.816 226.346 262.73C226.336 262.68 226.324 262.63 226.315 262.58C226.307 262.547 226.3 262.514 226.296 262.483C226.293 262.472 226.291 262.461 226.288 262.453C226.284 262.422 226.276 262.394 226.272 262.367C226.167 261.87 226.058 261.373 225.945 260.876C225.945 260.873 225.945 260.873 225.943 260.87C225.121 257.075 223.852 253.39 222.162 249.893C222.11 249.79 222.059 249.683 222.002 249.58C221.217 248.031 220.307 246.548 219.281 245.148C218.717 244.383 218.114 243.646 217.476 242.942C215.822 241.126 213.893 239.581 211.76 238.365C207.507 235.94 202.526 234.903 197.857 236.151C197.738 236.183 197.621 236.215 197.501 236.25Z" fill="#F0F0F0"/>
<path d="M197.524 236.404C203.493 237.791 208.873 241.024 212.9 245.644C213.785 246.624 214.51 247.736 215.048 248.941C215.535 250.132 215.694 251.432 215.509 252.705C215.36 253.895 215.07 255.096 215.213 256.302C215.295 256.918 215.507 257.51 215.834 258.039C216.161 258.568 216.596 259.021 217.11 259.37C218.37 260.272 219.878 260.667 221.366 261.003C223.019 261.375 224.741 261.736 226.096 262.82C226.26 262.951 226.454 262.689 226.29 262.558C223.934 260.672 220.686 260.948 218.086 259.586C216.872 258.951 215.843 257.946 215.582 256.556C215.353 255.341 215.651 254.103 215.813 252.899C216.011 251.659 215.904 250.39 215.5 249.202C215.024 247.973 214.343 246.835 213.486 245.835C211.592 243.552 209.351 241.582 206.846 239.996C203.996 238.17 200.856 236.846 197.56 236.079C197.356 236.032 197.321 236.357 197.524 236.404Z" fill="white"/>
<path d="M211.692 244.081C212.375 243.299 212.759 242.3 212.774 241.262C212.789 240.224 212.434 239.215 211.773 238.414C211.639 238.253 211.382 238.454 211.516 238.615C212.133 239.36 212.463 240.3 212.447 241.267C212.431 242.233 212.07 243.162 211.43 243.886C211.29 244.044 211.554 244.237 211.692 244.081Z" fill="white"/>
<path d="M215.664 252.112C213.549 252.273 211.452 251.63 209.79 250.312C209.625 250.181 209.431 250.443 209.596 250.574C211.328 251.942 213.512 252.607 215.712 252.435C215.922 252.419 215.873 252.096 215.664 252.112Z" fill="white"/>
<path d="M203.926 238.598C203.725 238.955 203.438 239.257 203.092 239.476C202.745 239.695 202.349 239.825 201.94 239.853C201.73 239.867 201.78 240.19 201.988 240.176C202.44 240.143 202.877 239.999 203.26 239.758C203.644 239.517 203.963 239.185 204.189 238.792C204.213 238.757 204.223 238.714 204.217 238.671C204.21 238.629 204.188 238.591 204.155 238.564C204.12 238.538 204.076 238.528 204.034 238.534C203.991 238.54 203.952 238.563 203.926 238.598Z" fill="white"/>
<path d="M314.6 263.581C314.6 263.692 314.556 263.798 314.477 263.877C314.398 263.955 314.292 264 314.181 264H0.418914C0.307811 264 0.201258 263.956 0.122696 263.877C0.0441348 263.799 0 263.692 0 263.581C0 263.47 0.0441348 263.363 0.122696 263.284C0.201258 263.206 0.307811 263.162 0.418914 263.162H314.181C314.292 263.162 314.398 263.206 314.477 263.285C314.556 263.363 314.6 263.47 314.6 263.581Z" fill="#3F3D56"/>
<path d="M202.102 101.44C202.977 101.44 203.686 100.73 203.686 99.8545C203.686 98.9792 202.977 98.2695 202.102 98.2695C201.227 98.2695 200.518 98.9792 200.518 99.8545C200.518 100.73 201.227 101.44 202.102 101.44Z" fill="#3F3D56"/>
<path d="M182.267 112.063L203.624 98.6386C203.817 98.5171 204.033 98.4361 204.258 98.4004C204.483 98.3647 204.714 98.3751 204.935 98.4309C205.156 98.4868 205.364 98.5869 205.545 98.7253C205.727 98.8636 205.878 99.0374 205.991 99.236C206.103 99.4346 206.174 99.6539 206.2 99.8808C206.225 100.108 206.204 100.337 206.139 100.556C206.073 100.775 205.963 100.978 205.817 101.153C205.671 101.328 205.49 101.471 205.287 101.575L182.803 113.01C182.679 113.073 182.534 113.086 182.4 113.046C182.266 113.005 182.153 112.915 182.083 112.793C182.014 112.671 181.995 112.527 182.029 112.391C182.063 112.255 182.149 112.138 182.267 112.063Z" fill="#E4E4E4"/>
<path d="M139.421 140.97C139.253 140.72 139.165 140.424 139.17 140.123C139.174 139.821 139.27 139.528 139.446 139.283C139.807 138.799 140.288 138.417 140.842 138.175C141.985 137.593 143.215 137.204 144.485 137.023C145.45 136.886 146.502 136.842 147.251 136.218C147.994 135.598 148.409 134.438 149.372 134.341C150.303 134.248 151.019 135.267 151.952 135.331C153.103 135.409 153.857 134.061 154.977 133.784C155.726 133.599 156.497 133.926 157.2 134.245L161.42 136.161L163.583 137.142C164.339 137.485 165.191 137.947 165.333 138.765C165.529 139.888 164.28 140.681 163.213 141.08C155.587 143.896 147.209 143.897 139.583 141.083" fill="black"/>
<path d="M145.778 161.669C176.399 161.669 201.223 158.121 201.223 153.744C201.223 149.367 176.399 145.819 145.778 145.819C115.157 145.819 90.334 149.367 90.334 153.744C90.334 158.121 115.157 161.669 145.778 161.669Z" fill="#3F3D56"/>
<path d="M258.251 202.879H220.232C218.482 202.879 217.064 204.299 217.064 206.049C217.064 207.8 218.482 209.219 220.232 209.219H258.251C260.001 209.219 261.419 207.8 261.419 206.049C261.419 204.299 260.001 202.879 258.251 202.879Z" fill="#3F3D56"/>
<path d="M276.676 146.362L264.119 206.046L267.39 221.321L273.564 250.151V263.109C273.565 263.127 273.564 263.144 273.561 263.162C273.559 263.448 273.506 263.732 273.406 264H268.442C268.342 263.732 268.289 263.448 268.287 263.162C268.284 263.144 268.283 263.127 268.284 263.109V250.707L262.68 224.541L261.546 219.257L259.353 209.018L258.719 206.053V206.049L259.346 203.076L259.828 200.783L271.508 145.277C271.579 144.937 271.716 144.615 271.912 144.328C272.108 144.041 272.358 143.796 272.648 143.606C272.938 143.416 273.263 143.285 273.604 143.221C273.945 143.157 274.295 143.16 274.635 143.232C274.974 143.303 275.297 143.44 275.583 143.636C275.869 143.832 276.114 144.083 276.304 144.373C276.493 144.664 276.624 144.989 276.688 145.331C276.752 145.672 276.748 146.022 276.676 146.362Z" fill="#3F3D56"/>
<path d="M222.872 206.049V263.109C222.873 263.127 222.872 263.144 222.869 263.162C222.867 263.448 222.814 263.732 222.714 264H217.75C217.65 263.732 217.598 263.448 217.595 263.162C217.593 263.144 217.591 263.127 217.592 263.109V206.049C217.592 205.349 217.87 204.677 218.365 204.181C218.86 203.686 219.532 203.407 220.232 203.407C220.932 203.407 221.604 203.686 222.099 204.181C222.594 204.677 222.872 205.349 222.872 206.049Z" fill="#3F3D56"/>
<path d="M226.569 196.539H251.915C254.436 196.539 256.853 197.541 258.636 199.324C260.418 201.108 261.419 203.527 261.419 206.049H217.064C217.064 203.527 218.065 201.108 219.848 199.324C221.63 197.541 224.048 196.539 226.569 196.539Z" fill="#3F3D56"/>
<path d="M264.588 224.541H220.233C219.533 224.541 218.861 224.263 218.366 223.768C217.871 223.272 217.593 222.6 217.593 221.9C217.593 221.199 217.871 220.527 218.366 220.032C218.861 219.536 219.533 219.258 220.233 219.258H264.588C265.289 219.258 265.96 219.536 266.455 220.032C266.951 220.527 267.229 221.199 267.229 221.9C267.229 222.6 266.951 223.272 266.455 223.768C265.96 224.263 265.289 224.541 264.588 224.541Z" fill="#3F3D56"/>
<path d="M58.268 209.315H103.008C104.757 209.315 106.176 207.895 106.176 206.145V205.184C106.176 203.433 104.757 202.014 103.008 202.014H58.268C56.5182 202.014 55.0998 203.433 55.0998 205.184V206.145C55.0998 207.895 56.5182 209.315 58.268 209.315Z" fill="#3F3D56"/>
<path d="M57.8061 205.707L56.9963 209.046L54.0252 221.276L52.744 226.559L46.7946 251.066V261.7C46.7961 262.221 46.6417 262.73 46.3511 263.162C46.1227 263.511 45.812 263.799 45.4464 264H42.8625C42.4969 263.799 42.1862 263.511 41.9578 263.162C41.6672 262.73 41.5127 262.221 41.5142 261.7V250.432L48.1253 223.206L52.3919 205.623L37.9236 136.852C37.852 136.512 37.8479 136.162 37.9117 135.821C37.9755 135.48 38.1058 135.155 38.2952 134.865C38.4846 134.574 38.7294 134.324 39.0155 134.128C39.3017 133.932 39.6237 133.794 39.963 133.723C40.3023 133.652 40.6523 133.648 40.9931 133.712C41.3338 133.776 41.6586 133.907 41.9488 134.097C42.239 134.287 42.489 134.532 42.6844 134.819C42.8798 135.105 43.0169 135.427 43.0878 135.767L56.4614 199.318L57.0775 202.249L57.7954 205.665L57.8061 205.707Z" fill="#3F3D56"/>
<path d="M105.169 205.666V261.7C105.17 262.221 105.016 262.73 104.725 263.162C104.497 263.511 104.186 263.799 103.82 264H101.233C100.869 263.798 100.56 263.51 100.332 263.162C100.041 262.73 99.8866 262.221 99.8882 261.7V205.666C99.8882 204.965 100.166 204.293 100.662 203.798C101.157 203.302 101.828 203.024 102.528 203.024C103.229 203.024 103.9 203.302 104.395 203.798C104.89 204.293 105.169 204.965 105.169 205.666Z" fill="#3F3D56"/>
<path d="M106.176 205.665H55.0997V204.224C55.0997 202.975 55.3456 201.738 55.8232 200.584C56.3009 199.431 57.001 198.382 57.8836 197.499C58.7662 196.616 59.814 195.915 60.9672 195.438C62.1203 194.96 63.3563 194.714 64.6045 194.714H96.671C99.1919 194.714 101.609 195.716 103.392 197.499C105.174 199.283 106.176 201.701 106.176 204.224L106.176 205.665Z" fill="#3F3D56"/>
<path d="M102.527 226.558H51.4508C50.7505 226.558 50.079 226.28 49.5839 225.784C49.0887 225.289 48.8105 224.617 48.8105 223.916C48.8105 223.216 49.0887 222.544 49.5839 222.048C50.079 221.553 50.7505 221.275 51.4508 221.275H102.527C103.227 221.275 103.899 221.553 104.394 222.048C104.889 222.544 105.167 223.216 105.167 223.916C105.167 224.617 104.889 225.289 104.394 225.784C103.899 226.28 103.227 226.558 102.527 226.558Z" fill="#3F3D56"/>
<path d="M168.168 249.601L162.619 246.946L170.242 223.739L178.432 227.657L168.168 249.601Z" fill="#9E616A"/>
<path d="M205.774 247.5L199.808 248.973L191.162 226.132L199.969 223.958L205.774 247.5Z" fill="#9E616A"/>
<path d="M182.905 148.731C183.697 150.017 184.959 150.942 186.424 151.31C187.888 151.677 189.437 151.458 190.742 150.698C191.004 150.539 191.253 150.359 191.486 150.159L209.029 160.232L208.267 149.891L191.724 141.911C190.824 141.006 189.649 140.426 188.384 140.261C187.119 140.096 185.835 140.356 184.733 141C184.099 141.381 183.547 141.885 183.111 142.483C182.674 143.08 182.361 143.759 182.191 144.48C182.021 145.2 181.996 145.947 182.119 146.677C182.241 147.407 182.509 148.106 182.905 148.731Z" fill="#9E616A"/>
<path d="M201.486 156.439L204.587 158.33L218.515 166.828C219.429 167.401 220.448 167.787 221.512 167.966C222.577 168.145 223.666 168.111 224.717 167.869C225.769 167.626 226.762 167.178 227.641 166.551C228.519 165.924 229.265 165.129 229.837 164.213C230.868 162.513 231.233 160.491 230.861 158.538L224.671 127.595C224.442 126.38 223.954 125.229 223.24 124.22C222.525 123.212 221.602 122.369 220.532 121.751C219.463 121.132 218.272 120.752 217.042 120.636C215.812 120.52 214.572 120.671 213.406 121.079C211.445 121.768 209.821 123.179 208.864 125.024C207.906 126.868 207.687 129.009 208.251 131.01L214.723 152.97L204.802 148.342L201.486 156.439Z" fill="#E6E6E6"/>
<path d="M194.154 241.098L184.606 221.938L184.607 221.894L185.55 186.751C185.562 186.438 185.587 186.124 185.625 185.815C185.792 184.406 186.237 183.044 186.935 181.809C187.633 180.574 188.569 179.49 189.69 178.621C190.764 177.781 191.994 177.163 193.309 176.803C194.623 176.443 195.997 176.349 197.348 176.526L224.652 180.061L225.598 176.187L225.775 176.123L251.935 166.53L252.086 166.775C255.512 172.353 257.908 183.495 258.56 186.777L258.569 186.824C258.583 186.894 258.591 186.936 258.594 186.948C259.941 192.548 254.376 201.826 248.833 203.22C237.156 206.198 226.713 203.875 214.621 201.185C210.285 200.22 205.804 199.223 200.867 198.361L201.014 201.268C201.134 203.505 201.599 205.71 202.391 207.806C203.271 210.385 203.967 212.422 202.497 216.669L201.786 218.724C202.154 219.744 202.281 220.836 202.156 221.914C202.031 222.991 201.658 224.025 201.066 224.933L200.923 225.152L207.22 241.095L194.154 241.098Z" fill="#2F2E41"/>
<path d="M178.465 232.625L167.079 231.566L171.113 218.659C171.945 210.23 174.043 201.976 177.335 194.173L182.837 181.126C182.85 180.836 182.874 180.544 182.91 180.257C183.076 178.848 183.521 177.486 184.219 176.251C184.917 175.016 185.854 173.932 186.975 173.063C188.049 172.223 189.279 171.605 190.593 171.246C191.908 170.886 193.281 170.791 194.633 170.968L221.896 174.498L223.083 164.526L249.251 161.023L249.371 161.218C253.945 168.664 256.848 174.493 258.509 179.563C258.592 179.821 258.667 180.085 258.73 180.348C260.086 185.986 256.701 191.703 251.184 193.091C237.126 196.677 220.221 196.577 197.994 192.776L187.237 218.389C186.209 220.836 184.936 223.172 183.438 225.362L178.465 232.625Z" fill="#2F2E41"/>
<path d="M218.183 103.32C225.468 103.32 231.373 97.2798 231.373 89.829C231.373 82.3782 225.468 76.3381 218.183 76.3381C210.899 76.3381 204.994 82.3782 204.994 89.829C204.994 97.2798 210.899 103.32 218.183 103.32Z" fill="#9E616A"/>
<path d="M221.991 174.969L220.098 168.185L219.633 164.839L216.913 164.93L211.574 152.601L209.501 149.35C209.078 148.905 208.695 148.476 208.352 148.065C206.191 145.622 204.459 142.831 203.228 139.81C202.365 137.639 201.859 135.344 201.728 133.012C201.341 126.123 204.243 118.835 210.601 110.732C210.497 110.445 210.427 110.147 210.394 109.844C210.28 108.859 210.56 107.87 211.171 107.091C211.783 106.312 212.677 105.805 213.66 105.683L219.792 104.994C220.269 104.94 220.752 104.981 221.213 105.115C221.673 105.25 222.103 105.475 222.476 105.777C222.865 106.089 223.189 106.476 223.427 106.915C223.666 107.353 223.815 107.835 223.866 108.332C223.948 109.101 223.797 109.876 223.432 110.558C226.558 110.955 229.502 112.246 231.913 114.275C234.324 116.305 236.098 118.988 237.024 122.001C240.693 128.855 243.617 136.082 245.747 143.559C246.167 145.024 245.98 146.533 245.799 147.992C245.632 149.34 245.46 150.734 245.75 152.123C246.045 153.536 246.756 154.954 247.508 156.454C248.37 158.173 249.261 159.95 249.501 161.762L249.518 161.889L221.991 174.969Z" fill="#E4E4E4"/>
<path opacity="0.2" d="M203.392 139.743C204.618 142.747 206.34 145.522 208.488 147.952C208.856 148.392 209.244 148.823 209.651 149.256L211.737 152.531C219.428 146.763 225.66 124.052 225.66 124.052L216.982 122.363L203.392 139.743Z" fill="black"/>
<path d="M198.138 104.581C198.898 105.887 199.119 107.438 198.753 108.904C198.388 110.37 197.464 111.636 196.18 112.432C195.917 112.589 195.641 112.725 195.355 112.837L195.969 133.066L187.213 127.552L187.972 109.187C187.6 107.965 187.642 106.653 188.093 105.458C188.543 104.262 189.377 103.25 190.463 102.578C191.096 102.195 191.799 101.943 192.53 101.836C193.262 101.73 194.008 101.771 194.723 101.958C195.439 102.144 196.11 102.473 196.696 102.923C197.283 103.374 197.773 103.937 198.138 104.581Z" fill="#9E616A"/>
<path d="M196.738 125.43L187.109 126.8L187.523 146.75C187.547 148.173 187.935 149.567 188.649 150.798C189.362 152.029 190.379 153.057 191.602 153.785C193.096 154.664 194.835 155.034 196.557 154.838C198.28 154.643 199.892 153.892 201.151 152.7L223.883 130.823C225.482 129.305 226.44 127.231 226.558 125.028C226.676 122.826 225.946 120.662 224.518 118.981C223.811 118.144 222.944 117.458 221.967 116.963C220.991 116.468 219.924 116.174 218.832 116.099C217.74 116.025 216.644 116.17 215.609 116.527C214.574 116.884 213.621 117.446 212.807 118.179C212.582 118.38 212.369 118.593 212.167 118.816L197.157 136.094L196.738 125.43Z" fill="#E6E6E6"/>
<path d="M116.206 255.56L123.04 255.56L126.291 229.184L116.205 229.185L116.206 255.56Z" fill="#FFB6B6"/>
<path d="M77.4677 103.712C85.0011 103.712 91.1082 97.6014 91.1082 90.0638C91.1082 82.5262 85.0011 76.4158 77.4677 76.4158C69.9342 76.4158 63.8271 82.5262 63.8271 90.0638C63.8271 97.6014 69.9342 103.712 77.4677 103.712Z" fill="#FFB6B6"/>
<path d="M125.271 247.435H115.593L113.126 244.126L112.458 241.008L111.883 240.452C111.103 239.703 110.599 238.712 110.452 237.641C110.305 236.569 110.525 235.48 111.074 234.548L104.06 201.805C102.223 201.644 81.5059 199.79 67.1048 197.24C63.4192 196.588 60.5417 194.795 58.5521 191.913C53.6632 184.829 55.7575 173.368 55.7791 173.253L55.8033 173.125L55.9325 173.111L89.5704 169.333L89.6157 169.355C90.7319 169.884 117.004 182.363 121.297 186.658C123.236 188.598 127.561 200.123 128.529 212.375C128.703 214.57 128.079 216.805 127.475 218.967C126.91 220.99 126.326 223.081 126.441 225.059C126.62 228.109 126.788 231.31 126.943 234.571C126.968 235.09 127.359 235.628 127.737 236.148C128.133 236.691 128.506 237.204 128.53 237.741C128.76 242.948 125.358 247.324 125.324 247.368L125.271 247.435Z" fill="#2F2E41"/>
<path d="M127.475 126.415C126.742 126.215 125.974 126.178 125.225 126.306C124.477 126.435 123.765 126.726 123.141 127.159C122.517 127.593 121.996 128.158 121.614 128.815C121.231 129.472 120.998 130.204 120.929 130.961L109.596 134.506L110.069 141.922L126.004 136.692C127.282 136.723 128.528 136.283 129.504 135.457C130.48 134.63 131.12 133.474 131.301 132.207C131.483 130.941 131.193 129.651 130.488 128.584C129.783 127.516 128.711 126.745 127.475 126.415Z" fill="#FFB6B6"/>
<path d="M120.08 138.688L111.609 141.896L111.392 142.316C110.873 143.324 109.975 144.085 108.895 144.43C107.816 144.775 106.643 144.677 105.636 144.158L86.5966 151.368C86.5966 151.368 78.094 142.855 72.0405 135.257L74.1037 122.56C74.5815 119.614 75.5971 116.781 77.0998 114.203C89.5144 116.927 96.6408 134.291 96.6408 134.291L119.015 130.02L120.08 138.688Z" fill="black"/>
<path d="M75.5289 102.982C72.114 103.905 68.3492 102.678 65.6843 100.351C63.0193 98.024 61.3522 94.7263 60.3917 91.3201C59.6882 88.8255 59.3546 86.0564 60.4647 83.7144C61.5749 81.3724 64.5626 79.7924 66.8677 80.9754C65.4457 79.3177 66.1561 76.5761 67.8169 75.1581C69.4776 73.74 71.7581 73.3335 73.9301 73.1112C77.0822 72.7887 80.3381 72.7526 83.3376 73.7744C86.3371 74.7961 89.0624 77.0299 90.0011 80.0579C90.9599 80.5045 92.0396 80.6204 93.0713 80.3874C94.1029 80.1543 95.0282 79.5855 95.7021 78.77C95.8759 79.7066 95.7363 80.6744 95.305 81.5236C94.8737 82.3729 94.1747 83.0562 93.3162 83.468L97.912 81.9771C98.7023 83.651 97.3174 85.7227 95.5464 86.2588C93.7754 86.7948 91.8636 86.2089 90.183 85.4345C88.5024 84.66 86.8737 83.681 85.0482 83.3789C83.2227 83.0769 81.0784 83.6638 80.234 85.311C79.7918 86.1738 79.7687 87.1843 79.5119 88.1193C79.2552 89.0543 78.6047 90.0237 77.6386 90.1002C77.0282 90.1485 76.4306 89.8232 75.822 89.8897C75.0674 89.9722 74.4898 90.6561 74.2889 91.3885C74.1373 92.1349 74.1355 92.9039 74.2834 93.651L75.4508 102.579" fill="#2F2E41"/>
<path d="M58.6301 193.544C58.6275 193.544 58.6249 193.544 58.6224 193.543L58.5145 193.525L58.4833 193.42C58.0911 192.1 57.5921 190.749 57.1095 189.442C56.3987 187.633 55.7986 185.782 55.3124 183.9C54.9297 182.1 54.6644 180.278 54.5181 178.444C54.3835 177.112 54.2443 175.735 54.0075 174.38C53.9024 173.778 54.3008 173.208 54.686 172.657C55.0432 172.146 55.3806 171.663 55.3098 171.207C55.2374 170.74 54.7199 170.227 54.2194 169.731C53.6707 169.187 53.1034 168.625 53.0231 168.033C51.9297 159.96 51.4207 151.819 51.5002 143.672C51.6133 132.401 52.1224 124.719 53.0134 120.838C55.4092 110.402 66.478 108.498 68.2106 108.263C68.3951 107.771 68.6788 107.323 69.0441 106.945C69.4093 106.568 69.8483 106.27 70.3336 106.07C70.819 105.869 71.3403 105.771 71.8653 105.781C72.3902 105.791 72.9074 105.909 73.3848 106.128L81.2493 109.73C82.8446 110.463 84.2722 111.517 85.4433 112.826C86.6144 114.134 87.504 115.67 88.0568 117.337L89.2251 120.901L89.8103 144.823L86.5673 161.67L92.9038 171.18C59.1325 189.731 58.7388 193.544 58.6301 193.544Z" fill="black"/>
<path d="M112.528 252.902L114.75 252.902L123.426 249.372L128.075 252.901H128.076C130.704 252.902 133.224 253.946 135.082 255.805C136.94 257.664 137.984 260.186 137.984 262.815V263.137L112.529 263.138L112.528 252.902Z" fill="#2F2E41"/>
<path d="M130.312 143.486C129.657 143.102 128.925 142.865 128.169 142.794C127.413 142.723 126.65 142.818 125.934 143.074C125.219 143.329 124.568 143.738 124.028 144.273C123.488 144.807 123.071 145.454 122.808 146.167L110.942 146.629L109.344 152.159L126.212 153.023C127.438 153.387 128.755 153.288 129.913 152.745C131.071 152.202 131.99 151.252 132.496 150.077C133.001 148.901 133.058 147.581 132.655 146.367C132.253 145.152 131.419 144.127 130.312 143.486Z" fill="#FFB6B6"/>
<path d="M120.565 153.619L108.377 153.467L106.834 153.446L82.0368 153.134C82.0368 153.134 75.303 146.706 69.4395 140.088L70.2613 134.141C71.063 128.304 73.9569 122.957 78.4045 119.095C86.8025 124.71 91.6727 135.823 91.6727 135.823L99.8385 139.479C105.585 139.736 111.185 141.377 116.163 144.262L118.848 145.819L120.565 153.619Z" fill="black"/>
<path d="M210.128 258.749L206.073 259.751L204.404 256.099L203.495 260.387L192.74 263.043C192.224 263.171 191.681 263.13 191.191 262.927C190.7 262.723 190.287 262.369 190.012 261.914C189.737 261.459 189.615 260.929 189.662 260.4C189.71 259.87 189.926 259.37 190.278 258.973L197.403 250.916L196.448 247.044L205.615 245.352L210.128 258.749Z" fill="#2F2E41"/>
<path d="M167.166 260.002L163.299 258.423L164.099 254.487L160.841 257.419L150.584 253.23C150.092 253.029 149.678 252.676 149.401 252.223C149.123 251.77 148.998 251.24 149.044 250.71C149.089 250.181 149.302 249.68 149.652 249.28C150.002 248.881 150.471 248.604 150.989 248.489L161.489 246.174L162.996 242.481L171.401 246.514L167.166 260.002Z" fill="#2F2E41"/>
<path d="M153.7 152.336H150.532C147.125 152.332 143.859 150.977 141.45 148.566C139.041 146.156 137.686 142.889 137.683 139.48V139.304H166.549V139.48C166.545 142.889 165.19 146.156 162.781 148.566C160.372 150.977 157.106 152.332 153.7 152.336Z" fill="#E4E4E4"/>
<path d="M150.53 134.724C150.53 135.6 148.946 136.309 148.946 136.309C148.946 136.309 147.362 135.6 147.362 134.724C147.362 133.849 148.946 133.139 148.946 133.139C148.946 133.139 150.53 133.849 150.53 134.724Z" fill="#3F3D56"/>
<path d="M160.036 134.724C160.036 135.6 158.452 136.309 158.452 136.309C158.452 136.309 156.868 135.6 156.868 134.724C156.868 133.849 158.452 133.139 158.452 133.139C158.452 133.139 160.036 133.849 160.036 134.724Z" fill="#3F3D56"/>
<path d="M153.699 137.894C153.699 138.77 152.114 139.479 152.114 139.479C152.114 139.479 150.53 138.77 150.53 137.894C150.53 137.019 152.114 136.309 152.114 136.309C152.114 136.309 153.699 137.019 153.699 137.894Z" fill="#3F3D56"/>
<path d="M142.61 131.378C143.485 131.378 144.195 130.668 144.195 129.793C144.195 128.918 143.485 128.208 142.61 128.208C141.736 128.208 141.026 128.918 141.026 129.793C141.026 130.668 141.736 131.378 142.61 131.378Z" fill="#3F3D56"/>
<path d="M119.571 126.387L144.556 129.839C144.782 129.871 144.999 129.947 145.195 130.065C145.39 130.183 145.56 130.339 145.693 130.524C145.827 130.709 145.922 130.919 145.972 131.142C146.022 131.364 146.027 131.595 145.985 131.819C145.944 132.044 145.857 132.258 145.731 132.448C145.605 132.638 145.441 132.801 145.25 132.926C145.059 133.051 144.845 133.136 144.621 133.176C144.396 133.216 144.166 133.21 143.943 133.158L119.374 127.457C119.238 127.425 119.119 127.342 119.042 127.225C118.965 127.108 118.936 126.965 118.962 126.827C118.987 126.69 119.065 126.567 119.178 126.485C119.292 126.403 119.433 126.368 119.571 126.387Z" fill="#E4E4E4"/>
<path d="M149.932 47.6248V0H146.764V47.6248C142.435 48.02 138.41 50.0198 135.479 53.2316C132.548 56.4435 130.923 60.6355 130.922 64.9847V69.7397H142.011C142.011 71.4211 142.679 73.0337 143.867 74.2227C145.055 75.4117 146.667 76.0797 148.348 76.0797C150.028 76.0797 151.64 75.4117 152.828 74.2227C154.017 73.0337 154.684 71.4211 154.684 69.7397H165.773V64.9847C165.773 60.6355 164.147 56.4435 161.216 53.2316C158.286 50.0198 154.261 48.02 149.932 47.6248Z" fill="#F0F0F0"/>
<path d="M190.724 35.7186V0H188.348V35.7186C185.101 36.015 182.082 37.5148 179.884 39.9237C177.686 42.3326 176.467 45.4766 176.467 48.7385V52.3048H184.783C184.783 53.5659 185.284 54.7753 186.175 55.667C187.067 56.5588 188.275 57.0597 189.536 57.0597C190.796 57.0597 192.005 56.5588 192.896 55.667C193.788 54.7753 194.288 53.5659 194.288 52.3048H202.605V48.7385C202.604 45.4766 201.386 42.3326 199.187 39.9237C196.989 37.5148 193.971 36.015 190.724 35.7186Z" fill="#F0F0F0"/>
<path d="M110.46 35.7186V0H108.084V35.7186C104.837 36.015 101.819 37.5148 99.6206 39.9237C97.4224 42.3326 96.2035 45.4766 96.2031 48.7385V52.3048H104.52C104.52 53.5659 105.02 54.7753 105.912 55.667C106.803 56.5588 108.012 57.0597 109.272 57.0597C110.533 57.0597 111.741 56.5588 112.633 55.667C113.524 54.7753 114.025 53.5659 114.025 52.3048H122.341V48.7385C122.341 45.4766 121.122 42.3326 118.924 39.9237C116.726 37.5148 113.707 36.015 110.46 35.7186Z" fill="#F0F0F0"/>
<path d="M253.476 83.9783C251.234 81.3624 250.168 77.8917 248.376 74.9212C246.584 71.9507 243.465 69.2921 240.17 69.9834C237.899 70.4599 236.143 72.4653 235.255 74.701C234.366 76.9368 234.2 79.4023 234.044 81.8177C234.099 76.854 230.83 72.0419 226.328 70.458C221.826 68.8742 216.438 70.6409 213.609 74.6287C212.374 73.4838 210.762 72.8319 209.079 72.7965C207.396 72.7612 205.759 73.3448 204.477 74.4369C201.947 76.6999 201.387 81.007 203.248 83.8935C205.109 86.7799 209.139 87.8552 212.097 86.2543L213.143 87.2167C212.554 89.2763 213.695 91.7092 215.614 92.4845C217.17 93.1132 219.366 93.0086 219.948 94.6421C220.355 95.7836 219.595 97.0019 218.786 97.879C217.977 98.7561 217.017 99.6619 216.92 100.876C216.773 102.707 218.664 103.99 220.384 104.376C224.53 105.308 229.13 103.387 231.519 99.7261C231.566 99.6555 231.616 99.5848 231.67 99.514C233.01 97.7986 233.987 95.8277 234.541 93.7217C235.095 91.6157 235.214 89.4189 234.89 87.2654C234.756 86.4193 234.891 85.79 235.474 85.5896C237.994 84.7235 245.055 86.5413 247.191 88.1842C249.328 89.8271 251.039 92.0013 253.098 93.7502C255.156 95.4991 257.779 96.8482 260.392 96.3719C262.485 95.9905 264.266 94.4701 265.464 92.6362C266.661 90.8023 267.351 88.6646 267.968 86.5402C263.339 89.2154 257.005 88.0956 253.476 83.9783Z" fill="#2F2E41"/>
</svg>
