<svg width="363" height="480" viewBox="0 0 363 480" fill="none" xmlns="http://www.w3.org/2000/svg">
<path d="M72.2764 455.192C71.1671 455.192 70.2071 454.952 69.3964 454.472C68.5964 453.981 67.9778 453.304 67.5404 452.44C67.1031 451.565 66.8844 450.557 66.8844 449.416C66.8844 448.264 67.1031 447.256 67.5404 446.392C67.9778 445.517 68.5964 444.835 69.3964 444.344C70.2071 443.853 71.1671 443.608 72.2764 443.608C73.5884 443.608 74.6604 443.928 75.4924 444.568C76.3244 445.208 76.8524 446.104 77.0764 447.256H75.1884C75.0391 446.605 74.7191 446.088 74.2284 445.704C73.7378 445.32 73.0818 445.128 72.2604 445.128C71.1404 445.128 70.2551 445.512 69.6044 446.28C68.9538 447.037 68.6284 448.083 68.6284 449.416C68.6284 450.739 68.9538 451.779 69.6044 452.536C70.2551 453.293 71.1404 453.672 72.2604 453.672C73.0818 453.672 73.7378 453.491 74.2284 453.128C74.7191 452.765 75.0391 452.269 75.1884 451.64H77.0764C76.8524 452.749 76.3244 453.619 75.4924 454.248C74.6604 454.877 73.5884 455.192 72.2764 455.192Z" fill="#979797"/>
<path d="M78.8767 455V443.48H80.5727V448.344C80.8393 447.885 81.2073 447.528 81.6767 447.272C82.1567 447.005 82.6847 446.872 83.2607 446.872C84.21 446.872 84.9567 447.171 85.5007 447.768C86.0447 448.365 86.3167 449.256 86.3167 450.44V455H84.6367V450.616C84.6367 449.08 84.0233 448.312 82.7967 448.312C82.1567 448.312 81.6233 448.536 81.1967 448.984C80.7807 449.432 80.5727 450.072 80.5727 450.904V455H78.8767Z" fill="#979797"/>
<path d="M92.0262 455.192C91.2688 455.192 90.5862 455.021 89.9782 454.68C89.3808 454.328 88.9062 453.843 88.5542 453.224C88.2022 452.595 88.0262 451.864 88.0262 451.032C88.0262 450.2 88.2022 449.475 88.5542 448.856C88.9168 448.227 89.4022 447.741 90.0102 447.4C90.6182 447.048 91.2955 446.872 92.0422 446.872C92.7995 446.872 93.4768 447.048 94.0742 447.4C94.6822 447.741 95.1622 448.227 95.5142 448.856C95.8768 449.475 96.0582 450.2 96.0582 451.032C96.0582 451.864 95.8768 452.595 95.5142 453.224C95.1622 453.843 94.6822 454.328 94.0742 454.68C93.4662 455.021 92.7835 455.192 92.0262 455.192ZM92.0262 453.736C92.4315 453.736 92.8048 453.635 93.1462 453.432C93.4982 453.229 93.7808 452.931 93.9942 452.536C94.2075 452.131 94.3142 451.629 94.3142 451.032C94.3142 450.435 94.2075 449.939 93.9942 449.544C93.7915 449.139 93.5142 448.835 93.1622 448.632C92.8208 448.429 92.4475 448.328 92.0422 448.328C91.6368 448.328 91.2582 448.429 90.9062 448.632C90.5648 448.835 90.2875 449.139 90.0742 449.544C89.8608 449.939 89.7542 450.435 89.7542 451.032C89.7542 451.629 89.8608 452.131 90.0742 452.536C90.2875 452.931 90.5648 453.229 90.9062 453.432C91.2475 453.635 91.6208 453.736 92.0262 453.736Z" fill="#979797"/>
<path d="M101.604 455.192C100.847 455.192 100.164 455.021 99.5563 454.68C98.959 454.328 98.4843 453.843 98.1323 453.224C97.7803 452.595 97.6043 451.864 97.6043 451.032C97.6043 450.2 97.7803 449.475 98.1323 448.856C98.495 448.227 98.9803 447.741 99.5883 447.4C100.196 447.048 100.874 446.872 101.62 446.872C102.378 446.872 103.055 447.048 103.652 447.4C104.26 447.741 104.74 448.227 105.092 448.856C105.455 449.475 105.636 450.2 105.636 451.032C105.636 451.864 105.455 452.595 105.092 453.224C104.74 453.843 104.26 454.328 103.652 454.68C103.044 455.021 102.362 455.192 101.604 455.192ZM101.604 453.736C102.01 453.736 102.383 453.635 102.724 453.432C103.076 453.229 103.359 452.931 103.572 452.536C103.786 452.131 103.892 451.629 103.892 451.032C103.892 450.435 103.786 449.939 103.572 449.544C103.37 449.139 103.092 448.835 102.74 448.632C102.399 448.429 102.026 448.328 101.62 448.328C101.215 448.328 100.836 448.429 100.484 448.632C100.143 448.835 99.8656 449.139 99.6523 449.544C99.439 449.939 99.3323 450.435 99.3323 451.032C99.3323 451.629 99.439 452.131 99.6523 452.536C99.8656 452.931 100.143 453.229 100.484 453.432C100.826 453.635 101.199 453.736 101.604 453.736Z" fill="#979797"/>
<path d="M110.638 455.192C109.636 455.192 108.809 454.947 108.158 454.456C107.508 453.965 107.134 453.315 107.038 452.504H108.75C108.836 452.867 109.038 453.181 109.358 453.448C109.678 453.704 110.1 453.832 110.622 453.832C111.134 453.832 111.508 453.725 111.742 453.512C111.977 453.299 112.094 453.053 112.094 452.776C112.094 452.371 111.929 452.099 111.598 451.96C111.278 451.811 110.83 451.677 110.254 451.56C109.806 451.464 109.358 451.336 108.91 451.176C108.473 451.016 108.105 450.792 107.806 450.504C107.518 450.205 107.374 449.805 107.374 449.304C107.374 448.611 107.641 448.035 108.174 447.576C108.708 447.107 109.454 446.872 110.414 446.872C111.3 446.872 112.014 447.085 112.558 447.512C113.113 447.939 113.438 448.541 113.534 449.32H111.902C111.849 448.979 111.689 448.712 111.422 448.52C111.166 448.328 110.82 448.232 110.382 448.232C109.956 448.232 109.625 448.323 109.39 448.504C109.156 448.675 109.038 448.899 109.038 449.176C109.038 449.453 109.198 449.672 109.518 449.832C109.849 449.992 110.281 450.136 110.814 450.264C111.348 450.381 111.838 450.52 112.286 450.68C112.745 450.829 113.113 451.053 113.39 451.352C113.668 451.651 113.806 452.088 113.806 452.664C113.817 453.389 113.534 453.992 112.958 454.472C112.393 454.952 111.62 455.192 110.638 455.192Z" fill="#979797"/>
<path d="M119.37 455.192C118.591 455.192 117.898 455.021 117.29 454.68C116.693 454.328 116.223 453.843 115.882 453.224C115.541 452.605 115.37 451.885 115.37 451.064C115.37 450.232 115.535 449.501 115.866 448.872C116.207 448.243 116.677 447.752 117.274 447.4C117.882 447.048 118.586 446.872 119.386 446.872C120.165 446.872 120.842 447.048 121.418 447.4C121.994 447.741 122.442 448.2 122.762 448.776C123.082 449.352 123.242 449.987 123.242 450.68C123.242 450.787 123.237 450.904 123.226 451.032C123.226 451.149 123.221 451.283 123.21 451.432H117.034C117.087 452.2 117.338 452.787 117.786 453.192C118.245 453.587 118.773 453.784 119.37 453.784C119.85 453.784 120.25 453.677 120.57 453.464C120.901 453.24 121.146 452.941 121.306 452.568H123.002C122.789 453.315 122.362 453.939 121.722 454.44C121.093 454.941 120.309 455.192 119.37 455.192ZM119.37 448.264C118.805 448.264 118.303 448.435 117.866 448.776C117.429 449.107 117.162 449.608 117.066 450.28H121.546C121.514 449.661 121.295 449.171 120.89 448.808C120.485 448.445 119.978 448.264 119.37 448.264Z" fill="#979797"/>
<path d="M129.033 455V447.064H130.553L130.697 448.568C130.974 448.045 131.358 447.635 131.849 447.336C132.35 447.027 132.953 446.872 133.657 446.872V448.648H133.193C132.724 448.648 132.302 448.728 131.929 448.888C131.566 449.037 131.273 449.299 131.049 449.672C130.836 450.035 130.729 450.541 130.729 451.192V455H129.033Z" fill="#979797"/>
<path d="M138.604 455.192C137.826 455.192 137.132 455.021 136.524 454.68C135.927 454.328 135.458 453.843 135.116 453.224C134.775 452.605 134.604 451.885 134.604 451.064C134.604 450.232 134.77 449.501 135.1 448.872C135.442 448.243 135.911 447.752 136.508 447.4C137.116 447.048 137.82 446.872 138.62 446.872C139.399 446.872 140.076 447.048 140.652 447.4C141.228 447.741 141.676 448.2 141.996 448.776C142.316 449.352 142.476 449.987 142.476 450.68C142.476 450.787 142.471 450.904 142.46 451.032C142.46 451.149 142.455 451.283 142.444 451.432H136.268C136.322 452.2 136.572 452.787 137.02 453.192C137.479 453.587 138.007 453.784 138.604 453.784C139.084 453.784 139.484 453.677 139.804 453.464C140.135 453.24 140.38 452.941 140.54 452.568H142.236C142.023 453.315 141.596 453.939 140.956 454.44C140.327 454.941 139.543 455.192 138.604 455.192ZM138.604 448.264C138.039 448.264 137.538 448.435 137.1 448.776C136.663 449.107 136.396 449.608 136.3 450.28H140.78C140.748 449.661 140.53 449.171 140.124 448.808C139.719 448.445 139.212 448.264 138.604 448.264Z" fill="#979797"/>
<path d="M147.404 455.192C146.401 455.192 145.575 454.947 144.924 454.456C144.273 453.965 143.9 453.315 143.804 452.504H145.516C145.601 452.867 145.804 453.181 146.124 453.448C146.444 453.704 146.865 453.832 147.388 453.832C147.9 453.832 148.273 453.725 148.508 453.512C148.743 453.299 148.86 453.053 148.86 452.776C148.86 452.371 148.695 452.099 148.364 451.96C148.044 451.811 147.596 451.677 147.02 451.56C146.572 451.464 146.124 451.336 145.676 451.176C145.239 451.016 144.871 450.792 144.572 450.504C144.284 450.205 144.14 449.805 144.14 449.304C144.14 448.611 144.407 448.035 144.94 447.576C145.473 447.107 146.22 446.872 147.18 446.872C148.065 446.872 148.78 447.085 149.324 447.512C149.879 447.939 150.204 448.541 150.3 449.32H148.668C148.615 448.979 148.455 448.712 148.188 448.52C147.932 448.328 147.585 448.232 147.148 448.232C146.721 448.232 146.391 448.323 146.156 448.504C145.921 448.675 145.804 448.899 145.804 449.176C145.804 449.453 145.964 449.672 146.284 449.832C146.615 449.992 147.047 450.136 147.58 450.264C148.113 450.381 148.604 450.52 149.052 450.68C149.511 450.829 149.879 451.053 150.156 451.352C150.433 451.651 150.572 452.088 150.572 452.664C150.583 453.389 150.3 453.992 149.724 454.472C149.159 454.952 148.385 455.192 147.404 455.192Z" fill="#979797"/>
<path d="M155.455 455C154.676 455 154.057 454.813 153.599 454.44C153.14 454.056 152.911 453.379 152.911 452.408V448.488H151.551V447.064H152.911L153.119 445.048H154.607V447.064H156.847V448.488H154.607V452.408C154.607 452.845 154.697 453.149 154.879 453.32C155.071 453.48 155.396 453.56 155.855 453.56H156.767V455H155.455Z" fill="#979797"/>
<path d="M161.283 455.192C160.611 455.192 160.057 455.08 159.619 454.856C159.182 454.632 158.857 454.339 158.643 453.976C158.43 453.603 158.323 453.197 158.323 452.76C158.323 451.992 158.622 451.384 159.219 450.936C159.817 450.488 160.67 450.264 161.779 450.264H163.859V450.12C163.859 449.501 163.689 449.037 163.347 448.728C163.017 448.419 162.585 448.264 162.051 448.264C161.582 448.264 161.171 448.381 160.819 448.616C160.478 448.84 160.27 449.176 160.195 449.624H158.499C158.553 449.048 158.745 448.557 159.075 448.152C159.417 447.736 159.843 447.421 160.355 447.208C160.878 446.984 161.449 446.872 162.067 446.872C163.177 446.872 164.035 447.165 164.643 447.752C165.251 448.328 165.555 449.117 165.555 450.12V455H164.083L163.939 453.64C163.715 454.077 163.39 454.445 162.963 454.744C162.537 455.043 161.977 455.192 161.283 455.192ZM161.619 453.816C162.078 453.816 162.462 453.709 162.771 453.496C163.091 453.272 163.337 452.979 163.507 452.616C163.689 452.253 163.801 451.853 163.843 451.416H161.955C161.283 451.416 160.803 451.533 160.515 451.768C160.238 452.003 160.099 452.296 160.099 452.648C160.099 453.011 160.233 453.299 160.499 453.512C160.777 453.715 161.15 453.816 161.619 453.816Z" fill="#979797"/>
<path d="M170.461 455.192C169.501 455.192 168.744 454.893 168.189 454.296C167.645 453.699 167.373 452.808 167.373 451.624V447.064H169.069V451.448C169.069 452.984 169.698 453.752 170.957 453.752C171.586 453.752 172.104 453.528 172.509 453.08C172.914 452.632 173.117 451.992 173.117 451.16V447.064H174.813V455H173.309L173.181 453.608C172.936 454.099 172.573 454.488 172.093 454.776C171.624 455.053 171.08 455.192 170.461 455.192Z" fill="#979797"/>
<path d="M176.97 455V447.064H178.49L178.634 448.568C178.912 448.045 179.296 447.635 179.786 447.336C180.288 447.027 180.89 446.872 181.594 446.872V448.648H181.13C180.661 448.648 180.24 448.728 179.866 448.888C179.504 449.037 179.21 449.299 178.986 449.672C178.773 450.035 178.666 450.541 178.666 451.192V455H176.97Z" fill="#979797"/>
<path d="M185.737 455.192C185.065 455.192 184.51 455.08 184.073 454.856C183.635 454.632 183.31 454.339 183.097 453.976C182.883 453.603 182.777 453.197 182.777 452.76C182.777 451.992 183.075 451.384 183.673 450.936C184.27 450.488 185.123 450.264 186.233 450.264H188.313V450.12C188.313 449.501 188.142 449.037 187.801 448.728C187.47 448.419 187.038 448.264 186.505 448.264C186.035 448.264 185.625 448.381 185.273 448.616C184.931 448.84 184.723 449.176 184.649 449.624H182.953C183.006 449.048 183.198 448.557 183.529 448.152C183.87 447.736 184.297 447.421 184.809 447.208C185.331 446.984 185.902 446.872 186.521 446.872C187.63 446.872 188.489 447.165 189.097 447.752C189.705 448.328 190.009 449.117 190.009 450.12V455H188.537L188.393 453.64C188.169 454.077 187.843 454.445 187.417 454.744C186.99 455.043 186.43 455.192 185.737 455.192ZM186.073 453.816C186.531 453.816 186.915 453.709 187.225 453.496C187.545 453.272 187.79 452.979 187.961 452.616C188.142 452.253 188.254 451.853 188.297 451.416H186.409C185.737 451.416 185.257 451.533 184.969 451.768C184.691 452.003 184.553 452.296 184.553 452.648C184.553 453.011 184.686 453.299 184.953 453.512C185.23 453.715 185.603 453.816 186.073 453.816Z" fill="#979797"/>
<path d="M191.986 455V447.064H193.49L193.618 448.456C193.863 447.965 194.221 447.581 194.69 447.304C195.17 447.016 195.719 446.872 196.338 446.872C197.298 446.872 198.05 447.171 198.594 447.768C199.149 448.365 199.426 449.256 199.426 450.44V455H197.746V450.616C197.746 449.08 197.117 448.312 195.858 448.312C195.229 448.312 194.706 448.536 194.29 448.984C193.885 449.432 193.682 450.072 193.682 450.904V455H191.986Z" fill="#979797"/>
<path d="M204.752 455C203.973 455 203.354 454.813 202.896 454.44C202.437 454.056 202.208 453.379 202.208 452.408V448.488H200.848V447.064H202.208L202.416 445.048H203.904V447.064H206.144V448.488H203.904V452.408C203.904 452.845 203.994 453.149 204.176 453.32C204.368 453.48 204.693 453.56 205.152 453.56H206.064V455H204.752Z" fill="#979797"/>
<path d="M211.06 455.192C210.058 455.192 209.231 454.947 208.58 454.456C207.93 453.965 207.556 453.315 207.46 452.504H209.172C209.258 452.867 209.46 453.181 209.78 453.448C210.1 453.704 210.522 453.832 211.044 453.832C211.556 453.832 211.93 453.725 212.164 453.512C212.399 453.299 212.516 453.053 212.516 452.776C212.516 452.371 212.351 452.099 212.02 451.96C211.7 451.811 211.252 451.677 210.676 451.56C210.228 451.464 209.78 451.336 209.332 451.176C208.895 451.016 208.527 450.792 208.228 450.504C207.94 450.205 207.796 449.805 207.796 449.304C207.796 448.611 208.063 448.035 208.596 447.576C209.13 447.107 209.876 446.872 210.836 446.872C211.722 446.872 212.436 447.085 212.98 447.512C213.535 447.939 213.86 448.541 213.956 449.32H212.324C212.271 448.979 212.111 448.712 211.844 448.52C211.588 448.328 211.242 448.232 210.804 448.232C210.378 448.232 210.047 448.323 209.812 448.504C209.578 448.675 209.46 448.899 209.46 449.176C209.46 449.453 209.62 449.672 209.94 449.832C210.271 449.992 210.703 450.136 211.236 450.264C211.77 450.381 212.26 450.52 212.708 450.68C213.167 450.829 213.535 451.053 213.812 451.352C214.09 451.651 214.228 452.088 214.228 452.664C214.239 453.389 213.956 453.992 213.38 454.472C212.815 454.952 212.042 455.192 211.06 455.192Z" fill="#979797"/>
<path d="M221.039 458.52L222.943 454.344H222.479L219.343 447.064H221.183L223.615 452.936L226.159 447.064H227.951L222.831 458.52H221.039Z" fill="#979797"/>
<path d="M232.339 455.192C231.581 455.192 230.899 455.021 230.291 454.68C229.693 454.328 229.219 453.843 228.867 453.224C228.515 452.595 228.339 451.864 228.339 451.032C228.339 450.2 228.515 449.475 228.867 448.856C229.229 448.227 229.715 447.741 230.323 447.4C230.931 447.048 231.608 446.872 232.355 446.872C233.112 446.872 233.789 447.048 234.387 447.4C234.995 447.741 235.475 448.227 235.827 448.856C236.189 449.475 236.371 450.2 236.371 451.032C236.371 451.864 236.189 452.595 235.827 453.224C235.475 453.843 234.995 454.328 234.387 454.68C233.779 455.021 233.096 455.192 232.339 455.192ZM232.339 453.736C232.744 453.736 233.117 453.635 233.459 453.432C233.811 453.229 234.093 452.931 234.307 452.536C234.52 452.131 234.627 451.629 234.627 451.032C234.627 450.435 234.52 449.939 234.307 449.544C234.104 449.139 233.827 448.835 233.475 448.632C233.133 448.429 232.76 448.328 232.355 448.328C231.949 448.328 231.571 448.429 231.219 448.632C230.877 448.835 230.6 449.139 230.387 449.544C230.173 449.939 230.067 450.435 230.067 451.032C230.067 451.629 230.173 452.131 230.387 452.536C230.6 452.931 230.877 453.229 231.219 453.432C231.56 453.635 231.933 453.736 232.339 453.736Z" fill="#979797"/>
<path d="M241.133 455.192C240.173 455.192 239.415 454.893 238.861 454.296C238.317 453.699 238.045 452.808 238.045 451.624V447.064H239.741V451.448C239.741 452.984 240.37 453.752 241.629 453.752C242.258 453.752 242.775 453.528 243.181 453.08C243.586 452.632 243.789 451.992 243.789 451.16V447.064H245.485V455H243.981L243.853 453.608C243.607 454.099 243.245 454.488 242.765 454.776C242.295 455.053 241.751 455.192 241.133 455.192Z" fill="#979797"/>
<path d="M253.258 455L250.922 447.064H252.618L254.154 453.048L255.882 447.064H257.77L259.498 453.048L261.034 447.064H262.73L260.394 455H258.65L256.826 448.76L255.002 455H253.258Z" fill="#979797"/>
<path d="M267.542 455.192C266.784 455.192 266.102 455.021 265.494 454.68C264.896 454.328 264.422 453.843 264.07 453.224C263.718 452.595 263.542 451.864 263.542 451.032C263.542 450.2 263.718 449.475 264.07 448.856C264.432 448.227 264.918 447.741 265.526 447.4C266.134 447.048 266.811 446.872 267.558 446.872C268.315 446.872 268.992 447.048 269.59 447.4C270.198 447.741 270.678 448.227 271.03 448.856C271.392 449.475 271.574 450.2 271.574 451.032C271.574 451.864 271.392 452.595 271.03 453.224C270.678 453.843 270.198 454.328 269.59 454.68C268.982 455.021 268.299 455.192 267.542 455.192ZM267.542 453.736C267.947 453.736 268.32 453.635 268.662 453.432C269.014 453.229 269.296 452.931 269.51 452.536C269.723 452.131 269.83 451.629 269.83 451.032C269.83 450.435 269.723 449.939 269.51 449.544C269.307 449.139 269.03 448.835 268.678 448.632C268.336 448.429 267.963 448.328 267.558 448.328C267.152 448.328 266.774 448.429 266.422 448.632C266.08 448.835 265.803 449.139 265.59 449.544C265.376 449.939 265.27 450.435 265.27 451.032C265.27 451.629 265.376 452.131 265.59 452.536C265.803 452.931 266.08 453.229 266.422 453.432C266.763 453.635 267.136 453.736 267.542 453.736Z" fill="#979797"/>
<path d="M276.336 455.192C275.376 455.192 274.619 454.893 274.064 454.296C273.52 453.699 273.248 452.808 273.248 451.624V447.064H274.944V451.448C274.944 452.984 275.573 453.752 276.832 453.752C277.461 453.752 277.979 453.528 278.384 453.08C278.789 452.632 278.992 451.992 278.992 451.16V447.064H280.688V455H279.184L279.056 453.608C278.811 454.099 278.448 454.488 277.968 454.776C277.499 455.053 276.955 455.192 276.336 455.192Z" fill="#979797"/>
<path d="M282.845 455V443.48H284.541V455H282.845Z" fill="#979797"/>
<path d="M290.305 455.192C289.537 455.192 288.86 455.011 288.273 454.648C287.687 454.285 287.228 453.789 286.897 453.16C286.567 452.531 286.401 451.816 286.401 451.016C286.401 450.216 286.567 449.507 286.897 448.888C287.228 448.259 287.687 447.768 288.273 447.416C288.871 447.053 289.553 446.872 290.321 446.872C290.951 446.872 291.5 446.995 291.969 447.24C292.449 447.485 292.823 447.832 293.089 448.28V443.48H294.785V455H293.265L293.089 453.768C292.833 454.141 292.481 454.472 292.033 454.76C291.585 455.048 291.009 455.192 290.305 455.192ZM290.609 453.72C291.335 453.72 291.927 453.469 292.385 452.968C292.855 452.467 293.089 451.821 293.089 451.032C293.089 450.232 292.855 449.587 292.385 449.096C291.927 448.595 291.335 448.344 290.609 448.344C289.884 448.344 289.286 448.595 288.817 449.096C288.348 449.587 288.113 450.232 288.113 451.032C288.113 451.555 288.22 452.019 288.433 452.424C288.646 452.829 288.94 453.149 289.313 453.384C289.697 453.608 290.129 453.72 290.609 453.72Z" fill="#979797"/>
<path d="M77.3689 476V464.48H79.0649V476H77.3689Z" fill="#979797"/>
<path d="M82.1726 466.56C81.8526 466.56 81.586 466.464 81.3726 466.272C81.17 466.069 81.0686 465.819 81.0686 465.52C81.0686 465.221 81.17 464.976 81.3726 464.784C81.586 464.581 81.8526 464.48 82.1726 464.48C82.4926 464.48 82.754 464.581 82.9566 464.784C83.17 464.976 83.2766 465.221 83.2766 465.52C83.2766 465.819 83.17 466.069 82.9566 466.272C82.754 466.464 82.4926 466.56 82.1726 466.56ZM81.3246 476V468.064H83.0206V476H81.3246Z" fill="#979797"/>
<path d="M85.2595 476V464.48H86.9555V471.344L89.9955 468.064H92.0275L88.6515 471.664L92.5235 476H90.3795L86.9555 471.936V476H85.2595Z" fill="#979797"/>
<path d="M96.9402 476.192C96.1616 476.192 95.4682 476.021 94.8602 475.68C94.2629 475.328 93.7936 474.843 93.4522 474.224C93.1109 473.605 92.9402 472.885 92.9402 472.064C92.9402 471.232 93.1056 470.501 93.4362 469.872C93.7776 469.243 94.2469 468.752 94.8442 468.4C95.4522 468.048 96.1562 467.872 96.9562 467.872C97.7349 467.872 98.4122 468.048 98.9882 468.4C99.5642 468.741 100.012 469.2 100.332 469.776C100.652 470.352 100.812 470.987 100.812 471.68C100.812 471.787 100.807 471.904 100.796 472.032C100.796 472.149 100.791 472.283 100.78 472.432H94.6042C94.6576 473.2 94.9082 473.787 95.3562 474.192C95.8149 474.587 96.3429 474.784 96.9402 474.784C97.4202 474.784 97.8202 474.677 98.1402 474.464C98.4709 474.24 98.7162 473.941 98.8762 473.568H100.572C100.359 474.315 99.9322 474.939 99.2922 475.44C98.6629 475.941 97.8789 476.192 96.9402 476.192ZM96.9402 469.264C96.3749 469.264 95.8736 469.435 95.4362 469.776C94.9989 470.107 94.7322 470.608 94.6362 471.28H99.1162C99.0842 470.661 98.8656 470.171 98.4602 469.808C98.0549 469.445 97.5482 469.264 96.9402 469.264Z" fill="#979797"/>
<path d="M109.931 476C109.153 476 108.534 475.813 108.075 475.44C107.617 475.056 107.387 474.379 107.387 473.408V469.488H106.027V468.064H107.387L107.595 466.048H109.083V468.064H111.323V469.488H109.083V473.408C109.083 473.845 109.174 474.149 109.355 474.32C109.547 474.48 109.873 474.56 110.331 474.56H111.243V476H109.931Z" fill="#979797"/>
<path d="M116.581 476.192C115.824 476.192 115.141 476.021 114.533 475.68C113.936 475.328 113.461 474.843 113.109 474.224C112.757 473.595 112.581 472.864 112.581 472.032C112.581 471.2 112.757 470.475 113.109 469.856C113.472 469.227 113.957 468.741 114.565 468.4C115.173 468.048 115.85 467.872 116.597 467.872C117.354 467.872 118.032 468.048 118.629 468.4C119.237 468.741 119.717 469.227 120.069 469.856C120.432 470.475 120.613 471.2 120.613 472.032C120.613 472.864 120.432 473.595 120.069 474.224C119.717 474.843 119.237 475.328 118.629 475.68C118.021 476.021 117.338 476.192 116.581 476.192ZM116.581 474.736C116.986 474.736 117.36 474.635 117.701 474.432C118.053 474.229 118.336 473.931 118.549 473.536C118.762 473.131 118.869 472.629 118.869 472.032C118.869 471.435 118.762 470.939 118.549 470.544C118.346 470.139 118.069 469.835 117.717 469.632C117.376 469.429 117.002 469.328 116.597 469.328C116.192 469.328 115.813 469.429 115.461 469.632C115.12 469.835 114.842 470.139 114.629 470.544C114.416 470.939 114.309 471.435 114.309 472.032C114.309 472.629 114.416 473.131 114.629 473.536C114.842 473.931 115.12 474.229 115.461 474.432C115.802 474.635 116.176 474.736 116.581 474.736Z" fill="#979797"/>
<path d="M129.806 476C129.028 476 128.409 475.813 127.95 475.44C127.492 475.056 127.262 474.379 127.262 473.408V469.488H125.902V468.064H127.262L127.47 466.048H128.958V468.064H131.198V469.488H128.958V473.408C128.958 473.845 129.049 474.149 129.23 474.32C129.422 474.48 129.748 474.56 130.206 474.56H131.118V476H129.806Z" fill="#979797"/>
<path d="M132.947 476V468.064H134.467L134.611 469.568C134.888 469.045 135.272 468.635 135.763 468.336C136.264 468.027 136.867 467.872 137.571 467.872V469.648H137.107C136.638 469.648 136.216 469.728 135.843 469.888C135.48 470.037 135.187 470.299 134.963 470.672C134.75 471.035 134.643 471.541 134.643 472.192V476H132.947Z" fill="#979797"/>
<path d="M139.953 479.52L141.857 475.344H141.393L138.257 468.064H140.097L142.529 473.936L145.073 468.064H146.865L141.745 479.52H139.953Z" fill="#979797"/>
<path d="M152.691 476V469.488H151.555V468.064H152.691V466.912C152.691 466.048 152.904 465.429 153.331 465.056C153.768 464.672 154.381 464.48 155.171 464.48H156.003V465.92H155.427C155.053 465.92 154.787 466 154.627 466.16C154.467 466.309 154.387 466.565 154.387 466.928V468.064H156.211V469.488H154.387V476H152.691Z" fill="#979797"/>
<path d="M161.221 476.192C160.464 476.192 159.781 476.021 159.173 475.68C158.576 475.328 158.101 474.843 157.749 474.224C157.397 473.595 157.221 472.864 157.221 472.032C157.221 471.2 157.397 470.475 157.749 469.856C158.112 469.227 158.597 468.741 159.205 468.4C159.813 468.048 160.491 467.872 161.237 467.872C161.995 467.872 162.672 468.048 163.269 468.4C163.877 468.741 164.357 469.227 164.709 469.856C165.072 470.475 165.253 471.2 165.253 472.032C165.253 472.864 165.072 473.595 164.709 474.224C164.357 474.843 163.877 475.328 163.269 475.68C162.661 476.021 161.979 476.192 161.221 476.192ZM161.221 474.736C161.627 474.736 162 474.635 162.341 474.432C162.693 474.229 162.976 473.931 163.189 473.536C163.403 473.131 163.509 472.629 163.509 472.032C163.509 471.435 163.403 470.939 163.189 470.544C162.987 470.139 162.709 469.835 162.357 469.632C162.016 469.429 161.643 469.328 161.237 469.328C160.832 469.328 160.453 469.429 160.101 469.632C159.76 469.835 159.483 470.139 159.269 470.544C159.056 470.939 158.949 471.435 158.949 472.032C158.949 472.629 159.056 473.131 159.269 473.536C159.483 473.931 159.76 474.229 160.101 474.432C160.443 474.635 160.816 474.736 161.221 474.736Z" fill="#979797"/>
<path d="M167.088 476V468.064H168.608L168.752 469.568C169.029 469.045 169.413 468.635 169.904 468.336C170.405 468.027 171.008 467.872 171.712 467.872V469.648H171.248C170.778 469.648 170.357 469.728 169.984 469.888C169.621 470.037 169.328 470.299 169.104 470.672C168.89 471.035 168.784 471.541 168.784 472.192V476H167.088Z" fill="#979797"/>
<path d="M178.125 479.52L180.029 475.344H179.565L176.429 468.064H178.269L180.701 473.936L183.245 468.064H185.037L179.917 479.52H178.125Z" fill="#979797"/>
<path d="M189.425 476.192C188.667 476.192 187.985 476.021 187.377 475.68C186.779 475.328 186.305 474.843 185.953 474.224C185.601 473.595 185.425 472.864 185.425 472.032C185.425 471.2 185.601 470.475 185.953 469.856C186.315 469.227 186.801 468.741 187.409 468.4C188.017 468.048 188.694 467.872 189.441 467.872C190.198 467.872 190.875 468.048 191.473 468.4C192.081 468.741 192.561 469.227 192.913 469.856C193.275 470.475 193.457 471.2 193.457 472.032C193.457 472.864 193.275 473.595 192.913 474.224C192.561 474.843 192.081 475.328 191.473 475.68C190.865 476.021 190.182 476.192 189.425 476.192ZM189.425 474.736C189.83 474.736 190.203 474.635 190.545 474.432C190.897 474.229 191.179 473.931 191.393 473.536C191.606 473.131 191.713 472.629 191.713 472.032C191.713 471.435 191.606 470.939 191.393 470.544C191.19 470.139 190.913 469.835 190.561 469.632C190.219 469.429 189.846 469.328 189.441 469.328C189.035 469.328 188.657 469.429 188.305 469.632C187.963 469.835 187.686 470.139 187.473 470.544C187.259 470.939 187.153 471.435 187.153 472.032C187.153 472.629 187.259 473.131 187.473 473.536C187.686 473.931 187.963 474.229 188.305 474.432C188.646 474.635 189.019 474.736 189.425 474.736Z" fill="#979797"/>
<path d="M198.219 476.192C197.259 476.192 196.501 475.893 195.947 475.296C195.403 474.699 195.131 473.808 195.131 472.624V468.064H196.827V472.448C196.827 473.984 197.456 474.752 198.715 474.752C199.344 474.752 199.861 474.528 200.267 474.08C200.672 473.632 200.875 472.992 200.875 472.16V468.064H202.571V476H201.067L200.939 474.608C200.693 475.099 200.331 475.488 199.851 475.776C199.381 476.053 198.837 476.192 198.219 476.192Z" fill="#979797"/>
<path d="M204.728 476V468.064H206.248L206.392 469.568C206.67 469.045 207.054 468.635 207.544 468.336C208.046 468.027 208.648 467.872 209.352 467.872V469.648H208.888C208.419 469.648 207.998 469.728 207.624 469.888C207.262 470.037 206.968 470.299 206.744 470.672C206.531 471.035 206.424 471.541 206.424 472.192V476H204.728Z" fill="#979797"/>
<path d="M215.238 476V469.488H214.102V468.064H215.238V466.912C215.238 466.048 215.451 465.429 215.878 465.056C216.315 464.672 216.928 464.48 217.718 464.48H218.55V465.92H217.974C217.6 465.92 217.334 466 217.174 466.16C217.014 466.309 216.934 466.565 216.934 466.928V468.064H221.958V476H220.262V469.488H216.934V476H215.238ZM221.126 466.736C220.806 466.736 220.539 466.64 220.326 466.448C220.123 466.245 220.022 465.989 220.022 465.68C220.022 465.381 220.123 465.136 220.326 464.944C220.539 464.752 220.806 464.656 221.126 464.656C221.446 464.656 221.707 464.752 221.91 464.944C222.123 465.136 222.23 465.381 222.23 465.68C222.23 465.989 222.123 466.245 221.91 466.448C221.707 466.64 221.446 466.736 221.126 466.736Z" fill="#979797"/>
<path d="M224.213 476V468.064H225.733L225.877 469.568C226.154 469.045 226.538 468.635 227.029 468.336C227.53 468.027 228.133 467.872 228.837 467.872V469.648H228.373C227.903 469.648 227.482 469.728 227.109 469.888C226.746 470.037 226.453 470.299 226.229 470.672C226.015 471.035 225.909 471.541 225.909 472.192V476H224.213Z" fill="#979797"/>
<path d="M233.459 476.192C232.456 476.192 231.629 475.947 230.979 475.456C230.328 474.965 229.955 474.315 229.859 473.504H231.571C231.656 473.867 231.859 474.181 232.179 474.448C232.499 474.704 232.92 474.832 233.443 474.832C233.955 474.832 234.328 474.725 234.563 474.512C234.797 474.299 234.915 474.053 234.915 473.776C234.915 473.371 234.749 473.099 234.419 472.96C234.099 472.811 233.651 472.677 233.075 472.56C232.627 472.464 232.179 472.336 231.731 472.176C231.293 472.016 230.925 471.792 230.627 471.504C230.339 471.205 230.195 470.805 230.195 470.304C230.195 469.611 230.461 469.035 230.995 468.576C231.528 468.107 232.275 467.872 233.235 467.872C234.12 467.872 234.835 468.085 235.379 468.512C235.933 468.939 236.259 469.541 236.355 470.32H234.723C234.669 469.979 234.509 469.712 234.243 469.52C233.987 469.328 233.64 469.232 233.203 469.232C232.776 469.232 232.445 469.323 232.211 469.504C231.976 469.675 231.859 469.899 231.859 470.176C231.859 470.453 232.019 470.672 232.339 470.832C232.669 470.992 233.101 471.136 233.635 471.264C234.168 471.381 234.659 471.52 235.107 471.68C235.565 471.829 235.933 472.053 236.211 472.352C236.488 472.651 236.627 473.088 236.627 473.664C236.637 474.389 236.355 474.992 235.779 475.472C235.213 475.952 234.44 476.192 233.459 476.192Z" fill="#979797"/>
<path d="M241.509 476C240.731 476 240.112 475.813 239.653 475.44C239.195 475.056 238.965 474.379 238.965 473.408V469.488H237.605V468.064H238.965L239.173 466.048H240.661V468.064H242.901V469.488H240.661V473.408C240.661 473.845 240.752 474.149 240.933 474.32C241.125 474.48 241.451 474.56 241.909 474.56H242.821V476H241.509Z" fill="#979797"/>
<path d="M252.297 476.192C251.529 476.192 250.852 476.011 250.265 475.648C249.679 475.285 249.22 474.789 248.889 474.16C248.559 473.531 248.393 472.816 248.393 472.016C248.393 471.216 248.559 470.507 248.889 469.888C249.22 469.259 249.679 468.768 250.265 468.416C250.863 468.053 251.545 467.872 252.313 467.872C252.943 467.872 253.492 467.995 253.961 468.24C254.441 468.485 254.815 468.832 255.081 469.28V464.48H256.777V476H255.257L255.081 474.768C254.825 475.141 254.473 475.472 254.025 475.76C253.577 476.048 253.001 476.192 252.297 476.192ZM252.601 474.72C253.327 474.72 253.919 474.469 254.377 473.968C254.847 473.467 255.081 472.821 255.081 472.032C255.081 471.232 254.847 470.587 254.377 470.096C253.919 469.595 253.327 469.344 252.601 469.344C251.876 469.344 251.279 469.595 250.809 470.096C250.34 470.587 250.105 471.232 250.105 472.032C250.105 472.555 250.212 473.019 250.425 473.424C250.639 473.829 250.932 474.149 251.305 474.384C251.689 474.608 252.121 474.72 252.601 474.72Z" fill="#979797"/>
<path d="M261.604 476.192C260.932 476.192 260.377 476.08 259.94 475.856C259.502 475.632 259.177 475.339 258.964 474.976C258.75 474.603 258.644 474.197 258.644 473.76C258.644 472.992 258.942 472.384 259.54 471.936C260.137 471.488 260.99 471.264 262.1 471.264H264.18V471.12C264.18 470.501 264.009 470.037 263.668 469.728C263.337 469.419 262.905 469.264 262.372 469.264C261.902 469.264 261.492 469.381 261.14 469.616C260.798 469.84 260.59 470.176 260.516 470.624H258.82C258.873 470.048 259.065 469.557 259.396 469.152C259.737 468.736 260.164 468.421 260.676 468.208C261.198 467.984 261.769 467.872 262.388 467.872C263.497 467.872 264.356 468.165 264.964 468.752C265.572 469.328 265.876 470.117 265.876 471.12V476H264.404L264.26 474.64C264.036 475.077 263.71 475.445 263.284 475.744C262.857 476.043 262.297 476.192 261.604 476.192ZM261.94 474.816C262.398 474.816 262.782 474.709 263.092 474.496C263.412 474.272 263.657 473.979 263.828 473.616C264.009 473.253 264.121 472.853 264.164 472.416H262.276C261.604 472.416 261.124 472.533 260.836 472.768C260.558 473.003 260.42 473.296 260.42 473.648C260.42 474.011 260.553 474.299 260.82 474.512C261.097 474.715 261.47 474.816 261.94 474.816Z" fill="#979797"/>
<path d="M271.025 476C270.246 476 269.628 475.813 269.169 475.44C268.71 475.056 268.481 474.379 268.481 473.408V469.488H267.121V468.064H268.481L268.689 466.048H270.177V468.064H272.417V469.488H270.177V473.408C270.177 473.845 270.268 474.149 270.449 474.32C270.641 474.48 270.966 474.56 271.425 474.56H272.337V476H271.025Z" fill="#979797"/>
<path d="M277.675 476.192C276.896 476.192 276.203 476.021 275.595 475.68C274.997 475.328 274.528 474.843 274.187 474.224C273.845 473.605 273.675 472.885 273.675 472.064C273.675 471.232 273.84 470.501 274.171 469.872C274.512 469.243 274.981 468.752 275.579 468.4C276.187 468.048 276.891 467.872 277.691 467.872C278.469 467.872 279.147 468.048 279.723 468.4C280.299 468.741 280.747 469.2 281.067 469.776C281.387 470.352 281.547 470.987 281.547 471.68C281.547 471.787 281.541 471.904 281.531 472.032C281.531 472.149 281.525 472.283 281.515 472.432H275.339C275.392 473.2 275.643 473.787 276.091 474.192C276.549 474.587 277.077 474.784 277.675 474.784C278.155 474.784 278.555 474.677 278.875 474.464C279.205 474.24 279.451 473.941 279.611 473.568H281.307C281.093 474.315 280.667 474.939 280.027 475.44C279.397 475.941 278.613 476.192 277.675 476.192ZM277.675 469.264C277.109 469.264 276.608 469.435 276.171 469.776C275.733 470.107 275.467 470.608 275.371 471.28H279.851C279.819 470.661 279.6 470.171 279.195 469.808C278.789 469.445 278.283 469.264 277.675 469.264Z" fill="#979797"/>
<path d="M283.978 476.096C283.658 476.096 283.392 475.995 283.178 475.792C282.976 475.579 282.874 475.328 282.874 475.04C282.874 474.741 282.976 474.491 283.178 474.288C283.392 474.075 283.658 473.968 283.978 473.968C284.298 473.968 284.56 474.075 284.762 474.288C284.965 474.491 285.066 474.741 285.066 475.04C285.066 475.328 284.965 475.579 284.762 475.792C284.56 475.995 284.298 476.096 283.978 476.096Z" fill="#979797"/>
<path d="M62.8807 398.36C62.8807 397.32 63.0647 396.304 63.4327 395.312C63.8167 394.304 64.3687 393.392 65.0887 392.576C65.8087 391.744 66.6887 391.088 67.7287 390.608C68.7687 390.112 69.9527 389.864 71.2807 389.864C72.8487 389.864 74.2007 390.208 75.3367 390.896C76.4887 391.584 77.3447 392.48 77.9047 393.584L75.3607 395.336C75.0727 394.696 74.6967 394.192 74.2327 393.824C73.7687 393.44 73.2727 393.176 72.7447 393.032C72.2167 392.872 71.6967 392.792 71.1847 392.792C70.3527 392.792 69.6247 392.96 69.0007 393.296C68.3927 393.632 67.8807 394.072 67.4647 394.616C67.0487 395.16 66.7367 395.768 66.5287 396.44C66.3367 397.112 66.2407 397.784 66.2407 398.456C66.2407 399.208 66.3607 399.936 66.6007 400.64C66.8407 401.328 67.1767 401.944 67.6087 402.488C68.0567 403.016 68.5847 403.44 69.1927 403.76C69.8167 404.064 70.4967 404.216 71.2327 404.216C71.7607 404.216 72.2967 404.128 72.8407 403.952C73.3847 403.776 73.8887 403.496 74.3527 403.112C74.8167 402.728 75.1767 402.232 75.4327 401.624L78.1447 403.184C77.8087 404.032 77.2567 404.752 76.4887 405.344C75.7367 405.936 74.8887 406.384 73.9447 406.688C73.0007 406.992 72.0647 407.144 71.1367 407.144C69.9207 407.144 68.8087 406.896 67.8007 406.4C66.7927 405.888 65.9207 405.216 65.1847 404.384C64.4647 403.536 63.8967 402.592 63.4807 401.552C63.0807 400.496 62.8807 399.432 62.8807 398.36Z" fill="black"/>
<path d="M91.7419 407H88.5259V399.944C88.5259 398.968 88.3339 398.24 87.9499 397.76C87.5819 397.28 87.0699 397.04 86.4139 397.04C86.0299 397.04 85.6219 397.152 85.1899 397.376C84.7579 397.6 84.3659 397.912 84.0139 398.312C83.6779 398.696 83.4299 399.144 83.2699 399.656V407H80.0539V389.48H83.2699V396.752C83.7339 395.952 84.3659 395.328 85.1659 394.88C85.9659 394.432 86.8379 394.208 87.7819 394.208C88.5979 394.208 89.2619 394.352 89.7739 394.64C90.2859 394.912 90.6859 395.288 90.9739 395.768C91.2619 396.232 91.4619 396.76 91.5739 397.352C91.6859 397.928 91.7419 398.528 91.7419 399.152V407Z" fill="black"/>
<path d="M100.346 407.24C99.3222 407.24 98.4022 407.072 97.5862 406.736C96.7702 406.384 96.0742 405.904 95.4982 405.296C94.9382 404.688 94.5062 403.992 94.2022 403.208C93.8982 402.424 93.7462 401.6 93.7462 400.736C93.7462 399.856 93.8982 399.024 94.2022 398.24C94.5062 397.456 94.9382 396.76 95.4982 396.152C96.0742 395.544 96.7702 395.072 97.5862 394.736C98.4022 394.384 99.3222 394.208 100.346 394.208C101.37 394.208 102.282 394.384 103.082 394.736C103.898 395.072 104.594 395.544 105.17 396.152C105.746 396.76 106.178 397.456 106.466 398.24C106.77 399.024 106.922 399.856 106.922 400.736C106.922 401.6 106.77 402.424 106.466 403.208C106.178 403.992 105.746 404.688 105.17 405.296C104.61 405.904 103.922 406.384 103.106 406.736C102.29 407.072 101.37 407.24 100.346 407.24ZM97.0582 400.736C97.0582 401.472 97.2022 402.128 97.4902 402.704C97.7782 403.264 98.1702 403.704 98.6662 404.024C99.1622 404.344 99.7222 404.504 100.346 404.504C100.954 404.504 101.506 404.344 102.002 404.024C102.498 403.688 102.89 403.24 103.178 402.68C103.482 402.104 103.634 401.448 103.634 400.712C103.634 399.992 103.482 399.344 103.178 398.768C102.89 398.192 102.498 397.744 102.002 397.424C101.506 397.104 100.954 396.944 100.346 396.944C99.7222 396.944 99.1622 397.112 98.6662 397.448C98.1702 397.768 97.7782 398.216 97.4902 398.792C97.2022 399.352 97.0582 400 97.0582 400.736Z" fill="black"/>
<path d="M114.901 407.24C113.877 407.24 112.957 407.072 112.141 406.736C111.325 406.384 110.629 405.904 110.053 405.296C109.493 404.688 109.061 403.992 108.757 403.208C108.453 402.424 108.301 401.6 108.301 400.736C108.301 399.856 108.453 399.024 108.757 398.24C109.061 397.456 109.493 396.76 110.053 396.152C110.629 395.544 111.325 395.072 112.141 394.736C112.957 394.384 113.877 394.208 114.901 394.208C115.925 394.208 116.837 394.384 117.637 394.736C118.453 395.072 119.149 395.544 119.725 396.152C120.301 396.76 120.733 397.456 121.021 398.24C121.325 399.024 121.477 399.856 121.477 400.736C121.477 401.6 121.325 402.424 121.021 403.208C120.733 403.992 120.301 404.688 119.725 405.296C119.165 405.904 118.477 406.384 117.661 406.736C116.845 407.072 115.925 407.24 114.901 407.24ZM111.613 400.736C111.613 401.472 111.757 402.128 112.045 402.704C112.333 403.264 112.725 403.704 113.221 404.024C113.717 404.344 114.277 404.504 114.901 404.504C115.509 404.504 116.061 404.344 116.557 404.024C117.053 403.688 117.445 403.24 117.733 402.68C118.037 402.104 118.189 401.448 118.189 400.712C118.189 399.992 118.037 399.344 117.733 398.768C117.445 398.192 117.053 397.744 116.557 397.424C116.061 397.104 115.509 396.944 114.901 396.944C114.277 396.944 113.717 397.112 113.221 397.448C112.725 397.768 112.333 398.216 112.045 398.792C111.757 399.352 111.613 400 111.613 400.736Z" fill="black"/>
<path d="M128.28 407.24C127.208 407.24 126.184 407.064 125.208 406.712C124.232 406.36 123.392 405.84 122.688 405.152L123.84 403.064C124.592 403.672 125.328 404.12 126.048 404.408C126.784 404.696 127.488 404.84 128.16 404.84C128.784 404.84 129.28 404.728 129.648 404.504C130.032 404.28 130.224 403.944 130.224 403.496C130.224 403.192 130.12 402.96 129.912 402.8C129.704 402.624 129.4 402.472 129 402.344C128.616 402.216 128.144 402.072 127.584 401.912C126.656 401.608 125.88 401.312 125.256 401.024C124.632 400.736 124.16 400.376 123.84 399.944C123.536 399.496 123.384 398.928 123.384 398.24C123.384 397.408 123.592 396.696 124.008 396.104C124.44 395.496 125.032 395.024 125.784 394.688C126.552 394.352 127.448 394.184 128.472 394.184C129.368 394.184 130.216 394.328 131.016 394.616C131.816 394.888 132.544 395.336 133.2 395.96L131.904 398C131.264 397.504 130.656 397.144 130.08 396.92C129.504 396.68 128.92 396.56 128.328 396.56C127.992 396.56 127.672 396.6 127.368 396.68C127.08 396.76 126.84 396.896 126.648 397.088C126.472 397.264 126.384 397.52 126.384 397.856C126.384 398.16 126.464 398.4 126.624 398.576C126.8 398.736 127.056 398.88 127.392 399.008C127.744 399.136 128.168 399.28 128.664 399.44C129.672 399.728 130.52 400.024 131.208 400.328C131.912 400.632 132.44 401.008 132.792 401.456C133.144 401.888 133.32 402.488 133.32 403.256C133.32 404.504 132.864 405.48 131.952 406.184C131.04 406.888 129.816 407.24 128.28 407.24Z" fill="black"/>
<path d="M141.339 407.24C140.331 407.24 139.419 407.072 138.603 406.736C137.787 406.384 137.091 405.912 136.515 405.32C135.939 404.712 135.491 404.024 135.171 403.256C134.867 402.472 134.715 401.648 134.715 400.784C134.715 399.584 134.979 398.488 135.507 397.496C136.051 396.504 136.819 395.712 137.811 395.12C138.819 394.512 140.003 394.208 141.363 394.208C142.739 394.208 143.915 394.512 144.891 395.12C145.867 395.712 146.611 396.504 147.123 397.496C147.651 398.472 147.915 399.528 147.915 400.664C147.915 400.856 147.907 401.056 147.891 401.264C147.875 401.456 147.859 401.616 147.843 401.744H138.123C138.187 402.384 138.371 402.944 138.675 403.424C138.995 403.904 139.395 404.272 139.875 404.528C140.371 404.768 140.899 404.888 141.459 404.888C142.099 404.888 142.699 404.736 143.259 404.432C143.835 404.112 144.227 403.696 144.435 403.184L147.195 403.952C146.891 404.592 146.451 405.16 145.875 405.656C145.315 406.152 144.651 406.544 143.883 406.832C143.115 407.104 142.267 407.24 141.339 407.24ZM138.051 399.704H144.627C144.563 399.064 144.379 398.512 144.075 398.048C143.787 397.568 143.403 397.2 142.923 396.944C142.443 396.672 141.907 396.536 141.315 396.536C140.739 396.536 140.211 396.672 139.731 396.944C139.267 397.2 138.883 397.568 138.579 398.048C138.291 398.512 138.115 399.064 138.051 399.704Z" fill="black"/>
<path d="M154.776 403.28C154.776 402.464 155 401.752 155.448 401.144C155.912 400.52 156.552 400.04 157.368 399.704C158.184 399.368 159.12 399.2 160.176 399.2C160.704 399.2 161.24 399.24 161.784 399.32C162.328 399.4 162.8 399.528 163.2 399.704V399.032C163.2 398.232 162.96 397.616 162.48 397.184C162.016 396.752 161.32 396.536 160.392 396.536C159.704 396.536 159.048 396.656 158.424 396.896C157.8 397.136 157.144 397.488 156.456 397.952L155.424 395.84C156.256 395.296 157.104 394.888 157.968 394.616C158.848 394.344 159.768 394.208 160.728 394.208C162.52 394.208 163.912 394.656 164.904 395.552C165.912 396.448 166.416 397.728 166.416 399.392V403.4C166.416 403.736 166.472 403.976 166.584 404.12C166.712 404.264 166.912 404.352 167.184 404.384V407C166.896 407.048 166.632 407.088 166.392 407.12C166.168 407.152 165.976 407.168 165.816 407.168C165.176 407.168 164.688 407.024 164.352 406.736C164.032 406.448 163.832 406.096 163.752 405.68L163.68 405.032C163.136 405.736 162.456 406.28 161.64 406.664C160.824 407.048 159.992 407.24 159.144 407.24C158.312 407.24 157.56 407.072 156.888 406.736C156.232 406.384 155.712 405.912 155.328 405.32C154.96 404.712 154.776 404.032 154.776 403.28ZM162.6 403.928C162.776 403.736 162.92 403.544 163.032 403.352C163.144 403.16 163.2 402.984 163.2 402.824V401.552C162.816 401.392 162.4 401.272 161.952 401.192C161.504 401.096 161.08 401.048 160.68 401.048C159.848 401.048 159.16 401.232 158.616 401.6C158.088 401.952 157.824 402.424 157.824 403.016C157.824 403.336 157.912 403.64 158.088 403.928C158.264 404.216 158.52 404.448 158.856 404.624C159.192 404.8 159.592 404.888 160.056 404.888C160.536 404.888 161.008 404.8 161.472 404.624C161.936 404.432 162.312 404.2 162.6 403.928Z" fill="black"/>
<path d="M175.499 407V389.96H183.035C183.819 389.96 184.539 390.12 185.195 390.44C185.867 390.76 186.443 391.192 186.923 391.736C187.419 392.28 187.795 392.888 188.051 393.56C188.323 394.232 188.459 394.92 188.459 395.624C188.459 396.344 188.331 397.04 188.075 397.712C187.835 398.368 187.483 398.944 187.019 399.44C186.555 399.936 186.011 400.32 185.387 400.592L189.275 407H185.627L182.123 401.288H178.811V407H175.499ZM178.811 398.384H182.963C183.379 398.384 183.747 398.264 184.067 398.024C184.387 397.768 184.643 397.432 184.835 397.016C185.027 396.6 185.123 396.136 185.123 395.624C185.123 395.08 185.011 394.608 184.787 394.208C184.563 393.792 184.275 393.464 183.923 393.224C183.587 392.984 183.219 392.864 182.819 392.864H178.811V398.384Z" fill="black"/>
<path d="M196.558 407.24C195.55 407.24 194.638 407.072 193.822 406.736C193.006 406.384 192.31 405.912 191.734 405.32C191.158 404.712 190.71 404.024 190.39 403.256C190.086 402.472 189.934 401.648 189.934 400.784C189.934 399.584 190.198 398.488 190.726 397.496C191.27 396.504 192.038 395.712 193.03 395.12C194.038 394.512 195.222 394.208 196.582 394.208C197.958 394.208 199.134 394.512 200.11 395.12C201.086 395.712 201.83 396.504 202.342 397.496C202.87 398.472 203.134 399.528 203.134 400.664C203.134 400.856 203.126 401.056 203.11 401.264C203.094 401.456 203.078 401.616 203.062 401.744H193.342C193.406 402.384 193.59 402.944 193.894 403.424C194.214 403.904 194.614 404.272 195.094 404.528C195.59 404.768 196.118 404.888 196.678 404.888C197.318 404.888 197.918 404.736 198.478 404.432C199.054 404.112 199.446 403.696 199.654 403.184L202.414 403.952C202.11 404.592 201.67 405.16 201.094 405.656C200.534 406.152 199.87 406.544 199.102 406.832C198.334 407.104 197.486 407.24 196.558 407.24ZM193.27 399.704H199.846C199.782 399.064 199.598 398.512 199.294 398.048C199.006 397.568 198.622 397.2 198.142 396.944C197.662 396.672 197.126 396.536 196.534 396.536C195.958 396.536 195.43 396.672 194.95 396.944C194.486 397.2 194.102 397.568 193.798 398.048C193.51 398.512 193.334 399.064 193.27 399.704Z" fill="black"/>
<path d="M209.725 407.24C208.653 407.24 207.629 407.064 206.653 406.712C205.677 406.36 204.837 405.84 204.133 405.152L205.285 403.064C206.037 403.672 206.773 404.12 207.493 404.408C208.229 404.696 208.933 404.84 209.605 404.84C210.229 404.84 210.725 404.728 211.093 404.504C211.477 404.28 211.669 403.944 211.669 403.496C211.669 403.192 211.565 402.96 211.357 402.8C211.149 402.624 210.845 402.472 210.445 402.344C210.061 402.216 209.589 402.072 209.029 401.912C208.101 401.608 207.325 401.312 206.701 401.024C206.077 400.736 205.605 400.376 205.285 399.944C204.981 399.496 204.829 398.928 204.829 398.24C204.829 397.408 205.037 396.696 205.453 396.104C205.885 395.496 206.477 395.024 207.229 394.688C207.997 394.352 208.893 394.184 209.917 394.184C210.813 394.184 211.661 394.328 212.461 394.616C213.261 394.888 213.989 395.336 214.645 395.96L213.349 398C212.709 397.504 212.101 397.144 211.525 396.92C210.949 396.68 210.365 396.56 209.773 396.56C209.437 396.56 209.117 396.6 208.813 396.68C208.525 396.76 208.285 396.896 208.093 397.088C207.917 397.264 207.829 397.52 207.829 397.856C207.829 398.16 207.909 398.4 208.069 398.576C208.245 398.736 208.501 398.88 208.837 399.008C209.189 399.136 209.613 399.28 210.109 399.44C211.117 399.728 211.965 400.024 212.653 400.328C213.357 400.632 213.885 401.008 214.237 401.456C214.589 401.888 214.765 402.488 214.765 403.256C214.765 404.504 214.309 405.48 213.397 406.184C212.485 406.888 211.261 407.24 209.725 407.24Z" fill="black"/>
<path d="M224.418 406.352C224.146 406.464 223.818 406.592 223.434 406.736C223.05 406.88 222.634 406.992 222.186 407.072C221.754 407.168 221.314 407.216 220.866 407.216C220.274 407.216 219.73 407.112 219.234 406.904C218.738 406.696 218.338 406.368 218.034 405.92C217.746 405.456 217.602 404.856 217.602 404.12V396.896H215.946V394.424H217.602V390.344H220.818V394.424H223.458V396.896H220.818V403.04C220.834 403.472 220.954 403.784 221.178 403.976C221.402 404.168 221.682 404.264 222.018 404.264C222.354 404.264 222.682 404.208 223.002 404.096C223.322 403.984 223.578 403.888 223.77 403.808L224.418 406.352Z" fill="black"/>
<path d="M225.229 403.28C225.229 402.464 225.453 401.752 225.901 401.144C226.365 400.52 227.005 400.04 227.821 399.704C228.637 399.368 229.573 399.2 230.629 399.2C231.157 399.2 231.693 399.24 232.237 399.32C232.781 399.4 233.253 399.528 233.653 399.704V399.032C233.653 398.232 233.413 397.616 232.933 397.184C232.469 396.752 231.773 396.536 230.845 396.536C230.157 396.536 229.501 396.656 228.877 396.896C228.253 397.136 227.597 397.488 226.909 397.952L225.877 395.84C226.709 395.296 227.557 394.888 228.421 394.616C229.301 394.344 230.221 394.208 231.181 394.208C232.973 394.208 234.365 394.656 235.357 395.552C236.365 396.448 236.869 397.728 236.869 399.392V403.4C236.869 403.736 236.925 403.976 237.037 404.12C237.165 404.264 237.365 404.352 237.637 404.384V407C237.349 407.048 237.085 407.088 236.845 407.12C236.621 407.152 236.429 407.168 236.269 407.168C235.629 407.168 235.141 407.024 234.805 406.736C234.485 406.448 234.285 406.096 234.205 405.68L234.133 405.032C233.589 405.736 232.909 406.28 232.093 406.664C231.277 407.048 230.445 407.24 229.597 407.24C228.765 407.24 228.013 407.072 227.341 406.736C226.685 406.384 226.165 405.912 225.781 405.32C225.413 404.712 225.229 404.032 225.229 403.28ZM233.053 403.928C233.229 403.736 233.373 403.544 233.485 403.352C233.597 403.16 233.653 402.984 233.653 402.824V401.552C233.269 401.392 232.853 401.272 232.405 401.192C231.957 401.096 231.533 401.048 231.133 401.048C230.301 401.048 229.613 401.232 229.069 401.6C228.541 401.952 228.277 402.424 228.277 403.016C228.277 403.336 228.365 403.64 228.541 403.928C228.717 404.216 228.973 404.448 229.309 404.624C229.645 404.8 230.045 404.888 230.509 404.888C230.989 404.888 231.461 404.8 231.925 404.624C232.389 404.432 232.765 404.2 233.053 403.928Z" fill="black"/>
<path d="M239.754 402.296V394.424H242.97V401.6C242.97 402.56 243.146 403.288 243.498 403.784C243.85 404.264 244.37 404.504 245.058 404.504C245.474 404.504 245.882 404.424 246.282 404.264C246.698 404.088 247.074 403.832 247.41 403.496C247.762 403.16 248.058 402.736 248.298 402.224V394.424H251.514V403.4C251.514 403.736 251.57 403.976 251.682 404.12C251.81 404.264 252.01 404.352 252.282 404.384V407C251.962 407.048 251.69 407.08 251.466 407.096C251.258 407.128 251.066 407.144 250.89 407.144C250.314 407.144 249.842 407.016 249.474 406.76C249.122 406.488 248.914 406.12 248.85 405.656L248.778 404.648C248.218 405.496 247.498 406.144 246.618 406.592C245.738 407.024 244.77 407.24 243.714 407.24C242.418 407.24 241.434 406.824 240.762 405.992C240.09 405.144 239.754 403.912 239.754 402.296Z" fill="black"/>
<path d="M262.198 397.208C261.222 397.208 260.35 397.4 259.582 397.784C258.814 398.152 258.262 398.688 257.926 399.392V407H254.71V394.424H257.662V397.112C258.11 396.248 258.678 395.568 259.366 395.072C260.054 394.576 260.782 394.304 261.55 394.256C261.726 394.256 261.862 394.256 261.958 394.256C262.054 394.256 262.134 394.264 262.198 394.28V397.208Z" fill="black"/>
<path d="M263.057 403.28C263.057 402.464 263.281 401.752 263.729 401.144C264.193 400.52 264.833 400.04 265.649 399.704C266.465 399.368 267.401 399.2 268.457 399.2C268.985 399.2 269.521 399.24 270.065 399.32C270.609 399.4 271.081 399.528 271.481 399.704V399.032C271.481 398.232 271.241 397.616 270.761 397.184C270.297 396.752 269.601 396.536 268.673 396.536C267.985 396.536 267.329 396.656 266.705 396.896C266.081 397.136 265.425 397.488 264.737 397.952L263.705 395.84C264.537 395.296 265.385 394.888 266.249 394.616C267.129 394.344 268.049 394.208 269.009 394.208C270.801 394.208 272.193 394.656 273.185 395.552C274.193 396.448 274.697 397.728 274.697 399.392V403.4C274.697 403.736 274.753 403.976 274.865 404.12C274.993 404.264 275.193 404.352 275.465 404.384V407C275.177 407.048 274.913 407.088 274.673 407.12C274.449 407.152 274.257 407.168 274.097 407.168C273.457 407.168 272.969 407.024 272.633 406.736C272.313 406.448 272.113 406.096 272.033 405.68L271.961 405.032C271.417 405.736 270.737 406.28 269.921 406.664C269.105 407.048 268.273 407.24 267.425 407.24C266.593 407.24 265.841 407.072 265.169 406.736C264.513 406.384 263.993 405.912 263.609 405.32C263.241 404.712 263.057 404.032 263.057 403.28ZM270.881 403.928C271.057 403.736 271.201 403.544 271.313 403.352C271.425 403.16 271.481 402.984 271.481 402.824V401.552C271.097 401.392 270.681 401.272 270.233 401.192C269.785 401.096 269.361 401.048 268.961 401.048C268.129 401.048 267.441 401.232 266.897 401.6C266.369 401.952 266.105 402.424 266.105 403.016C266.105 403.336 266.193 403.64 266.369 403.928C266.545 404.216 266.801 404.448 267.137 404.624C267.473 404.8 267.873 404.888 268.337 404.888C268.817 404.888 269.289 404.8 269.753 404.624C270.217 404.432 270.593 404.2 270.881 403.928Z" fill="black"/>
<path d="M289.39 407H286.174V399.944C286.174 398.936 285.998 398.2 285.646 397.736C285.294 397.272 284.806 397.04 284.182 397.04C283.75 397.04 283.31 397.152 282.862 397.376C282.43 397.6 282.038 397.912 281.686 398.312C281.334 398.696 281.078 399.144 280.918 399.656V407H277.702V394.424H280.606V396.752C280.926 396.208 281.334 395.752 281.83 395.384C282.326 395 282.894 394.712 283.534 394.52C284.19 394.312 284.878 394.208 285.598 394.208C286.382 394.208 287.022 394.352 287.518 394.64C288.03 394.912 288.414 395.288 288.67 395.768C288.942 396.232 289.126 396.76 289.222 397.352C289.334 397.944 289.39 398.544 289.39 399.152V407Z" fill="black"/>
<path d="M299.652 406.352C299.38 406.464 299.052 406.592 298.668 406.736C298.284 406.88 297.868 406.992 297.42 407.072C296.988 407.168 296.548 407.216 296.1 407.216C295.508 407.216 294.964 407.112 294.468 406.904C293.972 406.696 293.572 406.368 293.268 405.92C292.98 405.456 292.836 404.856 292.836 404.12V396.896H291.18V394.424H292.836V390.344H296.052V394.424H298.692V396.896H296.052V403.04C296.068 403.472 296.188 403.784 296.412 403.976C296.636 404.168 296.916 404.264 297.252 404.264C297.588 404.264 297.916 404.208 298.236 404.096C298.556 403.984 298.812 403.888 299.004 403.808L299.652 406.352Z" fill="black"/>
<path d="M293.72 343C322.814 343 346.4 341.22 346.4 339.024C346.4 336.827 322.814 335.047 293.72 335.047C264.625 335.047 241.04 336.827 241.04 339.024C241.04 341.22 264.625 343 293.72 343Z" fill="#E6E6E6"/>
<path d="M69.6584 180.694C69.6753 176.646 66.2364 173.336 62.1999 173.336H24.7439C20.7712 173.336 17.3389 176.592 17.2923 180.575C17.2779 181.707 17.5259 182.826 18.0168 183.846C18.5077 184.865 19.228 185.757 20.121 186.449C20.3499 186.62 20.53 186.849 20.6434 187.111C20.7567 187.374 20.7994 187.662 20.767 187.946C20.7235 188.269 20.7017 188.594 20.7017 188.92V214.896C20.7017 215.852 20.8896 216.799 21.2545 217.683C21.6195 218.566 22.1544 219.369 22.8287 220.045C23.503 220.721 24.3036 221.257 25.1846 221.623C26.0657 221.989 27.01 222.177 27.9637 222.177H58.7431C60.6691 222.177 62.5162 221.41 63.878 220.045C65.2399 218.679 66.005 216.827 66.005 214.896V188.92C66.005 188.635 65.9885 188.35 65.9554 188.067C65.9261 187.787 65.9721 187.504 66.0886 187.248C66.2052 186.991 66.388 186.771 66.6181 186.609C67.5553 185.934 68.3195 185.046 68.8481 184.018C69.3766 182.99 69.6543 181.85 69.6584 180.694Z" fill="#3F3D56"/>
<path d="M68.0358 179.981C67.849 178.572 67.1548 177.28 66.0839 176.348C65.0131 175.417 63.6395 174.91 62.2218 174.923H24.7322C23.4069 174.911 22.1172 175.353 21.0761 176.175C20.035 176.998 19.3047 178.151 19.0059 179.446C18.7501 180.636 18.8776 181.876 19.37 182.989C19.8625 184.101 20.6944 185.028 21.746 185.637C22.0496 185.811 22.2869 186.081 22.4205 186.405C22.5541 186.729 22.5765 187.088 22.4841 187.427C22.351 187.914 22.2839 188.416 22.2843 188.921V214.895C22.2845 216.222 22.747 217.508 23.5919 218.53C24.4368 219.552 25.6112 220.246 26.9121 220.492C27.2591 220.557 27.6113 220.59 27.9643 220.59H58.7437C59.2633 220.591 59.7806 220.519 60.2806 220.377C61.4721 220.041 62.5215 219.324 63.2689 218.335C64.0164 217.345 64.421 216.138 64.4212 214.897V188.919C64.4213 188.446 64.3624 187.975 64.2459 187.517C64.2141 187.39 64.1977 187.26 64.1972 187.129C64.1974 186.842 64.2755 186.56 64.423 186.314C64.5706 186.068 64.7822 185.867 65.035 185.732L65.0375 185.729C66.0575 185.186 66.8898 184.347 67.4249 183.321C67.9601 182.295 68.173 181.13 68.0358 179.981Z" fill="black"/>
<path opacity="0.2" d="M64.4217 191.408V188.966H60.2811V174.924H57.8454V188.966H44.8146V174.924H42.379V188.966H29.3482V174.924H26.9125V188.966H22.2848V191.408H26.9125V198.734H22.2848V201.176H26.9125V208.502H22.2848V210.944H26.9125V220.493C27.2595 220.558 27.6118 220.59 27.9647 220.59H29.3482V210.944H42.379V220.59H44.8146V210.944H57.8454V220.59H58.7442C59.2638 220.591 59.781 220.52 60.2811 220.378V210.944H64.4217V208.502H60.2811V201.176H64.4217V198.734H60.2811V191.408H64.4217ZM29.3482 191.408H42.379V198.734H29.3482V191.408ZM29.3482 208.502V201.176H42.379V208.502H29.3482ZM57.8454 208.502H44.8147V201.176H57.8454V208.502ZM57.8454 198.734H44.8147V191.408H57.8454V198.734Z" fill="black"/>
<path d="M69.4876 119C69.4876 122.425 68.8148 125.816 67.5075 128.981C66.2003 132.145 64.2842 135.02 61.8687 137.442C59.4532 139.864 56.5856 141.785 53.4296 143.096C50.2736 144.406 46.891 145.081 43.475 145.081C40.059 145.081 36.6764 144.406 33.5204 143.096C30.3644 141.785 27.4968 139.864 25.0813 137.442C22.6658 135.02 20.7498 132.145 19.4425 128.981C18.1352 125.816 17.4624 122.425 17.4624 119H69.4876Z" fill="black"/>
<path d="M27.0056 123.63C27.0056 124.312 26.7644 124.864 26.4669 124.864C26.1693 124.864 25.9282 124.312 25.9282 123.63C25.9609 123.168 26.1511 122.732 26.4669 122.395C26.7827 122.732 26.9729 123.168 27.0056 123.63Z" fill="#3F3D56"/>
<path d="M54.2494 127.951C54.2494 128.633 54.0082 129.185 53.7107 129.185C53.4131 129.185 53.1719 128.633 53.1719 127.951C53.2046 127.489 53.3949 127.053 53.7107 126.716C54.0264 127.053 54.2167 127.489 54.2494 127.951Z" fill="#3F3D56"/>
<path d="M34.2399 125.482C34.2399 126.164 33.9987 126.716 33.7012 126.716C33.4037 126.716 33.1625 126.164 33.1625 125.482C33.1952 125.02 33.3854 124.584 33.7012 124.247C34.017 124.584 34.2072 125.02 34.2399 125.482Z" fill="#3F3D56"/>
<path d="M45.0143 135.204C45.0143 135.886 44.7731 136.439 44.4755 136.439C44.178 136.439 43.9368 135.886 43.9368 135.204C43.9695 134.743 44.1598 134.307 44.4755 133.969C44.7913 134.307 44.9816 134.743 45.0143 135.204Z" fill="#3F3D56"/>
<path d="M33.4695 133.97C33.4695 134.652 33.2283 135.204 32.9308 135.204C32.6333 135.204 32.3921 134.652 32.3921 133.97C32.4248 133.508 32.615 133.072 32.9308 132.735C33.2466 133.072 33.4368 133.508 33.4695 133.97Z" fill="#3F3D56"/>
<path d="M60.4064 122.395C60.4064 123.077 60.1652 123.63 59.8677 123.63C59.5702 123.63 59.329 123.077 59.329 122.395C59.3617 121.934 59.5519 121.498 59.8677 121.16C60.1835 121.498 60.3737 121.934 60.4064 122.395Z" fill="#3F3D56"/>
<path d="M50.5552 137.673C50.5552 138.355 50.314 138.908 50.0164 138.908C49.7189 138.908 49.4777 138.355 49.4777 137.673C49.5104 137.212 49.7007 136.776 50.0164 136.438C50.3322 136.776 50.5225 137.212 50.5552 137.673Z" fill="#3F3D56"/>
<path d="M43.4749 146.547C36.1906 146.539 29.2071 143.634 24.0563 138.47C18.9056 133.305 16.0082 126.303 16 119H18.9245C18.9245 122.232 19.5595 125.433 20.7933 128.42C22.027 131.406 23.8354 134.12 26.1151 136.405C28.3948 138.691 31.1012 140.504 34.0798 141.741C37.0584 142.978 40.2508 143.615 43.4748 143.615C46.6989 143.615 49.8913 142.978 52.8699 141.741C55.8485 140.504 58.5549 138.691 60.8346 136.405C63.1143 134.12 64.9227 131.406 66.1564 128.42C67.3902 125.433 68.0252 122.232 68.0252 119H70.9497C70.9414 126.303 68.0441 133.305 62.8934 138.47C57.7427 143.634 50.7591 146.539 43.4749 146.547Z" fill="#3F3D56"/>
<path d="M106.76 128.457H98.1496V137.09H106.76V128.457Z" fill="#3F3D56"/>
<path d="M191.141 132.342H121.828V133.205H191.141V132.342Z" fill="#3F3D56"/>
<path d="M106.76 193.44H98.1496V202.073H106.76V193.44Z" fill="#3F3D56"/>
<path d="M191.141 197.325H121.828V198.188H191.141V197.325Z" fill="#3F3D56"/>
<path d="M106.76 257.972H98.1496V266.605H106.76V257.972Z" fill="#3F3D56"/>
<path d="M191.141 261.856H121.828V262.72H191.141V261.856Z" fill="#3F3D56"/>
<path d="M288.224 178.284L277.225 186.976L253.919 178.764C253.919 178.764 245.995 169.827 241.514 176.483C239.979 178.763 250.031 182.974 250.979 183.365C253.35 184.344 276.06 196.836 278.286 195.197C280.511 193.558 293.032 185.269 293.032 185.269L288.224 178.284Z" fill="#A0616A"/>
<path d="M325.769 163.456C315.345 159.551 305.428 157.703 297.389 163.456V144.888C297.389 143.02 297.756 141.17 298.469 139.443C299.182 137.717 300.227 136.149 301.545 134.828C302.863 133.507 304.427 132.459 306.148 131.744C307.87 131.029 309.715 130.661 311.579 130.661C313.442 130.661 315.288 131.029 317.009 131.744C318.731 132.459 320.295 133.507 321.613 134.828C322.93 136.149 323.976 137.717 324.689 139.443C325.402 141.17 325.769 143.02 325.769 144.888L325.769 163.456Z" fill="#2F2E41"/>
<path d="M299.575 204.019L298.724 209.997C298.724 209.997 296.594 216.402 298.724 228.359L264.438 322.09L289.78 329.35L302.344 278.107L320.019 239.034L318.315 283.445L309.371 330.844L335.777 329.777L343.472 248.501C344.716 235.656 342.494 222.712 337.038 211.023C334.903 206.478 332.608 202.896 330.525 202.376C324.278 200.816 299.575 204.019 299.575 204.019Z" fill="#2F2E41"/>
<path d="M267.633 321.45L258.902 330.844C258.902 330.844 242.079 339.598 254.004 340.666C265.929 341.733 269.976 337.036 269.976 337.036C269.976 337.036 284.882 335.968 284.669 333.833C284.456 331.698 283.391 324.652 283.391 324.652L267.633 321.45Z" fill="#2F2E41"/>
<path d="M315.015 323.715V330.334C315.015 330.334 315.228 333.109 315.015 333.75C314.802 334.39 311.608 342.29 322.255 340.582C332.903 338.874 328.644 332.255 328.644 332.255L326.088 322.647L315.015 323.715Z" fill="#2F2E41"/>
<path d="M311.448 157.9C317.358 157.9 322.149 153.097 322.149 147.171C322.149 141.246 317.358 136.442 311.448 136.442C305.538 136.442 300.747 141.246 300.747 147.171C300.747 153.097 305.538 157.9 311.448 157.9Z" fill="#A0616A"/>
<path d="M318.848 153.096C318.848 153.096 317.357 167.188 318.848 169.75C320.339 172.312 303.728 167.188 303.728 167.188C303.728 167.188 307.349 157.58 306.071 153.737C304.793 149.893 318.848 153.096 318.848 153.096Z" fill="#A0616A"/>
<path d="M327.366 193.663L330.773 203.057L299.044 206.687C299.044 206.687 295.637 206.047 295.637 203.271C295.637 200.495 292.016 190.674 292.016 190.674C292.016 190.674 283.15 183.469 278.891 181.547C277.347 180.851 279.657 181.138 280.956 178.183C281.345 177.295 281.812 176.358 282.321 175.408C282.736 174.628 283.183 173.838 283.641 173.059C284.197 172.109 284.77 171.174 285.325 170.284C287.008 167.591 288.543 165.328 289.035 164.412C290.526 161.636 304.54 161.389 304.54 161.389C308.548 163.917 320.126 164.412 320.126 164.412C320.126 164.412 328.09 167.753 331.408 170.284C331.649 170.465 327.366 193.663 327.366 193.663Z" fill="#E6E6E6"/>
<path d="M320.478 134.291V134.037L320.176 134.054C318.46 132.744 316.47 131.843 314.355 131.419C312.24 130.995 310.057 131.06 307.971 131.608C309.971 132.138 311.83 133.101 313.418 134.43L303.161 135.001L298.832 144.647H301.762L304.123 140.306V144.647H314.032L314.706 141.271L316.576 144.647H318.523C318.535 144.888 318.554 145.127 318.554 145.37L316.63 163.938L325.769 160.08V145.37C325.771 143.244 325.296 141.145 324.38 139.227C323.465 137.31 322.131 135.623 320.478 134.291Z" fill="#2F2E41"/>
<path d="M334.819 183.415L334.18 200.282L332.477 232.949C332.477 232.949 334.819 247.041 328.857 246.828C322.894 246.614 327.366 230.174 327.366 230.174L325.662 204.339L327.366 186.19L334.819 183.415Z" fill="#A0616A"/>
<path d="M336.523 192.596C336.523 194.517 325.769 193.984 325.769 193.984L320.126 164.412C320.126 164.412 328.09 167.754 331.408 170.284C332.189 171.096 332.827 172.034 333.297 173.06C333.55 173.745 333.791 174.539 334.019 175.408C334.244 176.271 334.455 177.208 334.653 178.184C335.583 182.943 336.207 187.757 336.523 192.596Z" fill="#E6E6E6"/>
<path d="M43.1855 261.194L26.8854 259.502C27.0106 258.634 26.9145 257.748 26.6059 256.928C26.2973 256.107 25.7863 255.379 25.1207 254.81C24.4551 254.241 23.6566 253.851 22.7997 253.675C21.9429 253.5 21.0556 253.545 20.2209 253.806C19.3861 254.068 18.631 254.537 18.0262 255.171C17.4214 255.804 16.9866 256.581 16.7623 257.428C16.5381 258.276 16.5317 259.166 16.7438 260.017C16.956 260.868 17.3797 261.651 17.9754 262.293C17.3702 262.948 16.9438 263.749 16.7377 264.618C16.5316 265.487 16.5526 266.395 16.7987 267.253C17.0449 268.112 17.5078 268.892 18.1427 269.519C18.7777 270.145 19.5631 270.597 20.4232 270.83C21.2832 271.063 22.1887 271.07 23.052 270.849C23.9154 270.629 24.7074 270.189 25.3514 269.572C25.9955 268.954 26.4698 268.181 26.7284 267.326C26.9871 266.472 27.0214 265.564 26.828 264.692L43.1855 263.185V261.194Z" fill="#CCCCCC"/>
<path d="M59.7605 272.426C66.1683 274.006 72.6236 269.449 72.9577 262.842C72.9669 262.658 72.9716 262.474 72.9716 262.288C72.9717 262.103 72.967 261.918 72.9577 261.735C72.6236 255.127 66.1683 250.57 59.7605 252.15L38.0219 257.51C37.3957 257.509 36.7755 257.632 36.1967 257.872C35.618 258.112 35.0921 258.464 34.649 258.908C34.206 259.352 33.8545 259.879 33.6147 260.459C33.375 261.039 33.2515 261.66 33.2515 262.288C33.2515 262.916 33.375 263.538 33.6147 264.118C33.8545 264.698 34.206 265.225 34.649 265.669C35.0921 266.113 35.618 266.464 36.1967 266.704C36.7755 266.944 37.3957 267.067 38.0219 267.067L59.7605 272.426Z" fill="black"/>
</svg>
