<svg width="363" height="481" viewBox="0 0 363 481" fill="none" xmlns="http://www.w3.org/2000/svg">
<path d="M81.9186 394.424C81.8066 394.312 81.5986 394.16 81.2946 393.968C81.0066 393.776 80.6466 393.592 80.2146 393.416C79.7986 393.24 79.3426 393.088 78.8466 392.96C78.3506 392.816 77.8466 392.744 77.3346 392.744C76.4386 392.744 75.7586 392.912 75.2946 393.248C74.8466 393.584 74.6226 394.056 74.6226 394.664C74.6226 395.128 74.7666 395.496 75.0546 395.768C75.3426 396.04 75.7746 396.272 76.3506 396.464C76.9266 396.656 77.6466 396.864 78.5106 397.088C79.6306 397.36 80.5986 397.696 81.4146 398.096C82.2466 398.48 82.8786 398.992 83.3106 399.632C83.7586 400.256 83.9826 401.088 83.9826 402.128C83.9826 403.04 83.8146 403.824 83.4786 404.48C83.1426 405.12 82.6786 405.64 82.0866 406.04C81.4946 406.44 80.8226 406.736 80.0706 406.928C79.3186 407.104 78.5186 407.192 77.6706 407.192C76.8226 407.192 75.9746 407.104 75.1266 406.928C74.2786 406.752 73.4626 406.504 72.6786 406.184C71.8946 405.848 71.1746 405.448 70.5186 404.984L71.9826 402.128C72.1266 402.272 72.3826 402.464 72.7506 402.704C73.1186 402.928 73.5666 403.16 74.0946 403.4C74.6226 403.624 75.1986 403.816 75.8226 403.976C76.4466 404.136 77.0786 404.216 77.7186 404.216C78.6146 404.216 79.2946 404.064 79.7586 403.76C80.2226 403.456 80.4546 403.024 80.4546 402.464C80.4546 401.952 80.2706 401.552 79.9026 401.264C79.5346 400.976 79.0226 400.728 78.3666 400.52C77.7106 400.296 76.9346 400.056 76.0386 399.8C74.9666 399.496 74.0706 399.16 73.3506 398.792C72.6306 398.408 72.0946 397.928 71.7426 397.352C71.3906 396.776 71.2146 396.056 71.2146 395.192C71.2146 394.024 71.4866 393.048 72.0306 392.264C72.5906 391.464 73.3426 390.864 74.2866 390.464C75.2306 390.048 76.2786 389.84 77.4306 389.84C78.2306 389.84 78.9826 389.928 79.6866 390.104C80.4066 390.28 81.0786 390.512 81.7026 390.8C82.3266 391.088 82.8866 391.4 83.3826 391.736L81.9186 394.424Z" fill="black"/>
<path d="M94.7185 407L91.0465 401.576L89.3425 403.256V407H86.1265V389.48H89.3425V400.088L94.4065 394.448H97.8145L93.1345 399.776L98.1505 407H94.7185Z" fill="black"/>
<path d="M99.5093 407V394.424H102.725V407H99.5093ZM99.5093 392.672V389.48H102.725V392.672H99.5093Z" fill="black"/>
<path d="M113.162 407.24C112.186 407.24 111.322 407.024 110.57 406.592C109.834 406.144 109.258 405.544 108.842 404.792V412.112H105.626V394.424H108.434V396.584C108.914 395.848 109.522 395.272 110.258 394.856C110.994 394.424 111.834 394.208 112.778 394.208C113.626 394.208 114.402 394.376 115.106 394.712C115.826 395.048 116.45 395.52 116.978 396.128C117.506 396.72 117.914 397.408 118.202 398.192C118.506 398.96 118.658 399.792 118.658 400.688C118.658 401.904 118.418 403.008 117.938 404C117.474 404.992 116.826 405.784 115.994 406.376C115.178 406.952 114.234 407.24 113.162 407.24ZM112.082 404.504C112.578 404.504 113.026 404.4 113.426 404.192C113.826 403.984 114.17 403.704 114.458 403.352C114.762 402.984 114.986 402.576 115.13 402.128C115.29 401.664 115.37 401.184 115.37 400.688C115.37 400.16 115.282 399.672 115.106 399.224C114.946 398.776 114.706 398.384 114.386 398.048C114.066 397.696 113.69 397.424 113.258 397.232C112.842 397.04 112.386 396.944 111.89 396.944C111.586 396.944 111.274 397 110.954 397.112C110.65 397.208 110.354 397.352 110.066 397.544C109.778 397.736 109.522 397.96 109.298 398.216C109.09 398.472 108.938 398.752 108.842 399.056V402.008C109.034 402.472 109.29 402.896 109.61 403.28C109.946 403.664 110.33 403.968 110.762 404.192C111.194 404.4 111.634 404.504 112.082 404.504Z" fill="black"/>
<path d="M134.139 406.352C133.867 406.464 133.539 406.592 133.155 406.736C132.771 406.88 132.355 406.992 131.907 407.072C131.475 407.168 131.035 407.216 130.587 407.216C129.995 407.216 129.451 407.112 128.955 406.904C128.459 406.696 128.059 406.368 127.755 405.92C127.467 405.456 127.323 404.856 127.323 404.12V396.896H125.667V394.424H127.323V390.344H130.539V394.424H133.179V396.896H130.539V403.04C130.555 403.472 130.675 403.784 130.899 403.976C131.123 404.168 131.403 404.264 131.739 404.264C132.075 404.264 132.403 404.208 132.723 404.096C133.043 403.984 133.299 403.888 133.491 403.808L134.139 406.352Z" fill="black"/>
<path d="M147.502 407H144.286V399.944C144.286 398.968 144.094 398.24 143.71 397.76C143.342 397.28 142.83 397.04 142.174 397.04C141.79 397.04 141.382 397.152 140.95 397.376C140.518 397.6 140.126 397.912 139.774 398.312C139.438 398.696 139.19 399.144 139.03 399.656V407H135.814V389.48H139.03V396.752C139.494 395.952 140.126 395.328 140.926 394.88C141.726 394.432 142.598 394.208 143.542 394.208C144.358 394.208 145.022 394.352 145.534 394.64C146.046 394.912 146.446 395.288 146.734 395.768C147.022 396.232 147.222 396.76 147.334 397.352C147.446 397.928 147.502 398.528 147.502 399.152V407Z" fill="black"/>
<path d="M156.13 407.24C155.122 407.24 154.21 407.072 153.394 406.736C152.578 406.384 151.882 405.912 151.306 405.32C150.73 404.712 150.282 404.024 149.962 403.256C149.658 402.472 149.506 401.648 149.506 400.784C149.506 399.584 149.77 398.488 150.298 397.496C150.842 396.504 151.61 395.712 152.602 395.12C153.61 394.512 154.794 394.208 156.154 394.208C157.53 394.208 158.706 394.512 159.682 395.12C160.658 395.712 161.402 396.504 161.914 397.496C162.442 398.472 162.706 399.528 162.706 400.664C162.706 400.856 162.698 401.056 162.682 401.264C162.666 401.456 162.65 401.616 162.634 401.744H152.914C152.978 402.384 153.162 402.944 153.466 403.424C153.786 403.904 154.186 404.272 154.666 404.528C155.162 404.768 155.69 404.888 156.25 404.888C156.89 404.888 157.49 404.736 158.05 404.432C158.626 404.112 159.018 403.696 159.226 403.184L161.986 403.952C161.682 404.592 161.242 405.16 160.666 405.656C160.106 406.152 159.442 406.544 158.674 406.832C157.906 407.104 157.058 407.24 156.13 407.24ZM152.842 399.704H159.418C159.354 399.064 159.17 398.512 158.866 398.048C158.578 397.568 158.194 397.2 157.714 396.944C157.234 396.672 156.698 396.536 156.106 396.536C155.53 396.536 155.002 396.672 154.522 396.944C154.058 397.2 153.674 397.568 153.37 398.048C153.082 398.512 152.906 399.064 152.842 399.704Z" fill="black"/>
<path d="M184.639 407V395.816L180.271 404.144H178.423L174.055 395.816V407H170.743V389.96H174.295L179.335 399.656L184.423 389.96H187.951V407H184.639Z" fill="black"/>
<path d="M196.818 407.24C195.81 407.24 194.898 407.072 194.082 406.736C193.266 406.384 192.57 405.912 191.994 405.32C191.418 404.712 190.97 404.024 190.65 403.256C190.346 402.472 190.194 401.648 190.194 400.784C190.194 399.584 190.458 398.488 190.986 397.496C191.53 396.504 192.298 395.712 193.29 395.12C194.298 394.512 195.482 394.208 196.842 394.208C198.218 394.208 199.394 394.512 200.37 395.12C201.346 395.712 202.09 396.504 202.602 397.496C203.13 398.472 203.394 399.528 203.394 400.664C203.394 400.856 203.386 401.056 203.37 401.264C203.354 401.456 203.338 401.616 203.322 401.744H193.602C193.666 402.384 193.85 402.944 194.154 403.424C194.474 403.904 194.874 404.272 195.354 404.528C195.85 404.768 196.378 404.888 196.938 404.888C197.578 404.888 198.178 404.736 198.738 404.432C199.314 404.112 199.706 403.696 199.914 403.184L202.674 403.952C202.37 404.592 201.93 405.16 201.354 405.656C200.794 406.152 200.13 406.544 199.362 406.832C198.594 407.104 197.746 407.24 196.818 407.24ZM193.53 399.704H200.106C200.042 399.064 199.858 398.512 199.554 398.048C199.266 397.568 198.882 397.2 198.402 396.944C197.922 396.672 197.386 396.536 196.794 396.536C196.218 396.536 195.69 396.672 195.21 396.944C194.746 397.2 194.362 397.568 194.058 398.048C193.77 398.512 193.594 399.064 193.53 399.704Z" fill="black"/>
<path d="M209.985 407.24C208.913 407.24 207.889 407.064 206.913 406.712C205.937 406.36 205.097 405.84 204.393 405.152L205.545 403.064C206.297 403.672 207.033 404.12 207.753 404.408C208.489 404.696 209.193 404.84 209.865 404.84C210.489 404.84 210.985 404.728 211.353 404.504C211.737 404.28 211.929 403.944 211.929 403.496C211.929 403.192 211.825 402.96 211.617 402.8C211.409 402.624 211.105 402.472 210.705 402.344C210.321 402.216 209.849 402.072 209.289 401.912C208.361 401.608 207.585 401.312 206.961 401.024C206.337 400.736 205.865 400.376 205.545 399.944C205.241 399.496 205.089 398.928 205.089 398.24C205.089 397.408 205.297 396.696 205.713 396.104C206.145 395.496 206.737 395.024 207.489 394.688C208.257 394.352 209.153 394.184 210.177 394.184C211.073 394.184 211.921 394.328 212.721 394.616C213.521 394.888 214.249 395.336 214.905 395.96L213.609 398C212.969 397.504 212.361 397.144 211.785 396.92C211.209 396.68 210.625 396.56 210.033 396.56C209.697 396.56 209.377 396.6 209.073 396.68C208.785 396.76 208.545 396.896 208.353 397.088C208.177 397.264 208.089 397.52 208.089 397.856C208.089 398.16 208.169 398.4 208.329 398.576C208.505 398.736 208.761 398.88 209.097 399.008C209.449 399.136 209.873 399.28 210.369 399.44C211.377 399.728 212.225 400.024 212.913 400.328C213.617 400.632 214.145 401.008 214.497 401.456C214.849 401.888 215.025 402.488 215.025 403.256C215.025 404.504 214.569 405.48 213.657 406.184C212.745 406.888 211.521 407.24 209.985 407.24Z" fill="black"/>
<path d="M221.844 407.24C220.772 407.24 219.748 407.064 218.772 406.712C217.796 406.36 216.956 405.84 216.252 405.152L217.404 403.064C218.156 403.672 218.892 404.12 219.612 404.408C220.348 404.696 221.052 404.84 221.724 404.84C222.348 404.84 222.844 404.728 223.212 404.504C223.596 404.28 223.788 403.944 223.788 403.496C223.788 403.192 223.684 402.96 223.476 402.8C223.268 402.624 222.964 402.472 222.564 402.344C222.18 402.216 221.708 402.072 221.148 401.912C220.22 401.608 219.444 401.312 218.82 401.024C218.196 400.736 217.724 400.376 217.404 399.944C217.1 399.496 216.948 398.928 216.948 398.24C216.948 397.408 217.156 396.696 217.572 396.104C218.004 395.496 218.596 395.024 219.348 394.688C220.116 394.352 221.012 394.184 222.036 394.184C222.932 394.184 223.78 394.328 224.58 394.616C225.38 394.888 226.108 395.336 226.764 395.96L225.468 398C224.828 397.504 224.22 397.144 223.644 396.92C223.068 396.68 222.484 396.56 221.892 396.56C221.556 396.56 221.236 396.6 220.932 396.68C220.644 396.76 220.404 396.896 220.212 397.088C220.036 397.264 219.948 397.52 219.948 397.856C219.948 398.16 220.028 398.4 220.188 398.576C220.364 398.736 220.62 398.88 220.956 399.008C221.308 399.136 221.732 399.28 222.228 399.44C223.236 399.728 224.084 400.024 224.772 400.328C225.476 400.632 226.004 401.008 226.356 401.456C226.708 401.888 226.884 402.488 226.884 403.256C226.884 404.504 226.428 405.48 225.516 406.184C224.604 406.888 223.38 407.24 221.844 407.24Z" fill="black"/>
<path d="M228.208 403.28C228.208 402.464 228.432 401.752 228.88 401.144C229.344 400.52 229.984 400.04 230.8 399.704C231.616 399.368 232.552 399.2 233.608 399.2C234.136 399.2 234.672 399.24 235.216 399.32C235.76 399.4 236.232 399.528 236.632 399.704V399.032C236.632 398.232 236.392 397.616 235.912 397.184C235.448 396.752 234.752 396.536 233.824 396.536C233.136 396.536 232.48 396.656 231.856 396.896C231.232 397.136 230.576 397.488 229.888 397.952L228.856 395.84C229.688 395.296 230.536 394.888 231.4 394.616C232.28 394.344 233.2 394.208 234.16 394.208C235.952 394.208 237.344 394.656 238.336 395.552C239.344 396.448 239.848 397.728 239.848 399.392V403.4C239.848 403.736 239.904 403.976 240.016 404.12C240.144 404.264 240.344 404.352 240.616 404.384V407C240.328 407.048 240.064 407.088 239.824 407.12C239.6 407.152 239.408 407.168 239.248 407.168C238.608 407.168 238.12 407.024 237.784 406.736C237.464 406.448 237.264 406.096 237.184 405.68L237.112 405.032C236.568 405.736 235.888 406.28 235.072 406.664C234.256 407.048 233.424 407.24 232.576 407.24C231.744 407.24 230.992 407.072 230.32 406.736C229.664 406.384 229.144 405.912 228.76 405.32C228.392 404.712 228.208 404.032 228.208 403.28ZM236.032 403.928C236.208 403.736 236.352 403.544 236.464 403.352C236.576 403.16 236.632 402.984 236.632 402.824V401.552C236.248 401.392 235.832 401.272 235.384 401.192C234.936 401.096 234.512 401.048 234.112 401.048C233.28 401.048 232.592 401.232 232.048 401.6C231.52 401.952 231.256 402.424 231.256 403.016C231.256 403.336 231.344 403.64 231.52 403.928C231.696 404.216 231.952 404.448 232.288 404.624C232.624 404.8 233.024 404.888 233.488 404.888C233.968 404.888 234.44 404.8 234.904 404.624C235.368 404.432 235.744 404.2 236.032 403.928Z" fill="black"/>
<path d="M247.773 407.072C246.941 407.072 246.173 406.912 245.469 406.592C244.781 406.256 244.181 405.792 243.669 405.2C243.173 404.608 242.789 403.928 242.517 403.16C242.245 402.392 242.109 401.576 242.109 400.712C242.109 399.8 242.253 398.952 242.541 398.168C242.829 397.384 243.229 396.696 243.741 396.104C244.269 395.496 244.885 395.032 245.589 394.712C246.309 394.376 247.101 394.208 247.965 394.208C248.941 394.208 249.797 394.432 250.533 394.88C251.269 395.312 251.877 395.896 252.357 396.632V394.424H255.165V406.4C255.165 407.648 254.861 408.712 254.253 409.592C253.661 410.488 252.837 411.168 251.781 411.632C250.725 412.112 249.525 412.352 248.181 412.352C246.821 412.352 245.669 412.12 244.725 411.656C243.781 411.208 242.973 410.568 242.301 409.736L244.053 408.032C244.533 408.624 245.133 409.088 245.853 409.424C246.589 409.76 247.365 409.928 248.181 409.928C248.869 409.928 249.493 409.8 250.053 409.544C250.629 409.304 251.085 408.92 251.421 408.392C251.773 407.88 251.949 407.216 251.949 406.4V404.816C251.533 405.536 250.941 406.096 250.173 406.496C249.421 406.88 248.621 407.072 247.773 407.072ZM248.853 404.504C249.205 404.504 249.541 404.448 249.861 404.336C250.181 404.224 250.477 404.072 250.749 403.88C251.021 403.688 251.261 403.464 251.469 403.208C251.677 402.936 251.837 402.664 251.949 402.392V399.392C251.757 398.896 251.485 398.464 251.133 398.096C250.797 397.728 250.413 397.448 249.981 397.256C249.565 397.048 249.125 396.944 248.661 396.944C248.165 396.944 247.717 397.048 247.317 397.256C246.917 397.464 246.573 397.76 246.285 398.144C245.997 398.512 245.773 398.928 245.613 399.392C245.469 399.84 245.397 400.312 245.397 400.808C245.397 401.32 245.485 401.8 245.661 402.248C245.837 402.696 246.077 403.088 246.381 403.424C246.701 403.76 247.069 404.024 247.485 404.216C247.917 404.408 248.373 404.504 248.853 404.504Z" fill="black"/>
<path d="M258.064 407V394.424H261.28V407H258.064ZM258.064 392.672V389.48H261.28V392.672H258.064Z" fill="black"/>
<path d="M275.869 407H272.653V399.944C272.653 398.936 272.477 398.2 272.125 397.736C271.773 397.272 271.285 397.04 270.661 397.04C270.229 397.04 269.789 397.152 269.341 397.376C268.909 397.6 268.517 397.912 268.165 398.312C267.813 398.696 267.557 399.144 267.397 399.656V407H264.181V394.424H267.085V396.752C267.405 396.208 267.813 395.752 268.309 395.384C268.805 395 269.373 394.712 270.013 394.52C270.669 394.312 271.357 394.208 272.077 394.208C272.861 394.208 273.501 394.352 273.997 394.64C274.509 394.912 274.893 395.288 275.149 395.768C275.421 396.232 275.605 396.76 275.701 397.352C275.813 397.944 275.869 398.544 275.869 399.152V407Z" fill="black"/>
<path d="M283.586 407.072C282.754 407.072 281.986 406.912 281.282 406.592C280.594 406.256 279.994 405.792 279.482 405.2C278.986 404.608 278.602 403.928 278.33 403.16C278.058 402.392 277.922 401.576 277.922 400.712C277.922 399.8 278.066 398.952 278.354 398.168C278.642 397.384 279.042 396.696 279.554 396.104C280.082 395.496 280.698 395.032 281.402 394.712C282.122 394.376 282.914 394.208 283.778 394.208C284.754 394.208 285.61 394.432 286.346 394.88C287.082 395.312 287.69 395.896 288.17 396.632V394.424H290.978V406.4C290.978 407.648 290.674 408.712 290.066 409.592C289.474 410.488 288.65 411.168 287.594 411.632C286.538 412.112 285.338 412.352 283.994 412.352C282.634 412.352 281.482 412.12 280.538 411.656C279.594 411.208 278.786 410.568 278.114 409.736L279.866 408.032C280.346 408.624 280.946 409.088 281.666 409.424C282.402 409.76 283.178 409.928 283.994 409.928C284.682 409.928 285.306 409.8 285.866 409.544C286.442 409.304 286.898 408.92 287.234 408.392C287.586 407.88 287.762 407.216 287.762 406.4V404.816C287.346 405.536 286.754 406.096 285.986 406.496C285.234 406.88 284.434 407.072 283.586 407.072ZM284.666 404.504C285.018 404.504 285.354 404.448 285.674 404.336C285.994 404.224 286.29 404.072 286.562 403.88C286.834 403.688 287.074 403.464 287.282 403.208C287.49 402.936 287.65 402.664 287.762 402.392V399.392C287.57 398.896 287.298 398.464 286.946 398.096C286.61 397.728 286.226 397.448 285.794 397.256C285.378 397.048 284.938 396.944 284.474 396.944C283.978 396.944 283.53 397.048 283.13 397.256C282.73 397.464 282.386 397.76 282.098 398.144C281.81 398.512 281.586 398.928 281.426 399.392C281.282 399.84 281.21 400.312 281.21 400.808C281.21 401.32 281.298 401.8 281.474 402.248C281.65 402.696 281.89 403.088 282.194 403.424C282.514 403.76 282.882 404.024 283.298 404.216C283.73 404.408 284.186 404.504 284.666 404.504Z" fill="black"/>
<path d="M195.49 106.264C195.49 105.898 195.562 105.536 195.702 105.198C195.843 104.86 196.049 104.553 196.309 104.294C196.569 104.036 196.877 103.831 197.217 103.691C197.556 103.551 197.92 103.479 198.288 103.479H209.327C209.695 103.478 210.059 103.55 210.399 103.69C210.739 103.829 211.048 104.034 211.308 104.293C211.569 104.552 211.775 104.859 211.916 105.197C212.057 105.535 212.129 105.898 212.129 106.264V107.026H237.521V68.5823H168.907V107.026H195.49V106.264Z" fill="#3F3D56"/>
<path d="M259.6 68.5823H241.086V107.026H256.806L259.6 68.5823Z" fill="#3F3D56"/>
<path d="M237.521 23V65.031H215.212C203.638 65.0293 192.484 60.7138 183.947 52.9344C175.41 45.1551 170.109 34.4758 169.087 23H237.521Z" fill="#3F3D56"/>
<path d="M262.355 30.7113L259.856 65.031H241.084V23H255.156C256.148 23.0005 257.13 23.2046 258.039 23.5994C258.949 23.9943 259.767 24.5715 260.443 25.2951C261.118 26.0187 261.637 26.873 261.966 27.8049C262.295 28.7368 262.427 29.7261 262.355 30.7113Z" fill="#3F3D56"/>
<path d="M255.94 118.856L252.947 174.895L252.924 175.3L251.96 193.368C251.81 197.481 250.063 201.374 247.087 204.231C244.111 207.087 240.138 208.683 236.004 208.683H171.016C168.352 208.686 165.73 208.023 163.391 206.754C163.351 206.731 163.31 206.709 163.274 206.691C162.889 206.479 162.517 206.249 162.155 206.01C162.065 205.947 161.974 205.889 161.884 205.825C159.853 204.418 158.18 202.56 156.996 200.398C155.811 198.236 155.149 195.829 155.06 193.368L151.08 118.856H255.94Z" fill="#3F3D56"/>
<path d="M145.157 37.3773L147.169 65.0308H165.339V23H158.528C158.468 23 158.407 23.0003 158.347 23.0008C156.515 23.0285 154.708 23.4289 153.038 24.1775C151.367 24.926 149.868 26.0068 148.633 27.3534C147.397 28.7 146.451 30.2839 145.854 32.0077C145.256 33.7316 145.019 35.5589 145.157 37.3773Z" fill="#3F3D56"/>
<path d="M150.221 107.026H165.34V68.5823H147.428L150.221 107.026Z" fill="#3F3D56"/>
<path d="M237.412 27.0564H237.521V64.0127H237.412C232.488 64.0127 227.767 62.0659 224.285 58.6006C220.804 55.1353 218.848 50.4353 218.848 45.5346C218.848 40.6338 220.804 35.9338 224.285 32.4685C227.767 29.0032 232.488 27.0564 237.412 27.0564Z" fill="black"/>
<path d="M255.976 45.5341C255.974 49.8005 254.491 53.9353 251.777 57.2373C249.063 60.5394 245.285 62.8056 241.084 63.6517V27.4165C245.285 28.2626 249.063 30.5288 251.777 33.8309C254.491 37.1329 255.974 41.2677 255.976 45.5341Z" fill="black"/>
<path opacity="0.3" d="M164.017 121.972C166.586 122.092 171.899 123.362 177.656 125.004C183.41 126.647 189.651 128.652 195.813 130.635C206.599 134.103 217.385 137.57 228.17 141.036C229.652 141.512 231.139 141.992 232.63 142.477C233.201 143.22 233.769 143.97 234.326 144.728C233.016 144.267 231.7 143.821 230.388 143.396C224.783 141.583 219.92 140.388 214.48 138.738C206.109 136.202 197.278 132.871 188.713 129.77C180.149 126.666 170.323 123.324 164.017 121.972Z" fill="#F0F0F0"/>
<path d="M201.681 45.7253C202.397 45.7253 202.978 45.1476 202.978 44.4348C202.978 43.7221 202.397 43.1443 201.681 43.1443C200.965 43.1443 200.385 43.7221 200.385 44.4348C200.385 45.1476 200.965 45.7253 201.681 45.7253Z" fill="white"/>
<path d="M247.864 80.8789C248.58 80.8789 249.161 80.3011 249.161 79.5884C249.161 78.8756 248.58 78.2979 247.864 78.2979C247.148 78.2979 246.568 78.8756 246.568 79.5884C246.568 80.3011 247.148 80.8789 247.864 80.8789Z" fill="white"/>
<path d="M208.02 199.883C208.499 199.883 208.887 199.497 208.887 199.021C208.887 198.544 208.499 198.158 208.02 198.158C207.541 198.158 207.153 198.544 207.153 199.021C207.153 199.497 207.541 199.883 208.02 199.883Z" fill="white"/>
<path d="M237.451 134.984C237.93 134.984 238.318 134.598 238.318 134.121C238.318 133.645 237.93 133.258 237.451 133.258C236.972 133.258 236.584 133.645 236.584 134.121C236.584 134.598 236.972 134.984 237.451 134.984Z" fill="white"/>
<path d="M187.644 85.8595C188.123 85.8595 188.511 85.4732 188.511 84.9966C188.511 84.5201 188.123 84.1338 187.644 84.1338C187.166 84.1338 186.778 84.5201 186.778 84.9966C186.778 85.4732 187.166 85.8595 187.644 85.8595Z" fill="white"/>
<path d="M174.967 156.617C175.445 156.617 175.834 156.231 175.834 155.754C175.834 155.278 175.445 154.892 174.967 154.892C174.488 154.892 174.1 155.278 174.1 155.754C174.1 156.231 174.488 156.617 174.967 156.617Z" fill="white"/>
<path d="M215.783 166.123C215.48 165.925 215.166 165.726 214.844 165.536C213.342 164.65 211.672 163.96 210.041 164.433C208.331 164.928 207.239 166.548 206.317 168.065C201.331 176.276 197.006 184.868 193.383 193.76C199.127 188.992 200.609 180.693 205.729 175.265C206.595 174.348 207.696 173.469 208.959 173.525C209.977 173.57 210.851 174.208 211.748 174.686C214.113 175.946 216.881 176.155 219.556 176.338C223.259 176.593 226.963 176.847 230.667 177.101L230.672 177.043C228.048 174.886 225.362 172.812 222.613 170.82C220.374 169.197 218.098 167.631 215.783 166.123Z" fill="#F2F2F2"/>
<path d="M241.464 186.379C237.619 181.288 233.23 176.63 228.374 172.484C227.985 172.15 227.591 171.821 227.192 171.492C226.341 170.794 225.479 170.11 224.607 169.442C222.76 168.036 220.864 166.705 218.92 165.449C217.752 164.696 216.567 163.97 215.366 163.272C215.062 163.096 214.759 162.92 214.451 162.749C213.686 162.321 212.921 161.893 212.137 161.496C211.389 161.059 210.549 160.8 209.683 160.739C206.709 160.694 205.165 164.047 204.105 166.305C203.774 167.017 203.438 167.726 203.095 168.432C201.809 171.114 200.472 173.77 199.084 176.4C198.228 178.027 197.354 179.644 196.462 181.25C195.194 183.526 193.892 185.779 192.555 188.01C190.952 190.687 189.299 193.333 187.597 195.947C184.667 200.44 181.756 204.559 178.632 208.683H179.102C182.584 204.018 185.891 199.238 189.023 194.342C191.74 190.097 194.323 185.772 196.774 181.367C197.938 179.271 199.072 177.159 200.175 175.03C201.026 173.376 201.861 171.716 202.679 170.05C202.914 169.572 203.141 169.095 203.367 168.612C203.901 167.481 204.422 166.345 204.983 165.232C205.622 163.966 206.396 162.632 207.573 161.78C208.107 161.376 208.744 161.131 209.412 161.072C210.354 161.08 211.276 161.343 212.079 161.834C213.143 162.388 214.196 162.965 215.239 163.565C218.412 165.404 221.464 167.444 224.376 169.672C225.943 170.87 227.466 172.117 228.945 173.412C234.092 177.91 238.692 182.992 242.65 188.555C242.773 188.727 243.058 188.564 242.936 188.389C242.456 187.713 241.965 187.043 241.464 186.379Z" fill="#F2F2F2"/>
<path d="M250.471 172.975C248.777 171.722 247.023 170.556 245.209 169.478C244.304 168.937 243.389 168.423 242.456 167.927C242.176 167.779 241.89 167.634 241.605 167.495C240.953 167.165 240.275 166.891 239.577 166.674C238.59 166.356 237.546 166.253 236.516 166.372C235.521 166.516 234.562 166.847 233.691 167.346C231.839 168.378 230.403 169.969 229.009 171.524C228.98 171.555 228.964 171.597 228.965 171.64C228.966 171.682 228.983 171.723 229.013 171.754C229.027 171.771 229.044 171.784 229.064 171.794C229.083 171.803 229.105 171.808 229.127 171.808C229.148 171.808 229.17 171.803 229.189 171.794C229.209 171.784 229.226 171.771 229.24 171.754C229.416 171.564 229.584 171.371 229.76 171.181C231.132 169.667 232.604 168.175 234.492 167.31C235.39 166.882 236.372 166.656 237.367 166.647C238.394 166.674 239.406 166.892 240.351 167.292C240.799 167.472 241.238 167.675 241.673 167.891C242.167 168.139 242.656 168.405 243.136 168.671C244.046 169.171 244.942 169.692 245.825 170.235C247.586 171.316 249.29 172.482 250.937 173.732C251.612 174.241 252.273 174.76 252.925 175.301L252.947 174.895C252.137 174.232 251.311 173.592 250.471 172.975Z" fill="#F2F2F2"/>
<path d="M170.486 195.478C172.415 193.071 174.36 190.677 176.322 188.294C176.793 187.717 177.269 187.136 177.749 186.563C178.134 186.086 178.554 185.639 179.007 185.225C179.45 184.81 179.972 184.488 180.542 184.278C181.181 184.08 181.863 184.071 182.507 184.251C183.244 184.464 183.969 184.714 184.681 184.999L186.886 185.802L191.318 187.415C191.346 187.428 191.378 187.431 191.407 187.424C191.437 187.416 191.463 187.399 191.481 187.375C191.499 187.353 191.51 187.327 191.516 187.3C191.521 187.273 191.52 187.245 191.513 187.218C191.505 187.191 191.492 187.166 191.473 187.146C191.454 187.125 191.431 187.11 191.404 187.1L190.291 186.69L185.826 185.067C185.084 184.797 184.346 184.522 183.603 184.256C182.922 183.971 182.195 183.812 181.457 183.787C180.198 183.81 179.148 184.576 178.306 185.441C177.848 185.914 177.432 186.424 177.015 186.933C176.522 187.532 176.024 188.136 175.53 188.74C173.547 191.156 171.577 193.585 169.621 196.028C167.665 198.47 165.721 200.921 163.789 203.378C163.151 204.194 162.516 205.01 161.883 205.826C161.974 205.889 162.064 205.947 162.155 206.01C163.006 204.911 163.863 203.814 164.727 202.72C166.633 200.296 168.553 197.882 170.486 195.478Z" fill="#F2F2F2"/>
<path d="M235.074 169.211C233.429 170.053 232.18 171.511 230.584 172.442C234.428 171.31 238.335 170.402 242.285 169.724C241.237 169.009 240.017 168.585 238.75 168.495C237.482 168.405 236.214 168.652 235.074 169.211Z" fill="#F2F2F2"/>
<path d="M242.285 169.724C242.442 169.833 242.595 169.948 242.741 170.071L242.308 169.72L242.285 169.724Z" fill="#F2F2F2"/>
<path d="M180.734 186.133C180.102 186.412 179.561 186.861 179.173 187.431C173.757 193.993 168.341 200.554 162.925 207.116C170.435 201.452 176.703 194.32 181.344 186.157L180.734 186.133Z" fill="#F2F2F2"/>
<path d="M125.417 201.746C125.419 201.757 125.421 201.765 125.422 201.777C125.436 201.858 125.45 201.931 125.466 202.012V202.016C126.139 205.715 126.878 209.352 127.683 212.927L279.826 212.603C280.643 208.954 281.393 205.239 282.075 201.456C282.077 201.447 282.079 201.438 282.079 201.429L125.417 201.746Z" fill="#E6E6E6"/>
<path d="M133.177 161.128L143.764 160.811C146.623 167.071 143.123 180.611 143.123 180.611L139.187 208.466C139.811 208.998 140.282 209.684 140.554 210.456C140.827 211.227 140.89 212.056 140.738 212.86C140.586 213.663 140.224 214.413 139.689 215.033C139.153 215.653 138.463 216.121 137.688 216.392C136.913 216.662 136.079 216.724 135.272 216.572C134.465 216.419 133.713 216.058 133.09 215.524C132.468 214.991 131.998 214.303 131.728 213.531C131.457 212.759 131.396 211.93 131.55 211.127L128.913 180.574L133.177 161.128Z" fill="#FFB8B8"/>
<path d="M132.719 163.54L134.939 148.32L140.829 142.685C141.989 141.583 143.436 140.826 145.006 140.5C146.576 140.173 148.207 140.29 149.713 140.837C151.75 141.593 153.423 143.091 154.394 145.027C155.364 146.964 155.56 149.195 154.941 151.27C153.058 157.56 149.867 165.295 145.359 166.424L145.313 166.435L132.719 163.54Z" fill="black"/>
<path d="M177.484 335.75H183.26L186.007 313.574L177.483 313.575L177.484 335.75Z" fill="#FFB6B6"/>
<path d="M176.013 333.872V341.322H194.636V341.087C194.636 339.174 193.872 337.338 192.512 335.985C191.153 334.632 189.309 333.872 187.387 333.872L183.982 331.303L183.805 331.375L177.638 333.872H176.013Z" fill="#2F2E41"/>
<path d="M138.092 335.75H143.868L146.616 313.574L138.091 313.575L138.092 335.75Z" fill="#FFB6B6"/>
<path d="M136.621 333.872V341.322H155.244V341.087C155.243 339.174 154.48 337.338 153.12 335.985C151.761 334.632 149.917 333.872 147.995 333.872L144.59 331.303L144.413 331.375L138.246 333.872H136.621Z" fill="#2F2E41"/>
<path d="M181.351 199.568L141.504 197.246C141.504 197.246 133.272 212.739 135.988 224.006C138.705 235.273 139.649 257.771 138.045 259.592C136.441 261.413 135.988 258.258 137.8 261.864C139.631 265.51 139.158 260.963 139.158 264.117C139.081 266.192 138.461 268.211 137.361 269.975V324.475L151.354 323.579C151.354 323.579 155.134 321.741 151.9 318.618C148.666 315.496 146.596 317.951 148.537 314.019C150.477 310.087 151.383 314.594 150.477 310.087C149.572 305.58 160.962 237.921 160.962 237.921C160.962 237.921 165.331 251.905 167.23 264.568C170.501 286.371 172.243 312.233 173.546 313.584C175.607 315.721 176.965 313.017 175.607 315.721C174.248 318.425 171.207 317.847 173.181 319.488C175.154 321.129 175.154 318.876 175.154 321.129C175.17 322.565 175.374 323.993 175.763 325.376L187.317 324.604L186.7 265.92L181.351 199.568Z" fill="#2F2E41"/>
<path d="M170.016 129.991L157.239 128.478L153.967 135.313C153.967 135.313 136.042 144.944 136.695 147.294C137.347 149.643 142.328 159.558 140.969 162.262C139.611 164.966 136.074 165.866 138.748 168.345C141.422 170.825 143.233 171.727 142.328 173.98C141.422 176.233 141.875 184.346 141.875 184.346C141.875 184.346 136.617 193.953 138.34 195.91C140.064 197.866 141.422 195.947 140.064 198.709C138.705 201.472 128.256 204.636 138.235 204.856C148.214 205.077 150.478 198.768 158.175 203.725C165.872 208.683 181.103 204.045 181.103 204.045C181.103 204.045 181.987 198.768 181.627 195.613C181.267 192.458 180.424 194.025 181.072 188.735C181.72 183.444 182.78 170.906 182.78 170.906C182.78 170.906 188.661 144.946 187.153 142.432C185.645 139.918 172.375 136.591 172.375 136.591L170.016 129.991Z" fill="black"/>
<path d="M178.783 168.086L187.933 162.777C193.448 166.918 196.868 180.478 196.868 180.478L206.771 206.823C207.574 206.994 208.318 207.373 208.927 207.922C209.537 208.47 209.99 209.168 210.242 209.947C210.494 210.725 210.536 211.555 210.362 212.355C210.189 213.154 209.808 213.894 209.256 214.5C208.705 215.105 208.002 215.556 207.22 215.806C206.438 216.056 205.604 216.096 204.801 215.923C203.998 215.749 203.255 215.369 202.647 214.819C202.039 214.269 201.587 213.57 201.337 212.791L184.364 187.199L178.783 168.086Z" fill="#FFB8B8"/>
<path d="M179.537 170.424L174.187 155.996L176.659 148.245C177.15 146.725 178.058 145.372 179.281 144.339C180.504 143.306 181.992 142.634 183.579 142.399C188.045 141.768 188.439 143.327 189.376 147.72C190.739 154.141 191.299 157.49 192.026 166.949L191.992 166.981L179.537 170.424Z" fill="black"/>
<path d="M164.9 125.995C171.559 125.995 176.958 120.622 176.958 113.993C176.958 107.364 171.559 101.99 164.9 101.99C158.24 101.99 152.841 107.364 152.841 113.993C152.841 120.622 158.24 125.995 164.9 125.995Z" fill="#FFB8B8"/>
<path d="M162.267 125.657C165.653 124.938 165.801 123.987 169.187 123.268C170.265 123.04 171.518 122.663 171.872 121.624C172.124 120.884 171.8 120.067 171.346 119.429C170.837 118.834 170.364 118.21 169.927 117.562C169.64 117.043 169.485 116.462 169.475 115.87C169.464 115.279 169.599 114.693 169.866 114.165C170.134 113.636 170.527 113.18 171.012 112.837C171.496 112.494 172.057 112.273 172.647 112.194C173.691 112.053 174.752 112.365 175.802 112.269C177.241 112.138 179.537 106.92 178.658 105.778C177.802 104.666 176.357 103.97 175.91 102.642C175.618 101.773 175.829 100.821 175.717 99.9115C175.552 98.5633 172.694 102.179 173.104 100.884C174.108 97.7054 159.068 96.6699 157.354 100.732C156.714 102.251 155.119 102.44 153.859 103.507C153.034 104.207 151.039 106.47 150.717 107.716C150.442 108.977 150.44 110.283 150.711 111.545C151.753 117.456 153.635 122.727 159.05 125.365" fill="#2F2E41"/>
<path d="M107.682 339.44C104.412 339.727 101.119 339.283 98.0439 338.141C94.9685 336.999 92.1882 335.188 89.906 332.84C86.922 329.708 84.8742 325.677 82.8938 321.779C82.3173 320.645 81.7214 319.472 81.1152 318.348C80.4393 317.122 80.1476 315.723 80.2777 314.331C80.4077 312.938 80.9536 311.617 81.8449 310.536C82.6991 309.456 83.8587 308.655 85.1744 308.237C86.49 307.818 87.9014 307.802 89.2266 308.189L89.5156 308.272L92.1165 318.374C92.5045 316.867 93.3373 313.472 93.8632 310.146L93.9074 309.867L94.1664 309.982C96.8821 311.178 99.4357 312.71 101.767 314.541C105.897 317.838 109.255 321.991 111.61 326.711C113.964 331.431 115.258 336.604 115.401 341.872L115.408 342.186L107.682 339.44Z" fill="#F2F2F2"/>
<path d="M281.662 342.862L80.7407 343C80.5977 343 80.4606 342.944 80.3594 342.843C80.2583 342.742 80.2015 342.606 80.2015 342.463C80.2015 342.321 80.2583 342.185 80.3594 342.084C80.4606 341.983 80.5977 341.927 80.7407 341.927L281.662 341.788C281.805 341.788 281.943 341.845 282.044 341.945C282.145 342.046 282.202 342.183 282.202 342.325C282.202 342.467 282.145 342.604 282.044 342.704C281.943 342.805 281.805 342.862 281.662 342.862Z" fill="#CACACA"/>
<path d="M90.024 455.536L87 444.32H88.824L91.048 453.6L93.608 444.32H95.48L97.96 453.6L100.184 444.32H102.008L98.936 455.52H96.952L94.504 446.736L91.976 455.52L90.024 455.536Z" fill="#979797"/>
<path d="M106.384 455.712C105.605 455.712 104.912 455.541 104.304 455.2C103.707 454.848 103.237 454.363 102.896 453.744C102.555 453.125 102.384 452.405 102.384 451.584C102.384 450.752 102.549 450.021 102.88 449.392C103.221 448.763 103.691 448.272 104.288 447.92C104.896 447.568 105.6 447.392 106.4 447.392C107.179 447.392 107.856 447.568 108.432 447.92C109.008 448.261 109.456 448.72 109.776 449.296C110.096 449.872 110.256 450.507 110.256 451.2C110.256 451.307 110.251 451.424 110.24 451.552C110.24 451.669 110.235 451.803 110.224 451.952H104.048C104.101 452.72 104.352 453.307 104.8 453.712C105.259 454.107 105.787 454.304 106.384 454.304C106.864 454.304 107.264 454.197 107.584 453.984C107.915 453.76 108.16 453.461 108.32 453.088H110.016C109.803 453.835 109.376 454.459 108.736 454.96C108.107 455.461 107.323 455.712 106.384 455.712ZM106.384 448.784C105.819 448.784 105.317 448.955 104.88 449.296C104.443 449.627 104.176 450.128 104.08 450.8H108.56C108.528 450.181 108.309 449.691 107.904 449.328C107.499 448.965 106.992 448.784 106.384 448.784Z" fill="#979797"/>
<path d="M118.271 455.52L115.295 447.584H117.071L119.279 453.904L121.487 447.584H123.247L120.287 455.52H118.271Z" fill="#979797"/>
<path d="M127.946 455.712C127.168 455.712 126.475 455.541 125.867 455.2C125.269 454.848 124.8 454.363 124.459 453.744C124.117 453.125 123.947 452.405 123.947 451.584C123.947 450.752 124.112 450.021 124.442 449.392C124.784 448.763 125.253 448.272 125.851 447.92C126.459 447.568 127.163 447.392 127.963 447.392C128.741 447.392 129.418 447.568 129.994 447.92C130.57 448.261 131.019 448.72 131.339 449.296C131.659 449.872 131.818 450.507 131.818 451.2C131.818 451.307 131.813 451.424 131.802 451.552C131.802 451.669 131.797 451.803 131.786 451.952H125.611C125.664 452.72 125.914 453.307 126.362 453.712C126.821 454.107 127.349 454.304 127.946 454.304C128.426 454.304 128.826 454.197 129.146 453.984C129.477 453.76 129.722 453.461 129.882 453.088H131.578C131.365 453.835 130.939 454.459 130.299 454.96C129.669 455.461 128.885 455.712 127.946 455.712ZM127.946 448.784C127.381 448.784 126.88 448.955 126.442 449.296C126.005 449.627 125.739 450.128 125.643 450.8H130.122C130.09 450.181 129.872 449.691 129.466 449.328C129.061 448.965 128.554 448.784 127.946 448.784Z" fill="#979797"/>
<path d="M136.703 455.52C135.924 455.52 135.306 455.333 134.847 454.96C134.388 454.576 134.159 453.899 134.159 452.928V449.008H132.799V447.584H134.159L134.367 445.568H135.855V447.584H138.095V449.008H135.855V452.928C135.855 453.365 135.946 453.669 136.127 453.84C136.319 454 136.644 454.08 137.103 454.08H138.015V455.52H136.703Z" fill="#979797"/>
<path d="M147.587 455.712C146.808 455.712 146.115 455.541 145.507 455.2C144.91 454.848 144.44 454.363 144.099 453.744C143.758 453.125 143.587 452.405 143.587 451.584C143.587 450.752 143.752 450.021 144.083 449.392C144.424 448.763 144.894 448.272 145.491 447.92C146.099 447.568 146.803 447.392 147.603 447.392C148.382 447.392 149.059 447.568 149.635 447.92C150.211 448.261 150.659 448.72 150.979 449.296C151.299 449.872 151.459 450.507 151.459 451.2C151.459 451.307 151.454 451.424 151.443 451.552C151.443 451.669 151.438 451.803 151.427 451.952H145.251C145.304 452.72 145.555 453.307 146.003 453.712C146.462 454.107 146.99 454.304 147.587 454.304C148.067 454.304 148.467 454.197 148.787 453.984C149.118 453.76 149.363 453.461 149.523 453.088H151.219C151.006 453.835 150.579 454.459 149.939 454.96C149.31 455.461 148.526 455.712 147.587 455.712ZM147.587 448.784C147.022 448.784 146.52 448.955 146.083 449.296C145.646 449.627 145.379 450.128 145.283 450.8H149.763C149.731 450.181 149.512 449.691 149.107 449.328C148.702 448.965 148.195 448.784 147.587 448.784Z" fill="#979797"/>
<path d="M155.907 455.712C155.235 455.712 154.68 455.6 154.243 455.376C153.806 455.152 153.48 454.859 153.267 454.496C153.054 454.123 152.947 453.717 152.947 453.28C152.947 452.512 153.246 451.904 153.843 451.456C154.44 451.008 155.294 450.784 156.403 450.784H158.483V450.64C158.483 450.021 158.312 449.557 157.971 449.248C157.64 448.939 157.208 448.784 156.675 448.784C156.206 448.784 155.795 448.901 155.443 449.136C155.102 449.36 154.894 449.696 154.819 450.144H153.123C153.176 449.568 153.368 449.077 153.699 448.672C154.04 448.256 154.467 447.941 154.979 447.728C155.502 447.504 156.072 447.392 156.691 447.392C157.8 447.392 158.659 447.685 159.267 448.272C159.875 448.848 160.179 449.637 160.179 450.64V455.52H158.707L158.563 454.16C158.339 454.597 158.014 454.965 157.587 455.264C157.16 455.563 156.6 455.712 155.907 455.712ZM156.243 454.336C156.702 454.336 157.086 454.229 157.395 454.016C157.715 453.792 157.96 453.499 158.131 453.136C158.312 452.773 158.424 452.373 158.467 451.936H156.579C155.907 451.936 155.427 452.053 155.139 452.288C154.862 452.523 154.723 452.816 154.723 453.168C154.723 453.531 154.856 453.819 155.123 454.032C155.4 454.235 155.774 454.336 156.243 454.336Z" fill="#979797"/>
<path d="M165.916 455.712C165.138 455.712 164.439 455.536 163.82 455.184C163.212 454.832 162.732 454.347 162.38 453.728C162.039 453.099 161.868 452.373 161.868 451.552C161.868 450.731 162.039 450.011 162.38 449.392C162.732 448.763 163.212 448.272 163.82 447.92C164.439 447.568 165.138 447.392 165.916 447.392C166.898 447.392 167.719 447.648 168.38 448.16C169.052 448.672 169.484 449.365 169.676 450.24H167.9C167.794 449.803 167.559 449.461 167.196 449.216C166.834 448.971 166.407 448.848 165.916 448.848C165.5 448.848 165.116 448.955 164.764 449.168C164.412 449.371 164.13 449.675 163.916 450.08C163.703 450.475 163.596 450.965 163.596 451.552C163.596 452.139 163.703 452.635 163.916 453.04C164.13 453.435 164.412 453.739 164.764 453.952C165.116 454.165 165.5 454.272 165.916 454.272C166.407 454.272 166.834 454.149 167.196 453.904C167.559 453.659 167.794 453.312 167.9 452.864H169.676C169.495 453.717 169.068 454.405 168.396 454.928C167.724 455.451 166.898 455.712 165.916 455.712Z" fill="#979797"/>
<path d="M171.516 455.52V444H173.212V448.864C173.478 448.405 173.846 448.048 174.316 447.792C174.796 447.525 175.324 447.392 175.9 447.392C176.849 447.392 177.596 447.691 178.14 448.288C178.684 448.885 178.956 449.776 178.956 450.96V455.52H177.276V451.136C177.276 449.6 176.662 448.832 175.436 448.832C174.796 448.832 174.262 449.056 173.836 449.504C173.42 449.952 173.212 450.592 173.212 451.424V455.52H171.516Z" fill="#979797"/>
<path d="M185.944 446.08C185.624 446.08 185.358 445.984 185.145 445.792C184.942 445.589 184.84 445.339 184.84 445.04C184.84 444.741 184.942 444.496 185.145 444.304C185.358 444.101 185.624 444 185.944 444C186.264 444 186.526 444.101 186.729 444.304C186.942 444.496 187.049 444.741 187.049 445.04C187.049 445.339 186.942 445.589 186.729 445.792C186.526 445.984 186.264 446.08 185.944 446.08ZM185.096 455.52V447.584H186.792V455.52H185.096Z" fill="#979797"/>
<path d="M189.031 455.52V447.584H190.535L190.663 448.976C190.909 448.485 191.266 448.101 191.735 447.824C192.215 447.536 192.765 447.392 193.383 447.392C194.343 447.392 195.095 447.691 195.639 448.288C196.194 448.885 196.471 449.776 196.471 450.96V455.52H194.791V451.136C194.791 449.6 194.162 448.832 192.903 448.832C192.274 448.832 191.751 449.056 191.335 449.504C190.93 449.952 190.727 450.592 190.727 451.424V455.52H189.031Z" fill="#979797"/>
<path d="M202.085 455.712C201.317 455.712 200.64 455.531 200.053 455.168C199.466 454.805 199.008 454.309 198.677 453.68C198.346 453.051 198.181 452.336 198.181 451.536C198.181 450.736 198.346 450.027 198.677 449.408C199.008 448.779 199.466 448.288 200.053 447.936C200.65 447.573 201.333 447.392 202.101 447.392C202.73 447.392 203.28 447.515 203.749 447.76C204.229 448.005 204.602 448.352 204.869 448.8V444H206.565V455.52H205.045L204.869 454.288C204.613 454.661 204.261 454.992 203.813 455.28C203.365 455.568 202.789 455.712 202.085 455.712ZM202.389 454.24C203.114 454.24 203.706 453.989 204.165 453.488C204.634 452.987 204.869 452.341 204.869 451.552C204.869 450.752 204.634 450.107 204.165 449.616C203.706 449.115 203.114 448.864 202.389 448.864C201.664 448.864 201.066 449.115 200.597 449.616C200.128 450.107 199.893 450.752 199.893 451.552C199.893 452.075 200 452.539 200.213 452.944C200.426 453.349 200.72 453.669 201.093 453.904C201.477 454.128 201.909 454.24 202.389 454.24Z" fill="#979797"/>
<path d="M209.663 446.08C209.343 446.08 209.077 445.984 208.863 445.792C208.661 445.589 208.559 445.339 208.559 445.04C208.559 444.741 208.661 444.496 208.863 444.304C209.077 444.101 209.343 444 209.663 444C209.983 444 210.245 444.101 210.447 444.304C210.661 444.496 210.767 444.741 210.767 445.04C210.767 445.339 210.661 445.589 210.447 445.792C210.245 445.984 209.983 446.08 209.663 446.08ZM208.815 455.52V447.584H210.511V455.52H208.815Z" fill="#979797"/>
<path d="M214.974 455.52L211.998 447.584H213.774L215.982 453.904L218.19 447.584H219.95L216.99 455.52H214.974Z" fill="#979797"/>
<path d="M222.304 446.08C221.984 446.08 221.717 445.984 221.504 445.792C221.301 445.589 221.2 445.339 221.2 445.04C221.2 444.741 221.301 444.496 221.504 444.304C221.717 444.101 221.984 444 222.304 444C222.624 444 222.885 444.101 223.088 444.304C223.301 444.496 223.408 444.741 223.408 445.04C223.408 445.339 223.301 445.589 223.088 445.792C222.885 445.984 222.624 446.08 222.304 446.08ZM221.456 455.52V447.584H223.152V455.52H221.456Z" fill="#979797"/>
<path d="M229.007 455.712C228.239 455.712 227.561 455.531 226.975 455.168C226.388 454.805 225.929 454.309 225.599 453.68C225.268 453.051 225.103 452.336 225.103 451.536C225.103 450.736 225.268 450.027 225.599 449.408C225.929 448.779 226.388 448.288 226.975 447.936C227.572 447.573 228.255 447.392 229.023 447.392C229.652 447.392 230.201 447.515 230.671 447.76C231.151 448.005 231.524 448.352 231.791 448.8V444H233.487V455.52H231.967L231.791 454.288C231.535 454.661 231.183 454.992 230.735 455.28C230.287 455.568 229.711 455.712 229.007 455.712ZM229.311 454.24C230.036 454.24 230.628 453.989 231.087 453.488C231.556 452.987 231.791 452.341 231.791 451.552C231.791 450.752 231.556 450.107 231.087 449.616C230.628 449.115 230.036 448.864 229.311 448.864C228.585 448.864 227.988 449.115 227.519 449.616C227.049 450.107 226.815 450.752 226.815 451.552C226.815 452.075 226.921 452.539 227.135 452.944C227.348 453.349 227.641 453.669 228.015 453.904C228.399 454.128 228.831 454.24 229.311 454.24Z" fill="#979797"/>
<path d="M238.553 455.712C237.593 455.712 236.836 455.413 236.281 454.816C235.737 454.219 235.465 453.328 235.465 452.144V447.584H237.161V451.968C237.161 453.504 237.79 454.272 239.049 454.272C239.678 454.272 240.196 454.048 240.601 453.6C241.006 453.152 241.209 452.512 241.209 451.68V447.584H242.905V455.52H241.401L241.273 454.128C241.028 454.619 240.665 455.008 240.185 455.296C239.716 455.573 239.172 455.712 238.553 455.712Z" fill="#979797"/>
<path d="M247.751 455.712C247.079 455.712 246.524 455.6 246.087 455.376C245.649 455.152 245.324 454.859 245.111 454.496C244.897 454.123 244.791 453.717 244.791 453.28C244.791 452.512 245.089 451.904 245.687 451.456C246.284 451.008 247.137 450.784 248.247 450.784H250.327V450.64C250.327 450.021 250.156 449.557 249.815 449.248C249.484 448.939 249.052 448.784 248.519 448.784C248.049 448.784 247.639 448.901 247.287 449.136C246.945 449.36 246.737 449.696 246.663 450.144H244.967C245.02 449.568 245.212 449.077 245.543 448.672C245.884 448.256 246.311 447.941 246.823 447.728C247.345 447.504 247.916 447.392 248.535 447.392C249.644 447.392 250.503 447.685 251.111 448.272C251.719 448.848 252.023 449.637 252.023 450.64V455.52H250.551L250.407 454.16C250.183 454.597 249.857 454.965 249.431 455.264C249.004 455.563 248.444 455.712 247.751 455.712ZM248.087 454.336C248.545 454.336 248.929 454.229 249.239 454.016C249.559 453.792 249.804 453.499 249.975 453.136C250.156 452.773 250.268 452.373 250.311 451.936H248.423C247.751 451.936 247.271 452.053 246.983 452.288C246.705 452.523 246.567 452.816 246.567 453.168C246.567 453.531 246.7 453.819 246.967 454.032C247.244 454.235 247.617 454.336 248.087 454.336Z" fill="#979797"/>
<path d="M254 455.52V444H255.696V455.52H254Z" fill="#979797"/>
<path d="M265.203 455.52C264.424 455.52 263.806 455.333 263.347 454.96C262.888 454.576 262.659 453.899 262.659 452.928V449.008H261.299V447.584H262.659L262.867 445.568H264.355V447.584H266.595V449.008H264.355V452.928C264.355 453.365 264.446 453.669 264.627 453.84C264.819 454 265.144 454.08 265.603 454.08H266.515V455.52H265.203Z" fill="#979797"/>
<path d="M271.853 455.712C271.095 455.712 270.413 455.541 269.805 455.2C269.207 454.848 268.733 454.363 268.381 453.744C268.029 453.115 267.853 452.384 267.853 451.552C267.853 450.72 268.029 449.995 268.381 449.376C268.743 448.747 269.229 448.261 269.837 447.92C270.445 447.568 271.122 447.392 271.869 447.392C272.626 447.392 273.303 447.568 273.901 447.92C274.509 448.261 274.989 448.747 275.341 449.376C275.703 449.995 275.885 450.72 275.885 451.552C275.885 452.384 275.703 453.115 275.341 453.744C274.989 454.363 274.509 454.848 273.901 455.2C273.293 455.541 272.61 455.712 271.853 455.712ZM271.853 454.256C272.258 454.256 272.631 454.155 272.973 453.952C273.325 453.749 273.607 453.451 273.821 453.056C274.034 452.651 274.141 452.149 274.141 451.552C274.141 450.955 274.034 450.459 273.821 450.064C273.618 449.659 273.341 449.355 272.989 449.152C272.647 448.949 272.274 448.848 271.869 448.848C271.463 448.848 271.085 448.949 270.733 449.152C270.391 449.355 270.114 449.659 269.901 450.064C269.687 450.459 269.581 450.955 269.581 451.552C269.581 452.149 269.687 452.651 269.901 453.056C270.114 453.451 270.391 453.749 270.733 453.952C271.074 454.155 271.447 454.256 271.853 454.256Z" fill="#979797"/>
<path d="M95.7199 476.712C94.9413 476.712 94.2479 476.541 93.6399 476.2C93.0426 475.848 92.5733 475.363 92.2319 474.744C91.8906 474.125 91.7199 473.405 91.7199 472.584C91.7199 471.752 91.8853 471.021 92.2159 470.392C92.5573 469.763 93.0266 469.272 93.6239 468.92C94.2319 468.568 94.9359 468.392 95.7359 468.392C96.5146 468.392 97.1919 468.568 97.7679 468.92C98.3439 469.261 98.7919 469.72 99.1119 470.296C99.4319 470.872 99.5919 471.507 99.5919 472.2C99.5919 472.307 99.5866 472.424 99.5759 472.552C99.5759 472.669 99.5706 472.803 99.5599 472.952H93.3839C93.4373 473.72 93.6879 474.307 94.1359 474.712C94.5946 475.107 95.1226 475.304 95.7199 475.304C96.1999 475.304 96.5999 475.197 96.9199 474.984C97.2506 474.76 97.4959 474.461 97.6559 474.088H99.3519C99.1386 474.835 98.7119 475.459 98.0719 475.96C97.4426 476.461 96.6586 476.712 95.7199 476.712ZM95.7199 469.784C95.1546 469.784 94.6533 469.955 94.2159 470.296C93.7786 470.627 93.5119 471.128 93.4159 471.8H97.8959C97.8639 471.181 97.6453 470.691 97.2399 470.328C96.8346 469.965 96.3279 469.784 95.7199 469.784Z" fill="#979797"/>
<path d="M101.352 476.52V468.584H102.856L102.984 469.976C103.229 469.485 103.586 469.101 104.056 468.824C104.536 468.536 105.085 468.392 105.704 468.392C106.664 468.392 107.416 468.691 107.96 469.288C108.514 469.885 108.792 470.776 108.792 471.96V476.52H107.112V472.136C107.112 470.6 106.482 469.832 105.224 469.832C104.594 469.832 104.072 470.056 103.656 470.504C103.25 470.952 103.048 471.592 103.048 472.424V476.52H101.352Z" fill="#979797"/>
<path d="M113.957 476.712C112.955 476.712 112.128 476.467 111.477 475.976C110.827 475.485 110.453 474.835 110.357 474.024H112.069C112.155 474.387 112.357 474.701 112.677 474.968C112.997 475.224 113.419 475.352 113.941 475.352C114.453 475.352 114.827 475.245 115.061 475.032C115.296 474.819 115.413 474.573 115.413 474.296C115.413 473.891 115.248 473.619 114.917 473.48C114.597 473.331 114.149 473.197 113.573 473.08C113.125 472.984 112.677 472.856 112.229 472.696C111.792 472.536 111.424 472.312 111.125 472.024C110.837 471.725 110.693 471.325 110.693 470.824C110.693 470.131 110.96 469.555 111.493 469.096C112.027 468.627 112.773 468.392 113.733 468.392C114.619 468.392 115.333 468.605 115.877 469.032C116.432 469.459 116.757 470.061 116.853 470.84H115.221C115.168 470.499 115.008 470.232 114.741 470.04C114.485 469.848 114.139 469.752 113.701 469.752C113.275 469.752 112.944 469.843 112.709 470.024C112.475 470.195 112.357 470.419 112.357 470.696C112.357 470.973 112.517 471.192 112.837 471.352C113.168 471.512 113.6 471.656 114.133 471.784C114.667 471.901 115.157 472.04 115.605 472.2C116.064 472.349 116.432 472.573 116.709 472.872C116.987 473.171 117.125 473.608 117.125 474.184C117.136 474.909 116.853 475.512 116.277 475.992C115.712 476.472 114.939 476.712 113.957 476.712Z" fill="#979797"/>
<path d="M121.905 476.712C120.945 476.712 120.187 476.413 119.633 475.816C119.089 475.219 118.817 474.328 118.817 473.144V468.584H120.513V472.968C120.513 474.504 121.142 475.272 122.401 475.272C123.03 475.272 123.547 475.048 123.953 474.6C124.358 474.152 124.561 473.512 124.561 472.68V468.584H126.257V476.52H124.753L124.625 475.128C124.379 475.619 124.017 476.008 123.537 476.296C123.067 476.573 122.523 476.712 121.905 476.712Z" fill="#979797"/>
<path d="M128.414 476.52V468.584H129.934L130.078 470.088C130.356 469.565 130.74 469.155 131.23 468.856C131.732 468.547 132.334 468.392 133.038 468.392V470.168H132.574C132.105 470.168 131.684 470.248 131.31 470.408C130.948 470.557 130.654 470.819 130.43 471.192C130.217 471.555 130.11 472.061 130.11 472.712V476.52H128.414Z" fill="#979797"/>
<path d="M137.986 476.712C137.207 476.712 136.514 476.541 135.906 476.2C135.308 475.848 134.839 475.363 134.498 474.744C134.156 474.125 133.986 473.405 133.986 472.584C133.986 471.752 134.151 471.021 134.482 470.392C134.823 469.763 135.292 469.272 135.89 468.92C136.498 468.568 137.202 468.392 138.002 468.392C138.78 468.392 139.458 468.568 140.034 468.92C140.61 469.261 141.058 469.72 141.378 470.296C141.698 470.872 141.858 471.507 141.858 472.2C141.858 472.307 141.852 472.424 141.842 472.552C141.842 472.669 141.836 472.803 141.826 472.952H135.65C135.703 473.72 135.954 474.307 136.402 474.712C136.86 475.107 137.388 475.304 137.986 475.304C138.466 475.304 138.866 475.197 139.186 474.984C139.516 474.76 139.762 474.461 139.922 474.088H141.618C141.404 474.835 140.978 475.459 140.338 475.96C139.708 476.461 138.924 476.712 137.986 476.712ZM137.986 469.784C137.42 469.784 136.919 469.955 136.482 470.296C136.044 470.627 135.778 471.128 135.682 471.8H140.162C140.13 471.181 139.911 470.691 139.506 470.328C139.1 469.965 138.594 469.784 137.986 469.784Z" fill="#979797"/>
<path d="M154.049 480.04V475.288C153.793 475.661 153.441 475.992 152.993 476.28C152.545 476.568 151.969 476.712 151.265 476.712C150.497 476.712 149.819 476.531 149.233 476.168C148.646 475.805 148.187 475.309 147.857 474.68C147.526 474.051 147.361 473.336 147.361 472.536C147.361 471.736 147.526 471.027 147.857 470.408C148.187 469.779 148.646 469.288 149.233 468.936C149.83 468.573 150.513 468.392 151.281 468.392C151.91 468.392 152.459 468.515 152.929 468.76C153.409 469.005 153.782 469.352 154.049 469.8L154.225 468.584H155.745V480.04H154.049ZM151.569 475.24C152.294 475.24 152.886 474.989 153.345 474.488C153.814 473.987 154.049 473.341 154.049 472.552C154.049 471.752 153.814 471.107 153.345 470.616C152.886 470.115 152.294 469.864 151.569 469.864C150.843 469.864 150.246 470.115 149.777 470.616C149.307 471.107 149.073 471.752 149.073 472.552C149.073 473.075 149.179 473.539 149.393 473.944C149.606 474.349 149.899 474.669 150.273 474.904C150.657 475.128 151.089 475.24 151.569 475.24Z" fill="#979797"/>
<path d="M160.811 476.712C159.851 476.712 159.094 476.413 158.539 475.816C157.995 475.219 157.723 474.328 157.723 473.144V468.584H159.419V472.968C159.419 474.504 160.048 475.272 161.307 475.272C161.936 475.272 162.454 475.048 162.859 474.6C163.264 474.152 163.467 473.512 163.467 472.68V468.584H165.163V476.52H163.659L163.531 475.128C163.286 475.619 162.923 476.008 162.443 476.296C161.974 476.573 161.43 476.712 160.811 476.712Z" fill="#979797"/>
<path d="M170.008 476.712C169.336 476.712 168.782 476.6 168.344 476.376C167.907 476.152 167.582 475.859 167.368 475.496C167.155 475.123 167.048 474.717 167.048 474.28C167.048 473.512 167.347 472.904 167.944 472.456C168.542 472.008 169.395 471.784 170.504 471.784H172.584V471.64C172.584 471.021 172.414 470.557 172.072 470.248C171.742 469.939 171.31 469.784 170.776 469.784C170.307 469.784 169.896 469.901 169.544 470.136C169.203 470.36 168.995 470.696 168.92 471.144H167.224C167.278 470.568 167.47 470.077 167.8 469.672C168.142 469.256 168.568 468.941 169.08 468.728C169.603 468.504 170.174 468.392 170.792 468.392C171.902 468.392 172.76 468.685 173.368 469.272C173.976 469.848 174.28 470.637 174.28 471.64V476.52H172.808L172.664 475.16C172.44 475.597 172.115 475.965 171.688 476.264C171.262 476.563 170.702 476.712 170.008 476.712ZM170.344 475.336C170.803 475.336 171.187 475.229 171.496 475.016C171.816 474.792 172.062 474.499 172.232 474.136C172.414 473.773 172.526 473.373 172.568 472.936H170.68C170.008 472.936 169.528 473.053 169.24 473.288C168.963 473.523 168.824 473.816 168.824 474.168C168.824 474.531 168.958 474.819 169.224 475.032C169.502 475.235 169.875 475.336 170.344 475.336Z" fill="#979797"/>
<path d="M176.258 476.52V465H177.954V476.52H176.258Z" fill="#979797"/>
<path d="M181.062 467.08C180.742 467.08 180.475 466.984 180.262 466.792C180.059 466.589 179.958 466.339 179.958 466.04C179.958 465.741 180.059 465.496 180.262 465.304C180.475 465.101 180.742 465 181.062 465C181.382 465 181.643 465.101 181.846 465.304C182.059 465.496 182.166 465.741 182.166 466.04C182.166 466.339 182.059 466.589 181.846 466.792C181.643 466.984 181.382 467.08 181.062 467.08ZM180.214 476.52V468.584H181.91V476.52H180.214Z" fill="#979797"/>
<path d="M187.477 476.52C186.698 476.52 186.079 476.333 185.621 475.96C185.162 475.576 184.933 474.899 184.933 473.928V470.008H183.573V468.584H184.933L185.141 466.568H186.629V468.584H188.869V470.008H186.629V473.928C186.629 474.365 186.719 474.669 186.901 474.84C187.093 475 187.418 475.08 187.877 475.08H188.789V476.52H187.477Z" fill="#979797"/>
<path d="M191.545 480.04L193.449 475.864H192.985L189.849 468.584H191.689L194.121 474.456L196.665 468.584H198.457L193.337 480.04H191.545Z" fill="#979797"/>
<path d="M203.883 476.52V468.584H205.387L205.531 469.704C205.787 469.299 206.123 468.979 206.539 468.744C206.966 468.509 207.456 468.392 208.011 468.392C209.27 468.392 210.144 468.888 210.635 469.88C210.923 469.421 211.307 469.059 211.787 468.792C212.278 468.525 212.806 468.392 213.371 468.392C214.363 468.392 215.142 468.691 215.707 469.288C216.272 469.885 216.555 470.776 216.555 471.96V476.52H214.859V472.136C214.859 470.6 214.272 469.832 213.099 469.832C212.502 469.832 212.011 470.056 211.627 470.504C211.254 470.952 211.067 471.592 211.067 472.424V476.52H209.371V472.136C209.371 470.6 208.779 469.832 207.595 469.832C207.008 469.832 206.523 470.056 206.139 470.504C205.766 470.952 205.579 471.592 205.579 472.424V476.52H203.883Z" fill="#979797"/>
<path d="M221.227 476.712C220.555 476.712 220.001 476.6 219.563 476.376C219.126 476.152 218.801 475.859 218.587 475.496C218.374 475.123 218.267 474.717 218.267 474.28C218.267 473.512 218.566 472.904 219.163 472.456C219.761 472.008 220.614 471.784 221.723 471.784H223.803V471.64C223.803 471.021 223.633 470.557 223.291 470.248C222.961 469.939 222.529 469.784 221.995 469.784C221.526 469.784 221.115 469.901 220.763 470.136C220.422 470.36 220.214 470.696 220.139 471.144H218.443C218.497 470.568 218.689 470.077 219.019 469.672C219.361 469.256 219.787 468.941 220.299 468.728C220.822 468.504 221.393 468.392 222.011 468.392C223.121 468.392 223.979 468.685 224.587 469.272C225.195 469.848 225.499 470.637 225.499 471.64V476.52H224.027L223.883 475.16C223.659 475.597 223.334 475.965 222.907 476.264C222.481 476.563 221.921 476.712 221.227 476.712ZM221.563 475.336C222.022 475.336 222.406 475.229 222.715 475.016C223.035 474.792 223.281 474.499 223.451 474.136C223.633 473.773 223.745 473.373 223.787 472.936H221.899C221.227 472.936 220.747 473.053 220.459 473.288C220.182 473.523 220.043 473.816 220.043 474.168C220.043 474.531 220.177 474.819 220.443 475.032C220.721 475.235 221.094 475.336 221.563 475.336Z" fill="#979797"/>
<path d="M230.648 476.52C229.87 476.52 229.251 476.333 228.792 475.96C228.334 475.576 228.104 474.899 228.104 473.928V470.008H226.744V468.584H228.104L228.312 466.568H229.8V468.584H232.04V470.008H229.8V473.928C229.8 474.365 229.891 474.669 230.072 474.84C230.264 475 230.59 475.08 231.048 475.08H231.96V476.52H230.648Z" fill="#979797"/>
<path d="M237.346 476.712C236.567 476.712 235.869 476.536 235.25 476.184C234.642 475.832 234.162 475.347 233.81 474.728C233.469 474.099 233.298 473.373 233.298 472.552C233.298 471.731 233.469 471.011 233.81 470.392C234.162 469.763 234.642 469.272 235.25 468.92C235.869 468.568 236.567 468.392 237.346 468.392C238.327 468.392 239.149 468.648 239.81 469.16C240.482 469.672 240.914 470.365 241.106 471.24H239.33C239.223 470.803 238.989 470.461 238.626 470.216C238.263 469.971 237.837 469.848 237.346 469.848C236.93 469.848 236.546 469.955 236.194 470.168C235.842 470.371 235.559 470.675 235.346 471.08C235.133 471.475 235.026 471.965 235.026 472.552C235.026 473.139 235.133 473.635 235.346 474.04C235.559 474.435 235.842 474.739 236.194 474.952C236.546 475.165 236.93 475.272 237.346 475.272C237.837 475.272 238.263 475.149 238.626 474.904C238.989 474.659 239.223 474.312 239.33 473.864H241.106C240.925 474.717 240.498 475.405 239.826 475.928C239.154 476.451 238.327 476.712 237.346 476.712Z" fill="#979797"/>
<path d="M242.945 476.52V465H244.641V469.864C244.908 469.405 245.276 469.048 245.745 468.792C246.225 468.525 246.753 468.392 247.329 468.392C248.279 468.392 249.025 468.691 249.569 469.288C250.113 469.885 250.385 470.776 250.385 471.96V476.52H248.705V472.136C248.705 470.6 248.092 469.832 246.865 469.832C246.225 469.832 245.692 470.056 245.265 470.504C244.849 470.952 244.641 471.592 244.641 472.424V476.52H242.945Z" fill="#979797"/>
<path d="M256.095 476.712C255.316 476.712 254.623 476.541 254.015 476.2C253.418 475.848 252.948 475.363 252.607 474.744C252.266 474.125 252.095 473.405 252.095 472.584C252.095 471.752 252.26 471.021 252.591 470.392C252.932 469.763 253.402 469.272 253.999 468.92C254.607 468.568 255.311 468.392 256.111 468.392C256.89 468.392 257.567 468.568 258.143 468.92C258.719 469.261 259.167 469.72 259.487 470.296C259.807 470.872 259.967 471.507 259.967 472.2C259.967 472.307 259.962 472.424 259.951 472.552C259.951 472.669 259.946 472.803 259.935 472.952H253.759C253.812 473.72 254.063 474.307 254.511 474.712C254.97 475.107 255.498 475.304 256.095 475.304C256.575 475.304 256.975 475.197 257.295 474.984C257.626 474.76 257.871 474.461 258.031 474.088H259.727C259.514 474.835 259.087 475.459 258.447 475.96C257.818 476.461 257.034 476.712 256.095 476.712ZM256.095 469.784C255.53 469.784 255.028 469.955 254.591 470.296C254.154 470.627 253.887 471.128 253.791 471.8H258.271C258.239 471.181 258.02 470.691 257.615 470.328C257.21 469.965 256.703 469.784 256.095 469.784Z" fill="#979797"/>
<path d="M264.895 476.712C263.892 476.712 263.065 476.467 262.415 475.976C261.764 475.485 261.391 474.835 261.295 474.024H263.007C263.092 474.387 263.295 474.701 263.615 474.968C263.935 475.224 264.356 475.352 264.879 475.352C265.391 475.352 265.764 475.245 265.999 475.032C266.233 474.819 266.351 474.573 266.351 474.296C266.351 473.891 266.185 473.619 265.855 473.48C265.535 473.331 265.087 473.197 264.511 473.08C264.063 472.984 263.615 472.856 263.167 472.696C262.729 472.536 262.361 472.312 262.063 472.024C261.775 471.725 261.631 471.325 261.631 470.824C261.631 470.131 261.897 469.555 262.431 469.096C262.964 468.627 263.711 468.392 264.671 468.392C265.556 468.392 266.271 468.605 266.815 469.032C267.369 469.459 267.695 470.061 267.791 470.84H266.159C266.105 470.499 265.945 470.232 265.679 470.04C265.423 469.848 265.076 469.752 264.639 469.752C264.212 469.752 263.881 469.843 263.647 470.024C263.412 470.195 263.295 470.419 263.295 470.696C263.295 470.973 263.455 471.192 263.775 471.352C264.105 471.512 264.537 471.656 265.071 471.784C265.604 471.901 266.095 472.04 266.543 472.2C267.001 472.349 267.369 472.573 267.647 472.872C267.924 473.171 268.063 473.608 268.063 474.184C268.073 474.909 267.791 475.512 267.215 475.992C266.649 476.472 265.876 476.712 264.895 476.712Z" fill="#979797"/>
<path d="M270.586 476.616C270.266 476.616 270 476.515 269.786 476.312C269.584 476.099 269.482 475.848 269.482 475.56C269.482 475.261 269.584 475.011 269.786 474.808C270 474.595 270.266 474.488 270.586 474.488C270.906 474.488 271.168 474.595 271.37 474.808C271.573 475.011 271.674 475.261 271.674 475.56C271.674 475.848 271.573 476.099 271.37 476.312C271.168 476.515 270.906 476.616 270.586 476.616Z" fill="#979797"/>
</svg>
