<svg width="207" height="32" viewBox="0 0 207 32" fill="none" xmlns="http://www.w3.org/2000/svg">
<path d="M0.794922 12.4801C0.794922 11.0935 1.02959 9.7388 1.49892 8.41614C1.98959 7.07214 2.69359 5.85614 3.61092 4.76814C4.54959 3.6588 5.69092 2.78414 7.03492 2.14414C8.37892 1.4828 9.90426 1.15214 11.6109 1.15214C13.6376 1.15214 15.3763 1.62147 16.8269 2.56014C18.2776 3.47747 19.3549 4.66147 20.0589 6.11214L17.7869 7.58414C17.3389 6.62414 16.7629 5.8668 16.0589 5.31214C15.3763 4.73614 14.6296 4.3308 13.8189 4.09614C13.0296 3.86147 12.2509 3.74414 11.4829 3.74414C10.2243 3.74414 9.10426 4.00014 8.12292 4.51214C7.16292 5.02414 6.35226 5.7068 5.69092 6.56014C5.02959 7.41347 4.52826 8.37347 4.18692 9.44014C3.86692 10.4855 3.70692 11.5415 3.70692 12.6081C3.70692 13.7815 3.89892 14.9121 4.28292 16.0001C4.68826 17.0881 5.24292 18.0481 5.94692 18.8801C6.65092 19.7121 7.48292 20.3735 8.44292 20.8641C9.40292 21.3548 10.4483 21.6001 11.5789 21.6001C12.3683 21.6001 13.1789 21.4615 14.0109 21.1841C14.8429 20.9068 15.6216 20.4801 16.3469 19.9041C17.0723 19.3068 17.6483 18.5388 18.0749 17.6001L20.4749 18.9121C20.0056 20.0428 19.2803 21.0028 18.2989 21.7921C17.3176 22.5815 16.2189 23.1788 15.0029 23.5841C13.8083 23.9895 12.6243 24.1921 11.4509 24.1921C9.89359 24.1921 8.46426 23.8615 7.16292 23.2001C5.86159 22.5175 4.73092 21.6215 3.77092 20.5121C2.83226 19.3815 2.09626 18.1228 1.56292 16.7361C1.05092 15.3281 0.794922 13.9095 0.794922 12.4801Z" fill="white"/>
<path d="M30.9274 24.3201C29.6688 24.3201 28.5274 24.0961 27.5034 23.6481C26.4794 23.1788 25.5941 22.5495 24.8474 21.7601C24.1008 20.9495 23.5248 20.0215 23.1194 18.9761C22.7141 17.9308 22.5114 16.8321 22.5114 15.6801C22.5114 14.5068 22.7141 13.3975 23.1194 12.3521C23.5248 11.3068 24.1008 10.3895 24.8474 9.60014C25.5941 8.78947 26.4794 8.16014 27.5034 7.71214C28.5488 7.2428 29.6901 7.00814 30.9274 7.00814C32.1861 7.00814 33.3274 7.2428 34.3514 7.71214C35.3754 8.16014 36.2608 8.78947 37.0074 9.60014C37.7754 10.3895 38.3621 11.3068 38.7674 12.3521C39.1728 13.3975 39.3754 14.5068 39.3754 15.6801C39.3754 16.8321 39.1728 17.9308 38.7674 18.9761C38.3621 20.0215 37.7861 20.9495 37.0394 21.7601C36.2928 22.5495 35.3968 23.1788 34.3514 23.6481C33.3274 24.0961 32.1861 24.3201 30.9274 24.3201ZM25.3914 15.7121C25.3914 16.8641 25.6368 17.9095 26.1274 18.8481C26.6394 19.7868 27.3114 20.5335 28.1434 21.0881C28.9754 21.6215 29.9034 21.8881 30.9274 21.8881C31.9514 21.8881 32.8794 21.6108 33.7114 21.0561C34.5648 20.5015 35.2368 19.7548 35.7274 18.8161C36.2394 17.8561 36.4954 16.8001 36.4954 15.6481C36.4954 14.4961 36.2394 13.4508 35.7274 12.5121C35.2368 11.5735 34.5648 10.8268 33.7114 10.2721C32.8794 9.71747 31.9514 9.44014 30.9274 9.44014C29.9034 9.44014 28.9754 9.72814 28.1434 10.3041C27.3114 10.8588 26.6394 11.6055 26.1274 12.5441C25.6368 13.4828 25.3914 14.5388 25.3914 15.7121Z" fill="white"/>
<path d="M67.9717 24.0001H65.1557V14.6561C65.1557 12.9068 64.8677 11.6161 64.2917 10.7841C63.737 9.95214 62.905 9.53614 61.7957 9.53614C60.665 9.53614 59.641 9.95214 58.7237 10.7841C57.8063 11.5948 57.1557 12.6508 56.7717 13.9521V24.0001H53.9557V14.6561C53.9557 12.8855 53.6783 11.5948 53.1237 10.7841C52.569 9.95214 51.737 9.53614 50.6277 9.53614C49.5183 9.53614 48.4943 9.94147 47.5557 10.7521C46.6383 11.5415 45.9877 12.5975 45.6037 13.9201V24.0001H42.7877V7.29614H45.3477V10.8801C46.0303 9.6428 46.9157 8.69347 48.0037 8.03214C49.0917 7.34947 50.3183 7.00814 51.6837 7.00814C53.0703 7.00814 54.1797 7.39214 55.0117 8.16014C55.8437 8.9068 56.3557 9.87747 56.5477 11.0721C57.2943 9.74947 58.201 8.7468 59.2677 8.06414C60.3343 7.36014 61.5503 7.00814 62.9157 7.00814C63.8757 7.00814 64.6757 7.18947 65.3157 7.55214C65.977 7.89347 66.4997 8.38414 66.8837 9.02414C67.2677 9.6428 67.545 10.3788 67.7157 11.2321C67.8863 12.0855 67.9717 13.0135 67.9717 14.0161V24.0001Z" fill="white"/>
<path d="M72.3502 24.0001V7.29614H75.1662V24.0001H72.3502ZM72.3502 4.16014V0.640137H75.1662V4.16014H72.3502Z" fill="white"/>
<path d="M94.2212 24.0001H91.4052V14.6561C91.4052 12.8855 91.1278 11.5948 90.5732 10.7841C90.0398 9.95214 89.2185 9.53614 88.1092 9.53614C87.3412 9.53614 86.5732 9.72814 85.8052 10.1121C85.0585 10.4961 84.3865 11.0188 83.7892 11.6801C83.2132 12.3201 82.7972 13.0668 82.5412 13.9201V24.0001H79.7252V7.29614H82.2852V10.8801C82.7332 10.0908 83.3092 9.40814 84.0132 8.83214C84.7172 8.25614 85.5172 7.80814 86.4132 7.48814C87.3092 7.16814 88.2478 7.00814 89.2292 7.00814C90.1892 7.00814 90.9892 7.18947 91.6292 7.55214C92.2905 7.89347 92.8025 8.38414 93.1652 9.02414C93.5492 9.6428 93.8158 10.3788 93.9652 11.2321C94.1358 12.0855 94.2212 13.0135 94.2212 14.0161V24.0001Z" fill="white"/>
<path d="M105.256 24.1921C104.126 24.1921 103.08 23.9681 102.12 23.5201C101.182 23.0508 100.371 22.4215 99.6882 21.6321C99.0055 20.8215 98.4722 19.9041 98.0882 18.8801C97.7255 17.8561 97.5442 16.7895 97.5442 15.6801C97.5442 14.5068 97.7255 13.3975 98.0882 12.3521C98.4722 11.3068 99.0055 10.3895 99.6882 9.60014C100.392 8.78947 101.214 8.16014 102.152 7.71214C103.091 7.2428 104.136 7.00814 105.288 7.00814C106.675 7.00814 107.88 7.34947 108.904 8.03214C109.95 8.7148 110.824 9.5788 111.528 10.6241V7.29614H114.024V23.8081C114.024 25.3868 113.64 26.7201 112.872 27.8081C112.126 28.8961 111.102 29.7175 109.8 30.2721C108.52 30.8481 107.091 31.1361 105.512 31.1361C103.635 31.1361 102.099 30.8055 100.904 30.1441C99.7095 29.4828 98.7175 28.5868 97.9282 27.4561L99.5602 26.0161C100.222 26.9975 101.075 27.7335 102.12 28.2241C103.187 28.7148 104.318 28.9601 105.512 28.9601C106.536 28.9601 107.475 28.7681 108.328 28.3841C109.203 28.0215 109.896 27.4561 110.408 26.6881C110.942 25.9201 111.208 24.9601 111.208 23.8081V20.8641C110.59 21.8881 109.736 22.6988 108.648 23.2961C107.582 23.8935 106.451 24.1921 105.256 24.1921ZM106.12 21.8881C106.718 21.8881 107.294 21.7815 107.848 21.5681C108.403 21.3548 108.915 21.0775 109.384 20.7361C109.854 20.3735 110.248 19.9681 110.568 19.5201C110.888 19.0721 111.102 18.6135 111.208 18.1441V13.3441C110.91 12.5761 110.483 11.9041 109.928 11.3281C109.374 10.7308 108.744 10.2721 108.04 9.95214C107.336 9.6108 106.611 9.44014 105.864 9.44014C105.011 9.44014 104.243 9.62147 103.56 9.98414C102.899 10.3468 102.334 10.8375 101.864 11.4561C101.395 12.0535 101.032 12.7255 100.776 13.4721C100.52 14.2188 100.392 14.9761 100.392 15.7441C100.392 16.5761 100.542 17.3655 100.84 18.1121C101.139 18.8375 101.544 19.4881 102.056 20.0641C102.568 20.6401 103.176 21.0881 103.88 21.4081C104.584 21.7281 105.331 21.8881 106.12 21.8881Z" fill="white"/>
<path d="M140.455 6.04814C140.199 5.74947 139.857 5.46147 139.431 5.18414C139.004 4.9068 138.524 4.66147 137.991 4.44814C137.457 4.21347 136.871 4.03214 136.231 3.90414C135.612 3.7548 134.961 3.68014 134.279 3.68014C132.529 3.68014 131.239 4.0108 130.407 4.67214C129.575 5.33347 129.159 6.24014 129.159 7.39214C129.159 8.2028 129.372 8.8428 129.799 9.31214C130.225 9.78147 130.876 10.1655 131.751 10.4641C132.647 10.7628 133.777 11.0721 135.143 11.3921C136.721 11.7335 138.087 12.1495 139.239 12.6401C140.391 13.1308 141.276 13.7921 141.895 14.6241C142.513 15.4348 142.823 16.5228 142.823 17.8881C142.823 18.9761 142.609 19.9255 142.183 20.7361C141.777 21.5255 141.201 22.1868 140.455 22.7201C139.708 23.2321 138.833 23.6161 137.831 23.8721C136.828 24.1068 135.74 24.2241 134.567 24.2241C133.415 24.2241 132.284 24.1068 131.175 23.8721C130.087 23.6161 129.052 23.2535 128.071 22.7841C127.089 22.3148 126.172 21.7281 125.319 21.0241L126.695 18.5921C127.036 18.9548 127.473 19.3175 128.007 19.6801C128.561 20.0215 129.18 20.3415 129.863 20.6401C130.567 20.9388 131.324 21.1841 132.135 21.3761C132.945 21.5468 133.777 21.6321 134.631 21.6321C136.252 21.6321 137.511 21.3441 138.407 20.7681C139.303 20.1708 139.751 19.3068 139.751 18.1761C139.751 17.3228 139.495 16.6401 138.983 16.1281C138.492 15.6161 137.756 15.1895 136.775 14.8481C135.793 14.5068 134.599 14.1655 133.191 13.8241C131.655 13.4401 130.364 13.0241 129.319 12.5761C128.273 12.1068 127.484 11.4988 126.951 10.7521C126.439 10.0055 126.183 9.0348 126.183 7.84014C126.183 6.38947 126.535 5.1628 127.239 4.16014C127.943 3.15747 128.913 2.40014 130.151 1.88814C131.388 1.37614 132.785 1.12014 134.343 1.12014C135.367 1.12014 136.316 1.2268 137.191 1.44014C138.087 1.65347 138.919 1.95214 139.687 2.33614C140.455 2.72014 141.159 3.1788 141.799 3.71214L140.455 6.04814Z" fill="white"/>
<path d="M153.459 24.3201C152.2 24.3201 151.059 24.0961 150.035 23.6481C149.011 23.1788 148.125 22.5495 147.379 21.7601C146.632 20.9495 146.056 20.0215 145.651 18.9761C145.245 17.9308 145.043 16.8321 145.043 15.6801C145.043 14.5068 145.245 13.3975 145.651 12.3521C146.056 11.3068 146.632 10.3895 147.379 9.60014C148.125 8.78947 149.011 8.16014 150.035 7.71214C151.08 7.2428 152.221 7.00814 153.459 7.00814C154.717 7.00814 155.859 7.2428 156.883 7.71214C157.907 8.16014 158.792 8.78947 159.539 9.60014C160.307 10.3895 160.893 11.3068 161.299 12.3521C161.704 13.3975 161.907 14.5068 161.907 15.6801C161.907 16.8321 161.704 17.9308 161.299 18.9761C160.893 20.0215 160.317 20.9495 159.571 21.7601C158.824 22.5495 157.928 23.1788 156.883 23.6481C155.859 24.0961 154.717 24.3201 153.459 24.3201ZM147.923 15.7121C147.923 16.8641 148.168 17.9095 148.659 18.8481C149.171 19.7868 149.843 20.5335 150.675 21.0881C151.507 21.6215 152.435 21.8881 153.459 21.8881C154.483 21.8881 155.411 21.6108 156.243 21.0561C157.096 20.5015 157.768 19.7548 158.259 18.8161C158.771 17.8561 159.027 16.8001 159.027 15.6481C159.027 14.4961 158.771 13.4508 158.259 12.5121C157.768 11.5735 157.096 10.8268 156.243 10.2721C155.411 9.71747 154.483 9.44014 153.459 9.44014C152.435 9.44014 151.507 9.72814 150.675 10.3041C149.843 10.8588 149.171 11.6055 148.659 12.5441C148.168 13.4828 147.923 14.5388 147.923 15.7121Z" fill="white"/>
<path d="M172.615 24.3201C171.356 24.3201 170.215 24.0961 169.191 23.6481C168.167 23.1788 167.282 22.5495 166.535 21.7601C165.788 20.9495 165.212 20.0215 164.807 18.9761C164.402 17.9308 164.199 16.8321 164.199 15.6801C164.199 14.5068 164.402 13.3975 164.807 12.3521C165.212 11.3068 165.788 10.3895 166.535 9.60014C167.282 8.78947 168.167 8.16014 169.191 7.71214C170.236 7.2428 171.378 7.00814 172.615 7.00814C173.874 7.00814 175.015 7.2428 176.039 7.71214C177.063 8.16014 177.948 8.78947 178.695 9.60014C179.463 10.3895 180.05 11.3068 180.455 12.3521C180.86 13.3975 181.063 14.5068 181.063 15.6801C181.063 16.8321 180.86 17.9308 180.455 18.9761C180.05 20.0215 179.474 20.9495 178.727 21.7601C177.98 22.5495 177.084 23.1788 176.039 23.6481C175.015 24.0961 173.874 24.3201 172.615 24.3201ZM167.079 15.7121C167.079 16.8641 167.324 17.9095 167.815 18.8481C168.327 19.7868 168.999 20.5335 169.831 21.0881C170.663 21.6215 171.591 21.8881 172.615 21.8881C173.639 21.8881 174.567 21.6108 175.399 21.0561C176.252 20.5015 176.924 19.7548 177.415 18.8161C177.927 17.8561 178.183 16.8001 178.183 15.6481C178.183 14.4961 177.927 13.4508 177.415 12.5121C176.924 11.5735 176.252 10.8268 175.399 10.2721C174.567 9.71747 173.639 9.44014 172.615 9.44014C171.591 9.44014 170.663 9.72814 169.831 10.3041C168.999 10.8588 168.327 11.6055 167.815 12.5441C167.324 13.4828 167.079 14.5388 167.079 15.7121Z" fill="white"/>
<path d="M198.971 24.0001H196.155V14.6561C196.155 12.8855 195.878 11.5948 195.323 10.7841C194.79 9.95214 193.969 9.53614 192.859 9.53614C192.091 9.53614 191.323 9.72814 190.555 10.1121C189.809 10.4961 189.137 11.0188 188.539 11.6801C187.963 12.3201 187.547 13.0668 187.291 13.9201V24.0001H184.475V7.29614H187.035V10.8801C187.483 10.0908 188.059 9.40814 188.763 8.83214C189.467 8.25614 190.267 7.80814 191.163 7.48814C192.059 7.16814 192.998 7.00814 193.979 7.00814C194.939 7.00814 195.739 7.18947 196.379 7.55214C197.04 7.89347 197.553 8.38414 197.915 9.02414C198.299 9.6428 198.566 10.3788 198.715 11.2321C198.886 12.0855 198.971 13.0135 198.971 14.0161V24.0001Z" fill="white"/>
<path d="M203.862 16.3201V1.05614H206.678V16.3201H203.862ZM203.862 24.0001V20.0321H206.678V24.0001H203.862Z" fill="white"/>
</svg>
