<svg width="480" height="80" viewBox="0 0 480 80" fill="none" xmlns="http://www.w3.org/2000/svg">
<path fill-rule="evenodd" clip-rule="evenodd" d="M70.0072 15.666V79.9999H77.7981V0.973816H69.8959L42.7682 48.2308L47.0169 55.8338L70.0072 15.666ZM42.9847 62.8786L41.4033 65.6416H36.5061L7.79095 15.666V79.9999H0V0.973816H8.01354L27.3704 34.9373L42.9847 62.8786ZM177.406 79.9999V73.099H132.107V42.9356H170.728V36.3686H132.107V7.87469H176.404V0.973816H124.316V79.9999H177.406ZM218.851 79.9999V0.973816H252.24C255.654 0.973816 258.77 1.67874 261.59 3.0886C264.409 4.49845 266.858 6.42773 268.935 8.87642C271.087 11.2509 272.719 13.9222 273.832 16.8903C275.02 19.7843 275.613 22.7524 275.613 25.7947C275.613 29.579 274.871 33.1408 273.387 36.4799C271.977 39.819 269.937 42.6387 267.266 44.939C264.669 47.2393 261.59 48.7605 258.028 49.5025L277.394 79.9999H268.601L250.014 50.8382H226.642V79.9999H218.851ZM226.642 43.9373H252.463C255.579 43.9373 258.288 43.084 260.588 41.3773C262.888 39.6706 264.669 37.4445 265.93 34.699C267.192 31.8793 267.822 28.9112 267.822 25.7947C267.822 22.604 267.08 19.6729 265.596 17.0016C264.186 14.2561 262.257 12.0672 259.809 10.4347C257.434 8.72802 254.763 7.87469 251.795 7.87469H226.642V43.9373ZM317.209 0.973816V79.9999H370.633V73.099H325V0.973816H317.209Z" fill="white"/>
<path fill-rule="evenodd" clip-rule="evenodd" d="M450.768 8.75064C447.393 7.58788 443.77 6.95652 440 6.95652C421.751 6.95652 406.957 21.7506 406.957 40C406.957 58.2494 421.751 73.0435 440 73.0435C458.249 73.0435 473.043 58.2494 473.043 40C473.043 28.0025 466.65 17.4984 457.083 11.7094L460.479 5.63286C472.17 12.6146 480 25.393 480 40C480 62.0914 462.091 80 440 80C417.909 80 400 62.0914 400 40C400 17.9086 417.909 0 440 0C445.003 0 449.792 0.918615 454.207 2.59639L450.768 8.75064Z" fill="white"/>
</svg>
