<svg width="331" height="224" viewBox="0 0 331 224" fill="none" xmlns="http://www.w3.org/2000/svg">
<path d="M277.72 224C306.814 224 330.4 222.219 330.4 220.023C330.4 217.827 306.814 216.047 277.72 216.047C248.625 216.047 225.04 217.827 225.04 220.023C225.04 222.219 248.625 224 277.72 224Z" fill="#E6E6E6"/>
<path d="M53.6587 61.6934C53.6755 57.6463 50.2367 54.3359 46.2002 54.3359H8.74417C4.77148 54.3359 1.3391 57.5916 1.29259 61.5744C1.27817 62.7064 1.52617 63.8263 2.01704 64.8458C2.50791 65.8653 3.22822 66.7565 4.12122 67.4493C4.35013 67.6203 4.53026 67.8486 4.64362 68.1113C4.75698 68.3739 4.79959 68.6619 4.7672 68.9462C4.72375 69.269 4.70197 69.5943 4.70199 69.9199V95.8961C4.70199 96.8523 4.88983 97.7991 5.25478 98.6825C5.61972 99.5658 6.15463 100.368 6.82896 101.045C7.50329 101.721 8.30384 102.257 9.18489 102.623C10.066 102.989 11.0103 103.177 11.9639 103.177H42.7433C44.6693 103.177 46.5164 102.41 47.8783 101.045C49.2401 99.6792 50.0052 97.8272 50.0052 95.8962V69.9199C50.0053 69.635 49.9887 69.3502 49.9556 69.0672C49.9263 68.7869 49.9723 68.5039 50.0889 68.2475C50.2054 67.9911 50.3882 67.7707 50.6183 67.609C51.5556 66.9342 52.3198 66.0462 52.8483 65.0179C53.3768 63.9896 53.6545 62.8502 53.6587 61.6934Z" fill="#3F3D56"/>
<path d="M52.036 60.9806C51.8492 59.5716 51.155 58.2796 50.0842 57.3481C49.0133 56.4166 47.6397 55.9098 46.2221 55.9231H8.73242C7.40713 55.9112 6.11743 56.3529 5.07632 57.1752C4.03521 57.9975 3.30496 59.1512 3.00618 60.4458C2.75036 61.6356 2.87785 62.8762 3.37029 63.9887C3.86272 65.1013 4.69467 66.0284 5.74629 66.6365C6.04988 66.8105 6.28714 67.0808 6.42074 67.4049C6.55434 67.7289 6.5767 68.0883 6.48431 68.4265C6.35128 68.9134 6.2841 69.4161 6.28459 69.921V95.8948C6.28476 97.2222 6.74724 98.5078 7.59216 99.5298C8.43708 100.552 9.61141 101.246 10.9123 101.492C11.2593 101.557 11.6116 101.59 11.9645 101.59H42.7439C43.2636 101.59 43.7808 101.519 44.2809 101.377C45.4724 101.041 46.5217 100.324 47.2692 99.3345C48.0166 98.3453 48.4213 97.1383 48.4215 95.8972V69.9186C48.4215 69.4458 48.3626 68.9749 48.2461 68.5168C48.2143 68.3898 48.198 68.2595 48.1974 68.1285C48.1976 67.8414 48.2757 67.5598 48.4233 67.3137C48.5709 67.0677 48.7824 66.8665 49.0353 66.7317L49.0377 66.7292C50.0577 66.1863 50.89 65.3467 51.4252 64.3207C51.9603 63.2946 52.1732 62.1303 52.036 60.9806Z" fill="black"/>
<path opacity="0.2" d="M48.4216 72.4077V69.9656H44.2809V55.9238H41.8453V69.9656H28.8145V55.9238H26.3789V69.9656H13.3481V55.9238H10.9124V69.9656H6.28467V72.4077H10.9124V79.7339H6.28467V82.176H10.9124V89.5022H6.28467V91.9442H10.9124V101.493C11.2594 101.558 11.6116 101.59 11.9646 101.59H13.3481V91.9442H26.3788V101.59H28.8145V91.9442H41.8453V101.59H42.744C43.2637 101.591 43.7809 101.52 44.2809 101.378V91.9442H48.4215V89.5021H44.2809V82.176H48.4216V79.7339H44.2809V72.4077H48.4216ZM13.3481 72.4077H26.3789V79.7339H13.3481V72.4077ZM13.3481 89.5021V82.176H26.3789V89.5021H13.3481ZM41.8453 89.5021H28.8145V82.176H41.8453V89.5021ZM41.8453 79.7339H28.8145V72.4077H41.8453V79.7339Z" fill="black"/>
<path d="M53.4876 0C53.4876 3.425 52.8148 6.81647 51.5075 9.98076C50.2003 13.1451 48.2842 16.0202 45.8687 18.442C43.4532 20.8639 40.5856 22.785 37.4296 24.0957C34.2736 25.4064 30.891 26.081 27.475 26.081C24.059 26.081 20.6764 25.4064 17.5204 24.0957C14.3644 22.785 11.4968 20.8639 9.08132 18.442C6.66582 16.0202 4.74975 13.1451 3.4425 9.98076C2.13524 6.81647 1.4624 3.425 1.4624 0H53.4876Z" fill="black"/>
<path d="M11.0057 4.62963C11.0057 5.31148 10.7645 5.86423 10.4669 5.86423C10.1694 5.86423 9.92822 5.31148 9.92822 4.62963C9.96092 4.16824 10.1512 3.73224 10.4669 3.39502C10.7827 3.73224 10.973 4.16824 11.0057 4.62963Z" fill="#3F3D56"/>
<path d="M38.2493 8.95067C38.2493 9.63253 38.0081 10.1853 37.7106 10.1853C37.4131 10.1853 37.1719 9.63253 37.1719 8.95067C37.2046 8.48929 37.3948 8.05328 37.7106 7.71606C38.0264 8.05328 38.2166 8.48929 38.2493 8.95067Z" fill="#3F3D56"/>
<path d="M18.24 6.48167C18.24 7.16352 17.9989 7.71628 17.7013 7.71628C17.4038 7.71628 17.1626 7.16352 17.1626 6.48167C17.1953 6.02029 17.3856 5.58429 17.7013 5.24707C18.0171 5.58429 18.2073 6.02029 18.24 6.48167Z" fill="#3F3D56"/>
<path d="M29.0145 16.2041C29.0145 16.8859 28.7733 17.4387 28.4757 17.4387C28.1782 17.4387 27.937 16.8859 27.937 16.2041C27.9697 15.7427 28.16 15.3067 28.4757 14.9695C28.7915 15.3067 28.9817 15.7427 29.0145 16.2041Z" fill="#3F3D56"/>
<path d="M17.4695 14.97C17.4695 15.6518 17.2283 16.2046 16.9308 16.2046C16.6333 16.2046 16.3921 15.6518 16.3921 14.97C16.4248 14.5086 16.615 14.0726 16.9308 13.7354C17.2466 14.0726 17.4368 14.5086 17.4695 14.97Z" fill="#3F3D56"/>
<path d="M44.4066 3.395C44.4066 4.07686 44.1653 4.62961 43.8678 4.62961C43.5703 4.62961 43.3291 4.07686 43.3291 3.395C43.3618 2.93362 43.5521 2.49762 43.8678 2.1604C44.1836 2.49762 44.3739 2.93362 44.4066 3.395Z" fill="#3F3D56"/>
<path d="M34.555 18.6731C34.555 19.3549 34.3138 19.9077 34.0163 19.9077C33.7187 19.9077 33.4775 19.3549 33.4775 18.6731C33.5102 18.2117 33.7005 17.7757 34.0163 17.4385C34.332 17.7757 34.5223 18.2117 34.555 18.6731Z" fill="#3F3D56"/>
<path d="M27.4749 27.5471C20.1906 27.5388 13.2071 24.6339 8.05631 19.4696C2.90556 14.3053 0.00824512 7.3034 0 0H2.92447C2.92447 3.23248 3.55949 6.4333 4.79326 9.41971C6.02703 12.4061 7.8354 15.1197 10.1151 17.4054C12.3948 19.6911 15.1012 21.5042 18.0798 22.7412C21.0584 23.9782 24.2508 24.6149 27.4748 24.6149C30.6989 24.6149 33.8913 23.9782 36.8699 22.7412C39.8485 21.5042 42.5549 19.6911 44.8346 17.4054C47.1143 15.1197 48.9227 12.4061 50.1564 9.41971C51.3902 6.4333 52.0252 3.23248 52.0252 0H54.9497C54.9414 7.3034 52.0441 14.3053 46.8934 19.4696C41.7427 24.6339 34.7591 27.5388 27.4749 27.5471Z" fill="#3F3D56"/>
<path d="M90.7597 9.45728H82.1494V18.0902H90.7597V9.45728Z" fill="#3F3D56"/>
<path d="M175.141 13.3418H105.828V14.2051H175.141V13.3418Z" fill="#3F3D56"/>
<path d="M90.7597 74.4402H82.1494V83.0731H90.7597V74.4402Z" fill="#3F3D56"/>
<path d="M175.141 78.3252H105.828V79.1885H175.141V78.3252Z" fill="#3F3D56"/>
<path d="M90.7597 138.972H82.1494V147.605H90.7597V138.972Z" fill="#3F3D56"/>
<path d="M175.141 142.856H105.828V143.72H175.141V142.856Z" fill="#3F3D56"/>
<path d="M272.224 59.2839L261.225 67.976L237.919 59.7636C237.919 59.7636 229.995 50.8272 225.514 57.4832C223.979 59.7628 234.031 63.9742 234.979 64.3656C237.35 65.344 260.06 77.8359 262.286 76.1971C264.511 74.5582 277.032 66.2689 277.032 66.2689L272.224 59.2839Z" fill="#A0616A"/>
<path d="M309.769 44.4561C299.345 40.5507 289.428 38.7029 281.389 44.4561V25.8881C281.389 24.0197 281.756 22.1696 282.469 20.4435C283.182 18.7173 284.227 17.1489 285.545 15.8278C286.863 14.5066 288.427 13.4586 290.148 12.7436C291.87 12.0287 293.715 11.6606 295.579 11.6606C297.442 11.6606 299.288 12.0287 301.009 12.7436C302.731 13.4586 304.295 14.5066 305.613 15.8278C306.93 17.1489 307.976 18.7173 308.689 20.4435C309.402 22.1696 309.769 24.0197 309.769 25.8881L309.769 44.4561Z" fill="#2F2E41"/>
<path d="M283.575 85.0186L282.724 90.9969C282.724 90.9969 280.594 97.4022 282.724 109.359L248.438 203.09L273.78 210.35L286.344 159.107L304.019 120.034L302.315 164.445L293.371 211.844L319.777 210.777L327.472 129.501C328.716 116.656 326.494 103.712 321.038 92.0233C318.903 87.4781 316.608 83.8958 314.525 83.3758C308.278 81.8159 283.575 85.0186 283.575 85.0186Z" fill="#2F2E41"/>
<path d="M251.633 202.45L242.902 211.844C242.902 211.844 226.079 220.598 238.004 221.666C249.929 222.733 253.975 218.036 253.975 218.036C253.975 218.036 268.882 216.968 268.669 214.833C268.456 212.698 267.391 205.652 267.391 205.652L251.633 202.45Z" fill="#2F2E41"/>
<path d="M299.015 204.715V211.334C299.015 211.334 299.228 214.109 299.015 214.75C298.802 215.39 295.608 223.29 306.255 221.582C316.903 219.874 312.644 213.255 312.644 213.255L310.088 203.647L299.015 204.715Z" fill="#2F2E41"/>
<path d="M295.448 38.9C301.358 38.9 306.149 34.0965 306.149 28.1711C306.149 22.2456 301.358 17.4421 295.448 17.4421C289.538 17.4421 284.748 22.2456 284.748 28.1711C284.748 34.0965 289.538 38.9 295.448 38.9Z" fill="#A0616A"/>
<path d="M302.848 34.096C302.848 34.096 301.357 48.1877 302.848 50.7499C304.339 53.312 287.729 48.1877 287.729 48.1877C287.729 48.1877 291.349 38.5798 290.071 34.7366C288.793 30.8933 302.848 34.096 302.848 34.096Z" fill="#A0616A"/>
<path d="M311.366 74.663L314.774 84.0575L283.044 87.6872C283.044 87.6872 279.637 87.0466 279.637 84.271C279.637 81.4953 276.016 71.6738 276.016 71.6738C276.016 71.6738 267.15 64.4686 262.891 62.547C261.347 61.851 263.657 62.1384 264.956 59.1835C265.345 58.2952 265.812 57.3579 266.321 56.4078C266.736 55.6285 267.183 54.8385 267.641 54.0592C268.197 53.1091 268.77 52.1739 269.325 51.2835C271.008 48.5912 272.543 46.3279 273.035 45.412C274.526 42.6363 288.54 42.3887 288.54 42.3887C292.548 44.9166 304.126 45.412 304.126 45.412C304.126 45.412 312.09 48.7534 315.408 51.2835C315.649 51.465 311.366 74.663 311.366 74.663Z" fill="#E6E6E6"/>
<path d="M304.478 15.2916V15.0368L304.176 15.0536C302.46 13.7437 300.47 12.8428 298.355 12.4191C296.241 11.9954 294.057 12.0602 291.971 12.6084C293.971 13.1382 295.83 14.1014 297.418 15.43L287.161 16.0014L282.832 25.6471H285.762L288.123 21.3065V25.6471H298.032L298.706 22.2711L300.576 25.6471H302.523C302.535 25.8878 302.554 26.1268 302.554 26.3705L300.63 44.9386L309.769 41.0803V26.3705C309.771 24.2444 309.296 22.1452 308.381 20.2276C307.465 18.31 306.131 16.6232 304.478 15.2916Z" fill="#2F2E41"/>
<path d="M318.819 64.4148L318.18 81.2822L316.477 113.949C316.477 113.949 318.819 128.041 312.856 127.828C306.894 127.614 311.366 111.174 311.366 111.174L309.662 85.3389L311.366 67.1905L318.819 64.4148Z" fill="#A0616A"/>
<path d="M320.523 73.5958C320.523 75.5174 309.769 74.9836 309.769 74.9836L304.125 45.4124C304.125 45.4124 312.09 48.7538 315.408 51.2839C316.189 52.096 316.827 53.0344 317.297 54.0596C317.55 54.7449 317.791 55.5392 318.018 56.4082C318.244 57.2708 318.455 58.2081 318.653 59.1838C319.582 63.9429 320.207 68.7567 320.523 73.5958Z" fill="#E6E6E6"/>
<path d="M27.1855 142.194L10.8854 140.502C11.0107 139.634 10.9145 138.748 10.6059 137.928C10.2973 137.107 9.78638 136.379 9.12079 135.81C8.45519 135.241 7.65666 134.851 6.7998 134.675C5.94293 134.5 5.05569 134.545 4.22092 134.806C3.38615 135.068 2.63109 135.537 2.02628 136.171C1.42146 136.804 0.986622 137.581 0.762367 138.428C0.538111 139.276 0.531764 140.166 0.743907 141.017C0.956051 141.868 1.37977 142.651 1.97548 143.293C1.37022 143.948 0.94391 144.749 0.737772 145.618C0.531634 146.487 0.552649 147.395 0.798786 148.253C1.04492 149.112 1.50785 149.892 2.14279 150.519C2.77774 151.145 3.56321 151.597 4.42324 151.83C5.28326 152.063 6.18874 152.07 7.05209 151.849C7.91544 151.629 8.70743 151.189 9.35148 150.572C9.99553 149.954 10.4698 149.181 10.7285 148.326C10.9872 147.472 11.0215 146.564 10.8281 145.692L27.1855 144.185V142.194Z" fill="#CCCCCC"/>
<path d="M43.7604 153.426C50.1683 155.006 56.6235 150.449 56.9576 143.842C56.9669 143.658 56.9715 143.474 56.9716 143.288C56.9716 143.103 56.9669 142.918 56.9576 142.735C56.6235 136.127 50.1683 131.57 43.7604 133.15L22.0219 138.51C21.3956 138.509 20.7754 138.632 20.1967 138.872C19.6179 139.112 19.092 139.464 18.649 139.908C18.2059 140.352 17.8545 140.879 17.6147 141.459C17.3749 142.039 17.2515 142.66 17.2515 143.288C17.2515 143.916 17.3749 144.538 17.6147 145.118C17.8545 145.698 18.2059 146.225 18.649 146.669C19.092 147.113 19.6179 147.464 20.1967 147.704C20.7754 147.944 21.3956 148.067 22.0219 148.067L43.7604 153.426Z" fill="black"/>
</svg>
