<svg width="202" height="320" viewBox="0 0 202 320" fill="none" xmlns="http://www.w3.org/2000/svg">
<path d="M115.288 83.2642C115.288 82.8984 115.36 82.5361 115.501 82.1982C115.641 81.8602 115.847 81.5531 116.107 81.2944C116.367 81.0357 116.676 80.8306 117.015 80.6907C117.355 80.5508 117.719 80.4788 118.086 80.479H129.125C129.493 80.4783 129.857 80.5499 130.197 80.6896C130.537 80.8293 130.846 81.0344 131.106 81.2931C131.367 81.5518 131.573 81.859 131.714 82.1973C131.855 82.5355 131.928 82.898 131.928 83.2642V84.0259H157.32V45.5823H88.7051V84.0259H115.288V83.2642Z" fill="#3F3D56"/>
<path d="M179.398 45.5823H160.884V84.0259H176.604L179.398 45.5823Z" fill="#3F3D56"/>
<path d="M157.319 0V42.031H135.011C123.436 42.0293 112.282 37.7138 103.745 29.9344C95.2081 22.1551 89.9069 11.4758 88.8857 0H157.319Z" fill="#3F3D56"/>
<path d="M182.154 7.71125L179.654 42.031H160.882V0H174.954C175.947 0.000505988 176.928 0.204565 177.838 0.599445C178.747 0.994325 179.565 1.57155 180.241 2.29511C180.916 3.01867 181.435 3.87303 181.764 4.80489C182.093 5.73675 182.226 6.72612 182.154 7.71125Z" fill="#3F3D56"/>
<path d="M175.739 95.8564L172.746 151.895L172.723 152.3L171.759 170.368C171.608 174.481 169.861 178.374 166.885 181.231C163.91 184.087 159.937 185.683 155.803 185.683H90.8149C88.151 185.686 85.529 185.023 83.19 183.754C83.1493 183.731 83.1085 183.709 83.0723 183.691C82.6874 183.479 82.3162 183.249 81.9539 183.01C81.8634 182.947 81.7728 182.889 81.6823 182.825C79.652 181.418 77.9785 179.56 76.7942 177.398C75.6099 175.236 74.9473 172.829 74.8589 170.368L70.8789 95.8564H175.739Z" fill="#3F3D56"/>
<path d="M64.9557 14.3773L66.9676 42.0308H85.1377V0H78.3266C78.2663 0 78.2059 0.00027022 78.1455 0.00080804C76.3136 0.0285174 74.5068 0.428947 72.8361 1.17747C71.1655 1.926 69.6664 3.00679 68.431 4.35338C67.1955 5.69998 66.2499 7.2839 65.6523 9.00774C65.0546 10.7316 64.8176 12.5589 64.9557 14.3773Z" fill="#3F3D56"/>
<path d="M70.0197 84.0259H85.1381V45.5823H67.2261L70.0197 84.0259Z" fill="#3F3D56"/>
<path d="M157.211 4.0564H157.319V41.0127H157.211C152.287 41.0127 147.565 39.0659 144.084 35.6006C140.602 32.1353 138.646 27.4353 138.646 22.5346C138.646 17.6338 140.602 12.9338 144.084 9.46852C147.565 6.0032 152.287 4.0564 157.211 4.0564Z" fill="black"/>
<path d="M175.774 22.5341C175.773 26.8005 174.289 30.9353 171.575 34.2373C168.861 37.5394 165.083 39.8056 160.882 40.6517V4.4165C165.083 5.26261 168.861 7.5288 171.575 10.8309C174.289 14.1329 175.773 18.2677 175.774 22.5341Z" fill="black"/>
<path opacity="0.3" d="M83.8154 98.9722C86.3843 99.0923 91.6973 100.362 97.4546 102.004C103.209 103.647 109.45 105.652 115.611 107.635C126.397 111.103 137.183 114.57 147.968 118.036C149.451 118.512 150.938 118.992 152.428 119.477C152.999 120.22 153.567 120.97 154.124 121.728C152.814 121.267 151.498 120.821 150.186 120.396C144.582 118.583 139.718 117.388 134.279 115.738C125.908 113.202 117.076 109.871 108.511 106.77C99.9472 103.666 90.1211 100.324 83.8154 98.9722Z" fill="#F0F0F0"/>
<path d="M121.48 22.7253C122.196 22.7253 122.776 22.1476 122.776 21.4348C122.776 20.7221 122.196 20.1443 121.48 20.1443C120.764 20.1443 120.183 20.7221 120.183 21.4348C120.183 22.1476 120.764 22.7253 121.48 22.7253Z" fill="white"/>
<path d="M167.663 57.8789C168.379 57.8789 168.959 57.3011 168.959 56.5884C168.959 55.8756 168.379 55.2979 167.663 55.2979C166.947 55.2979 166.366 55.8756 166.366 56.5884C166.366 57.3011 166.947 57.8789 167.663 57.8789Z" fill="white"/>
<path d="M127.819 176.883C128.297 176.883 128.685 176.497 128.685 176.021C128.685 175.544 128.297 175.158 127.819 175.158C127.34 175.158 126.952 175.544 126.952 176.021C126.952 176.497 127.34 176.883 127.819 176.883Z" fill="white"/>
<path d="M157.25 111.984C157.728 111.984 158.117 111.598 158.117 111.121C158.117 110.645 157.728 110.258 157.25 110.258C156.771 110.258 156.383 110.645 156.383 111.121C156.383 111.598 156.771 111.984 157.25 111.984Z" fill="white"/>
<path d="M107.443 62.8595C107.922 62.8595 108.31 62.4732 108.31 61.9966C108.31 61.5201 107.922 61.1338 107.443 61.1338C106.964 61.1338 106.576 61.5201 106.576 61.9966C106.576 62.4732 106.964 62.8595 107.443 62.8595Z" fill="white"/>
<path d="M94.7653 133.617C95.244 133.617 95.6321 133.231 95.6321 132.754C95.6321 132.278 95.244 131.892 94.7653 131.892C94.2865 131.892 93.8984 132.278 93.8984 132.754C93.8984 133.231 94.2865 133.617 94.7653 133.617Z" fill="white"/>
<path d="M135.582 143.123C135.278 142.925 134.964 142.726 134.642 142.536C133.14 141.65 131.471 140.96 129.839 141.433C128.129 141.928 127.037 143.548 126.116 145.065C121.129 153.276 116.804 161.868 113.182 170.76C118.925 165.992 120.408 157.693 125.527 152.265C126.393 151.348 127.495 150.469 128.757 150.525C129.775 150.57 130.649 151.208 131.547 151.686C133.911 152.946 136.679 153.155 139.355 153.338C143.058 153.593 146.761 153.847 150.465 154.101L150.47 154.043C147.846 151.886 145.16 149.812 142.411 147.82C140.172 146.197 137.896 144.631 135.582 143.123Z" fill="#F2F2F2"/>
<path d="M161.263 163.379C157.418 158.288 153.029 153.63 148.173 149.484C147.783 149.15 147.389 148.821 146.991 148.492C146.14 147.794 145.278 147.11 144.406 146.442C142.558 145.036 140.663 143.705 138.719 142.449C137.551 141.696 136.366 140.97 135.164 140.272C134.861 140.096 134.558 139.92 134.25 139.749C133.485 139.321 132.719 138.893 131.936 138.496C131.187 138.059 130.348 137.8 129.482 137.739C126.507 137.694 124.963 141.047 123.904 143.305C123.573 144.017 123.237 144.726 122.894 145.432C121.608 148.114 120.271 150.77 118.882 153.4C118.027 155.027 117.153 156.644 116.261 158.25C114.993 160.526 113.69 162.779 112.353 165.01C110.75 167.687 109.098 170.333 107.395 172.947C104.466 177.44 101.554 181.559 98.4302 185.683H98.9011C102.383 181.018 105.69 176.238 108.822 171.342C111.538 167.097 114.122 162.772 116.573 158.367C117.737 156.271 118.87 154.159 119.974 152.03C120.825 150.376 121.659 148.716 122.477 147.05C122.713 146.572 122.939 146.095 123.166 145.612C123.7 144.481 124.221 143.345 124.782 142.232C125.42 140.966 126.195 139.632 127.372 138.78C127.905 138.376 128.543 138.131 129.21 138.072C130.152 138.08 131.074 138.343 131.877 138.834C132.941 139.388 133.995 139.965 135.038 140.565C138.211 142.404 141.263 144.444 144.175 146.672C145.741 147.87 147.264 149.117 148.743 150.412C153.891 154.91 158.49 159.992 162.449 165.555C162.571 165.727 162.856 165.564 162.734 165.389C162.254 164.713 161.764 164.043 161.263 163.379Z" fill="#F2F2F2"/>
<path d="M170.269 149.975C168.576 148.722 166.822 147.556 165.008 146.478C164.102 145.937 163.188 145.423 162.255 144.927C161.974 144.779 161.689 144.634 161.404 144.495C160.752 144.165 160.073 143.891 159.375 143.674C158.389 143.356 157.345 143.253 156.315 143.372C155.319 143.516 154.361 143.847 153.489 144.346C151.637 145.378 150.202 146.969 148.808 148.524C148.779 148.555 148.763 148.597 148.764 148.64C148.765 148.682 148.782 148.723 148.812 148.754C148.826 148.771 148.843 148.784 148.862 148.794C148.882 148.803 148.903 148.808 148.925 148.808C148.947 148.808 148.968 148.803 148.988 148.794C149.008 148.784 149.025 148.771 149.038 148.754C149.215 148.564 149.383 148.371 149.559 148.181C150.931 146.667 152.403 145.175 154.291 144.31C155.189 143.882 156.17 143.656 157.166 143.647C158.192 143.674 159.205 143.892 160.15 144.292C160.598 144.472 161.037 144.675 161.472 144.891C161.965 145.139 162.454 145.405 162.934 145.671C163.844 146.171 164.741 146.692 165.624 147.235C167.385 148.316 169.089 149.482 170.736 150.732C171.41 151.241 172.071 151.76 172.723 152.301L172.746 151.895C171.936 151.232 171.11 150.592 170.269 149.975Z" fill="#F2F2F2"/>
<path d="M90.2845 172.478C92.2133 170.071 94.1588 167.677 96.1208 165.294C96.5917 164.717 97.0672 164.136 97.5471 163.563C97.9322 163.086 98.353 162.639 98.8058 162.225C99.2485 161.81 99.7705 161.488 100.341 161.278C100.979 161.08 101.662 161.071 102.306 161.251C103.042 161.464 103.768 161.714 104.479 161.999L106.684 162.802L111.117 164.415C111.145 164.428 111.176 164.431 111.206 164.424C111.235 164.416 111.262 164.399 111.28 164.375C111.297 164.353 111.309 164.327 111.314 164.3C111.32 164.273 111.319 164.245 111.311 164.218C111.304 164.191 111.29 164.166 111.271 164.146C111.252 164.125 111.229 164.11 111.203 164.1L110.089 163.69L105.625 162.067C104.882 161.797 104.144 161.522 103.402 161.256C102.721 160.971 101.994 160.812 101.255 160.787C99.9966 160.81 98.9462 161.576 98.104 162.441C97.6467 162.914 97.2301 163.424 96.8136 163.933C96.3201 164.532 95.822 165.136 95.3285 165.74C93.3453 168.156 91.3757 170.585 89.4197 173.028C87.4637 175.47 85.5197 177.921 83.5879 180.378C82.9494 181.194 82.314 182.01 81.6816 182.826C81.7722 182.889 81.8628 182.947 81.9533 183.01C82.8045 181.911 83.6618 180.814 84.5251 179.72C86.4313 177.296 88.3511 174.882 90.2845 172.478Z" fill="#F2F2F2"/>
<path d="M154.873 146.211C153.227 147.053 151.979 148.511 150.382 149.442C154.226 148.31 158.133 147.402 162.084 146.724C161.036 146.009 159.815 145.585 158.548 145.495C157.281 145.405 156.012 145.652 154.873 146.211Z" fill="#F2F2F2"/>
<path d="M162.084 146.724C162.241 146.833 162.393 146.948 162.54 147.071L162.106 146.72L162.084 146.724Z" fill="#F2F2F2"/>
<path d="M100.533 163.133C99.9003 163.412 99.3592 163.861 98.9711 164.431C93.5553 170.993 88.1395 177.554 82.7236 184.116C90.2337 178.452 96.5015 171.32 101.142 163.157L100.533 163.133Z" fill="#F2F2F2"/>
<path d="M45.2148 178.746C45.2168 178.757 45.2188 178.765 45.2208 178.777C45.2346 178.858 45.2484 178.931 45.2642 179.012V179.016C45.9368 182.715 46.676 186.352 47.4815 189.927L199.624 189.603C200.441 185.954 201.191 182.239 201.873 178.456C201.876 178.447 201.877 178.438 201.877 178.429L45.2148 178.746Z" fill="#E6E6E6"/>
<path d="M52.976 138.128L63.5624 137.811C66.4218 144.071 62.9218 157.611 62.9218 157.611L58.9856 185.466C59.6092 185.998 60.0809 186.684 60.3532 187.456C60.6255 188.227 60.6889 189.056 60.5369 189.86C60.3849 190.663 60.023 191.413 59.4875 192.033C58.952 192.653 58.2618 193.121 57.4865 193.392C56.7112 193.662 55.8781 193.724 55.071 193.572C54.264 193.419 53.5114 193.058 52.8892 192.524C52.2669 191.991 51.7969 191.303 51.5264 190.531C51.256 189.759 51.1946 188.93 51.3485 188.127L48.7114 157.574L52.976 138.128Z" fill="#FFB8B8"/>
<path d="M52.5176 140.54L54.7375 125.32L60.6276 119.685C61.7879 118.583 63.2349 117.826 64.8048 117.5C66.3748 117.173 68.0052 117.29 69.5118 117.837C71.5491 118.593 73.2222 120.091 74.1926 122.027C75.163 123.964 75.3585 126.195 74.7394 128.27C72.8568 134.56 69.6661 142.295 65.1575 143.424L65.1118 143.435L52.5176 140.54Z" fill="black"/>
<path d="M97.2822 312.75H103.058L105.806 290.574L97.2812 290.575L97.2822 312.75Z" fill="#FFB6B6"/>
<path d="M95.8115 310.872V318.322H114.434V318.087C114.434 316.174 113.67 314.338 112.311 312.985C110.951 311.632 109.108 310.872 107.185 310.872L103.78 308.303L103.604 308.375L97.437 310.872H95.8115Z" fill="#2F2E41"/>
<path d="M57.8906 312.75H63.6667L66.4142 290.574L57.8896 290.575L57.8906 312.75Z" fill="#FFB6B6"/>
<path d="M56.4194 310.872V318.322H75.0423V318.087C75.042 316.174 74.2782 314.338 72.9188 312.985C71.5594 311.632 69.7158 310.872 67.7933 310.872L64.3884 308.303L64.2118 308.375L58.0449 310.872H56.4194Z" fill="#2F2E41"/>
<path d="M101.15 176.568L61.3021 174.246C61.3021 174.246 53.07 189.739 55.7867 201.006C58.5034 212.273 59.4471 234.771 57.8433 236.592C56.2395 238.413 55.7867 235.258 57.5979 238.864C59.4294 242.51 58.9562 237.963 58.9562 241.117C58.8788 243.192 58.2595 245.211 57.1593 246.975V301.475L71.1522 300.579C71.1522 300.579 74.9319 298.741 71.6983 295.618C68.4646 292.496 66.3943 294.951 68.335 291.019C70.2757 287.087 71.1813 291.594 70.2757 287.087C69.3702 282.58 80.7605 214.921 80.7605 214.921C80.7605 214.921 85.1292 228.905 87.0286 241.568C90.299 263.371 92.0408 289.233 93.3444 290.584C95.4051 292.721 96.7634 290.017 95.4051 292.721C94.0467 295.425 91.0056 294.847 92.979 296.488C94.9523 298.129 94.9523 295.876 94.9523 298.129C94.9678 299.565 95.1725 300.993 95.5613 302.376L107.115 301.604L106.498 242.92L101.15 176.568Z" fill="#2F2E41"/>
<path d="M89.8147 106.991L77.0373 105.478L73.7655 112.313C73.7655 112.313 55.8405 121.944 56.4929 124.294C57.1454 126.643 62.1259 136.558 60.7676 139.262C59.4092 141.966 55.8726 142.866 58.5465 145.345C61.2204 147.825 63.0315 148.727 62.1259 150.98C61.2204 153.233 61.6732 161.346 61.6732 161.346C61.6732 161.346 56.4155 170.953 58.1387 172.91C59.862 174.866 61.2204 172.947 59.862 175.709C58.5037 178.472 48.0541 181.636 58.0331 181.856C68.0121 182.077 70.276 175.768 77.9733 180.725C85.6706 185.683 100.901 181.045 100.901 181.045C100.901 181.045 101.786 175.768 101.425 172.613C101.065 169.458 100.223 171.025 100.87 165.735C101.518 160.444 102.578 147.906 102.578 147.906C102.578 147.906 108.46 121.946 106.951 119.432C105.443 116.918 92.1735 113.591 92.1735 113.591L89.8147 106.991Z" fill="black"/>
<path d="M98.5811 145.086L107.731 139.777C113.246 143.918 116.666 157.478 116.666 157.478L126.57 183.823C127.373 183.994 128.117 184.373 128.726 184.922C129.335 185.47 129.789 186.168 130.041 186.947C130.292 187.725 130.334 188.555 130.161 189.355C129.988 190.154 129.606 190.894 129.055 191.5C128.503 192.105 127.801 192.556 127.019 192.806C126.236 193.056 125.402 193.096 124.599 192.923C123.796 192.749 123.054 192.369 122.446 191.819C121.838 191.269 121.386 190.57 121.136 189.791L104.163 164.199L98.5811 145.086Z" fill="#FFB8B8"/>
<path d="M99.336 147.424L93.9854 132.996L96.4574 125.245C96.9482 123.725 97.8564 122.372 99.0792 121.339C100.302 120.306 101.791 119.634 103.377 119.399C107.844 118.768 108.238 120.327 109.174 124.72C110.538 131.141 111.097 134.49 111.825 143.949L111.79 143.981L99.336 147.424Z" fill="black"/>
<path d="M84.698 102.995C91.3576 102.995 96.7564 97.6216 96.7564 90.9928C96.7564 84.364 91.3576 78.9902 84.698 78.9902C78.0384 78.9902 72.6396 84.364 72.6396 90.9928C72.6396 97.6216 78.0384 102.995 84.698 102.995Z" fill="#FFB8B8"/>
<path d="M82.0649 102.657C85.4509 101.938 85.5991 100.987 88.9851 100.268C90.0632 100.04 91.3164 99.6633 91.6704 98.6241C91.9226 97.884 91.5981 97.0666 91.1441 96.429C90.6358 95.8338 90.162 95.2104 89.7249 94.5616C89.4385 94.0428 89.2834 93.4624 89.273 92.8705C89.2625 92.2786 89.397 91.6931 89.6648 91.1646C89.9327 90.636 90.3258 90.1804 90.8102 89.837C91.2946 89.4935 91.8557 89.2727 92.4451 89.1935C93.4896 89.0532 94.5504 89.3647 95.6 89.269C97.0395 89.1378 99.3353 83.9198 98.4561 82.7778C97.6002 81.6661 96.1553 80.97 95.7087 79.6418C95.4167 78.7731 95.6271 77.8207 95.5155 76.9115C95.3502 75.5633 92.4927 79.1794 92.902 77.8837C93.9059 74.7054 78.8663 73.6699 77.1525 77.7325C76.5119 79.2508 74.9172 79.4395 73.6577 80.5074C72.8323 81.2074 70.8371 83.47 70.5152 84.7158C70.2405 85.9774 70.2384 87.2828 70.509 88.5453C71.5512 94.4556 73.4334 99.7273 78.8483 102.365" fill="#2F2E41"/>
<path d="M27.4804 316.44C24.2106 316.727 20.9178 316.283 17.8424 315.141C14.767 313.999 11.9867 312.188 9.70451 309.84C6.72044 306.708 4.67265 302.677 2.69224 298.779C2.11576 297.645 1.51987 296.472 0.91363 295.348C0.23775 294.122 -0.0539442 292.723 0.0761201 291.331C0.206184 289.938 0.752056 288.617 1.6434 287.536C2.49759 286.456 3.6572 285.655 4.97284 285.237C6.28848 284.818 7.69985 284.802 9.02509 285.189L9.31407 285.272L11.9149 295.374C12.3029 293.867 13.1358 290.472 13.6617 287.146L13.7059 286.867L13.9649 286.982C16.6805 288.178 19.2341 289.71 21.5653 291.541C25.6951 294.838 29.0539 298.991 31.4085 303.711C33.763 308.431 35.0566 313.604 35.1996 318.872L35.2065 319.186L27.4804 316.44Z" fill="#F2F2F2"/>
<path d="M201.461 319.862L0.539115 320C0.396131 320 0.259014 319.944 0.15791 319.843C0.0568051 319.742 0 319.606 0 319.463C0 319.321 0.0568051 319.185 0.15791 319.084C0.259014 318.983 0.396131 318.927 0.539115 318.927L201.461 318.788C201.604 318.788 201.741 318.845 201.842 318.945C201.943 319.046 202 319.183 202 319.325C202 319.467 201.943 319.604 201.842 319.704C201.741 319.805 201.604 319.862 201.461 319.862Z" fill="#CACACA"/>
</svg>
