<svg width="363" height="480" viewBox="0 0 363 480" fill="none" xmlns="http://www.w3.org/2000/svg">
<path d="M71.024 455.016L68 443.8H69.824L72.048 453.08L74.608 443.8H76.48L78.96 453.08L81.184 443.8H83.008L79.936 455H77.952L75.504 446.216L72.976 455L71.024 455.016Z" fill="#979797"/>
<path d="M87.384 455.192C86.6053 455.192 85.912 455.021 85.304 454.68C84.7067 454.328 84.2373 453.843 83.896 453.224C83.5547 452.605 83.384 451.885 83.384 451.064C83.384 450.232 83.5493 449.501 83.88 448.872C84.2213 448.243 84.6907 447.752 85.288 447.4C85.896 447.048 86.6 446.872 87.4 446.872C88.1787 446.872 88.856 447.048 89.432 447.4C90.008 447.741 90.456 448.2 90.776 448.776C91.096 449.352 91.256 449.987 91.256 450.68C91.256 450.787 91.2507 450.904 91.24 451.032C91.24 451.149 91.2347 451.283 91.224 451.432H85.048C85.1013 452.2 85.352 452.787 85.8 453.192C86.2587 453.587 86.7867 453.784 87.384 453.784C87.864 453.784 88.264 453.677 88.584 453.464C88.9147 453.24 89.16 452.941 89.32 452.568H91.016C90.8027 453.315 90.376 453.939 89.736 454.44C89.1067 454.941 88.3227 455.192 87.384 455.192ZM87.384 448.264C86.8187 448.264 86.3173 448.435 85.88 448.776C85.4427 449.107 85.176 449.608 85.08 450.28H89.56C89.528 449.661 89.3093 449.171 88.904 448.808C88.4987 448.445 87.992 448.264 87.384 448.264Z" fill="#979797"/>
<path d="M99.271 455L96.295 447.064H98.071L100.279 453.384L102.487 447.064H104.247L101.287 455H99.271Z" fill="#979797"/>
<path d="M108.946 455.192C108.168 455.192 107.474 455.021 106.866 454.68C106.269 454.328 105.8 453.843 105.458 453.224C105.117 452.605 104.946 451.885 104.946 451.064C104.946 450.232 105.112 449.501 105.442 448.872C105.784 448.243 106.253 447.752 106.85 447.4C107.458 447.048 108.162 446.872 108.962 446.872C109.741 446.872 110.418 447.048 110.994 447.4C111.57 447.741 112.019 448.2 112.339 448.776C112.659 449.352 112.818 449.987 112.818 450.68C112.818 450.787 112.813 450.904 112.802 451.032C112.802 451.149 112.797 451.283 112.786 451.432H106.611C106.664 452.2 106.914 452.787 107.362 453.192C107.821 453.587 108.349 453.784 108.946 453.784C109.426 453.784 109.826 453.677 110.146 453.464C110.477 453.24 110.722 452.941 110.882 452.568H112.578C112.365 453.315 111.938 453.939 111.299 454.44C110.669 454.941 109.885 455.192 108.946 455.192ZM108.946 448.264C108.381 448.264 107.88 448.435 107.442 448.776C107.005 449.107 106.738 449.608 106.642 450.28H111.122C111.09 449.661 110.872 449.171 110.466 448.808C110.061 448.445 109.554 448.264 108.946 448.264Z" fill="#979797"/>
<path d="M114.578 455V447.064H116.098L116.242 448.568C116.52 448.045 116.904 447.635 117.394 447.336C117.896 447.027 118.498 446.872 119.202 446.872V448.648H118.738C118.269 448.648 117.848 448.728 117.474 448.888C117.112 449.037 116.818 449.299 116.594 449.672C116.381 450.035 116.274 450.541 116.274 451.192V455H114.578Z" fill="#979797"/>
<path d="M121.616 445.56C121.296 445.56 121.03 445.464 120.816 445.272C120.614 445.069 120.512 444.819 120.512 444.52C120.512 444.221 120.614 443.976 120.816 443.784C121.03 443.581 121.296 443.48 121.616 443.48C121.936 443.48 122.198 443.581 122.4 443.784C122.614 443.976 122.72 444.221 122.72 444.52C122.72 444.819 122.614 445.069 122.4 445.272C122.198 445.464 121.936 445.56 121.616 445.56ZM120.768 455V447.064H122.464V455H120.768Z" fill="#979797"/>
<path d="M125.103 455V448.488H123.967V447.064H125.103V445.912C125.103 445.048 125.317 444.429 125.743 444.056C126.181 443.672 126.794 443.48 127.583 443.48H128.415V444.92H127.839C127.466 444.92 127.199 445 127.039 445.16C126.879 445.309 126.799 445.565 126.799 445.928V447.064H128.623V448.488H126.799V455H125.103Z" fill="#979797"/>
<path d="M131.162 458.52L133.066 454.344H132.603L129.466 447.064H131.306L133.739 452.936L136.283 447.064H138.075L132.954 458.52H131.162Z" fill="#979797"/>
<path d="M144.46 445.56C144.14 445.56 143.873 445.464 143.66 445.272C143.457 445.069 143.356 444.819 143.356 444.52C143.356 444.221 143.457 443.976 143.66 443.784C143.873 443.581 144.14 443.48 144.46 443.48C144.78 443.48 145.041 443.581 145.244 443.784C145.457 443.976 145.564 444.221 145.564 444.52C145.564 444.819 145.457 445.069 145.244 445.272C145.041 445.464 144.78 445.56 144.46 445.56ZM143.612 455V447.064H145.308V455H143.612Z" fill="#979797"/>
<path d="M151.163 455.192C150.395 455.192 149.718 455.011 149.131 454.648C148.544 454.285 148.086 453.789 147.755 453.16C147.424 452.531 147.259 451.816 147.259 451.016C147.259 450.216 147.424 449.507 147.755 448.888C148.086 448.259 148.544 447.768 149.131 447.416C149.728 447.053 150.411 446.872 151.179 446.872C151.808 446.872 152.358 446.995 152.827 447.24C153.307 447.485 153.68 447.832 153.947 448.28V443.48H155.643V455H154.123L153.947 453.768C153.691 454.141 153.339 454.472 152.891 454.76C152.443 455.048 151.867 455.192 151.163 455.192ZM151.467 453.72C152.192 453.72 152.784 453.469 153.243 452.968C153.712 452.467 153.947 451.821 153.947 451.032C153.947 450.232 153.712 449.587 153.243 449.096C152.784 448.595 152.192 448.344 151.467 448.344C150.742 448.344 150.144 448.595 149.675 449.096C149.206 449.587 148.971 450.232 148.971 451.032C148.971 451.555 149.078 452.019 149.291 452.424C149.504 452.829 149.798 453.149 150.171 453.384C150.555 453.608 150.987 453.72 151.467 453.72Z" fill="#979797"/>
<path d="M161.493 455.192C160.715 455.192 160.021 455.021 159.413 454.68C158.816 454.328 158.347 453.843 158.005 453.224C157.664 452.605 157.493 451.885 157.493 451.064C157.493 450.232 157.659 449.501 157.989 448.872C158.331 448.243 158.8 447.752 159.397 447.4C160.005 447.048 160.709 446.872 161.509 446.872C162.288 446.872 162.965 447.048 163.541 447.4C164.117 447.741 164.565 448.2 164.885 448.776C165.205 449.352 165.365 449.987 165.365 450.68C165.365 450.787 165.36 450.904 165.349 451.032C165.349 451.149 165.344 451.283 165.333 451.432H159.157C159.211 452.2 159.461 452.787 159.909 453.192C160.368 453.587 160.896 453.784 161.493 453.784C161.973 453.784 162.373 453.677 162.693 453.464C163.024 453.24 163.269 452.941 163.429 452.568H165.125C164.912 453.315 164.485 453.939 163.845 454.44C163.216 454.941 162.432 455.192 161.493 455.192ZM161.493 448.264C160.928 448.264 160.427 448.435 159.989 448.776C159.552 449.107 159.285 449.608 159.189 450.28H163.669C163.637 449.661 163.419 449.171 163.013 448.808C162.608 448.445 162.101 448.264 161.493 448.264Z" fill="#979797"/>
<path d="M167.125 455V447.064H168.629L168.757 448.456C169.002 447.965 169.36 447.581 169.829 447.304C170.309 447.016 170.858 446.872 171.477 446.872C172.437 446.872 173.189 447.171 173.733 447.768C174.288 448.365 174.565 449.256 174.565 450.44V455H172.885V450.616C172.885 449.08 172.256 448.312 170.997 448.312C170.368 448.312 169.845 448.536 169.429 448.984C169.024 449.432 168.821 450.072 168.821 450.904V455H167.125Z" fill="#979797"/>
<path d="M179.891 455C179.112 455 178.493 454.813 178.035 454.44C177.576 454.056 177.347 453.379 177.347 452.408V448.488H175.987V447.064H177.347L177.555 445.048H179.043V447.064H181.283V448.488H179.043V452.408C179.043 452.845 179.133 453.149 179.315 453.32C179.507 453.48 179.832 453.56 180.291 453.56H181.203V455H179.891Z" fill="#979797"/>
<path d="M183.991 445.56C183.671 445.56 183.405 445.464 183.191 445.272C182.989 445.069 182.887 444.819 182.887 444.52C182.887 444.221 182.989 443.976 183.191 443.784C183.405 443.581 183.671 443.48 183.991 443.48C184.311 443.48 184.573 443.581 184.775 443.784C184.989 443.976 185.095 444.221 185.095 444.52C185.095 444.819 184.989 445.069 184.775 445.272C184.573 445.464 184.311 445.56 183.991 445.56ZM183.143 455V447.064H184.839V455H183.143Z" fill="#979797"/>
<path d="M190.406 455C189.628 455 189.009 454.813 188.55 454.44C188.092 454.056 187.862 453.379 187.862 452.408V448.488H186.502V447.064H187.862L188.07 445.048H189.558V447.064H191.798V448.488H189.558V452.408C189.558 452.845 189.649 453.149 189.83 453.32C190.022 453.48 190.348 453.56 190.806 453.56H191.718V455H190.406Z" fill="#979797"/>
<path d="M194.475 458.52L196.379 454.344H195.915L192.779 447.064H194.619L197.051 452.936L199.595 447.064H201.387L196.267 458.52H194.475Z" fill="#979797"/>
<path d="M209.501 455.192C208.829 455.192 208.274 455.08 207.837 454.856C207.399 454.632 207.074 454.339 206.861 453.976C206.647 453.603 206.541 453.197 206.541 452.76C206.541 451.992 206.839 451.384 207.437 450.936C208.034 450.488 208.887 450.264 209.997 450.264H212.077V450.12C212.077 449.501 211.906 449.037 211.565 448.728C211.234 448.419 210.802 448.264 210.269 448.264C209.799 448.264 209.389 448.381 209.037 448.616C208.695 448.84 208.487 449.176 208.413 449.624H206.717C206.77 449.048 206.962 448.557 207.293 448.152C207.634 447.736 208.061 447.421 208.573 447.208C209.095 446.984 209.666 446.872 210.285 446.872C211.394 446.872 212.253 447.165 212.861 447.752C213.469 448.328 213.773 449.117 213.773 450.12V455H212.301L212.157 453.64C211.933 454.077 211.607 454.445 211.181 454.744C210.754 455.043 210.194 455.192 209.501 455.192ZM209.837 453.816C210.295 453.816 210.679 453.709 210.989 453.496C211.309 453.272 211.554 452.979 211.725 452.616C211.906 452.253 212.018 451.853 212.061 451.416H210.173C209.501 451.416 209.021 451.533 208.733 451.768C208.455 452.003 208.317 452.296 208.317 452.648C208.317 453.011 208.45 453.299 208.717 453.512C208.994 453.715 209.367 453.816 209.837 453.816Z" fill="#979797"/>
<path d="M215.75 455V447.064H217.254L217.382 448.456C217.627 447.965 217.985 447.581 218.454 447.304C218.934 447.016 219.483 446.872 220.102 446.872C221.062 446.872 221.814 447.171 222.358 447.768C222.913 448.365 223.19 449.256 223.19 450.44V455H221.51V450.616C221.51 449.08 220.881 448.312 219.622 448.312C218.993 448.312 218.47 448.536 218.054 448.984C217.649 449.432 217.446 450.072 217.446 450.904V455H215.75Z" fill="#979797"/>
<path d="M228.804 455.192C228.036 455.192 227.358 455.011 226.772 454.648C226.185 454.285 225.726 453.789 225.396 453.16C225.065 452.531 224.9 451.816 224.9 451.016C224.9 450.216 225.065 449.507 225.396 448.888C225.726 448.259 226.185 447.768 226.772 447.416C227.369 447.053 228.052 446.872 228.82 446.872C229.449 446.872 229.998 446.995 230.468 447.24C230.948 447.485 231.321 447.832 231.588 448.28V443.48H233.284V455H231.764L231.588 453.768C231.332 454.141 230.98 454.472 230.532 454.76C230.084 455.048 229.508 455.192 228.804 455.192ZM229.108 453.72C229.833 453.72 230.425 453.469 230.884 452.968C231.353 452.467 231.588 451.821 231.588 451.032C231.588 450.232 231.353 449.587 230.884 449.096C230.425 448.595 229.833 448.344 229.108 448.344C228.382 448.344 227.785 448.595 227.316 449.096C226.846 449.587 226.612 450.232 226.612 451.032C226.612 451.555 226.718 452.019 226.932 452.424C227.145 452.829 227.438 453.149 227.812 453.384C228.196 453.608 228.628 453.72 229.108 453.72Z" fill="#979797"/>
<path d="M240.413 445.56C240.093 445.56 239.827 445.464 239.613 445.272C239.411 445.069 239.309 444.819 239.309 444.52C239.309 444.221 239.411 443.976 239.613 443.784C239.827 443.581 240.093 443.48 240.413 443.48C240.733 443.48 240.995 443.581 241.197 443.784C241.411 443.976 241.517 444.221 241.517 444.52C241.517 444.819 241.411 445.069 241.197 445.272C240.995 445.464 240.733 445.56 240.413 445.56ZM239.565 455V447.064H241.261V455H239.565Z" fill="#979797"/>
<path d="M243.5 455V447.064H245.004L245.132 448.456C245.377 447.965 245.735 447.581 246.204 447.304C246.684 447.016 247.233 446.872 247.852 446.872C248.812 446.872 249.564 447.171 250.108 447.768C250.663 448.365 250.94 449.256 250.94 450.44V455H249.26V450.616C249.26 449.08 248.631 448.312 247.372 448.312C246.743 448.312 246.22 448.536 245.804 448.984C245.399 449.432 245.196 450.072 245.196 450.904V455H243.5Z" fill="#979797"/>
<path d="M256.698 455.192C255.919 455.192 255.22 455.016 254.602 454.664C253.994 454.312 253.514 453.827 253.162 453.208C252.82 452.579 252.65 451.853 252.65 451.032C252.65 450.211 252.82 449.491 253.162 448.872C253.514 448.243 253.994 447.752 254.602 447.4C255.22 447.048 255.919 446.872 256.698 446.872C257.679 446.872 258.5 447.128 259.162 447.64C259.834 448.152 260.266 448.845 260.458 449.72H258.682C258.575 449.283 258.34 448.941 257.978 448.696C257.615 448.451 257.188 448.328 256.698 448.328C256.282 448.328 255.898 448.435 255.546 448.648C255.194 448.851 254.911 449.155 254.698 449.56C254.484 449.955 254.378 450.445 254.378 451.032C254.378 451.619 254.484 452.115 254.698 452.52C254.911 452.915 255.194 453.219 255.546 453.432C255.898 453.645 256.282 453.752 256.698 453.752C257.188 453.752 257.615 453.629 257.978 453.384C258.34 453.139 258.575 452.792 258.682 452.344H260.458C260.276 453.197 259.85 453.885 259.178 454.408C258.506 454.931 257.679 455.192 256.698 455.192Z" fill="#979797"/>
<path d="M266.009 455.192C265.252 455.192 264.569 455.021 263.961 454.68C263.364 454.328 262.889 453.843 262.537 453.224C262.185 452.595 262.009 451.864 262.009 451.032C262.009 450.2 262.185 449.475 262.537 448.856C262.9 448.227 263.385 447.741 263.993 447.4C264.601 447.048 265.278 446.872 266.025 446.872C266.782 446.872 267.46 447.048 268.057 447.4C268.665 447.741 269.145 448.227 269.497 448.856C269.86 449.475 270.041 450.2 270.041 451.032C270.041 451.864 269.86 452.595 269.497 453.224C269.145 453.843 268.665 454.328 268.057 454.68C267.449 455.021 266.766 455.192 266.009 455.192ZM266.009 453.736C266.414 453.736 266.788 453.635 267.129 453.432C267.481 453.229 267.764 452.931 267.977 452.536C268.19 452.131 268.297 451.629 268.297 451.032C268.297 450.435 268.19 449.939 267.977 449.544C267.774 449.139 267.497 448.835 267.145 448.632C266.804 448.429 266.43 448.328 266.025 448.328C265.62 448.328 265.241 448.429 264.889 448.632C264.548 448.835 264.27 449.139 264.057 449.544C263.844 449.939 263.737 450.435 263.737 451.032C263.737 451.629 263.844 452.131 264.057 452.536C264.27 452.931 264.548 453.229 264.889 453.432C265.23 453.635 265.604 453.736 266.009 453.736Z" fill="#979797"/>
<path d="M271.875 455V447.064H273.379L273.523 448.184C273.779 447.779 274.115 447.459 274.531 447.224C274.958 446.989 275.448 446.872 276.003 446.872C277.262 446.872 278.136 447.368 278.627 448.36C278.915 447.901 279.299 447.539 279.779 447.272C280.27 447.005 280.798 446.872 281.363 446.872C282.355 446.872 283.134 447.171 283.699 447.768C284.264 448.365 284.547 449.256 284.547 450.44V455H282.851V450.616C282.851 449.08 282.264 448.312 281.091 448.312C280.494 448.312 280.003 448.536 279.619 448.984C279.246 449.432 279.059 450.072 279.059 450.904V455H277.363V450.616C277.363 449.08 276.771 448.312 275.587 448.312C275 448.312 274.515 448.536 274.131 448.984C273.758 449.432 273.571 450.072 273.571 450.904V455H271.875Z" fill="#979797"/>
<path d="M290.243 455.192C289.465 455.192 288.771 455.021 288.163 454.68C287.566 454.328 287.097 453.843 286.755 453.224C286.414 452.605 286.243 451.885 286.243 451.064C286.243 450.232 286.409 449.501 286.739 448.872C287.081 448.243 287.55 447.752 288.147 447.4C288.755 447.048 289.459 446.872 290.259 446.872C291.038 446.872 291.715 447.048 292.291 447.4C292.867 447.741 293.315 448.2 293.635 448.776C293.955 449.352 294.115 449.987 294.115 450.68C294.115 450.787 294.11 450.904 294.099 451.032C294.099 451.149 294.094 451.283 294.083 451.432H287.907C287.961 452.2 288.211 452.787 288.659 453.192C289.118 453.587 289.646 453.784 290.243 453.784C290.723 453.784 291.123 453.677 291.443 453.464C291.774 453.24 292.019 452.941 292.179 452.568H293.875C293.662 453.315 293.235 453.939 292.595 454.44C291.966 454.941 291.182 455.192 290.243 455.192ZM290.243 448.264C289.678 448.264 289.177 448.435 288.739 448.776C288.302 449.107 288.035 449.608 287.939 450.28H292.419C292.387 449.661 292.169 449.171 291.763 448.808C291.358 448.445 290.851 448.264 290.243 448.264Z" fill="#979797"/>
<path d="M84.9766 476C84.1979 476 83.5792 475.813 83.1206 475.44C82.6619 475.056 82.4326 474.379 82.4326 473.408V469.488H81.0726V468.064H82.4326L82.6406 466.048H84.1286V468.064H86.3686V469.488H84.1286V473.408C84.1286 473.845 84.2192 474.149 84.4006 474.32C84.5926 474.48 84.9179 474.56 85.3766 474.56H86.2886V476H84.9766Z" fill="#979797"/>
<path d="M91.6262 476.192C90.8689 476.192 90.1862 476.021 89.5782 475.68C88.9809 475.328 88.5062 474.843 88.1542 474.224C87.8022 473.595 87.6262 472.864 87.6262 472.032C87.6262 471.2 87.8022 470.475 88.1542 469.856C88.5169 469.227 89.0022 468.741 89.6102 468.4C90.2182 468.048 90.8955 467.872 91.6422 467.872C92.3995 467.872 93.0769 468.048 93.6742 468.4C94.2822 468.741 94.7622 469.227 95.1142 469.856C95.4769 470.475 95.6582 471.2 95.6582 472.032C95.6582 472.864 95.4769 473.595 95.1142 474.224C94.7622 474.843 94.2822 475.328 93.6742 475.68C93.0662 476.021 92.3835 476.192 91.6262 476.192ZM91.6262 474.736C92.0315 474.736 92.4049 474.635 92.7462 474.432C93.0982 474.229 93.3809 473.931 93.5942 473.536C93.8075 473.131 93.9142 472.629 93.9142 472.032C93.9142 471.435 93.8075 470.939 93.5942 470.544C93.3915 470.139 93.1142 469.835 92.7622 469.632C92.4209 469.429 92.0475 469.328 91.6422 469.328C91.2369 469.328 90.8582 469.429 90.5062 469.632C90.1649 469.835 89.8875 470.139 89.6742 470.544C89.4609 470.939 89.3542 471.435 89.3542 472.032C89.3542 472.629 89.4609 473.131 89.6742 473.536C89.8875 473.931 90.1649 474.229 90.5062 474.432C90.8475 474.635 91.2209 474.736 91.6262 474.736Z" fill="#979797"/>
<path d="M105.236 476.192C104.457 476.192 103.764 476.021 103.156 475.68C102.558 475.328 102.089 474.843 101.748 474.224C101.406 473.605 101.236 472.885 101.236 472.064C101.236 471.232 101.401 470.501 101.732 469.872C102.073 469.243 102.542 468.752 103.14 468.4C103.748 468.048 104.452 467.872 105.252 467.872C106.03 467.872 106.708 468.048 107.284 468.4C107.86 468.741 108.308 469.2 108.628 469.776C108.948 470.352 109.108 470.987 109.108 471.68C109.108 471.787 109.102 471.904 109.092 472.032C109.092 472.149 109.086 472.283 109.076 472.432H102.9C102.953 473.2 103.204 473.787 103.652 474.192C104.11 474.587 104.638 474.784 105.236 474.784C105.716 474.784 106.116 474.677 106.436 474.464C106.766 474.24 107.012 473.941 107.172 473.568H108.868C108.654 474.315 108.228 474.939 107.588 475.44C106.958 475.941 106.174 476.192 105.236 476.192ZM105.236 469.264C104.67 469.264 104.169 469.435 103.732 469.776C103.294 470.107 103.028 470.608 102.932 471.28H107.412C107.38 470.661 107.161 470.171 106.756 469.808C106.35 469.445 105.844 469.264 105.236 469.264Z" fill="#979797"/>
<path d="M110.867 476V468.064H112.371L112.499 469.456C112.745 468.965 113.102 468.581 113.571 468.304C114.051 468.016 114.601 467.872 115.219 467.872C116.179 467.872 116.931 468.171 117.475 468.768C118.03 469.365 118.307 470.256 118.307 471.44V476H116.627V471.616C116.627 470.08 115.998 469.312 114.739 469.312C114.11 469.312 113.587 469.536 113.171 469.984C112.766 470.432 112.563 471.072 112.563 471.904V476H110.867Z" fill="#979797"/>
<path d="M123.473 476.192C122.47 476.192 121.643 475.947 120.993 475.456C120.342 474.965 119.969 474.315 119.873 473.504H121.585C121.67 473.867 121.873 474.181 122.193 474.448C122.513 474.704 122.934 474.832 123.457 474.832C123.969 474.832 124.342 474.725 124.577 474.512C124.811 474.299 124.929 474.053 124.929 473.776C124.929 473.371 124.763 473.099 124.433 472.96C124.113 472.811 123.665 472.677 123.089 472.56C122.641 472.464 122.193 472.336 121.745 472.176C121.307 472.016 120.939 471.792 120.641 471.504C120.353 471.205 120.209 470.805 120.209 470.304C120.209 469.611 120.475 469.035 121.009 468.576C121.542 468.107 122.289 467.872 123.249 467.872C124.134 467.872 124.849 468.085 125.393 468.512C125.947 468.939 126.273 469.541 126.369 470.32H124.737C124.683 469.979 124.523 469.712 124.257 469.52C124.001 469.328 123.654 469.232 123.217 469.232C122.79 469.232 122.459 469.323 122.225 469.504C121.99 469.675 121.873 469.899 121.873 470.176C121.873 470.453 122.033 470.672 122.353 470.832C122.683 470.992 123.115 471.136 123.649 471.264C124.182 471.381 124.673 471.52 125.121 471.68C125.579 471.829 125.947 472.053 126.225 472.352C126.502 472.651 126.641 473.088 126.641 473.664C126.651 474.389 126.369 474.992 125.793 475.472C125.227 475.952 124.454 476.192 123.473 476.192Z" fill="#979797"/>
<path d="M131.42 476.192C130.46 476.192 129.703 475.893 129.148 475.296C128.604 474.699 128.332 473.808 128.332 472.624V468.064H130.028V472.448C130.028 473.984 130.658 474.752 131.916 474.752C132.546 474.752 133.063 474.528 133.468 474.08C133.874 473.632 134.076 472.992 134.076 472.16V468.064H135.772V476H134.268L134.14 474.608C133.895 475.099 133.532 475.488 133.052 475.776C132.583 476.053 132.039 476.192 131.42 476.192Z" fill="#979797"/>
<path d="M137.93 476V468.064H139.45L139.594 469.568C139.871 469.045 140.255 468.635 140.746 468.336C141.247 468.027 141.85 467.872 142.554 467.872V469.648H142.09C141.62 469.648 141.199 469.728 140.826 469.888C140.463 470.037 140.17 470.299 139.946 470.672C139.732 471.035 139.626 471.541 139.626 472.192V476H137.93Z" fill="#979797"/>
<path d="M147.501 476.192C146.723 476.192 146.029 476.021 145.421 475.68C144.824 475.328 144.355 474.843 144.013 474.224C143.672 473.605 143.501 472.885 143.501 472.064C143.501 471.232 143.667 470.501 143.997 469.872C144.339 469.243 144.808 468.752 145.405 468.4C146.013 468.048 146.717 467.872 147.517 467.872C148.296 467.872 148.973 468.048 149.549 468.4C150.125 468.741 150.573 469.2 150.893 469.776C151.213 470.352 151.373 470.987 151.373 471.68C151.373 471.787 151.368 471.904 151.357 472.032C151.357 472.149 151.352 472.283 151.341 472.432H145.165C145.219 473.2 145.469 473.787 145.917 474.192C146.376 474.587 146.904 474.784 147.501 474.784C147.981 474.784 148.381 474.677 148.701 474.464C149.032 474.24 149.277 473.941 149.437 473.568H151.133C150.92 474.315 150.493 474.939 149.853 475.44C149.224 475.941 148.44 476.192 147.501 476.192ZM147.501 469.264C146.936 469.264 146.435 469.435 145.997 469.776C145.56 470.107 145.293 470.608 145.197 471.28H149.677C149.645 470.661 149.427 470.171 149.021 469.808C148.616 469.445 148.109 469.264 147.501 469.264Z" fill="#979797"/>
<path d="M163.564 479.52V474.768C163.308 475.141 162.956 475.472 162.508 475.76C162.06 476.048 161.484 476.192 160.78 476.192C160.012 476.192 159.335 476.011 158.748 475.648C158.162 475.285 157.703 474.789 157.372 474.16C157.042 473.531 156.876 472.816 156.876 472.016C156.876 471.216 157.042 470.507 157.372 469.888C157.703 469.259 158.162 468.768 158.748 468.416C159.346 468.053 160.028 467.872 160.796 467.872C161.426 467.872 161.975 467.995 162.444 468.24C162.924 468.485 163.298 468.832 163.564 469.28L163.74 468.064H165.26V479.52H163.564ZM161.084 474.72C161.81 474.72 162.402 474.469 162.86 473.968C163.33 473.467 163.564 472.821 163.564 472.032C163.564 471.232 163.33 470.587 162.86 470.096C162.402 469.595 161.81 469.344 161.084 469.344C160.359 469.344 159.762 469.595 159.292 470.096C158.823 470.587 158.588 471.232 158.588 472.032C158.588 472.555 158.695 473.019 158.908 473.424C159.122 473.829 159.415 474.149 159.788 474.384C160.172 474.608 160.604 474.72 161.084 474.72Z" fill="#979797"/>
<path d="M170.327 476.192C169.367 476.192 168.609 475.893 168.055 475.296C167.511 474.699 167.239 473.808 167.239 472.624V468.064H168.935V472.448C168.935 473.984 169.564 474.752 170.823 474.752C171.452 474.752 171.969 474.528 172.375 474.08C172.78 473.632 172.983 472.992 172.983 472.16V468.064H174.679V476H173.175L173.047 474.608C172.801 475.099 172.439 475.488 171.959 475.776C171.489 476.053 170.945 476.192 170.327 476.192Z" fill="#979797"/>
<path d="M179.524 476.192C178.852 476.192 178.297 476.08 177.86 475.856C177.423 475.632 177.097 475.339 176.884 474.976C176.671 474.603 176.564 474.197 176.564 473.76C176.564 472.992 176.863 472.384 177.46 471.936C178.057 471.488 178.911 471.264 180.02 471.264H182.1V471.12C182.1 470.501 181.929 470.037 181.588 469.728C181.257 469.419 180.825 469.264 180.292 469.264C179.823 469.264 179.412 469.381 179.06 469.616C178.719 469.84 178.511 470.176 178.436 470.624H176.74C176.793 470.048 176.985 469.557 177.316 469.152C177.657 468.736 178.084 468.421 178.596 468.208C179.119 467.984 179.689 467.872 180.308 467.872C181.417 467.872 182.276 468.165 182.884 468.752C183.492 469.328 183.796 470.117 183.796 471.12V476H182.324L182.18 474.64C181.956 475.077 181.631 475.445 181.204 475.744C180.777 476.043 180.217 476.192 179.524 476.192ZM179.86 474.816C180.319 474.816 180.703 474.709 181.012 474.496C181.332 474.272 181.577 473.979 181.748 473.616C181.929 473.253 182.041 472.853 182.084 472.416H180.196C179.524 472.416 179.044 472.533 178.756 472.768C178.479 473.003 178.34 473.296 178.34 473.648C178.34 474.011 178.473 474.299 178.74 474.512C179.017 474.715 179.391 474.816 179.86 474.816Z" fill="#979797"/>
<path d="M185.774 476V464.48H187.47V476H185.774Z" fill="#979797"/>
<path d="M190.577 466.56C190.257 466.56 189.991 466.464 189.777 466.272C189.575 466.069 189.473 465.819 189.473 465.52C189.473 465.221 189.575 464.976 189.777 464.784C189.991 464.581 190.257 464.48 190.577 464.48C190.897 464.48 191.159 464.581 191.361 464.784C191.575 464.976 191.681 465.221 191.681 465.52C191.681 465.819 191.575 466.069 191.361 466.272C191.159 466.464 190.897 466.56 190.577 466.56ZM189.729 476V468.064H191.425V476H189.729Z" fill="#979797"/>
<path d="M196.992 476C196.214 476 195.595 475.813 195.136 475.44C194.678 475.056 194.448 474.379 194.448 473.408V469.488H193.088V468.064H194.448L194.656 466.048H196.144V468.064H198.384V469.488H196.144V473.408C196.144 473.845 196.235 474.149 196.416 474.32C196.608 474.48 196.934 474.56 197.392 474.56H198.304V476H196.992Z" fill="#979797"/>
<path d="M201.061 479.52L202.965 475.344H202.501L199.365 468.064H201.205L203.637 473.936L206.181 468.064H207.973L202.853 479.52H201.061Z" fill="#979797"/>
<path d="M213.399 476V468.064H214.903L215.047 469.184C215.303 468.779 215.639 468.459 216.055 468.224C216.481 467.989 216.972 467.872 217.527 467.872C218.785 467.872 219.66 468.368 220.151 469.36C220.439 468.901 220.823 468.539 221.303 468.272C221.793 468.005 222.321 467.872 222.887 467.872C223.879 467.872 224.657 468.171 225.223 468.768C225.788 469.365 226.071 470.256 226.071 471.44V476H224.375V471.616C224.375 470.08 223.788 469.312 222.615 469.312C222.017 469.312 221.527 469.536 221.143 469.984C220.769 470.432 220.583 471.072 220.583 471.904V476H218.887V471.616C218.887 470.08 218.295 469.312 217.111 469.312C216.524 469.312 216.039 469.536 215.655 469.984C215.281 470.432 215.095 471.072 215.095 471.904V476H213.399Z" fill="#979797"/>
<path d="M230.743 476.192C230.071 476.192 229.516 476.08 229.079 475.856C228.641 475.632 228.316 475.339 228.103 474.976C227.889 474.603 227.783 474.197 227.783 473.76C227.783 472.992 228.081 472.384 228.679 471.936C229.276 471.488 230.129 471.264 231.239 471.264H233.319V471.12C233.319 470.501 233.148 470.037 232.807 469.728C232.476 469.419 232.044 469.264 231.511 469.264C231.041 469.264 230.631 469.381 230.279 469.616C229.937 469.84 229.729 470.176 229.655 470.624H227.959C228.012 470.048 228.204 469.557 228.535 469.152C228.876 468.736 229.303 468.421 229.815 468.208C230.337 467.984 230.908 467.872 231.527 467.872C232.636 467.872 233.495 468.165 234.103 468.752C234.711 469.328 235.015 470.117 235.015 471.12V476H233.543L233.399 474.64C233.175 475.077 232.849 475.445 232.423 475.744C231.996 476.043 231.436 476.192 230.743 476.192ZM231.079 474.816C231.537 474.816 231.921 474.709 232.231 474.496C232.551 474.272 232.796 473.979 232.967 473.616C233.148 473.253 233.26 472.853 233.303 472.416H231.415C230.743 472.416 230.263 472.533 229.975 472.768C229.697 473.003 229.559 473.296 229.559 473.648C229.559 474.011 229.692 474.299 229.959 474.512C230.236 474.715 230.609 474.816 231.079 474.816Z" fill="#979797"/>
<path d="M240.164 476C239.385 476 238.767 475.813 238.308 475.44C237.849 475.056 237.62 474.379 237.62 473.408V469.488H236.26V468.064H237.62L237.828 466.048H239.316V468.064H241.556V469.488H239.316V473.408C239.316 473.845 239.407 474.149 239.588 474.32C239.78 474.48 240.105 474.56 240.564 474.56H241.476V476H240.164Z" fill="#979797"/>
<path d="M246.862 476.192C246.083 476.192 245.384 476.016 244.766 475.664C244.158 475.312 243.678 474.827 243.326 474.208C242.984 473.579 242.814 472.853 242.814 472.032C242.814 471.211 242.984 470.491 243.326 469.872C243.678 469.243 244.158 468.752 244.766 468.4C245.384 468.048 246.083 467.872 246.862 467.872C247.843 467.872 248.664 468.128 249.326 468.64C249.998 469.152 250.43 469.845 250.622 470.72H248.846C248.739 470.283 248.504 469.941 248.142 469.696C247.779 469.451 247.352 469.328 246.862 469.328C246.446 469.328 246.062 469.435 245.71 469.648C245.358 469.851 245.075 470.155 244.862 470.56C244.648 470.955 244.542 471.445 244.542 472.032C244.542 472.619 244.648 473.115 244.862 473.52C245.075 473.915 245.358 474.219 245.71 474.432C246.062 474.645 246.446 474.752 246.862 474.752C247.352 474.752 247.779 474.629 248.142 474.384C248.504 474.139 248.739 473.792 248.846 473.344H250.622C250.44 474.197 250.014 474.885 249.342 475.408C248.67 475.931 247.843 476.192 246.862 476.192Z" fill="#979797"/>
<path d="M252.461 476V464.48H254.157V469.344C254.424 468.885 254.792 468.528 255.261 468.272C255.741 468.005 256.269 467.872 256.845 467.872C257.794 467.872 258.541 468.171 259.085 468.768C259.629 469.365 259.901 470.256 259.901 471.44V476H258.221V471.616C258.221 470.08 257.608 469.312 256.381 469.312C255.741 469.312 255.208 469.536 254.781 469.984C254.365 470.432 254.157 471.072 254.157 471.904V476H252.461Z" fill="#979797"/>
<path d="M265.611 476.192C264.832 476.192 264.139 476.021 263.531 475.68C262.933 475.328 262.464 474.843 262.123 474.224C261.781 473.605 261.611 472.885 261.611 472.064C261.611 471.232 261.776 470.501 262.107 469.872C262.448 469.243 262.917 468.752 263.515 468.4C264.123 468.048 264.827 467.872 265.627 467.872C266.405 467.872 267.083 468.048 267.659 468.4C268.235 468.741 268.683 469.2 269.003 469.776C269.323 470.352 269.483 470.987 269.483 471.68C269.483 471.787 269.477 471.904 269.467 472.032C269.467 472.149 269.461 472.283 269.451 472.432H263.275C263.328 473.2 263.579 473.787 264.027 474.192C264.485 474.587 265.013 474.784 265.611 474.784C266.091 474.784 266.491 474.677 266.811 474.464C267.141 474.24 267.387 473.941 267.547 473.568H269.243C269.029 474.315 268.603 474.939 267.963 475.44C267.333 475.941 266.549 476.192 265.611 476.192ZM265.611 469.264C265.045 469.264 264.544 469.435 264.107 469.776C263.669 470.107 263.403 470.608 263.307 471.28H267.787C267.755 470.661 267.536 470.171 267.131 469.808C266.725 469.445 266.219 469.264 265.611 469.264Z" fill="#979797"/>
<path d="M274.41 476.192C273.408 476.192 272.581 475.947 271.93 475.456C271.28 474.965 270.906 474.315 270.81 473.504H272.522C272.608 473.867 272.81 474.181 273.13 474.448C273.45 474.704 273.872 474.832 274.394 474.832C274.906 474.832 275.28 474.725 275.514 474.512C275.749 474.299 275.866 474.053 275.866 473.776C275.866 473.371 275.701 473.099 275.37 472.96C275.05 472.811 274.602 472.677 274.026 472.56C273.578 472.464 273.13 472.336 272.682 472.176C272.245 472.016 271.877 471.792 271.578 471.504C271.29 471.205 271.146 470.805 271.146 470.304C271.146 469.611 271.413 469.035 271.946 468.576C272.48 468.107 273.226 467.872 274.186 467.872C275.072 467.872 275.786 468.085 276.33 468.512C276.885 468.939 277.21 469.541 277.306 470.32H275.674C275.621 469.979 275.461 469.712 275.194 469.52C274.938 469.328 274.592 469.232 274.154 469.232C273.728 469.232 273.397 469.323 273.162 469.504C272.928 469.675 272.81 469.899 272.81 470.176C272.81 470.453 272.97 470.672 273.29 470.832C273.621 470.992 274.053 471.136 274.586 471.264C275.12 471.381 275.61 471.52 276.058 471.68C276.517 471.829 276.885 472.053 277.162 472.352C277.44 472.651 277.578 473.088 277.578 473.664C277.589 474.389 277.306 474.992 276.73 475.472C276.165 475.952 275.392 476.192 274.41 476.192Z" fill="#979797"/>
<path d="M280.102 476.096C279.782 476.096 279.515 475.995 279.302 475.792C279.099 475.579 278.998 475.328 278.998 475.04C278.998 474.741 279.099 474.491 279.302 474.288C279.515 474.075 279.782 473.968 280.102 473.968C280.422 473.968 280.683 474.075 280.886 474.288C281.088 474.491 281.19 474.741 281.19 475.04C281.19 475.328 281.088 475.579 280.886 475.792C280.683 475.995 280.422 476.096 280.102 476.096Z" fill="#979797"/>
<path d="M81.9186 394.424C81.8066 394.312 81.5986 394.16 81.2946 393.968C81.0066 393.776 80.6466 393.592 80.2146 393.416C79.7986 393.24 79.3426 393.088 78.8466 392.96C78.3506 392.816 77.8466 392.744 77.3346 392.744C76.4386 392.744 75.7586 392.912 75.2946 393.248C74.8466 393.584 74.6226 394.056 74.6226 394.664C74.6226 395.128 74.7666 395.496 75.0546 395.768C75.3426 396.04 75.7746 396.272 76.3506 396.464C76.9266 396.656 77.6466 396.864 78.5106 397.088C79.6306 397.36 80.5986 397.696 81.4146 398.096C82.2466 398.48 82.8786 398.992 83.3106 399.632C83.7586 400.256 83.9826 401.088 83.9826 402.128C83.9826 403.04 83.8146 403.824 83.4786 404.48C83.1426 405.12 82.6786 405.64 82.0866 406.04C81.4946 406.44 80.8226 406.736 80.0706 406.928C79.3186 407.104 78.5186 407.192 77.6706 407.192C76.8226 407.192 75.9746 407.104 75.1266 406.928C74.2786 406.752 73.4626 406.504 72.6786 406.184C71.8946 405.848 71.1746 405.448 70.5186 404.984L71.9826 402.128C72.1266 402.272 72.3826 402.464 72.7506 402.704C73.1186 402.928 73.5666 403.16 74.0946 403.4C74.6226 403.624 75.1986 403.816 75.8226 403.976C76.4466 404.136 77.0786 404.216 77.7186 404.216C78.6146 404.216 79.2946 404.064 79.7586 403.76C80.2226 403.456 80.4546 403.024 80.4546 402.464C80.4546 401.952 80.2706 401.552 79.9026 401.264C79.5346 400.976 79.0226 400.728 78.3666 400.52C77.7106 400.296 76.9346 400.056 76.0386 399.8C74.9666 399.496 74.0706 399.16 73.3506 398.792C72.6306 398.408 72.0946 397.928 71.7426 397.352C71.3906 396.776 71.2146 396.056 71.2146 395.192C71.2146 394.024 71.4866 393.048 72.0306 392.264C72.5906 391.464 73.3426 390.864 74.2866 390.464C75.2306 390.048 76.2786 389.84 77.4306 389.84C78.2306 389.84 78.9826 389.928 79.6866 390.104C80.4066 390.28 81.0786 390.512 81.7026 390.8C82.3266 391.088 82.8866 391.4 83.3826 391.736L81.9186 394.424Z" fill="black"/>
<path d="M94.7185 407L91.0465 401.576L89.3425 403.256V407H86.1265V389.48H89.3425V400.088L94.4065 394.448H97.8145L93.1345 399.776L98.1505 407H94.7185Z" fill="black"/>
<path d="M99.5093 407V394.424H102.725V407H99.5093ZM99.5093 392.672V389.48H102.725V392.672H99.5093Z" fill="black"/>
<path d="M113.162 407.24C112.186 407.24 111.322 407.024 110.57 406.592C109.834 406.144 109.258 405.544 108.842 404.792V412.112H105.626V394.424H108.434V396.584C108.914 395.848 109.522 395.272 110.258 394.856C110.994 394.424 111.834 394.208 112.778 394.208C113.626 394.208 114.402 394.376 115.106 394.712C115.826 395.048 116.45 395.52 116.978 396.128C117.506 396.72 117.914 397.408 118.202 398.192C118.506 398.96 118.658 399.792 118.658 400.688C118.658 401.904 118.418 403.008 117.938 404C117.474 404.992 116.826 405.784 115.994 406.376C115.178 406.952 114.234 407.24 113.162 407.24ZM112.082 404.504C112.578 404.504 113.026 404.4 113.426 404.192C113.826 403.984 114.17 403.704 114.458 403.352C114.762 402.984 114.986 402.576 115.13 402.128C115.29 401.664 115.37 401.184 115.37 400.688C115.37 400.16 115.282 399.672 115.106 399.224C114.946 398.776 114.706 398.384 114.386 398.048C114.066 397.696 113.69 397.424 113.258 397.232C112.842 397.04 112.386 396.944 111.89 396.944C111.586 396.944 111.274 397 110.954 397.112C110.65 397.208 110.354 397.352 110.066 397.544C109.778 397.736 109.522 397.96 109.298 398.216C109.09 398.472 108.938 398.752 108.842 399.056V402.008C109.034 402.472 109.29 402.896 109.61 403.28C109.946 403.664 110.33 403.968 110.762 404.192C111.194 404.4 111.634 404.504 112.082 404.504Z" fill="black"/>
<path d="M134.139 406.352C133.867 406.464 133.539 406.592 133.155 406.736C132.771 406.88 132.355 406.992 131.907 407.072C131.475 407.168 131.035 407.216 130.587 407.216C129.995 407.216 129.451 407.112 128.955 406.904C128.459 406.696 128.059 406.368 127.755 405.92C127.467 405.456 127.323 404.856 127.323 404.12V396.896H125.667V394.424H127.323V390.344H130.539V394.424H133.179V396.896H130.539V403.04C130.555 403.472 130.675 403.784 130.899 403.976C131.123 404.168 131.403 404.264 131.739 404.264C132.075 404.264 132.403 404.208 132.723 404.096C133.043 403.984 133.299 403.888 133.491 403.808L134.139 406.352Z" fill="black"/>
<path d="M147.502 407H144.286V399.944C144.286 398.968 144.094 398.24 143.71 397.76C143.342 397.28 142.83 397.04 142.174 397.04C141.79 397.04 141.382 397.152 140.95 397.376C140.518 397.6 140.126 397.912 139.774 398.312C139.438 398.696 139.19 399.144 139.03 399.656V407H135.814V389.48H139.03V396.752C139.494 395.952 140.126 395.328 140.926 394.88C141.726 394.432 142.598 394.208 143.542 394.208C144.358 394.208 145.022 394.352 145.534 394.64C146.046 394.912 146.446 395.288 146.734 395.768C147.022 396.232 147.222 396.76 147.334 397.352C147.446 397.928 147.502 398.528 147.502 399.152V407Z" fill="black"/>
<path d="M156.13 407.24C155.122 407.24 154.21 407.072 153.394 406.736C152.578 406.384 151.882 405.912 151.306 405.32C150.73 404.712 150.282 404.024 149.962 403.256C149.658 402.472 149.506 401.648 149.506 400.784C149.506 399.584 149.77 398.488 150.298 397.496C150.842 396.504 151.61 395.712 152.602 395.12C153.61 394.512 154.794 394.208 156.154 394.208C157.53 394.208 158.706 394.512 159.682 395.12C160.658 395.712 161.402 396.504 161.914 397.496C162.442 398.472 162.706 399.528 162.706 400.664C162.706 400.856 162.698 401.056 162.682 401.264C162.666 401.456 162.65 401.616 162.634 401.744H152.914C152.978 402.384 153.162 402.944 153.466 403.424C153.786 403.904 154.186 404.272 154.666 404.528C155.162 404.768 155.69 404.888 156.25 404.888C156.89 404.888 157.49 404.736 158.05 404.432C158.626 404.112 159.018 403.696 159.226 403.184L161.986 403.952C161.682 404.592 161.242 405.16 160.666 405.656C160.106 406.152 159.442 406.544 158.674 406.832C157.906 407.104 157.058 407.24 156.13 407.24ZM152.842 399.704H159.418C159.354 399.064 159.17 398.512 158.866 398.048C158.578 397.568 158.194 397.2 157.714 396.944C157.234 396.672 156.698 396.536 156.106 396.536C155.53 396.536 155.002 396.672 154.522 396.944C154.058 397.2 153.674 397.568 153.37 398.048C153.082 398.512 152.906 399.064 152.842 399.704Z" fill="black"/>
<path d="M184.639 407V395.816L180.271 404.144H178.423L174.055 395.816V407H170.743V389.96H174.295L179.335 399.656L184.423 389.96H187.951V407H184.639Z" fill="black"/>
<path d="M196.818 407.24C195.81 407.24 194.898 407.072 194.082 406.736C193.266 406.384 192.57 405.912 191.994 405.32C191.418 404.712 190.97 404.024 190.65 403.256C190.346 402.472 190.194 401.648 190.194 400.784C190.194 399.584 190.458 398.488 190.986 397.496C191.53 396.504 192.298 395.712 193.29 395.12C194.298 394.512 195.482 394.208 196.842 394.208C198.218 394.208 199.394 394.512 200.37 395.12C201.346 395.712 202.09 396.504 202.602 397.496C203.13 398.472 203.394 399.528 203.394 400.664C203.394 400.856 203.386 401.056 203.37 401.264C203.354 401.456 203.338 401.616 203.322 401.744H193.602C193.666 402.384 193.85 402.944 194.154 403.424C194.474 403.904 194.874 404.272 195.354 404.528C195.85 404.768 196.378 404.888 196.938 404.888C197.578 404.888 198.178 404.736 198.738 404.432C199.314 404.112 199.706 403.696 199.914 403.184L202.674 403.952C202.37 404.592 201.93 405.16 201.354 405.656C200.794 406.152 200.13 406.544 199.362 406.832C198.594 407.104 197.746 407.24 196.818 407.24ZM193.53 399.704H200.106C200.042 399.064 199.858 398.512 199.554 398.048C199.266 397.568 198.882 397.2 198.402 396.944C197.922 396.672 197.386 396.536 196.794 396.536C196.218 396.536 195.69 396.672 195.21 396.944C194.746 397.2 194.362 397.568 194.058 398.048C193.77 398.512 193.594 399.064 193.53 399.704Z" fill="black"/>
<path d="M209.985 407.24C208.913 407.24 207.889 407.064 206.913 406.712C205.937 406.36 205.097 405.84 204.393 405.152L205.545 403.064C206.297 403.672 207.033 404.12 207.753 404.408C208.489 404.696 209.193 404.84 209.865 404.84C210.489 404.84 210.985 404.728 211.353 404.504C211.737 404.28 211.929 403.944 211.929 403.496C211.929 403.192 211.825 402.96 211.617 402.8C211.409 402.624 211.105 402.472 210.705 402.344C210.321 402.216 209.849 402.072 209.289 401.912C208.361 401.608 207.585 401.312 206.961 401.024C206.337 400.736 205.865 400.376 205.545 399.944C205.241 399.496 205.089 398.928 205.089 398.24C205.089 397.408 205.297 396.696 205.713 396.104C206.145 395.496 206.737 395.024 207.489 394.688C208.257 394.352 209.153 394.184 210.177 394.184C211.073 394.184 211.921 394.328 212.721 394.616C213.521 394.888 214.249 395.336 214.905 395.96L213.609 398C212.969 397.504 212.361 397.144 211.785 396.92C211.209 396.68 210.625 396.56 210.033 396.56C209.697 396.56 209.377 396.6 209.073 396.68C208.785 396.76 208.545 396.896 208.353 397.088C208.177 397.264 208.089 397.52 208.089 397.856C208.089 398.16 208.169 398.4 208.329 398.576C208.505 398.736 208.761 398.88 209.097 399.008C209.449 399.136 209.873 399.28 210.369 399.44C211.377 399.728 212.225 400.024 212.913 400.328C213.617 400.632 214.145 401.008 214.497 401.456C214.849 401.888 215.025 402.488 215.025 403.256C215.025 404.504 214.569 405.48 213.657 406.184C212.745 406.888 211.521 407.24 209.985 407.24Z" fill="black"/>
<path d="M221.844 407.24C220.772 407.24 219.748 407.064 218.772 406.712C217.796 406.36 216.956 405.84 216.252 405.152L217.404 403.064C218.156 403.672 218.892 404.12 219.612 404.408C220.348 404.696 221.052 404.84 221.724 404.84C222.348 404.84 222.844 404.728 223.212 404.504C223.596 404.28 223.788 403.944 223.788 403.496C223.788 403.192 223.684 402.96 223.476 402.8C223.268 402.624 222.964 402.472 222.564 402.344C222.18 402.216 221.708 402.072 221.148 401.912C220.22 401.608 219.444 401.312 218.82 401.024C218.196 400.736 217.724 400.376 217.404 399.944C217.1 399.496 216.948 398.928 216.948 398.24C216.948 397.408 217.156 396.696 217.572 396.104C218.004 395.496 218.596 395.024 219.348 394.688C220.116 394.352 221.012 394.184 222.036 394.184C222.932 394.184 223.78 394.328 224.58 394.616C225.38 394.888 226.108 395.336 226.764 395.96L225.468 398C224.828 397.504 224.22 397.144 223.644 396.92C223.068 396.68 222.484 396.56 221.892 396.56C221.556 396.56 221.236 396.6 220.932 396.68C220.644 396.76 220.404 396.896 220.212 397.088C220.036 397.264 219.948 397.52 219.948 397.856C219.948 398.16 220.028 398.4 220.188 398.576C220.364 398.736 220.62 398.88 220.956 399.008C221.308 399.136 221.732 399.28 222.228 399.44C223.236 399.728 224.084 400.024 224.772 400.328C225.476 400.632 226.004 401.008 226.356 401.456C226.708 401.888 226.884 402.488 226.884 403.256C226.884 404.504 226.428 405.48 225.516 406.184C224.604 406.888 223.38 407.24 221.844 407.24Z" fill="black"/>
<path d="M228.208 403.28C228.208 402.464 228.432 401.752 228.88 401.144C229.344 400.52 229.984 400.04 230.8 399.704C231.616 399.368 232.552 399.2 233.608 399.2C234.136 399.2 234.672 399.24 235.216 399.32C235.76 399.4 236.232 399.528 236.632 399.704V399.032C236.632 398.232 236.392 397.616 235.912 397.184C235.448 396.752 234.752 396.536 233.824 396.536C233.136 396.536 232.48 396.656 231.856 396.896C231.232 397.136 230.576 397.488 229.888 397.952L228.856 395.84C229.688 395.296 230.536 394.888 231.4 394.616C232.28 394.344 233.2 394.208 234.16 394.208C235.952 394.208 237.344 394.656 238.336 395.552C239.344 396.448 239.848 397.728 239.848 399.392V403.4C239.848 403.736 239.904 403.976 240.016 404.12C240.144 404.264 240.344 404.352 240.616 404.384V407C240.328 407.048 240.064 407.088 239.824 407.12C239.6 407.152 239.408 407.168 239.248 407.168C238.608 407.168 238.12 407.024 237.784 406.736C237.464 406.448 237.264 406.096 237.184 405.68L237.112 405.032C236.568 405.736 235.888 406.28 235.072 406.664C234.256 407.048 233.424 407.24 232.576 407.24C231.744 407.24 230.992 407.072 230.32 406.736C229.664 406.384 229.144 405.912 228.76 405.32C228.392 404.712 228.208 404.032 228.208 403.28ZM236.032 403.928C236.208 403.736 236.352 403.544 236.464 403.352C236.576 403.16 236.632 402.984 236.632 402.824V401.552C236.248 401.392 235.832 401.272 235.384 401.192C234.936 401.096 234.512 401.048 234.112 401.048C233.28 401.048 232.592 401.232 232.048 401.6C231.52 401.952 231.256 402.424 231.256 403.016C231.256 403.336 231.344 403.64 231.52 403.928C231.696 404.216 231.952 404.448 232.288 404.624C232.624 404.8 233.024 404.888 233.488 404.888C233.968 404.888 234.44 404.8 234.904 404.624C235.368 404.432 235.744 404.2 236.032 403.928Z" fill="black"/>
<path d="M247.773 407.072C246.941 407.072 246.173 406.912 245.469 406.592C244.781 406.256 244.181 405.792 243.669 405.2C243.173 404.608 242.789 403.928 242.517 403.16C242.245 402.392 242.109 401.576 242.109 400.712C242.109 399.8 242.253 398.952 242.541 398.168C242.829 397.384 243.229 396.696 243.741 396.104C244.269 395.496 244.885 395.032 245.589 394.712C246.309 394.376 247.101 394.208 247.965 394.208C248.941 394.208 249.797 394.432 250.533 394.88C251.269 395.312 251.877 395.896 252.357 396.632V394.424H255.165V406.4C255.165 407.648 254.861 408.712 254.253 409.592C253.661 410.488 252.837 411.168 251.781 411.632C250.725 412.112 249.525 412.352 248.181 412.352C246.821 412.352 245.669 412.12 244.725 411.656C243.781 411.208 242.973 410.568 242.301 409.736L244.053 408.032C244.533 408.624 245.133 409.088 245.853 409.424C246.589 409.76 247.365 409.928 248.181 409.928C248.869 409.928 249.493 409.8 250.053 409.544C250.629 409.304 251.085 408.92 251.421 408.392C251.773 407.88 251.949 407.216 251.949 406.4V404.816C251.533 405.536 250.941 406.096 250.173 406.496C249.421 406.88 248.621 407.072 247.773 407.072ZM248.853 404.504C249.205 404.504 249.541 404.448 249.861 404.336C250.181 404.224 250.477 404.072 250.749 403.88C251.021 403.688 251.261 403.464 251.469 403.208C251.677 402.936 251.837 402.664 251.949 402.392V399.392C251.757 398.896 251.485 398.464 251.133 398.096C250.797 397.728 250.413 397.448 249.981 397.256C249.565 397.048 249.125 396.944 248.661 396.944C248.165 396.944 247.717 397.048 247.317 397.256C246.917 397.464 246.573 397.76 246.285 398.144C245.997 398.512 245.773 398.928 245.613 399.392C245.469 399.84 245.397 400.312 245.397 400.808C245.397 401.32 245.485 401.8 245.661 402.248C245.837 402.696 246.077 403.088 246.381 403.424C246.701 403.76 247.069 404.024 247.485 404.216C247.917 404.408 248.373 404.504 248.853 404.504Z" fill="black"/>
<path d="M258.064 407V394.424H261.28V407H258.064ZM258.064 392.672V389.48H261.28V392.672H258.064Z" fill="black"/>
<path d="M275.869 407H272.653V399.944C272.653 398.936 272.477 398.2 272.125 397.736C271.773 397.272 271.285 397.04 270.661 397.04C270.229 397.04 269.789 397.152 269.341 397.376C268.909 397.6 268.517 397.912 268.165 398.312C267.813 398.696 267.557 399.144 267.397 399.656V407H264.181V394.424H267.085V396.752C267.405 396.208 267.813 395.752 268.309 395.384C268.805 395 269.373 394.712 270.013 394.52C270.669 394.312 271.357 394.208 272.077 394.208C272.861 394.208 273.501 394.352 273.997 394.64C274.509 394.912 274.893 395.288 275.149 395.768C275.421 396.232 275.605 396.76 275.701 397.352C275.813 397.944 275.869 398.544 275.869 399.152V407Z" fill="black"/>
<path d="M283.586 407.072C282.754 407.072 281.986 406.912 281.282 406.592C280.594 406.256 279.994 405.792 279.482 405.2C278.986 404.608 278.602 403.928 278.33 403.16C278.058 402.392 277.922 401.576 277.922 400.712C277.922 399.8 278.066 398.952 278.354 398.168C278.642 397.384 279.042 396.696 279.554 396.104C280.082 395.496 280.698 395.032 281.402 394.712C282.122 394.376 282.914 394.208 283.778 394.208C284.754 394.208 285.61 394.432 286.346 394.88C287.082 395.312 287.69 395.896 288.17 396.632V394.424H290.978V406.4C290.978 407.648 290.674 408.712 290.066 409.592C289.474 410.488 288.65 411.168 287.594 411.632C286.538 412.112 285.338 412.352 283.994 412.352C282.634 412.352 281.482 412.12 280.538 411.656C279.594 411.208 278.786 410.568 278.114 409.736L279.866 408.032C280.346 408.624 280.946 409.088 281.666 409.424C282.402 409.76 283.178 409.928 283.994 409.928C284.682 409.928 285.306 409.8 285.866 409.544C286.442 409.304 286.898 408.92 287.234 408.392C287.586 407.88 287.762 407.216 287.762 406.4V404.816C287.346 405.536 286.754 406.096 285.986 406.496C285.234 406.88 284.434 407.072 283.586 407.072ZM284.666 404.504C285.018 404.504 285.354 404.448 285.674 404.336C285.994 404.224 286.29 404.072 286.562 403.88C286.834 403.688 287.074 403.464 287.282 403.208C287.49 402.936 287.65 402.664 287.762 402.392V399.392C287.57 398.896 287.298 398.464 286.946 398.096C286.61 397.728 286.226 397.448 285.794 397.256C285.378 397.048 284.938 396.944 284.474 396.944C283.978 396.944 283.53 397.048 283.13 397.256C282.73 397.464 282.386 397.76 282.098 398.144C281.81 398.512 281.586 398.928 281.426 399.392C281.282 399.84 281.21 400.312 281.21 400.808C281.21 401.32 281.298 401.8 281.474 402.248C281.65 402.696 281.89 403.088 282.194 403.424C282.514 403.76 282.882 404.024 283.298 404.216C283.73 404.408 284.186 404.504 284.666 404.504Z" fill="black"/>
<path d="M195.49 106.264C195.49 105.898 195.562 105.536 195.702 105.198C195.843 104.86 196.049 104.553 196.309 104.294C196.569 104.036 196.877 103.831 197.217 103.691C197.556 103.551 197.92 103.479 198.288 103.479H209.327C209.695 103.478 210.059 103.55 210.399 103.69C210.739 103.829 211.048 104.034 211.308 104.293C211.569 104.552 211.775 104.859 211.916 105.197C212.057 105.535 212.129 105.898 212.129 106.264V107.026H237.521V68.5823H168.907V107.026H195.49V106.264Z" fill="#3F3D56"/>
<path d="M259.6 68.5823H241.086V107.026H256.806L259.6 68.5823Z" fill="#3F3D56"/>
<path d="M237.521 23V65.031H215.212C203.638 65.0293 192.484 60.7138 183.947 52.9344C175.41 45.1551 170.109 34.4758 169.087 23H237.521Z" fill="#3F3D56"/>
<path d="M262.355 30.7113L259.856 65.031H241.084V23H255.156C256.148 23.0005 257.13 23.2046 258.039 23.5994C258.949 23.9943 259.767 24.5715 260.443 25.2951C261.118 26.0187 261.637 26.873 261.966 27.8049C262.295 28.7368 262.427 29.7261 262.355 30.7113Z" fill="#3F3D56"/>
<path d="M255.94 118.856L252.947 174.895L252.924 175.3L251.96 193.368C251.81 197.481 250.063 201.374 247.087 204.231C244.111 207.087 240.138 208.683 236.004 208.683H171.016C168.352 208.686 165.73 208.023 163.391 206.754C163.351 206.731 163.31 206.709 163.274 206.691C162.889 206.479 162.517 206.249 162.155 206.01C162.065 205.947 161.974 205.889 161.884 205.825C159.853 204.418 158.18 202.56 156.996 200.398C155.811 198.236 155.149 195.829 155.06 193.368L151.08 118.856H255.94Z" fill="#3F3D56"/>
<path d="M145.157 37.3773L147.169 65.0308H165.339V23H158.528C158.468 23 158.407 23.0003 158.347 23.0008C156.515 23.0285 154.708 23.4289 153.038 24.1775C151.367 24.926 149.868 26.0068 148.633 27.3534C147.397 28.7 146.451 30.2839 145.854 32.0077C145.256 33.7316 145.019 35.5589 145.157 37.3773Z" fill="#3F3D56"/>
<path d="M150.221 107.026H165.34V68.5823H147.428L150.221 107.026Z" fill="#3F3D56"/>
<path d="M237.412 27.0564H237.521V64.0127H237.412C232.488 64.0127 227.767 62.0659 224.285 58.6006C220.804 55.1353 218.848 50.4353 218.848 45.5346C218.848 40.6338 220.804 35.9338 224.285 32.4685C227.767 29.0032 232.488 27.0564 237.412 27.0564Z" fill="black"/>
<path d="M255.976 45.5341C255.974 49.8005 254.491 53.9353 251.777 57.2373C249.063 60.5394 245.285 62.8056 241.084 63.6517V27.4165C245.285 28.2626 249.063 30.5288 251.777 33.8309C254.491 37.1329 255.974 41.2677 255.976 45.5341Z" fill="black"/>
<path opacity="0.3" d="M164.017 121.972C166.586 122.092 171.899 123.362 177.656 125.004C183.41 126.647 189.651 128.652 195.813 130.635C206.599 134.103 217.385 137.57 228.17 141.036C229.652 141.512 231.139 141.992 232.63 142.477C233.201 143.22 233.769 143.97 234.326 144.728C233.016 144.267 231.7 143.821 230.388 143.396C224.783 141.583 219.92 140.388 214.48 138.738C206.109 136.202 197.278 132.871 188.713 129.77C180.149 126.666 170.323 123.324 164.017 121.972Z" fill="#F0F0F0"/>
<path d="M201.681 45.7253C202.397 45.7253 202.978 45.1476 202.978 44.4348C202.978 43.7221 202.397 43.1443 201.681 43.1443C200.965 43.1443 200.385 43.7221 200.385 44.4348C200.385 45.1476 200.965 45.7253 201.681 45.7253Z" fill="white"/>
<path d="M247.864 80.8789C248.58 80.8789 249.161 80.3011 249.161 79.5884C249.161 78.8756 248.58 78.2979 247.864 78.2979C247.148 78.2979 246.568 78.8756 246.568 79.5884C246.568 80.3011 247.148 80.8789 247.864 80.8789Z" fill="white"/>
<path d="M208.02 199.883C208.499 199.883 208.887 199.497 208.887 199.021C208.887 198.544 208.499 198.158 208.02 198.158C207.541 198.158 207.153 198.544 207.153 199.021C207.153 199.497 207.541 199.883 208.02 199.883Z" fill="white"/>
<path d="M237.451 134.984C237.93 134.984 238.318 134.598 238.318 134.121C238.318 133.645 237.93 133.258 237.451 133.258C236.972 133.258 236.584 133.645 236.584 134.121C236.584 134.598 236.972 134.984 237.451 134.984Z" fill="white"/>
<path d="M187.644 85.8595C188.123 85.8595 188.511 85.4732 188.511 84.9966C188.511 84.5201 188.123 84.1338 187.644 84.1338C187.166 84.1338 186.778 84.5201 186.778 84.9966C186.778 85.4732 187.166 85.8595 187.644 85.8595Z" fill="white"/>
<path d="M174.967 156.617C175.445 156.617 175.834 156.231 175.834 155.754C175.834 155.278 175.445 154.892 174.967 154.892C174.488 154.892 174.1 155.278 174.1 155.754C174.1 156.231 174.488 156.617 174.967 156.617Z" fill="white"/>
<path d="M215.783 166.123C215.48 165.925 215.166 165.726 214.844 165.536C213.342 164.65 211.672 163.96 210.041 164.433C208.331 164.928 207.239 166.548 206.317 168.065C201.331 176.276 197.006 184.868 193.383 193.76C199.127 188.992 200.609 180.693 205.729 175.265C206.595 174.348 207.696 173.469 208.959 173.525C209.977 173.57 210.851 174.208 211.748 174.686C214.113 175.946 216.881 176.155 219.556 176.338C223.259 176.593 226.963 176.847 230.667 177.101L230.672 177.043C228.048 174.886 225.362 172.812 222.613 170.82C220.374 169.197 218.098 167.631 215.783 166.123Z" fill="#F2F2F2"/>
<path d="M241.464 186.379C237.619 181.288 233.23 176.63 228.374 172.484C227.985 172.15 227.591 171.821 227.192 171.492C226.341 170.794 225.479 170.11 224.607 169.442C222.76 168.036 220.864 166.705 218.92 165.449C217.752 164.696 216.567 163.97 215.366 163.272C215.062 163.096 214.759 162.92 214.451 162.749C213.686 162.321 212.921 161.893 212.137 161.496C211.389 161.059 210.549 160.8 209.683 160.739C206.709 160.694 205.165 164.047 204.105 166.305C203.774 167.017 203.438 167.726 203.095 168.432C201.809 171.114 200.472 173.77 199.084 176.4C198.228 178.027 197.354 179.644 196.462 181.25C195.194 183.526 193.892 185.779 192.555 188.01C190.952 190.687 189.299 193.333 187.597 195.947C184.667 200.44 181.756 204.559 178.632 208.683H179.102C182.584 204.018 185.891 199.238 189.023 194.342C191.74 190.097 194.323 185.772 196.774 181.367C197.938 179.271 199.072 177.159 200.175 175.03C201.026 173.376 201.861 171.716 202.679 170.05C202.914 169.572 203.141 169.095 203.367 168.612C203.901 167.481 204.422 166.345 204.983 165.232C205.622 163.966 206.396 162.632 207.573 161.78C208.107 161.376 208.744 161.131 209.412 161.072C210.354 161.08 211.276 161.343 212.079 161.834C213.143 162.388 214.196 162.965 215.239 163.565C218.412 165.404 221.464 167.444 224.376 169.672C225.943 170.87 227.466 172.117 228.945 173.412C234.092 177.91 238.692 182.992 242.65 188.555C242.773 188.727 243.058 188.564 242.936 188.389C242.456 187.713 241.965 187.043 241.464 186.379Z" fill="#F2F2F2"/>
<path d="M250.471 172.975C248.777 171.722 247.023 170.556 245.209 169.478C244.304 168.937 243.389 168.423 242.456 167.927C242.176 167.779 241.89 167.634 241.605 167.495C240.953 167.165 240.275 166.891 239.577 166.674C238.59 166.356 237.546 166.253 236.516 166.372C235.521 166.516 234.562 166.847 233.691 167.346C231.839 168.378 230.403 169.969 229.009 171.524C228.98 171.555 228.964 171.597 228.965 171.64C228.966 171.682 228.983 171.723 229.013 171.754C229.027 171.771 229.044 171.784 229.064 171.794C229.083 171.803 229.105 171.808 229.127 171.808C229.148 171.808 229.17 171.803 229.189 171.794C229.209 171.784 229.226 171.771 229.24 171.754C229.416 171.564 229.584 171.371 229.76 171.181C231.132 169.667 232.604 168.175 234.492 167.31C235.39 166.882 236.372 166.656 237.367 166.647C238.394 166.674 239.406 166.892 240.351 167.292C240.799 167.472 241.238 167.675 241.673 167.891C242.167 168.139 242.656 168.405 243.136 168.671C244.046 169.171 244.942 169.692 245.825 170.235C247.586 171.316 249.29 172.482 250.937 173.732C251.612 174.241 252.273 174.76 252.925 175.301L252.947 174.895C252.137 174.232 251.311 173.592 250.471 172.975Z" fill="#F2F2F2"/>
<path d="M170.486 195.478C172.415 193.071 174.36 190.677 176.322 188.294C176.793 187.717 177.269 187.136 177.749 186.563C178.134 186.086 178.554 185.639 179.007 185.225C179.45 184.81 179.972 184.488 180.542 184.278C181.181 184.08 181.863 184.071 182.507 184.251C183.244 184.464 183.969 184.714 184.681 184.999L186.886 185.802L191.318 187.415C191.346 187.428 191.378 187.431 191.407 187.424C191.437 187.416 191.463 187.399 191.481 187.375C191.499 187.353 191.51 187.327 191.516 187.3C191.521 187.273 191.52 187.245 191.513 187.218C191.505 187.191 191.492 187.166 191.473 187.146C191.454 187.125 191.431 187.11 191.404 187.1L190.291 186.69L185.826 185.067C185.084 184.797 184.346 184.522 183.603 184.256C182.922 183.971 182.195 183.812 181.457 183.787C180.198 183.81 179.148 184.576 178.306 185.441C177.848 185.914 177.432 186.424 177.015 186.933C176.522 187.532 176.024 188.136 175.53 188.74C173.547 191.156 171.577 193.585 169.621 196.028C167.665 198.47 165.721 200.921 163.789 203.378C163.151 204.194 162.516 205.01 161.883 205.826C161.974 205.889 162.064 205.947 162.155 206.01C163.006 204.911 163.863 203.814 164.727 202.72C166.633 200.296 168.553 197.882 170.486 195.478Z" fill="#F2F2F2"/>
<path d="M235.074 169.211C233.429 170.053 232.18 171.511 230.584 172.442C234.428 171.31 238.335 170.402 242.285 169.724C241.237 169.009 240.017 168.585 238.75 168.495C237.482 168.405 236.214 168.652 235.074 169.211Z" fill="#F2F2F2"/>
<path d="M242.285 169.724C242.442 169.833 242.595 169.948 242.741 170.071L242.308 169.72L242.285 169.724Z" fill="#F2F2F2"/>
<path d="M180.734 186.133C180.102 186.412 179.561 186.861 179.173 187.431C173.757 193.993 168.341 200.554 162.925 207.116C170.435 201.452 176.703 194.32 181.344 186.157L180.734 186.133Z" fill="#F2F2F2"/>
<path d="M125.417 201.746C125.419 201.757 125.421 201.765 125.422 201.777C125.436 201.858 125.45 201.931 125.466 202.012V202.016C126.139 205.715 126.878 209.352 127.683 212.927L279.826 212.603C280.643 208.954 281.393 205.239 282.075 201.456C282.077 201.447 282.079 201.438 282.079 201.429L125.417 201.746Z" fill="#E6E6E6"/>
<path d="M133.177 161.128L143.764 160.811C146.623 167.071 143.123 180.611 143.123 180.611L139.187 208.466C139.811 208.998 140.282 209.684 140.554 210.456C140.827 211.227 140.89 212.056 140.738 212.86C140.586 213.663 140.224 214.413 139.689 215.033C139.153 215.653 138.463 216.121 137.688 216.392C136.913 216.662 136.079 216.724 135.272 216.572C134.465 216.419 133.713 216.058 133.09 215.524C132.468 214.991 131.998 214.303 131.728 213.531C131.457 212.759 131.396 211.93 131.55 211.127L128.913 180.574L133.177 161.128Z" fill="#FFB8B8"/>
<path d="M132.719 163.54L134.939 148.32L140.829 142.685C141.989 141.583 143.436 140.826 145.006 140.5C146.576 140.173 148.207 140.29 149.713 140.837C151.75 141.593 153.423 143.091 154.394 145.027C155.364 146.964 155.56 149.195 154.941 151.27C153.058 157.56 149.867 165.295 145.359 166.424L145.313 166.435L132.719 163.54Z" fill="black"/>
<path d="M177.484 335.75H183.26L186.007 313.574L177.483 313.575L177.484 335.75Z" fill="#FFB6B6"/>
<path d="M176.013 333.872V341.322H194.636V341.087C194.636 339.174 193.872 337.338 192.512 335.985C191.153 334.632 189.309 333.872 187.387 333.872L183.982 331.303L183.805 331.375L177.638 333.872H176.013Z" fill="#2F2E41"/>
<path d="M138.092 335.75H143.868L146.616 313.574L138.091 313.575L138.092 335.75Z" fill="#FFB6B6"/>
<path d="M136.621 333.872V341.322H155.244V341.087C155.243 339.174 154.48 337.338 153.12 335.985C151.761 334.632 149.917 333.872 147.995 333.872L144.59 331.303L144.413 331.375L138.246 333.872H136.621Z" fill="#2F2E41"/>
<path d="M181.351 199.568L141.504 197.246C141.504 197.246 133.272 212.739 135.988 224.006C138.705 235.273 139.649 257.771 138.045 259.592C136.441 261.413 135.988 258.258 137.8 261.864C139.631 265.51 139.158 260.963 139.158 264.117C139.081 266.192 138.461 268.211 137.361 269.975V324.475L151.354 323.579C151.354 323.579 155.134 321.741 151.9 318.618C148.666 315.496 146.596 317.951 148.537 314.019C150.477 310.087 151.383 314.594 150.477 310.087C149.572 305.58 160.962 237.921 160.962 237.921C160.962 237.921 165.331 251.905 167.23 264.568C170.501 286.371 172.243 312.233 173.546 313.584C175.607 315.721 176.965 313.017 175.607 315.721C174.248 318.425 171.207 317.847 173.181 319.488C175.154 321.129 175.154 318.876 175.154 321.129C175.17 322.565 175.374 323.993 175.763 325.376L187.317 324.604L186.7 265.92L181.351 199.568Z" fill="#2F2E41"/>
<path d="M170.016 129.991L157.239 128.478L153.967 135.313C153.967 135.313 136.042 144.944 136.695 147.294C137.347 149.643 142.328 159.558 140.969 162.262C139.611 164.966 136.074 165.866 138.748 168.345C141.422 170.825 143.233 171.727 142.328 173.98C141.422 176.233 141.875 184.346 141.875 184.346C141.875 184.346 136.617 193.953 138.34 195.91C140.064 197.866 141.422 195.947 140.064 198.709C138.705 201.472 128.256 204.636 138.235 204.856C148.214 205.077 150.478 198.768 158.175 203.725C165.872 208.683 181.103 204.045 181.103 204.045C181.103 204.045 181.987 198.768 181.627 195.613C181.267 192.458 180.424 194.025 181.072 188.735C181.72 183.444 182.78 170.906 182.78 170.906C182.78 170.906 188.661 144.946 187.153 142.432C185.645 139.918 172.375 136.591 172.375 136.591L170.016 129.991Z" fill="black"/>
<path d="M178.783 168.086L187.933 162.777C193.448 166.918 196.868 180.478 196.868 180.478L206.771 206.823C207.574 206.994 208.318 207.373 208.927 207.922C209.537 208.47 209.99 209.168 210.242 209.947C210.494 210.725 210.536 211.555 210.362 212.355C210.189 213.154 209.808 213.894 209.256 214.5C208.705 215.105 208.002 215.556 207.22 215.806C206.438 216.056 205.604 216.096 204.801 215.923C203.998 215.749 203.255 215.369 202.647 214.819C202.039 214.269 201.587 213.57 201.337 212.791L184.364 187.199L178.783 168.086Z" fill="#FFB8B8"/>
<path d="M179.537 170.424L174.187 155.996L176.659 148.245C177.15 146.725 178.058 145.372 179.281 144.339C180.504 143.306 181.992 142.634 183.579 142.399C188.045 141.768 188.439 143.327 189.376 147.72C190.739 154.141 191.299 157.49 192.026 166.949L191.992 166.981L179.537 170.424Z" fill="black"/>
<path d="M164.9 125.995C171.559 125.995 176.958 120.622 176.958 113.993C176.958 107.364 171.559 101.99 164.9 101.99C158.24 101.99 152.841 107.364 152.841 113.993C152.841 120.622 158.24 125.995 164.9 125.995Z" fill="#FFB8B8"/>
<path d="M162.267 125.657C165.653 124.938 165.801 123.987 169.187 123.268C170.265 123.04 171.518 122.663 171.872 121.624C172.124 120.884 171.8 120.067 171.346 119.429C170.837 118.834 170.364 118.21 169.927 117.562C169.64 117.043 169.485 116.462 169.475 115.87C169.464 115.279 169.599 114.693 169.866 114.165C170.134 113.636 170.527 113.18 171.012 112.837C171.496 112.494 172.057 112.273 172.647 112.194C173.691 112.053 174.752 112.365 175.802 112.269C177.241 112.138 179.537 106.92 178.658 105.778C177.802 104.666 176.357 103.97 175.91 102.642C175.618 101.773 175.829 100.821 175.717 99.9115C175.552 98.5633 172.694 102.179 173.104 100.884C174.108 97.7054 159.068 96.6699 157.354 100.732C156.714 102.251 155.119 102.44 153.859 103.507C153.034 104.207 151.039 106.47 150.717 107.716C150.442 108.977 150.44 110.283 150.711 111.545C151.753 117.456 153.635 122.727 159.05 125.365" fill="#2F2E41"/>
<path d="M107.682 339.44C104.412 339.727 101.119 339.283 98.0439 338.141C94.9685 336.999 92.1882 335.188 89.906 332.84C86.922 329.708 84.8742 325.677 82.8938 321.779C82.3173 320.645 81.7214 319.472 81.1152 318.348C80.4393 317.122 80.1476 315.723 80.2777 314.331C80.4077 312.938 80.9536 311.617 81.8449 310.536C82.6991 309.456 83.8587 308.655 85.1744 308.237C86.49 307.818 87.9014 307.802 89.2266 308.189L89.5156 308.272L92.1165 318.374C92.5045 316.867 93.3373 313.472 93.8632 310.146L93.9074 309.867L94.1664 309.982C96.8821 311.178 99.4357 312.71 101.767 314.541C105.897 317.838 109.255 321.991 111.61 326.711C113.964 331.431 115.258 336.604 115.401 341.872L115.408 342.186L107.682 339.44Z" fill="#F2F2F2"/>
<path d="M281.662 342.862L80.7407 343C80.5977 343 80.4606 342.944 80.3594 342.843C80.2583 342.742 80.2015 342.606 80.2015 342.463C80.2015 342.321 80.2583 342.185 80.3594 342.084C80.4606 341.983 80.5977 341.927 80.7407 341.927L281.662 341.788C281.805 341.788 281.943 341.845 282.044 341.945C282.145 342.046 282.202 342.183 282.202 342.325C282.202 342.467 282.145 342.604 282.044 342.704C281.943 342.805 281.805 342.862 281.662 342.862Z" fill="#CACACA"/>
</svg>
