<svg width="251" height="72" viewBox="0 0 251 72" fill="none" xmlns="http://www.w3.org/2000/svg">
<g filter="url(#filter0_d_1118_3)">
<rect x="247" y="66" width="243" height="64" rx="16" transform="rotate(180 247 66)" fill="white"/>
</g>
<path d="M73.8506 41L78.9706 27H81.8506L86.9706 41H84.2506L83.1306 37.76H77.6706L76.5306 41H73.8506ZM78.3706 35.76H82.4306L80.3906 29.94L78.3706 35.76ZM88.7141 45.4V31.08H90.9941L91.2741 32.5C91.5941 32.06 92.0141 31.6733 92.5341 31.34C93.0674 31.0067 93.7541 30.84 94.5941 30.84C95.5274 30.84 96.3607 31.0667 97.0941 31.52C97.8274 31.9733 98.4074 32.5933 98.8341 33.38C99.2607 34.1667 99.4741 35.06 99.4741 36.06C99.4741 37.06 99.2607 37.9533 98.8341 38.74C98.4074 39.5133 97.8274 40.1267 97.0941 40.58C96.3607 41.02 95.5274 41.24 94.5941 41.24C93.8474 41.24 93.1941 41.1 92.6341 40.82C92.0741 40.54 91.6207 40.1467 91.2741 39.64V45.4H88.7141ZM94.0541 39C94.8674 39 95.5407 38.7267 96.0741 38.18C96.6074 37.6333 96.8741 36.9267 96.8741 36.06C96.8741 35.1933 96.6074 34.48 96.0741 33.92C95.5407 33.36 94.8674 33.08 94.0541 33.08C93.2274 33.08 92.5474 33.36 92.0141 33.92C91.4941 34.4667 91.2341 35.1733 91.2341 36.04C91.2341 36.9067 91.4941 37.62 92.0141 38.18C92.5474 38.7267 93.2274 39 94.0541 39ZM101.761 45.4V31.08H104.041L104.321 32.5C104.641 32.06 105.061 31.6733 105.581 31.34C106.114 31.0067 106.801 30.84 107.641 30.84C108.574 30.84 109.408 31.0667 110.141 31.52C110.874 31.9733 111.454 32.5933 111.881 33.38C112.308 34.1667 112.521 35.06 112.521 36.06C112.521 37.06 112.308 37.9533 111.881 38.74C111.454 39.5133 110.874 40.1267 110.141 40.58C109.408 41.02 108.574 41.24 107.641 41.24C106.894 41.24 106.241 41.1 105.681 40.82C105.121 40.54 104.668 40.1467 104.321 39.64V45.4H101.761ZM107.101 39C107.914 39 108.588 38.7267 109.121 38.18C109.654 37.6333 109.921 36.9267 109.921 36.06C109.921 35.1933 109.654 34.48 109.121 33.92C108.588 33.36 107.914 33.08 107.101 33.08C106.274 33.08 105.594 33.36 105.061 33.92C104.541 34.4667 104.281 35.1733 104.281 36.04C104.281 36.9067 104.541 37.62 105.061 38.18C105.594 38.7267 106.274 39 107.101 39ZM114.808 41V26.6H117.368V41H114.808ZM121.224 45.4L123.524 40.34H122.924L119.064 31.08H121.844L124.624 38.06L127.524 31.08H130.244L123.944 45.4H121.224ZM136.743 41V27H139.303L145.883 36.86V27H148.443V41H145.883L139.303 31.16V41H136.743ZM155.857 41.24C154.897 41.24 154.03 41.02 153.257 40.58C152.497 40.14 151.89 39.5333 151.437 38.76C150.997 37.9733 150.777 37.0667 150.777 36.04C150.777 35.0133 151.004 34.1133 151.457 33.34C151.91 32.5533 152.517 31.94 153.277 31.5C154.05 31.06 154.917 30.84 155.877 30.84C156.824 30.84 157.677 31.06 158.437 31.5C159.21 31.94 159.817 32.5533 160.257 33.34C160.71 34.1133 160.937 35.0133 160.937 36.04C160.937 37.0667 160.71 37.9733 160.257 38.76C159.817 39.5333 159.21 40.14 158.437 40.58C157.664 41.02 156.804 41.24 155.857 41.24ZM155.857 39.02C156.524 39.02 157.104 38.7733 157.597 38.28C158.09 37.7733 158.337 37.0267 158.337 36.04C158.337 35.0533 158.09 34.3133 157.597 33.82C157.104 33.3133 156.53 33.06 155.877 33.06C155.197 33.06 154.61 33.3133 154.117 33.82C153.637 34.3133 153.397 35.0533 153.397 36.04C153.397 37.0267 153.637 37.7733 154.117 38.28C154.61 38.7733 155.19 39.02 155.857 39.02ZM164.814 41L161.914 31.08H164.454L166.174 38.22L168.174 31.08H171.014L173.014 38.22L174.754 31.08H177.294L174.374 41H171.714L169.594 33.58L167.474 41H164.814Z" fill="black"/>
<defs>
<filter id="filter0_d_1118_3" x="0" y="0" width="251" height="72" filterUnits="userSpaceOnUse" color-interpolation-filters="sRGB">
<feFlood flood-opacity="0" result="BackgroundImageFix"/>
<feColorMatrix in="SourceAlpha" type="matrix" values="0 0 0 0 0 0 0 0 0 0 0 0 0 0 0 0 0 0 127 0" result="hardAlpha"/>
<feOffset dy="2"/>
<feGaussianBlur stdDeviation="2"/>
<feComposite in2="hardAlpha" operator="out"/>
<feColorMatrix type="matrix" values="0 0 0 0 0 0 0 0 0 0 0 0 0 0 0 0 0 0 0.75 0"/>
<feBlend mode="normal" in2="BackgroundImageFix" result="effect1_dropShadow_1118_3"/>
<feBlend mode="normal" in="SourceGraphic" in2="effect1_dropShadow_1118_3" result="shape"/>
</filter>
</defs>
</svg>
