<svg width="251" height="72" viewBox="0 0 251 72" fill="none" xmlns="http://www.w3.org/2000/svg">
<g filter="url(#filter0_d_634_46)">
<rect x="247" y="66" width="243" height="64" rx="16" transform="rotate(180 247 66)" fill="white"/>
</g>
<path d="M87.9873 41L93.1073 27H95.9873L101.107 41H98.3873L97.2673 37.76H91.8073L90.6673 41H87.9873ZM92.5073 35.76H96.5673L94.5273 29.94L92.5073 35.76ZM102.851 45.4V31.08H105.131L105.411 32.5C105.731 32.06 106.151 31.6733 106.671 31.34C107.204 31.0067 107.891 30.84 108.731 30.84C109.664 30.84 110.497 31.0667 111.231 31.52C111.964 31.9733 112.544 32.5933 112.971 33.38C113.397 34.1667 113.611 35.06 113.611 36.06C113.611 37.06 113.397 37.9533 112.971 38.74C112.544 39.5133 111.964 40.1267 111.231 40.58C110.497 41.02 109.664 41.24 108.731 41.24C107.984 41.24 107.331 41.1 106.771 40.82C106.211 40.54 105.757 40.1467 105.411 39.64V45.4H102.851ZM108.191 39C109.004 39 109.677 38.7267 110.211 38.18C110.744 37.6333 111.011 36.9267 111.011 36.06C111.011 35.1933 110.744 34.48 110.211 33.92C109.677 33.36 109.004 33.08 108.191 33.08C107.364 33.08 106.684 33.36 106.151 33.92C105.631 34.4667 105.371 35.1733 105.371 36.04C105.371 36.9067 105.631 37.62 106.151 38.18C106.684 38.7267 107.364 39 108.191 39ZM115.898 45.4V31.08H118.178L118.458 32.5C118.778 32.06 119.198 31.6733 119.718 31.34C120.251 31.0067 120.938 30.84 121.778 30.84C122.711 30.84 123.544 31.0667 124.278 31.52C125.011 31.9733 125.591 32.5933 126.018 33.38C126.444 34.1667 126.658 35.06 126.658 36.06C126.658 37.06 126.444 37.9533 126.018 38.74C125.591 39.5133 125.011 40.1267 124.278 40.58C123.544 41.02 122.711 41.24 121.778 41.24C121.031 41.24 120.378 41.1 119.818 40.82C119.258 40.54 118.804 40.1467 118.458 39.64V45.4H115.898ZM121.238 39C122.051 39 122.724 38.7267 123.258 38.18C123.791 37.6333 124.058 36.9267 124.058 36.06C124.058 35.1933 123.791 34.48 123.258 33.92C122.724 33.36 122.051 33.08 121.238 33.08C120.411 33.08 119.731 33.36 119.198 33.92C118.678 34.4667 118.418 35.1733 118.418 36.04C118.418 36.9067 118.678 37.62 119.198 38.18C119.731 38.7267 120.411 39 121.238 39ZM128.945 41V26.6H131.505V41H128.945ZM138.94 41.24C137.94 41.24 137.054 41.0267 136.28 40.6C135.507 40.1733 134.9 39.5733 134.46 38.8C134.02 38.0267 133.8 37.1333 133.8 36.12C133.8 35.0933 134.014 34.18 134.44 33.38C134.88 32.58 135.48 31.96 136.24 31.52C137.014 31.0667 137.92 30.84 138.96 30.84C139.934 30.84 140.794 31.0533 141.54 31.48C142.287 31.9067 142.867 32.4933 143.28 33.24C143.707 33.9733 143.92 34.7933 143.92 35.7C143.92 35.8467 143.914 36 143.9 36.16C143.9 36.32 143.894 36.4867 143.88 36.66H136.34C136.394 37.4333 136.66 38.04 137.14 38.48C137.634 38.92 138.227 39.14 138.92 39.14C139.44 39.14 139.874 39.0267 140.22 38.8C140.58 38.56 140.847 38.2533 141.02 37.88H143.62C143.434 38.5067 143.12 39.08 142.68 39.6C142.254 40.1067 141.72 40.5067 141.08 40.8C140.454 41.0933 139.74 41.24 138.94 41.24ZM138.96 32.92C138.334 32.92 137.78 33.1 137.3 33.46C136.82 33.8067 136.514 34.34 136.38 35.06H141.32C141.28 34.4067 141.04 33.8867 140.6 33.5C140.16 33.1133 139.614 32.92 138.96 32.92ZM155.679 41.24C154.652 41.24 153.746 41.0667 152.959 40.72C152.172 40.36 151.552 39.8533 151.099 39.2C150.646 38.5333 150.412 37.7267 150.399 36.78H153.099C153.126 37.4333 153.359 37.9867 153.799 38.44C154.252 38.88 154.872 39.1 155.659 39.1C156.339 39.1 156.879 38.94 157.279 38.62C157.679 38.2867 157.879 37.8467 157.879 37.3C157.879 36.7267 157.699 36.28 157.339 35.96C156.992 35.64 156.526 35.38 155.939 35.18C155.352 34.98 154.726 34.7667 154.059 34.54C152.979 34.1667 152.152 33.6867 151.579 33.1C151.019 32.5133 150.739 31.7333 150.739 30.76C150.726 29.9333 150.919 29.2267 151.319 28.64C151.732 28.04 152.292 27.58 152.999 27.26C153.706 26.9267 154.519 26.76 155.439 26.76C156.372 26.76 157.192 26.9267 157.899 27.26C158.619 27.5933 159.179 28.06 159.579 28.66C159.992 29.26 160.212 29.9733 160.239 30.8H157.499C157.486 30.3067 157.292 29.8733 156.919 29.5C156.559 29.1133 156.052 28.92 155.399 28.92C154.839 28.9067 154.366 29.0467 153.979 29.34C153.606 29.62 153.419 30.0333 153.419 30.58C153.419 31.0467 153.566 31.42 153.859 31.7C154.152 31.9667 154.552 32.1933 155.059 32.38C155.566 32.5667 156.146 32.7667 156.799 32.98C157.492 33.22 158.126 33.5 158.699 33.82C159.272 34.14 159.732 34.5667 160.079 35.1C160.426 35.62 160.599 36.2933 160.599 37.12C160.599 37.8533 160.412 38.5333 160.039 39.16C159.666 39.7867 159.112 40.2933 158.379 40.68C157.646 41.0533 156.746 41.24 155.679 41.24ZM167.193 41C166.153 41 165.319 40.7467 164.693 40.24C164.066 39.7333 163.753 38.8333 163.753 37.54V33.22H162.053V31.08H163.753L164.053 28.42H166.313V31.08H168.993V33.22H166.313V37.56C166.313 38.04 166.413 38.3733 166.613 38.56C166.826 38.7333 167.186 38.82 167.693 38.82H168.933V41H167.193ZM175.697 41.24C174.737 41.24 173.87 41.02 173.097 40.58C172.337 40.14 171.73 39.5333 171.277 38.76C170.837 37.9733 170.617 37.0667 170.617 36.04C170.617 35.0133 170.843 34.1133 171.297 33.34C171.75 32.5533 172.357 31.94 173.117 31.5C173.89 31.06 174.757 30.84 175.717 30.84C176.663 30.84 177.517 31.06 178.277 31.5C179.05 31.94 179.657 32.5533 180.097 33.34C180.55 34.1133 180.777 35.0133 180.777 36.04C180.777 37.0667 180.55 37.9733 180.097 38.76C179.657 39.5333 179.05 40.14 178.277 40.58C177.503 41.02 176.643 41.24 175.697 41.24ZM175.697 39.02C176.363 39.02 176.943 38.7733 177.437 38.28C177.93 37.7733 178.177 37.0267 178.177 36.04C178.177 35.0533 177.93 34.3133 177.437 33.82C176.943 33.3133 176.37 33.06 175.717 33.06C175.037 33.06 174.45 33.3133 173.957 33.82C173.477 34.3133 173.237 35.0533 173.237 36.04C173.237 37.0267 173.477 37.7733 173.957 38.28C174.45 38.7733 175.03 39.02 175.697 39.02ZM183.066 41V31.08H185.346L185.586 32.94C185.946 32.3 186.432 31.7933 187.046 31.42C187.672 31.0333 188.406 30.84 189.246 30.84V33.54H188.526C187.966 33.54 187.466 33.6267 187.026 33.8C186.586 33.9733 186.239 34.2733 185.986 34.7C185.746 35.1267 185.626 35.72 185.626 36.48V41H183.066ZM195.64 41.24C194.64 41.24 193.753 41.0267 192.98 40.6C192.206 40.1733 191.6 39.5733 191.16 38.8C190.72 38.0267 190.5 37.1333 190.5 36.12C190.5 35.0933 190.713 34.18 191.14 33.38C191.58 32.58 192.18 31.96 192.94 31.52C193.713 31.0667 194.62 30.84 195.66 30.84C196.633 30.84 197.493 31.0533 198.24 31.48C198.986 31.9067 199.566 32.4933 199.98 33.24C200.406 33.9733 200.62 34.7933 200.62 35.7C200.62 35.8467 200.613 36 200.6 36.16C200.6 36.32 200.593 36.4867 200.58 36.66H193.04C193.093 37.4333 193.36 38.04 193.84 38.48C194.333 38.92 194.926 39.14 195.62 39.14C196.14 39.14 196.573 39.0267 196.92 38.8C197.28 38.56 197.546 38.2533 197.72 37.88H200.32C200.133 38.5067 199.82 39.08 199.38 39.6C198.953 40.1067 198.42 40.5067 197.78 40.8C197.153 41.0933 196.44 41.24 195.64 41.24ZM195.66 32.92C195.033 32.92 194.48 33.1 194 33.46C193.52 33.8067 193.213 34.34 193.08 35.06H198.02C197.98 34.4067 197.74 33.8867 197.3 33.5C196.86 33.1133 196.313 32.92 195.66 32.92Z" fill="black"/>
<path d="M38.752 22C39.1985 24.6821 36.4014 26.7149 34.8376 27.6264C34.3763 27.8952 33.8558 27.5529 33.9354 27.0244C34.2026 25.2477 35.1797 22.0001 38.752 22Z" fill="black"/>
<path d="M30.1467 27.5386C31.2491 27.5386 32.2248 27.784 32.9674 28.0557C33.9039 28.3983 34.9948 28.3983 35.9313 28.0556C36.6737 27.784 37.6495 27.5386 38.7519 27.5386C40.0861 27.5386 41.7822 28.2634 43.0545 29.7129C38.752 33.077 39.9813 38.6155 44 40.0821C42.7169 43.6114 40.278 46.0001 38.1372 46.0001C36.2932 46.0001 36.2933 45.1386 34.4493 45.1386C32.6053 45.1386 32.6053 46.0001 30.7613 46.0001C27.688 46.0001 24 41.077 24 34.9232C24 30.0001 27.688 27.5386 30.1467 27.5386Z" fill="black"/>
<defs>
<filter id="filter0_d_634_46" x="0" y="0" width="251" height="72" filterUnits="userSpaceOnUse" color-interpolation-filters="sRGB">
<feFlood flood-opacity="0" result="BackgroundImageFix"/>
<feColorMatrix in="SourceAlpha" type="matrix" values="0 0 0 0 0 0 0 0 0 0 0 0 0 0 0 0 0 0 127 0" result="hardAlpha"/>
<feOffset dy="2"/>
<feGaussianBlur stdDeviation="2"/>
<feComposite in2="hardAlpha" operator="out"/>
<feColorMatrix type="matrix" values="0 0 0 0 0 0 0 0 0 0 0 0 0 0 0 0 0 0 0.75 0"/>
<feBlend mode="normal" in2="BackgroundImageFix" result="effect1_dropShadow_634_46"/>
<feBlend mode="normal" in="SourceGraphic" in2="effect1_dropShadow_634_46" result="shape"/>
</filter>
</defs>
</svg>
