<svg width="56" height="56" viewBox="0 0 56 56" fill="none" xmlns="http://www.w3.org/2000/svg">
<path d="M27.9999 36.2967C32.5817 36.2967 36.2962 32.5822 36.2962 28.0004C36.2962 23.4185 32.5817 19.7041 27.9999 19.7041C23.418 19.7041 19.7036 23.4185 19.7036 28.0004C19.7036 32.5822 23.418 36.2967 27.9999 36.2967Z" stroke="white" stroke-width="2" stroke-linecap="round" stroke-linejoin="round"/>
<path d="M9.3335 36.2965V19.7039C9.3335 13.9765 13.9765 9.3335 19.7039 9.3335H36.2965C42.0238 9.3335 46.6668 13.9765 46.6668 19.7039V36.2965C46.6668 42.0238 42.0238 46.6668 36.2965 46.6668H19.7039C13.9765 46.6668 9.3335 42.0238 9.3335 36.2965Z" stroke="white" stroke-width="2"/>
<path d="M39.4072 16.6134L39.428 16.5903" stroke="white" stroke-width="2" stroke-linecap="round" stroke-linejoin="round"/>
</svg>
