<svg width="243" height="48" viewBox="0 0 243 48" fill="none" xmlns="http://www.w3.org/2000/svg">
<path d="M1.704 32V15.2H4.248V29.984H11.88V32H1.704ZM19.5744 32.288C18.4064 32.288 17.3664 32.032 16.4544 31.52C15.5584 30.992 14.8544 30.264 14.3424 29.336C13.8304 28.408 13.5744 27.328 13.5744 26.096C13.5744 24.848 13.8224 23.752 14.3184 22.808C14.8304 21.864 15.5344 21.128 16.4304 20.6C17.3424 20.072 18.3984 19.808 19.5984 19.808C20.7664 19.808 21.7824 20.072 22.6464 20.6C23.5104 21.112 24.1824 21.8 24.6624 22.664C25.1424 23.528 25.3824 24.48 25.3824 25.52C25.3824 25.68 25.3744 25.856 25.3584 26.048C25.3584 26.224 25.3504 26.424 25.3344 26.648H16.0704C16.1504 27.8 16.5264 28.68 17.1984 29.288C17.8864 29.88 18.6784 30.176 19.5744 30.176C20.2944 30.176 20.8944 30.016 21.3744 29.696C21.8704 29.36 22.2384 28.912 22.4784 28.352H25.0224C24.7024 29.472 24.0624 30.408 23.1024 31.16C22.1584 31.912 20.9824 32.288 19.5744 32.288ZM19.5744 21.896C18.7264 21.896 17.9744 22.152 17.3184 22.664C16.6624 23.16 16.2624 23.912 16.1184 24.92H22.8384C22.7904 23.992 22.4624 23.256 21.8544 22.712C21.2464 22.168 20.4864 21.896 19.5744 21.896ZM32.0541 32.288C31.0461 32.288 30.2141 32.12 29.5581 31.784C28.9021 31.448 28.4141 31.008 28.0941 30.464C27.7741 29.904 27.6141 29.296 27.6141 28.64C27.6141 27.488 28.0621 26.576 28.9581 25.904C29.8541 25.232 31.1341 24.896 32.7981 24.896H35.9181V24.68C35.9181 23.752 35.6621 23.056 35.1501 22.592C34.6541 22.128 34.0061 21.896 33.2061 21.896C32.5021 21.896 31.8861 22.072 31.3581 22.424C30.8461 22.76 30.5341 23.264 30.4221 23.936H27.8781C27.9581 23.072 28.2461 22.336 28.7421 21.728C29.2541 21.104 29.8941 20.632 30.6621 20.312C31.4461 19.976 32.3021 19.808 33.2301 19.808C34.8941 19.808 36.1821 20.248 37.0941 21.128C38.0061 21.992 38.4621 23.176 38.4621 24.68V32H36.2541L36.0381 29.96C35.7021 30.616 35.2141 31.168 34.5741 31.616C33.9341 32.064 33.0941 32.288 32.0541 32.288ZM32.5581 30.224C33.2461 30.224 33.8221 30.064 34.2861 29.744C34.7661 29.408 35.1341 28.968 35.3901 28.424C35.6621 27.88 35.8301 27.28 35.8941 26.624H33.0621C32.0541 26.624 31.3341 26.8 30.9021 27.152C30.4861 27.504 30.2781 27.944 30.2781 28.472C30.2781 29.016 30.4781 29.448 30.8781 29.768C31.2941 30.072 31.8541 30.224 32.5581 30.224ZM41.4283 32V20.096H43.7083L43.9243 22.352C44.3403 21.568 44.9163 20.952 45.6523 20.504C46.4043 20.04 47.3083 19.808 48.3643 19.808V22.472H47.6683C46.9643 22.472 46.3323 22.592 45.7723 22.832C45.2283 23.056 44.7883 23.448 44.4523 24.008C44.1323 24.552 43.9723 25.312 43.9723 26.288V32H41.4283ZM50.5455 32V20.096H52.8015L52.9935 22.184C53.3615 21.448 53.8975 20.872 54.6015 20.456C55.3215 20.024 56.1455 19.808 57.0735 19.808C58.5135 19.808 59.6415 20.256 60.4575 21.152C61.2895 22.048 61.7055 23.384 61.7055 25.16V32H59.1855V25.424C59.1855 23.12 58.2415 21.968 56.3535 21.968C55.4095 21.968 54.6255 22.304 54.0015 22.976C53.3935 23.648 53.0895 24.608 53.0895 25.856V32H50.5455ZM70.8446 32V15.2H73.8446L79.5326 26.384L85.1966 15.2H88.1966V32H85.6526V19.592L80.5166 29.6H78.5486L73.3886 19.616V32H70.8446ZM97.0823 32.288C95.9463 32.288 94.9223 32.032 94.0103 31.52C93.1143 30.992 92.4023 30.264 91.8743 29.336C91.3463 28.392 91.0823 27.296 91.0823 26.048C91.0823 24.8 91.3463 23.712 91.8743 22.784C92.4183 21.84 93.1463 21.112 94.0583 20.6C94.9703 20.072 95.9863 19.808 97.1063 19.808C98.2423 19.808 99.2583 20.072 100.154 20.6C101.066 21.112 101.786 21.84 102.314 22.784C102.858 23.712 103.13 24.8 103.13 26.048C103.13 27.296 102.858 28.392 102.314 29.336C101.786 30.264 101.066 30.992 100.154 31.52C99.2423 32.032 98.2183 32.288 97.0823 32.288ZM97.0823 30.104C97.6903 30.104 98.2503 29.952 98.7623 29.648C99.2903 29.344 99.7143 28.896 100.034 28.304C100.354 27.696 100.514 26.944 100.514 26.048C100.514 25.152 100.354 24.408 100.034 23.816C99.7303 23.208 99.3143 22.752 98.7863 22.448C98.2743 22.144 97.7143 21.992 97.1063 21.992C96.4983 21.992 95.9303 22.144 95.4023 22.448C94.8903 22.752 94.4743 23.208 94.1543 23.816C93.8343 24.408 93.6743 25.152 93.6743 26.048C93.6743 26.944 93.8343 27.696 94.1543 28.304C94.4743 28.896 94.8903 29.344 95.4023 29.648C95.9143 29.952 96.4743 30.104 97.0823 30.104ZM105.881 32V20.096H108.161L108.377 22.352C108.793 21.568 109.369 20.952 110.105 20.504C110.857 20.04 111.761 19.808 112.817 19.808V22.472H112.121C111.417 22.472 110.785 22.592 110.225 22.832C109.681 23.056 109.241 23.448 108.905 24.008C108.585 24.552 108.425 25.312 108.425 26.288V32H105.881ZM120.239 32.288C119.071 32.288 118.031 32.032 117.119 31.52C116.223 30.992 115.519 30.264 115.007 29.336C114.495 28.408 114.239 27.328 114.239 26.096C114.239 24.848 114.487 23.752 114.983 22.808C115.495 21.864 116.199 21.128 117.095 20.6C118.007 20.072 119.063 19.808 120.263 19.808C121.431 19.808 122.447 20.072 123.311 20.6C124.175 21.112 124.847 21.8 125.327 22.664C125.807 23.528 126.047 24.48 126.047 25.52C126.047 25.68 126.039 25.856 126.023 26.048C126.023 26.224 126.015 26.424 125.999 26.648H116.735C116.815 27.8 117.191 28.68 117.863 29.288C118.551 29.88 119.343 30.176 120.239 30.176C120.959 30.176 121.559 30.016 122.039 29.696C122.535 29.36 122.903 28.912 123.143 28.352H125.687C125.367 29.472 124.727 30.408 123.767 31.16C122.823 31.912 121.647 32.288 120.239 32.288ZM120.239 21.896C119.391 21.896 118.639 22.152 117.983 22.664C117.327 23.16 116.927 23.912 116.783 24.92H123.503C123.455 23.992 123.127 23.256 122.519 22.712C121.911 22.168 121.151 21.896 120.239 21.896Z" fill="white"/>
<path d="M221.667 37V18.8C221.667 8.4 207 8.4 207 18.8M221.667 37L231 27.9M221.667 37L212.333 27.9" stroke="white" stroke-width="2" stroke-linecap="round" stroke-linejoin="round"/>
</svg>
