<svg width="120" height="24" viewBox="0 0 120 24" fill="none" xmlns="http://www.w3.org/2000/svg">
<path d="M1.136 17V5.8H2.832V15.656H7.92V17H1.136ZM13.0496 17.192C12.271 17.192 11.5776 17.0213 10.9696 16.68C10.3723 16.328 9.90296 15.8427 9.56163 15.224C9.22029 14.6053 9.04963 13.8853 9.04963 13.064C9.04963 12.232 9.21496 11.5013 9.54563 10.872C9.88696 10.2427 10.3563 9.752 10.9536 9.4C11.5616 9.048 12.2656 8.872 13.0656 8.872C13.8443 8.872 14.5216 9.048 15.0976 9.4C15.6736 9.74133 16.1216 10.2 16.4416 10.776C16.7616 11.352 16.9216 11.9867 16.9216 12.68C16.9216 12.7867 16.9163 12.904 16.9056 13.032C16.9056 13.1493 16.9003 13.2827 16.8896 13.432H10.7136C10.767 14.2 11.0176 14.7867 11.4656 15.192C11.9243 15.5867 12.4523 15.784 13.0496 15.784C13.5296 15.784 13.9296 15.6773 14.2496 15.464C14.5803 15.24 14.8256 14.9413 14.9856 14.568H16.6816C16.4683 15.3147 16.0416 15.9387 15.4016 16.44C14.7723 16.9413 13.9883 17.192 13.0496 17.192ZM13.0496 10.264C12.4843 10.264 11.983 10.4347 11.5456 10.776C11.1083 11.1067 10.8416 11.608 10.7456 12.28H15.2256C15.1936 11.6613 14.975 11.1707 14.5696 10.808C14.1643 10.4453 13.6576 10.264 13.0496 10.264ZM21.3694 17.192C20.6974 17.192 20.1427 17.08 19.7054 16.856C19.268 16.632 18.9427 16.3387 18.7294 15.976C18.516 15.6027 18.4094 15.1973 18.4094 14.76C18.4094 13.992 18.708 13.384 19.3054 12.936C19.9027 12.488 20.756 12.264 21.8654 12.264H23.9454V12.12C23.9454 11.5013 23.7747 11.0373 23.4334 10.728C23.1027 10.4187 22.6707 10.264 22.1374 10.264C21.668 10.264 21.2574 10.3813 20.9054 10.616C20.564 10.84 20.356 11.176 20.2814 11.624H18.5854C18.6387 11.048 18.8307 10.5573 19.1614 10.152C19.5027 9.736 19.9294 9.42133 20.4414 9.208C20.964 8.984 21.5347 8.872 22.1534 8.872C23.2627 8.872 24.1214 9.16533 24.7294 9.752C25.3374 10.328 25.6414 11.1173 25.6414 12.12V17H24.1694L24.0254 15.64C23.8014 16.0773 23.476 16.4453 23.0494 16.744C22.6227 17.0427 22.0627 17.192 21.3694 17.192ZM21.7054 15.816C22.164 15.816 22.548 15.7093 22.8574 15.496C23.1774 15.272 23.4227 14.9787 23.5934 14.616C23.7747 14.2533 23.8867 13.8533 23.9294 13.416H22.0414C21.3694 13.416 20.8894 13.5333 20.6014 13.768C20.324 14.0027 20.1854 14.296 20.1854 14.648C20.1854 15.0107 20.3187 15.2987 20.5854 15.512C20.8627 15.7147 21.236 15.816 21.7054 15.816ZM27.6189 17V9.064H29.1389L29.2829 10.568C29.5602 10.0453 29.9442 9.63467 30.4349 9.336C30.9362 9.02667 31.5389 8.872 32.2429 8.872V10.648H31.7789C31.3095 10.648 30.8882 10.728 30.5149 10.888C30.1522 11.0373 29.8589 11.2987 29.6349 11.672C29.4215 12.0347 29.3149 12.5413 29.3149 13.192V17H27.6189ZM33.697 17V9.064H35.201L35.329 10.456C35.5743 9.96533 35.9317 9.58133 36.401 9.304C36.881 9.016 37.4303 8.872 38.049 8.872C39.009 8.872 39.761 9.17067 40.305 9.768C40.8597 10.3653 41.137 11.256 41.137 12.44V17H39.457V12.616C39.457 11.08 38.8277 10.312 37.569 10.312C36.9397 10.312 36.417 10.536 36.001 10.984C35.5957 11.432 35.393 12.072 35.393 12.904V17H33.697ZM47.2298 17V5.8H49.2298L53.0218 13.256L56.7978 5.8H58.7978V17H57.1018V8.728L53.6778 15.4H52.3658L48.9258 8.744V17H47.2298ZM64.7215 17.192C63.9642 17.192 63.2815 17.0213 62.6735 16.68C62.0762 16.328 61.6015 15.8427 61.2495 15.224C60.8975 14.5947 60.7215 13.864 60.7215 13.032C60.7215 12.2 60.8975 11.4747 61.2495 10.856C61.6122 10.2267 62.0975 9.74133 62.7055 9.4C63.3135 9.048 63.9908 8.872 64.7375 8.872C65.4948 8.872 66.1722 9.048 66.7695 9.4C67.3775 9.74133 67.8575 10.2267 68.2095 10.856C68.5722 11.4747 68.7535 12.2 68.7535 13.032C68.7535 13.864 68.5722 14.5947 68.2095 15.224C67.8575 15.8427 67.3775 16.328 66.7695 16.68C66.1615 17.0213 65.4788 17.192 64.7215 17.192ZM64.7215 15.736C65.1268 15.736 65.5002 15.6347 65.8415 15.432C66.1935 15.2293 66.4762 14.9307 66.6895 14.536C66.9028 14.1307 67.0095 13.6293 67.0095 13.032C67.0095 12.4347 66.9028 11.9387 66.6895 11.544C66.4868 11.1387 66.2095 10.8347 65.8575 10.632C65.5162 10.4293 65.1428 10.328 64.7375 10.328C64.3322 10.328 63.9535 10.4293 63.6015 10.632C63.2602 10.8347 62.9828 11.1387 62.7695 11.544C62.5562 11.9387 62.4495 12.4347 62.4495 13.032C62.4495 13.6293 62.5562 14.1307 62.7695 14.536C62.9828 14.9307 63.2602 15.2293 63.6015 15.432C63.9428 15.6347 64.3162 15.736 64.7215 15.736ZM70.5876 17V9.064H72.1076L72.2516 10.568C72.529 10.0453 72.913 9.63467 73.4036 9.336C73.905 9.02667 74.5076 8.872 75.2116 8.872V10.648H74.7476C74.2783 10.648 73.857 10.728 73.4836 10.888C73.121 11.0373 72.8276 11.2987 72.6036 11.672C72.3903 12.0347 72.2836 12.5413 72.2836 13.192V17H70.5876ZM80.159 17.192C79.3803 17.192 78.687 17.0213 78.079 16.68C77.4817 16.328 77.0123 15.8427 76.671 15.224C76.3297 14.6053 76.159 13.8853 76.159 13.064C76.159 12.232 76.3243 11.5013 76.655 10.872C76.9963 10.2427 77.4657 9.752 78.063 9.4C78.671 9.048 79.375 8.872 80.175 8.872C80.9537 8.872 81.631 9.048 82.207 9.4C82.783 9.74133 83.231 10.2 83.551 10.776C83.871 11.352 84.031 11.9867 84.031 12.68C84.031 12.7867 84.0257 12.904 84.015 13.032C84.015 13.1493 84.0097 13.2827 83.999 13.432H77.823C77.8763 14.2 78.127 14.7867 78.575 15.192C79.0337 15.5867 79.5617 15.784 80.159 15.784C80.639 15.784 81.039 15.6773 81.359 15.464C81.6897 15.24 81.935 14.9413 82.095 14.568H83.791C83.5777 15.3147 83.151 15.9387 82.511 16.44C81.8817 16.9413 81.0977 17.192 80.159 17.192ZM80.159 10.264C79.5937 10.264 79.0923 10.4347 78.655 10.776C78.2177 11.1067 77.951 11.608 77.855 12.28H82.335C82.303 11.6613 82.0843 11.1707 81.679 10.808C81.2737 10.4453 80.767 10.264 80.159 10.264Z" fill="white"/>
<path d="M109.333 18.5V9.4C109.333 4.2 102 4.2 102 9.4M109.333 18.5L114 13.95M109.333 18.5L104.667 13.95" stroke="white" stroke-linecap="round" stroke-linejoin="round"/>
</svg>
