<svg width="480" height="155" viewBox="0 0 480 155" fill="none" xmlns="http://www.w3.org/2000/svg">
<path d="M2.72021 147V124.28H12.4482C13.4509 124.28 14.3682 124.493 15.2002 124.92C16.0322 125.325 16.7575 125.88 17.3762 126.584C17.9949 127.267 18.4749 128.045 18.8162 128.92C19.1575 129.773 19.3282 130.648 19.3282 131.544C19.3282 132.589 19.1255 133.581 18.7202 134.52C18.3362 135.459 17.7815 136.259 17.0562 136.92C16.3522 137.581 15.5202 138.04 14.5602 138.296L20.0642 147H16.8002L11.6162 138.84H5.60022V147H2.72021ZM5.60022 136.28H12.4802C13.2695 136.28 13.9522 136.067 14.5282 135.64C15.1255 135.192 15.5842 134.605 15.9042 133.88C16.2455 133.155 16.4162 132.376 16.4162 131.544C16.4162 130.691 16.2242 129.912 15.8402 129.208C15.4562 128.483 14.9549 127.907 14.3362 127.48C13.7175 127.053 13.0349 126.84 12.2882 126.84H5.60022V136.28Z" fill="white"/>
<path d="M30.1642 147.32C28.9056 147.32 27.7535 147.096 26.7082 146.648C25.6842 146.179 24.7882 145.549 24.0202 144.76C23.2735 143.949 22.6869 143.021 22.2602 141.976C21.8549 140.931 21.6522 139.821 21.6522 138.648C21.6522 137.069 22.0149 135.629 22.7402 134.328C23.4655 133.027 24.4682 131.981 25.7482 131.192C27.0496 130.403 28.5322 130.008 30.1962 130.008C31.8815 130.008 33.3429 130.413 34.5802 131.224C35.8389 132.013 36.8095 133.059 37.4922 134.36C38.1962 135.64 38.5482 137.027 38.5482 138.52C38.5482 138.733 38.5375 138.947 38.5162 139.16C38.5162 139.352 38.5055 139.501 38.4842 139.608H24.6282C24.7135 140.696 25.0122 141.667 25.5242 142.52C26.0575 143.352 26.7402 144.013 27.5722 144.504C28.4042 144.973 29.3002 145.208 30.2602 145.208C31.2842 145.208 32.2442 144.952 33.1402 144.44C34.0575 143.928 34.6869 143.256 35.0282 142.424L37.4602 143.096C37.0975 143.907 36.5535 144.632 35.8282 145.272C35.1242 145.912 34.2815 146.413 33.3002 146.776C32.3402 147.139 31.2949 147.32 30.1642 147.32ZM24.5322 137.656H35.9242C35.8389 136.568 35.5295 135.608 34.9962 134.776C34.4629 133.944 33.7802 133.293 32.9482 132.824C32.1162 132.355 31.1989 132.12 30.1962 132.12C29.2149 132.12 28.3082 132.355 27.4762 132.824C26.6442 133.293 25.9616 133.944 25.4282 134.776C24.9162 135.608 24.6175 136.568 24.5322 137.656Z" fill="white"/>
<path d="M40.3665 142.168C40.3665 141.101 40.6651 140.184 41.2625 139.416C41.8811 138.627 42.7238 138.019 43.7905 137.592C44.8571 137.165 46.0945 136.952 47.5025 136.952C48.2491 136.952 49.0385 137.016 49.8705 137.144C50.7025 137.251 51.4385 137.421 52.0785 137.656V136.44C52.0785 135.16 51.6945 134.157 50.9265 133.432C50.1585 132.685 49.0705 132.312 47.6625 132.312C46.7451 132.312 45.8598 132.483 45.0065 132.824C44.1745 133.144 43.2891 133.613 42.3505 134.232L41.3265 132.248C42.4145 131.501 43.5025 130.947 44.5905 130.584C45.6785 130.2 46.8091 130.008 47.9825 130.008C50.1158 130.008 51.8011 130.605 53.0385 131.8C54.2758 132.973 54.8945 134.616 54.8945 136.728V143.8C54.8945 144.141 54.9585 144.397 55.0865 144.568C55.2358 144.717 55.4705 144.803 55.7905 144.824V147C55.5131 147.043 55.2678 147.075 55.0545 147.096C54.8625 147.117 54.7025 147.128 54.5745 147.128C53.9131 147.128 53.4118 146.947 53.0705 146.584C52.7505 146.221 52.5691 145.837 52.5265 145.432L52.4625 144.376C51.7371 145.315 50.7878 146.04 49.6145 146.552C48.4411 147.064 47.2785 147.32 46.1265 147.32C45.0171 147.32 44.0251 147.096 43.1505 146.648C42.2758 146.179 41.5931 145.56 41.1025 144.792C40.6118 144.003 40.3665 143.128 40.3665 142.168ZM51.2465 143.352C51.5025 143.053 51.7051 142.755 51.8545 142.456C52.0038 142.136 52.0785 141.869 52.0785 141.656V139.576C51.4171 139.32 50.7238 139.128 49.9985 139C49.2731 138.851 48.5585 138.776 47.8545 138.776C46.4251 138.776 45.2625 139.064 44.3665 139.64C43.4918 140.195 43.0545 140.963 43.0545 141.944C43.0545 142.477 43.1931 143 43.4705 143.512C43.7691 144.003 44.1958 144.408 44.7505 144.728C45.3265 145.048 46.0305 145.208 46.8625 145.208C47.7371 145.208 48.5691 145.037 49.3585 144.696C50.1478 144.333 50.7771 143.885 51.2465 143.352Z" fill="white"/>
<path d="M59.4612 123.64H62.2772V142.68C62.2772 143.597 62.4052 144.163 62.6612 144.376C62.9172 144.589 63.2265 144.696 63.5892 144.696C64.0372 144.696 64.4639 144.653 64.8692 144.568C65.2746 144.461 65.6159 144.355 65.8932 144.248L66.3412 146.552C65.8719 146.744 65.3172 146.904 64.6772 147.032C64.0372 147.16 63.4719 147.224 62.9812 147.224C61.8932 147.224 61.0292 146.915 60.3892 146.296C59.7705 145.677 59.4612 144.813 59.4612 143.704V123.64Z" fill="white"/>
<path d="M74.5905 138.68C74.5905 137.101 74.9105 135.661 75.5505 134.36C76.2118 133.037 77.1078 131.981 78.2385 131.192C79.3905 130.403 80.7025 130.008 82.1745 130.008C83.5185 130.008 84.7238 130.36 85.7905 131.064C86.8571 131.768 87.6891 132.621 88.2865 133.624V123.64H91.1025V143.8C91.1025 144.141 91.1665 144.397 91.2945 144.568C91.4438 144.717 91.6785 144.803 91.9985 144.824V147C91.4651 147.085 91.0491 147.128 90.7505 147.128C90.1958 147.128 89.7051 146.936 89.2785 146.552C88.8731 146.168 88.6705 145.741 88.6705 145.272V143.864C88.0091 144.931 87.1238 145.773 86.0145 146.392C84.9051 147.011 83.7531 147.32 82.5585 147.32C81.4065 147.32 80.3398 147.096 79.3585 146.648C78.3985 146.179 77.5558 145.539 76.8305 144.728C76.1265 143.917 75.5718 143 75.1665 141.976C74.7825 140.931 74.5905 139.832 74.5905 138.68ZM88.2865 141.144V136.344C88.0305 135.619 87.6145 134.968 87.0385 134.392C86.4625 133.795 85.8118 133.325 85.0865 132.984C84.3825 132.621 83.6785 132.44 82.9745 132.44C82.1425 132.44 81.3851 132.621 80.7025 132.984C80.0411 133.325 79.4651 133.795 78.9745 134.392C78.5051 134.968 78.1425 135.629 77.8865 136.376C77.6305 137.123 77.5025 137.901 77.5025 138.712C77.5025 139.544 77.6411 140.333 77.9185 141.08C78.2171 141.827 78.6225 142.488 79.1345 143.064C79.6678 143.64 80.2758 144.088 80.9585 144.408C81.6625 144.728 82.4198 144.888 83.2305 144.888C83.7425 144.888 84.2651 144.792 84.7985 144.6C85.3531 144.408 85.8758 144.141 86.3665 143.8C86.8571 143.459 87.2731 143.064 87.6145 142.616C87.9558 142.147 88.1798 141.656 88.2865 141.144Z" fill="white"/>
<path d="M94.4915 142.168C94.4915 141.101 94.7901 140.184 95.3875 139.416C96.0061 138.627 96.8488 138.019 97.9155 137.592C98.9821 137.165 100.219 136.952 101.627 136.952C102.374 136.952 103.163 137.016 103.995 137.144C104.827 137.251 105.563 137.421 106.203 137.656V136.44C106.203 135.16 105.819 134.157 105.051 133.432C104.283 132.685 103.195 132.312 101.787 132.312C100.87 132.312 99.9848 132.483 99.1315 132.824C98.2995 133.144 97.4141 133.613 96.4755 134.232L95.4515 132.248C96.5395 131.501 97.6275 130.947 98.7155 130.584C99.8035 130.2 100.934 130.008 102.107 130.008C104.241 130.008 105.926 130.605 107.163 131.8C108.401 132.973 109.019 134.616 109.019 136.728V143.8C109.019 144.141 109.083 144.397 109.211 144.568C109.361 144.717 109.595 144.803 109.915 144.824V147C109.638 147.043 109.393 147.075 109.179 147.096C108.987 147.117 108.827 147.128 108.699 147.128C108.038 147.128 107.537 146.947 107.195 146.584C106.875 146.221 106.694 145.837 106.651 145.432L106.587 144.376C105.862 145.315 104.913 146.04 103.739 146.552C102.566 147.064 101.403 147.32 100.251 147.32C99.1421 147.32 98.1501 147.096 97.2755 146.648C96.4008 146.179 95.7181 145.56 95.2275 144.792C94.7368 144.003 94.4915 143.128 94.4915 142.168ZM105.371 143.352C105.627 143.053 105.83 142.755 105.979 142.456C106.129 142.136 106.203 141.869 106.203 141.656V139.576C105.542 139.32 104.849 139.128 104.123 139C103.398 138.851 102.683 138.776 101.979 138.776C100.55 138.776 99.3875 139.064 98.4915 139.64C97.6168 140.195 97.1795 140.963 97.1795 141.944C97.1795 142.477 97.3181 143 97.5955 143.512C97.8941 144.003 98.3208 144.408 98.8755 144.728C99.4515 145.048 100.155 145.208 100.987 145.208C101.862 145.208 102.694 145.037 103.483 144.696C104.273 144.333 104.902 143.885 105.371 143.352Z" fill="white"/>
<path d="M122.037 146.168C121.803 146.275 121.483 146.413 121.077 146.584C120.672 146.755 120.203 146.904 119.669 147.032C119.136 147.16 118.571 147.224 117.973 147.224C117.291 147.224 116.661 147.107 116.085 146.872C115.509 146.616 115.051 146.232 114.709 145.72C114.368 145.187 114.197 144.525 114.197 143.736V132.504H111.925V130.296H114.197V124.728H117.013V130.296H120.757V132.504H117.013V142.872C117.056 143.469 117.259 143.917 117.621 144.216C117.984 144.493 118.411 144.632 118.901 144.632C119.456 144.632 119.968 144.536 120.437 144.344C120.907 144.152 121.216 144.013 121.365 143.928L122.037 146.168Z" fill="white"/>
<path d="M124.647 147V130.296H127.463V147H124.647ZM124.647 127.16V123.64H127.463V127.16H124.647Z" fill="white"/>
<path d="M146.518 147H143.702V137.656C143.702 135.885 143.425 134.595 142.87 133.784C142.337 132.952 141.516 132.536 140.406 132.536C139.638 132.536 138.87 132.728 138.102 133.112C137.356 133.496 136.684 134.019 136.086 134.68C135.51 135.32 135.094 136.067 134.838 136.92V147H132.022V130.296H134.582V133.88C135.03 133.091 135.606 132.408 136.31 131.832C137.014 131.256 137.814 130.808 138.71 130.488C139.606 130.168 140.545 130.008 141.526 130.008C142.486 130.008 143.286 130.189 143.926 130.552C144.588 130.893 145.1 131.384 145.462 132.024C145.846 132.643 146.113 133.379 146.262 134.232C146.433 135.085 146.518 136.013 146.518 137.016V147Z" fill="white"/>
<path d="M157.553 147.192C156.423 147.192 155.377 146.968 154.417 146.52C153.479 146.051 152.668 145.421 151.985 144.632C151.303 143.821 150.769 142.904 150.385 141.88C150.023 140.856 149.841 139.789 149.841 138.68C149.841 137.507 150.023 136.397 150.385 135.352C150.769 134.307 151.303 133.389 151.985 132.6C152.689 131.789 153.511 131.16 154.449 130.712C155.388 130.243 156.433 130.008 157.585 130.008C158.972 130.008 160.177 130.349 161.201 131.032C162.247 131.715 163.121 132.579 163.825 133.624V130.296H166.321V146.808C166.321 148.387 165.937 149.72 165.169 150.808C164.423 151.896 163.399 152.717 162.097 153.272C160.817 153.848 159.388 154.136 157.809 154.136C155.932 154.136 154.396 153.805 153.201 153.144C152.007 152.483 151.015 151.587 150.225 150.456L151.857 149.016C152.519 149.997 153.372 150.733 154.417 151.224C155.484 151.715 156.615 151.96 157.809 151.96C158.833 151.96 159.772 151.768 160.625 151.384C161.5 151.021 162.193 150.456 162.705 149.688C163.239 148.92 163.505 147.96 163.505 146.808V143.864C162.887 144.888 162.033 145.699 160.945 146.296C159.879 146.893 158.748 147.192 157.553 147.192ZM158.417 144.888C159.015 144.888 159.591 144.781 160.145 144.568C160.7 144.355 161.212 144.077 161.681 143.736C162.151 143.373 162.545 142.968 162.865 142.52C163.185 142.072 163.399 141.613 163.505 141.144V136.344C163.207 135.576 162.78 134.904 162.225 134.328C161.671 133.731 161.041 133.272 160.337 132.952C159.633 132.611 158.908 132.44 158.161 132.44C157.308 132.44 156.54 132.621 155.857 132.984C155.196 133.347 154.631 133.837 154.161 134.456C153.692 135.053 153.329 135.725 153.073 136.472C152.817 137.219 152.689 137.976 152.689 138.744C152.689 139.576 152.839 140.365 153.137 141.112C153.436 141.837 153.841 142.488 154.353 143.064C154.865 143.64 155.473 144.088 156.177 144.408C156.881 144.728 157.628 144.888 158.417 144.888Z" fill="white"/>
<path d="M193.456 147H190.64V137.656C190.64 135.949 190.33 134.669 189.712 133.816C189.114 132.963 188.25 132.536 187.12 132.536C186.394 132.536 185.658 132.728 184.912 133.112C184.186 133.496 183.546 134.019 182.992 134.68C182.437 135.32 182.032 136.067 181.776 136.92V147H178.96V123.64H181.776V133.88C182.437 132.685 183.333 131.747 184.464 131.064C185.616 130.36 186.853 130.008 188.176 130.008C189.178 130.008 190.01 130.189 190.672 130.552C191.354 130.893 191.898 131.384 192.304 132.024C192.709 132.664 192.997 133.411 193.168 134.264C193.36 135.096 193.456 136.013 193.456 137.016V147Z" fill="white"/>
<path d="M196.523 142.168C196.523 141.101 196.821 140.184 197.419 139.416C198.037 138.627 198.88 138.019 199.947 137.592C201.013 137.165 202.251 136.952 203.659 136.952C204.405 136.952 205.195 137.016 206.027 137.144C206.859 137.251 207.595 137.421 208.235 137.656V136.44C208.235 135.16 207.851 134.157 207.083 133.432C206.315 132.685 205.227 132.312 203.819 132.312C202.901 132.312 202.016 132.483 201.163 132.824C200.331 133.144 199.445 133.613 198.507 134.232L197.483 132.248C198.571 131.501 199.659 130.947 200.747 130.584C201.835 130.2 202.965 130.008 204.139 130.008C206.272 130.008 207.957 130.605 209.195 131.8C210.432 132.973 211.051 134.616 211.051 136.728V143.8C211.051 144.141 211.115 144.397 211.243 144.568C211.392 144.717 211.627 144.803 211.947 144.824V147C211.669 147.043 211.424 147.075 211.211 147.096C211.019 147.117 210.859 147.128 210.731 147.128C210.069 147.128 209.568 146.947 209.227 146.584C208.907 146.221 208.725 145.837 208.683 145.432L208.619 144.376C207.893 145.315 206.944 146.04 205.771 146.552C204.597 147.064 203.435 147.32 202.283 147.32C201.173 147.32 200.181 147.096 199.307 146.648C198.432 146.179 197.749 145.56 197.259 144.792C196.768 144.003 196.523 143.128 196.523 142.168ZM207.403 143.352C207.659 143.053 207.861 142.755 208.011 142.456C208.16 142.136 208.235 141.869 208.235 141.656V139.576C207.573 139.32 206.88 139.128 206.155 139C205.429 138.851 204.715 138.776 204.011 138.776C202.581 138.776 201.419 139.064 200.523 139.64C199.648 140.195 199.211 140.963 199.211 141.944C199.211 142.477 199.349 143 199.627 143.512C199.925 144.003 200.352 144.408 200.907 144.728C201.483 145.048 202.187 145.208 203.019 145.208C203.893 145.208 204.725 145.037 205.515 144.696C206.304 144.333 206.933 143.885 207.403 143.352Z" fill="white"/>
<path d="M224.545 147.32C223.18 147.32 221.964 146.979 220.897 146.296C219.831 145.613 218.988 144.749 218.369 143.704V153.816H215.553V130.296H218.049V133.432C218.711 132.408 219.575 131.587 220.641 130.968C221.708 130.328 222.871 130.008 224.129 130.008C225.281 130.008 226.337 130.243 227.297 130.712C228.257 131.181 229.089 131.821 229.793 132.632C230.497 133.443 231.041 134.371 231.425 135.416C231.831 136.44 232.033 137.517 232.033 138.648C232.033 140.227 231.713 141.677 231.073 143C230.455 144.323 229.58 145.379 228.449 146.168C227.319 146.936 226.017 147.32 224.545 147.32ZM223.681 144.888C224.513 144.888 225.26 144.717 225.921 144.376C226.604 144.013 227.18 143.544 227.649 142.968C228.14 142.371 228.513 141.699 228.769 140.952C229.025 140.205 229.153 139.437 229.153 138.648C229.153 137.816 229.004 137.027 228.705 136.28C228.428 135.533 228.023 134.872 227.489 134.296C226.977 133.72 226.369 133.272 225.665 132.952C224.983 132.611 224.236 132.44 223.425 132.44C222.913 132.44 222.38 132.536 221.825 132.728C221.292 132.92 220.78 133.197 220.289 133.56C219.799 133.901 219.383 134.296 219.041 134.744C218.7 135.192 218.476 135.672 218.369 136.184V140.952C218.689 141.677 219.116 142.339 219.649 142.936C220.183 143.533 220.801 144.013 221.505 144.376C222.209 144.717 222.935 144.888 223.681 144.888Z" fill="white"/>
<path d="M244.483 147.32C243.118 147.32 241.902 146.979 240.835 146.296C239.768 145.613 238.926 144.749 238.307 143.704V153.816H235.491V130.296H237.987V133.432C238.648 132.408 239.512 131.587 240.579 130.968C241.646 130.328 242.808 130.008 244.067 130.008C245.219 130.008 246.275 130.243 247.235 130.712C248.195 131.181 249.027 131.821 249.731 132.632C250.435 133.443 250.979 134.371 251.363 135.416C251.768 136.44 251.971 137.517 251.971 138.648C251.971 140.227 251.651 141.677 251.011 143C250.392 144.323 249.518 145.379 248.387 146.168C247.256 146.936 245.955 147.32 244.483 147.32ZM243.619 144.888C244.451 144.888 245.198 144.717 245.859 144.376C246.542 144.013 247.118 143.544 247.587 142.968C248.078 142.371 248.451 141.699 248.707 140.952C248.963 140.205 249.091 139.437 249.091 138.648C249.091 137.816 248.942 137.027 248.643 136.28C248.366 135.533 247.96 134.872 247.427 134.296C246.915 133.72 246.307 133.272 245.603 132.952C244.92 132.611 244.174 132.44 243.363 132.44C242.851 132.44 242.318 132.536 241.763 132.728C241.23 132.92 240.718 133.197 240.227 133.56C239.736 133.901 239.32 134.296 238.979 134.744C238.638 135.192 238.414 135.672 238.307 136.184V140.952C238.627 141.677 239.054 142.339 239.587 142.936C240.12 143.533 240.739 144.013 241.443 144.376C242.147 144.717 242.872 144.888 243.619 144.888Z" fill="white"/>
<path d="M262.82 147.32C261.562 147.32 260.41 147.096 259.364 146.648C258.34 146.179 257.444 145.549 256.676 144.76C255.93 143.949 255.343 143.021 254.916 141.976C254.511 140.931 254.308 139.821 254.308 138.648C254.308 137.069 254.671 135.629 255.396 134.328C256.122 133.027 257.124 131.981 258.404 131.192C259.706 130.403 261.188 130.008 262.852 130.008C264.538 130.008 265.999 130.413 267.236 131.224C268.495 132.013 269.466 133.059 270.148 134.36C270.852 135.64 271.204 137.027 271.204 138.52C271.204 138.733 271.194 138.947 271.172 139.16C271.172 139.352 271.162 139.501 271.14 139.608H257.284C257.37 140.696 257.668 141.667 258.18 142.52C258.714 143.352 259.396 144.013 260.228 144.504C261.06 144.973 261.956 145.208 262.916 145.208C263.94 145.208 264.9 144.952 265.796 144.44C266.714 143.928 267.343 143.256 267.684 142.424L270.116 143.096C269.754 143.907 269.21 144.632 268.484 145.272C267.78 145.912 266.938 146.413 265.956 146.776C264.996 147.139 263.951 147.32 262.82 147.32ZM257.188 137.656H268.58C268.495 136.568 268.186 135.608 267.652 134.776C267.119 133.944 266.436 133.293 265.604 132.824C264.772 132.355 263.855 132.12 262.852 132.12C261.871 132.12 260.964 132.355 260.132 132.824C259.3 133.293 258.618 133.944 258.084 134.776C257.572 135.608 257.274 136.568 257.188 137.656Z" fill="white"/>
<path d="M288.831 147H286.015V137.656C286.015 135.885 285.737 134.595 285.183 133.784C284.649 132.952 283.828 132.536 282.719 132.536C281.951 132.536 281.183 132.728 280.415 133.112C279.668 133.496 278.996 134.019 278.399 134.68C277.823 135.32 277.407 136.067 277.151 136.92V147H274.335V130.296H276.895V133.88C277.343 133.091 277.919 132.408 278.623 131.832C279.327 131.256 280.127 130.808 281.023 130.488C281.919 130.168 282.857 130.008 283.839 130.008C284.799 130.008 285.599 130.189 286.239 130.552C286.9 130.893 287.412 131.384 287.775 132.024C288.159 132.643 288.425 133.379 288.575 134.232C288.745 135.085 288.831 136.013 288.831 137.016V147Z" fill="white"/>
<path d="M298.938 147.32C297.551 147.32 296.25 147.096 295.034 146.648C293.818 146.179 292.772 145.485 291.898 144.568L292.986 142.584C293.946 143.48 294.906 144.12 295.866 144.504C296.826 144.888 297.807 145.08 298.81 145.08C299.962 145.08 300.9 144.867 301.626 144.44C302.351 143.992 302.714 143.341 302.714 142.488C302.714 141.869 302.522 141.411 302.138 141.112C301.775 140.813 301.252 140.568 300.57 140.376C299.887 140.163 299.076 139.928 298.138 139.672C296.986 139.331 296.015 138.968 295.226 138.584C294.436 138.2 293.839 137.72 293.434 137.144C293.028 136.568 292.826 135.843 292.826 134.968C292.826 133.901 293.103 133.005 293.658 132.28C294.212 131.533 294.97 130.968 295.93 130.584C296.911 130.2 298.02 130.008 299.258 130.008C300.495 130.008 301.615 130.2 302.618 130.584C303.62 130.968 304.484 131.533 305.21 132.28L303.93 134.232C303.268 133.549 302.543 133.048 301.754 132.728C300.964 132.387 300.079 132.216 299.098 132.216C298.522 132.216 297.956 132.291 297.402 132.44C296.847 132.568 296.388 132.813 296.026 133.176C295.663 133.517 295.482 134.008 295.482 134.648C295.482 135.181 295.62 135.608 295.898 135.928C296.196 136.227 296.623 136.483 297.178 136.696C297.754 136.909 298.447 137.144 299.258 137.4C300.516 137.763 301.604 138.125 302.522 138.488C303.46 138.851 304.186 139.32 304.698 139.896C305.21 140.472 305.466 141.272 305.466 142.296C305.466 143.875 304.868 145.112 303.674 146.008C302.479 146.883 300.9 147.32 298.938 147.32Z" fill="white"/>
<path d="M316.928 147V130.296H319.744V147H316.928ZM316.928 127.16V123.64H319.744V127.16H316.928Z" fill="white"/>
<path d="M338.799 147H335.983V137.656C335.983 135.885 335.706 134.595 335.151 133.784C334.618 132.952 333.797 132.536 332.687 132.536C331.919 132.536 331.151 132.728 330.383 133.112C329.637 133.496 328.965 134.019 328.367 134.68C327.791 135.32 327.375 136.067 327.119 136.92V147H324.303V130.296H326.863V133.88C327.311 133.091 327.887 132.408 328.591 131.832C329.295 131.256 330.095 130.808 330.991 130.488C331.887 130.168 332.826 130.008 333.807 130.008C334.767 130.008 335.567 130.189 336.207 130.552C336.869 130.893 337.381 131.384 337.743 132.024C338.127 132.643 338.394 133.379 338.543 134.232C338.714 135.085 338.799 136.013 338.799 137.016V147Z" fill="white"/>
<path d="M360.264 147.32C358.899 147.32 357.683 146.979 356.616 146.296C355.55 145.613 354.707 144.749 354.088 143.704V153.816H351.272V130.296H353.768V133.432C354.43 132.408 355.294 131.587 356.36 130.968C357.427 130.328 358.59 130.008 359.848 130.008C361 130.008 362.056 130.243 363.016 130.712C363.976 131.181 364.808 131.821 365.512 132.632C366.216 133.443 366.76 134.371 367.144 135.416C367.55 136.44 367.752 137.517 367.752 138.648C367.752 140.227 367.432 141.677 366.792 143C366.174 144.323 365.299 145.379 364.168 146.168C363.038 146.936 361.736 147.32 360.264 147.32ZM359.4 144.888C360.232 144.888 360.979 144.717 361.64 144.376C362.323 144.013 362.899 143.544 363.368 142.968C363.859 142.371 364.232 141.699 364.488 140.952C364.744 140.205 364.872 139.437 364.872 138.648C364.872 137.816 364.723 137.027 364.424 136.28C364.147 135.533 363.742 134.872 363.208 134.296C362.696 133.72 362.088 133.272 361.384 132.952C360.702 132.611 359.955 132.44 359.144 132.44C358.632 132.44 358.099 132.536 357.544 132.728C357.011 132.92 356.499 133.197 356.008 133.56C355.518 133.901 355.102 134.296 354.76 134.744C354.419 135.192 354.195 135.672 354.088 136.184V140.952C354.408 141.677 354.835 142.339 355.368 142.936C355.902 143.533 356.52 144.013 357.224 144.376C357.928 144.717 358.654 144.888 359.4 144.888Z" fill="white"/>
<path d="M378.602 147.32C377.343 147.32 376.191 147.096 375.146 146.648C374.122 146.179 373.226 145.549 372.458 144.76C371.711 143.949 371.124 143.021 370.698 141.976C370.292 140.931 370.09 139.821 370.09 138.648C370.09 137.069 370.452 135.629 371.178 134.328C371.903 133.027 372.906 131.981 374.186 131.192C375.487 130.403 376.97 130.008 378.634 130.008C380.319 130.008 381.78 130.413 383.018 131.224C384.276 132.013 385.247 133.059 385.93 134.36C386.634 135.64 386.986 137.027 386.986 138.52C386.986 138.733 386.975 138.947 386.954 139.16C386.954 139.352 386.943 139.501 386.922 139.608H373.066C373.151 140.696 373.45 141.667 373.962 142.52C374.495 143.352 375.178 144.013 376.01 144.504C376.842 144.973 377.738 145.208 378.698 145.208C379.722 145.208 380.682 144.952 381.578 144.44C382.495 143.928 383.124 143.256 383.466 142.424L385.898 143.096C385.535 143.907 384.991 144.632 384.266 145.272C383.562 145.912 382.719 146.413 381.738 146.776C380.778 147.139 379.732 147.32 378.602 147.32ZM372.97 137.656H384.362C384.276 136.568 383.967 135.608 383.434 134.776C382.9 133.944 382.218 133.293 381.386 132.824C380.554 132.355 379.636 132.12 378.634 132.12C377.652 132.12 376.746 132.355 375.914 132.824C375.082 133.293 374.399 133.944 373.866 134.776C373.354 135.608 373.055 136.568 372.97 137.656Z" fill="white"/>
<path d="M398.948 132.76C397.54 132.781 396.292 133.144 395.204 133.848C394.137 134.531 393.38 135.48 392.932 136.696V147H390.116V130.296H392.74V134.168C393.316 133.016 394.073 132.088 395.012 131.384C395.972 130.659 396.975 130.253 398.02 130.168C398.233 130.168 398.415 130.168 398.564 130.168C398.713 130.168 398.841 130.179 398.948 130.2V132.76Z" fill="white"/>
<path d="M407.469 147.32C406.082 147.32 404.781 147.096 403.565 146.648C402.349 146.179 401.304 145.485 400.429 144.568L401.517 142.584C402.477 143.48 403.437 144.12 404.397 144.504C405.357 144.888 406.338 145.08 407.341 145.08C408.493 145.08 409.432 144.867 410.157 144.44C410.882 143.992 411.245 143.341 411.245 142.488C411.245 141.869 411.053 141.411 410.669 141.112C410.306 140.813 409.784 140.568 409.101 140.376C408.418 140.163 407.608 139.928 406.669 139.672C405.517 139.331 404.546 138.968 403.757 138.584C402.968 138.2 402.37 137.72 401.965 137.144C401.56 136.568 401.357 135.843 401.357 134.968C401.357 133.901 401.634 133.005 402.189 132.28C402.744 131.533 403.501 130.968 404.461 130.584C405.442 130.2 406.552 130.008 407.789 130.008C409.026 130.008 410.146 130.2 411.149 130.584C412.152 130.968 413.016 131.533 413.741 132.28L412.461 134.232C411.8 133.549 411.074 133.048 410.285 132.728C409.496 132.387 408.61 132.216 407.629 132.216C407.053 132.216 406.488 132.291 405.933 132.44C405.378 132.568 404.92 132.813 404.557 133.176C404.194 133.517 404.013 134.008 404.013 134.648C404.013 135.181 404.152 135.608 404.429 135.928C404.728 136.227 405.154 136.483 405.709 136.696C406.285 136.909 406.978 137.144 407.789 137.4C409.048 137.763 410.136 138.125 411.053 138.488C411.992 138.851 412.717 139.32 413.229 139.896C413.741 140.472 413.997 141.272 413.997 142.296C413.997 143.875 413.4 145.112 412.205 146.008C411.01 146.883 409.432 147.32 407.469 147.32Z" fill="white"/>
<path d="M424.662 147.32C423.403 147.32 422.262 147.096 421.238 146.648C420.214 146.179 419.329 145.549 418.582 144.76C417.835 143.949 417.259 143.021 416.854 141.976C416.449 140.931 416.246 139.832 416.246 138.68C416.246 137.507 416.449 136.397 416.854 135.352C417.259 134.307 417.835 133.389 418.582 132.6C419.329 131.789 420.214 131.16 421.238 130.712C422.283 130.243 423.425 130.008 424.662 130.008C425.921 130.008 427.062 130.243 428.086 130.712C429.11 131.16 429.995 131.789 430.742 132.6C431.51 133.389 432.097 134.307 432.502 135.352C432.907 136.397 433.11 137.507 433.11 138.68C433.11 139.832 432.907 140.931 432.502 141.976C432.097 143.021 431.521 143.949 430.774 144.76C430.027 145.549 429.131 146.179 428.086 146.648C427.062 147.096 425.921 147.32 424.662 147.32ZM419.126 138.712C419.126 139.864 419.371 140.909 419.862 141.848C420.374 142.787 421.046 143.533 421.878 144.088C422.71 144.621 423.638 144.888 424.662 144.888C425.686 144.888 426.614 144.611 427.446 144.056C428.299 143.501 428.971 142.755 429.462 141.816C429.974 140.856 430.23 139.8 430.23 138.648C430.23 137.496 429.974 136.451 429.462 135.512C428.971 134.573 428.299 133.827 427.446 133.272C426.614 132.717 425.686 132.44 424.662 132.44C423.638 132.44 422.71 132.728 421.878 133.304C421.046 133.859 420.374 134.605 419.862 135.544C419.371 136.483 419.126 137.539 419.126 138.712Z" fill="white"/>
<path d="M451.018 147H448.202V137.656C448.202 135.885 447.925 134.595 447.37 133.784C446.837 132.952 446.016 132.536 444.906 132.536C444.138 132.536 443.37 132.728 442.602 133.112C441.856 133.496 441.184 134.019 440.586 134.68C440.01 135.32 439.594 136.067 439.338 136.92V147H436.522V130.296H439.082V133.88C439.53 133.091 440.106 132.408 440.81 131.832C441.514 131.256 442.314 130.808 443.21 130.488C444.106 130.168 445.045 130.008 446.026 130.008C446.986 130.008 447.786 130.189 448.426 130.552C449.088 130.893 449.6 131.384 449.962 132.024C450.346 132.643 450.613 133.379 450.762 134.232C450.933 135.085 451.018 136.013 451.018 137.016V147Z" fill="white"/>
<path d="M455.173 147V143.416H457.541V147H455.173Z" fill="white"/>
<path fill-rule="evenodd" clip-rule="evenodd" d="M453.955 9.51523C450.506 7.91249 446.72 7.11112 442.596 7.11112C438.103 7.11112 434.022 8.03704 430.353 9.8889C426.758 11.7408 423.651 14.2593 421.03 17.4445C418.484 20.5556 416.499 24.0741 415.076 28C413.729 31.926 413.055 35.926 413.055 40C413.055 44.2963 413.766 48.4445 415.189 52.4445C416.612 56.3704 418.633 59.8889 421.254 63.0001C423.875 66.0371 426.983 68.4815 430.577 70.3334C434.247 72.1112 438.253 73.0001 442.596 73.0001C447.164 73.0001 451.245 72.0742 454.839 70.2223C458.509 68.2964 461.616 65.7778 464.162 62.6667C466.783 59.4815 468.768 55.926 470.115 52.0001C471.463 48.0741 472.137 44.0741 472.137 40C472.137 35.7037 471.426 31.5926 470.003 27.6667C468.58 23.7408 466.521 20.2222 463.825 17.1111C462.228 15.2146 460.449 13.5658 458.49 12.1648L462.071 5.82594C464.921 7.73867 467.453 10.0189 469.666 12.6667C472.961 16.5185 475.507 20.8148 477.304 25.5556C479.101 30.2963 480 35.1482 480 40.1112C480 45.3704 479.064 50.4075 477.192 55.2223C475.32 59.963 472.699 64.2223 469.329 68.0001C465.959 71.7038 461.991 74.6297 457.423 76.7778C452.855 78.926 447.913 80.0001 442.596 80.0001C436.98 80.0001 431.888 78.889 427.32 76.6667C422.752 74.4445 418.821 71.4445 415.526 67.6667C412.231 63.8149 409.685 59.5186 407.888 54.7778C406.091 49.963 405.192 45.0371 405.192 40C405.192 34.7408 406.128 29.7408 408 25C409.872 20.1852 412.493 15.9259 415.863 12.2222C419.307 8.44445 423.314 5.48149 427.881 3.33333C432.449 1.11111 437.392 0 442.708 0C448.133 0 453.068 1.07113 457.515 3.21338L453.955 9.51523ZM70.6521 15.2222V79.4445H78.5148V0.555556H70.5397L42.234 49.3298L46.5231 56.9221L70.6521 15.2222ZM8.08736 0.555556L36.8181 50.4195L43.4712 62.1965L41.7847 65.1112H36.8424L7.86272 15.2222V79.4445H0V0.555556H8.08736ZM179.04 79.4445V72.5556H133.324V42.4445H172.3V35.8889H133.324V7.44445H178.029V0.555556H125.461V79.4445H179.04ZM220.867 79.4445V0.555556H254.564C258.009 0.555556 261.154 1.25926 263.999 2.66667C266.845 4.07408 269.316 6 271.413 8.44445C273.584 10.8148 275.232 13.4815 276.355 16.4445C277.553 19.3334 278.152 22.2963 278.152 25.3334C278.152 29.1111 277.403 32.6667 275.906 36C274.483 39.3334 272.424 42.1482 269.728 44.4445C267.107 46.7408 263.999 48.2593 260.405 49L279.949 79.4445H271.076L252.317 50.3334H228.729V79.4445H220.867ZM228.729 43.4445H254.789C257.934 43.4445 260.667 42.5926 262.988 40.8889C265.31 39.1852 267.107 36.963 268.38 34.2223C269.653 31.4074 270.289 28.4445 270.289 25.3334C270.289 22.1482 269.541 19.2222 268.043 16.5556C266.62 13.8148 264.673 11.6296 262.202 10C259.806 8.29631 257.11 7.44445 254.115 7.44445H228.729V43.4445ZM321.208 0.555556V79.4445H375.124V72.5556H329.071V0.555556H321.208Z" fill="white"/>
</svg>
