<svg width="456" height="32" viewBox="0 0 456 32" fill="none" xmlns="http://www.w3.org/2000/svg">
<path d="M0.719971 24V1.28001H10.448C11.4506 1.28001 12.368 1.49335 13.2 1.92001C14.032 2.32535 14.7573 2.88002 15.376 3.58401C15.9946 4.26668 16.4746 5.04535 16.816 5.92002C17.1573 6.77335 17.328 7.64801 17.328 8.54401C17.328 9.58935 17.1253 10.5813 16.72 11.52C16.336 12.4587 15.7813 13.2587 15.056 13.92C14.352 14.5813 13.52 15.04 12.56 15.296L18.064 24H14.8L9.61597 15.84H3.59997V24H0.719971ZM3.59997 13.28H10.48C11.2693 13.28 11.952 13.0667 12.528 12.64C13.1253 12.192 13.584 11.6053 13.904 10.88C14.2453 10.1547 14.416 9.37601 14.416 8.54401C14.416 7.69068 14.224 6.91201 13.84 6.20801C13.456 5.48268 12.9546 4.90668 12.336 4.48001C11.7173 4.05335 11.0346 3.84001 10.288 3.84001H3.59997V13.28Z" fill="white"/>
<path d="M28.164 24.32C26.9053 24.32 25.7533 24.096 24.708 23.648C23.684 23.1787 22.788 22.5493 22.02 21.76C21.2733 20.9493 20.6866 20.0213 20.26 18.976C19.8546 17.9307 19.652 16.8213 19.652 15.648C19.652 14.0693 20.0146 12.6293 20.74 11.328C21.4653 10.0267 22.468 8.98135 23.748 8.19201C25.0493 7.40268 26.532 7.00801 28.196 7.00801C29.8813 7.00801 31.3426 7.41335 32.58 8.22401C33.8386 9.01335 34.8093 10.0587 35.492 11.36C36.196 12.64 36.548 14.0267 36.548 15.52C36.548 15.7333 36.5373 15.9467 36.516 16.16C36.516 16.352 36.5053 16.5013 36.484 16.608H22.628C22.7133 17.696 23.012 18.6667 23.524 19.52C24.0573 20.352 24.74 21.0133 25.572 21.504C26.404 21.9734 27.3 22.208 28.26 22.208C29.284 22.208 30.244 21.952 31.14 21.44C32.0573 20.928 32.6866 20.256 33.028 19.424L35.46 20.096C35.0973 20.9067 34.5533 21.632 33.828 22.272C33.124 22.912 32.2813 23.4133 31.3 23.776C30.34 24.1387 29.2946 24.32 28.164 24.32ZM22.532 14.656H33.924C33.8386 13.568 33.5293 12.608 32.996 11.776C32.4626 10.944 31.78 10.2933 30.948 9.82401C30.116 9.35468 29.1986 9.12001 28.196 9.12001C27.2146 9.12001 26.308 9.35468 25.476 9.82401C24.644 10.2933 23.9613 10.944 23.428 11.776C22.916 12.608 22.6173 13.568 22.532 14.656Z" fill="white"/>
<path d="M38.3662 19.168C38.3662 18.1013 38.6649 17.184 39.2622 16.416C39.8809 15.6267 40.7236 15.0187 41.7902 14.592C42.8569 14.1653 44.0942 13.952 45.5022 13.952C46.2489 13.952 47.0382 14.016 47.8702 14.144C48.7022 14.2507 49.4382 14.4213 50.0782 14.656V13.44C50.0782 12.16 49.6942 11.1573 48.9262 10.432C48.1582 9.68535 47.0702 9.31202 45.6622 9.31202C44.7449 9.31202 43.8596 9.48268 43.0062 9.82401C42.1742 10.144 41.2889 10.6133 40.3502 11.232L39.3262 9.24801C40.4142 8.50135 41.5022 7.94668 42.5902 7.58401C43.6782 7.20001 44.8089 7.00801 45.9822 7.00801C48.1156 7.00801 49.8009 7.60535 51.0382 8.80001C52.2756 9.97335 52.8942 11.616 52.8942 13.728V20.8C52.8942 21.1413 52.9582 21.3974 53.0862 21.568C53.2356 21.7174 53.4702 21.8027 53.7902 21.824V24C53.5129 24.0427 53.2676 24.0747 53.0542 24.096C52.8622 24.1173 52.7022 24.128 52.5742 24.128C51.9129 24.128 51.4116 23.9467 51.0702 23.584C50.7502 23.2213 50.5689 22.8373 50.5262 22.432L50.4622 21.376C49.7369 22.3147 48.7876 23.04 47.6142 23.552C46.4409 24.064 45.2782 24.32 44.1262 24.32C43.0169 24.32 42.0249 24.096 41.1502 23.648C40.2756 23.1787 39.5929 22.56 39.1022 21.792C38.6116 21.0027 38.3662 20.128 38.3662 19.168ZM49.2462 20.352C49.5022 20.0533 49.7049 19.7547 49.8542 19.456C50.0036 19.136 50.0782 18.8693 50.0782 18.656V16.576C49.4169 16.32 48.7236 16.128 47.9982 16C47.2729 15.8507 46.5582 15.776 45.8542 15.776C44.4249 15.776 43.2622 16.064 42.3662 16.64C41.4916 17.1947 41.0542 17.9627 41.0542 18.944C41.0542 19.4773 41.1929 20 41.4702 20.512C41.7689 21.0027 42.1956 21.408 42.7502 21.728C43.3262 22.048 44.0302 22.208 44.8622 22.208C45.7369 22.208 46.5689 22.0373 47.3582 21.696C48.1476 21.3333 48.7769 20.8853 49.2462 20.352Z" fill="white"/>
<path d="M57.461 0.640015H60.277V19.68C60.277 20.5973 60.405 21.1627 60.661 21.376C60.917 21.5893 61.2263 21.696 61.589 21.696C62.037 21.696 62.4636 21.6533 62.869 21.568C63.2743 21.4613 63.6156 21.3547 63.893 21.248L64.341 23.552C63.8716 23.744 63.317 23.904 62.677 24.032C62.037 24.16 61.4716 24.224 60.981 24.224C59.893 24.224 59.029 23.9147 58.389 23.296C57.7703 22.6773 57.461 21.8133 57.461 20.704V0.640015Z" fill="white"/>
<path d="M72.5902 15.68C72.5902 14.1013 72.9102 12.6613 73.5502 11.36C74.2115 10.0373 75.1076 8.98135 76.2382 8.19201C77.3902 7.40268 78.7022 7.00801 80.1742 7.00801C81.5182 7.00801 82.7236 7.36001 83.7902 8.06401C84.8569 8.76801 85.6889 9.62135 86.2862 10.624V0.640015H89.1022V20.8C89.1022 21.1413 89.1662 21.3974 89.2942 21.568C89.4436 21.7174 89.6782 21.8027 89.9982 21.824V24C89.4649 24.0853 89.0489 24.128 88.7502 24.128C88.1956 24.128 87.7049 23.936 87.2782 23.552C86.8729 23.168 86.6702 22.7413 86.6702 22.272V20.864C86.0089 21.9307 85.1236 22.7733 84.0142 23.392C82.9049 24.0107 81.7529 24.32 80.5582 24.32C79.4062 24.32 78.3396 24.096 77.3582 23.648C76.3982 23.1787 75.5556 22.5387 74.8302 21.728C74.1262 20.9173 73.5716 20 73.1662 18.976C72.7822 17.9307 72.5902 16.832 72.5902 15.68ZM86.2862 18.144V13.344C86.0302 12.6187 85.6142 11.968 85.0382 11.392C84.4622 10.7947 83.8116 10.3253 83.0862 9.98401C82.3822 9.62135 81.6782 9.44001 80.9742 9.44001C80.1422 9.44001 79.3849 9.62135 78.7022 9.98401C78.0409 10.3253 77.4649 10.7947 76.9742 11.392C76.5049 11.968 76.1422 12.6293 75.8862 13.376C75.6302 14.1227 75.5022 14.9013 75.5022 15.712C75.5022 16.544 75.6409 17.3333 75.9182 18.08C76.2169 18.8267 76.6222 19.488 77.1342 20.064C77.6675 20.64 78.2756 21.088 78.9582 21.408C79.6622 21.728 80.4195 21.888 81.2302 21.888C81.7422 21.888 82.2649 21.792 82.7982 21.6C83.3529 21.408 83.8755 21.1413 84.3662 20.8C84.8569 20.4587 85.2729 20.064 85.6142 19.616C85.9556 19.1467 86.1796 18.656 86.2862 18.144Z" fill="white"/>
<path d="M92.4912 19.168C92.4912 18.1013 92.7899 17.184 93.3872 16.416C94.0059 15.6267 94.8486 15.0187 95.9152 14.592C96.9819 14.1653 98.2192 13.952 99.6272 13.952C100.374 13.952 101.163 14.016 101.995 14.144C102.827 14.2507 103.563 14.4213 104.203 14.656V13.44C104.203 12.16 103.819 11.1573 103.051 10.432C102.283 9.68535 101.195 9.31202 99.7872 9.31202C98.8699 9.31202 97.9846 9.48268 97.1312 9.82401C96.2992 10.144 95.4139 10.6133 94.4752 11.232L93.4512 9.24801C94.5392 8.50135 95.6272 7.94668 96.7152 7.58401C97.8032 7.20001 98.9339 7.00801 100.107 7.00801C102.241 7.00801 103.926 7.60535 105.163 8.80001C106.401 9.97335 107.019 11.616 107.019 13.728V20.8C107.019 21.1413 107.083 21.3974 107.211 21.568C107.361 21.7174 107.595 21.8027 107.915 21.824V24C107.638 24.0427 107.393 24.0747 107.179 24.096C106.987 24.1173 106.827 24.128 106.699 24.128C106.038 24.128 105.537 23.9467 105.195 23.584C104.875 23.2213 104.694 22.8373 104.651 22.432L104.587 21.376C103.862 22.3147 102.913 23.04 101.739 23.552C100.566 24.064 99.4032 24.32 98.2512 24.32C97.1419 24.32 96.1499 24.096 95.2752 23.648C94.4006 23.1787 93.7179 22.56 93.2272 21.792C92.7365 21.0027 92.4912 20.128 92.4912 19.168ZM103.371 20.352C103.627 20.0533 103.83 19.7547 103.979 19.456C104.129 19.136 104.203 18.8693 104.203 18.656V16.576C103.542 16.32 102.849 16.128 102.123 16C101.398 15.8507 100.683 15.776 99.9792 15.776C98.5499 15.776 97.3872 16.064 96.4912 16.64C95.6166 17.1947 95.1792 17.9627 95.1792 18.944C95.1792 19.4773 95.3179 20 95.5952 20.512C95.8939 21.0027 96.3206 21.408 96.8752 21.728C97.4512 22.048 98.1552 22.208 98.9872 22.208C99.8619 22.208 100.694 22.0373 101.483 21.696C102.273 21.3333 102.902 20.8853 103.371 20.352Z" fill="white"/>
<path d="M120.037 23.168C119.802 23.2747 119.482 23.4133 119.077 23.584C118.672 23.7547 118.202 23.904 117.669 24.032C117.136 24.16 116.57 24.224 115.973 24.224C115.29 24.224 114.661 24.1067 114.085 23.872C113.509 23.616 113.05 23.232 112.709 22.72C112.368 22.1867 112.197 21.5253 112.197 20.736V9.50401H109.925V7.29601H112.197V1.72801H115.013V7.29601H118.757V9.50401H115.013V19.872C115.056 20.4693 115.258 20.9173 115.621 21.216C115.984 21.4933 116.41 21.632 116.901 21.632C117.456 21.632 117.968 21.536 118.437 21.344C118.906 21.152 119.216 21.0133 119.365 20.928L120.037 23.168Z" fill="white"/>
<path d="M122.647 24V7.29601H125.463V24H122.647ZM122.647 4.16002V0.640015H125.463V4.16002H122.647Z" fill="white"/>
<path d="M144.518 24H141.702V14.656C141.702 12.8853 141.425 11.5947 140.87 10.784C140.337 9.95202 139.515 9.53601 138.406 9.53601C137.638 9.53601 136.87 9.72801 136.102 10.112C135.355 10.496 134.683 11.0187 134.086 11.68C133.51 12.32 133.094 13.0667 132.838 13.92V24H130.022V7.29601H132.582V10.88C133.03 10.0907 133.606 9.40801 134.31 8.83201C135.014 8.25601 135.814 7.80801 136.71 7.48801C137.606 7.16801 138.545 7.00801 139.526 7.00801C140.486 7.00801 141.286 7.18935 141.926 7.55202C142.587 7.89335 143.099 8.38401 143.462 9.02401C143.846 9.64268 144.113 10.3787 144.262 11.232C144.433 12.0853 144.518 13.0133 144.518 14.016V24Z" fill="white"/>
<path d="M155.553 24.192C154.422 24.192 153.377 23.968 152.417 23.52C151.478 23.0507 150.668 22.4213 149.985 21.632C149.302 20.8213 148.769 19.904 148.385 18.88C148.022 17.856 147.841 16.7893 147.841 15.68C147.841 14.5067 148.022 13.3973 148.385 12.352C148.769 11.3067 149.302 10.3893 149.985 9.60001C150.689 8.78935 151.51 8.16001 152.449 7.71202C153.388 7.24268 154.433 7.00801 155.585 7.00801C156.972 7.00801 158.177 7.34935 159.201 8.03201C160.246 8.71468 161.121 9.57868 161.825 10.624V7.29601H164.321V23.808C164.321 25.3867 163.937 26.72 163.169 27.808C162.422 28.896 161.398 29.7173 160.097 30.272C158.817 30.848 157.388 31.136 155.809 31.136C153.932 31.136 152.396 30.8053 151.201 30.144C150.006 29.4827 149.014 28.5867 148.225 27.456L149.857 26.016C150.518 26.9973 151.372 27.7333 152.417 28.224C153.484 28.7147 154.614 28.96 155.809 28.96C156.833 28.96 157.772 28.768 158.625 28.384C159.5 28.0213 160.193 27.456 160.705 26.688C161.238 25.92 161.505 24.96 161.505 23.808V20.864C160.886 21.888 160.033 22.6987 158.945 23.296C157.878 23.8934 156.748 24.192 155.553 24.192ZM156.417 21.888C157.014 21.888 157.59 21.7813 158.145 21.568C158.7 21.3547 159.212 21.0773 159.681 20.736C160.15 20.3733 160.545 19.968 160.865 19.52C161.185 19.072 161.398 18.6133 161.505 18.144V13.344C161.206 12.576 160.78 11.904 160.225 11.328C159.67 10.7307 159.041 10.272 158.337 9.95201C157.633 9.61068 156.908 9.44001 156.161 9.44001C155.308 9.44001 154.54 9.62135 153.857 9.98401C153.196 10.3467 152.63 10.8373 152.161 11.456C151.692 12.0533 151.329 12.7253 151.073 13.472C150.817 14.2187 150.689 14.976 150.689 15.744C150.689 16.576 150.838 17.3653 151.137 18.112C151.436 18.8373 151.841 19.488 152.353 20.064C152.865 20.64 153.473 21.088 154.177 21.408C154.881 21.728 155.628 21.888 156.417 21.888Z" fill="white"/>
<path d="M191.455 24H188.639V14.656C188.639 12.9493 188.33 11.6693 187.711 10.816C187.114 9.96268 186.25 9.53601 185.119 9.53601C184.394 9.53601 183.658 9.72801 182.911 10.112C182.186 10.496 181.546 11.0187 180.991 11.68C180.437 12.32 180.031 13.0667 179.775 13.92V24H176.959V0.640015H179.775V10.88C180.437 9.68535 181.333 8.74668 182.463 8.06401C183.615 7.36001 184.853 7.00801 186.175 7.00801C187.178 7.00801 188.01 7.18935 188.671 7.55202C189.354 7.89335 189.898 8.38401 190.303 9.02401C190.709 9.66401 190.997 10.4107 191.167 11.264C191.359 12.096 191.455 13.0133 191.455 14.016V24Z" fill="white"/>
<path d="M194.522 19.168C194.522 18.1013 194.821 17.184 195.418 16.416C196.037 15.6267 196.88 15.0187 197.946 14.592C199.013 14.1653 200.25 13.952 201.658 13.952C202.405 13.952 203.194 14.016 204.026 14.144C204.858 14.2507 205.594 14.4213 206.234 14.656V13.44C206.234 12.16 205.85 11.1573 205.082 10.432C204.314 9.68535 203.226 9.31202 201.818 9.31202C200.901 9.31202 200.016 9.48268 199.162 9.82401C198.33 10.144 197.445 10.6133 196.506 11.232L195.482 9.24801C196.57 8.50135 197.658 7.94668 198.746 7.58401C199.834 7.20001 200.965 7.00801 202.138 7.00801C204.272 7.00801 205.957 7.60535 207.194 8.80001C208.432 9.97335 209.05 11.616 209.05 13.728V20.8C209.05 21.1413 209.114 21.3974 209.242 21.568C209.392 21.7174 209.626 21.8027 209.946 21.824V24C209.669 24.0427 209.424 24.0747 209.21 24.096C209.018 24.1173 208.858 24.128 208.73 24.128C208.069 24.128 207.568 23.9467 207.226 23.584C206.906 23.2213 206.725 22.8373 206.682 22.432L206.618 21.376C205.893 22.3147 204.944 23.04 203.77 23.552C202.597 24.064 201.434 24.32 200.282 24.32C199.173 24.32 198.181 24.096 197.306 23.648C196.432 23.1787 195.749 22.56 195.258 21.792C194.768 21.0027 194.522 20.128 194.522 19.168ZM205.402 20.352C205.658 20.0533 205.861 19.7547 206.01 19.456C206.16 19.136 206.234 18.8693 206.234 18.656V16.576C205.573 16.32 204.88 16.128 204.154 16C203.429 15.8507 202.714 15.776 202.01 15.776C200.581 15.776 199.418 16.064 198.522 16.64C197.648 17.1947 197.21 17.9627 197.21 18.944C197.21 19.4773 197.349 20 197.626 20.512C197.925 21.0027 198.352 21.408 198.906 21.728C199.482 22.048 200.186 22.208 201.018 22.208C201.893 22.208 202.725 22.0373 203.514 21.696C204.304 21.3333 204.933 20.8853 205.402 20.352Z" fill="white"/>
<path d="M222.545 24.32C221.18 24.32 219.964 23.9787 218.897 23.296C217.831 22.6133 216.988 21.7493 216.369 20.704V30.816H213.553V7.29601H216.049V10.432C216.711 9.40801 217.575 8.58668 218.641 7.96801C219.708 7.32801 220.871 7.00801 222.129 7.00801C223.281 7.00801 224.337 7.24268 225.297 7.71202C226.257 8.18135 227.089 8.82135 227.793 9.63202C228.497 10.4427 229.041 11.3707 229.425 12.416C229.831 13.44 230.033 14.5173 230.033 15.648C230.033 17.2267 229.713 18.6773 229.073 20C228.455 21.3227 227.58 22.3787 226.449 23.168C225.319 23.936 224.017 24.32 222.545 24.32ZM221.681 21.888C222.513 21.888 223.26 21.7173 223.921 21.376C224.604 21.0133 225.18 20.544 225.649 19.968C226.14 19.3707 226.513 18.6987 226.769 17.952C227.025 17.2053 227.153 16.4373 227.153 15.648C227.153 14.816 227.004 14.0267 226.705 13.28C226.428 12.5333 226.023 11.872 225.489 11.296C224.977 10.72 224.369 10.272 223.665 9.95201C222.983 9.61068 222.236 9.44001 221.425 9.44001C220.913 9.44001 220.38 9.53602 219.825 9.72802C219.292 9.92002 218.78 10.1973 218.289 10.56C217.799 10.9013 217.383 11.296 217.041 11.744C216.7 12.192 216.476 12.672 216.369 13.184V17.952C216.689 18.6773 217.116 19.3387 217.649 19.936C218.183 20.5333 218.801 21.0133 219.505 21.376C220.209 21.7173 220.935 21.888 221.681 21.888Z" fill="white"/>
<path d="M242.483 24.32C241.117 24.32 239.901 23.9787 238.835 23.296C237.768 22.6133 236.925 21.7493 236.307 20.704V30.816H233.491V7.29601H235.987V10.432C236.648 9.40801 237.512 8.58668 238.579 7.96801C239.645 7.32801 240.808 7.00801 242.067 7.00801C243.219 7.00801 244.275 7.24268 245.235 7.71202C246.195 8.18135 247.027 8.82135 247.731 9.63202C248.435 10.4427 248.979 11.3707 249.363 12.416C249.768 13.44 249.971 14.5173 249.971 15.648C249.971 17.2267 249.651 18.6773 249.011 20C248.392 21.3227 247.517 22.3787 246.387 23.168C245.256 23.936 243.955 24.32 242.483 24.32ZM241.619 21.888C242.451 21.888 243.197 21.7173 243.859 21.376C244.541 21.0133 245.117 20.544 245.587 19.968C246.077 19.3707 246.451 18.6987 246.707 17.952C246.963 17.2053 247.091 16.4373 247.091 15.648C247.091 14.816 246.941 14.0267 246.643 13.28C246.365 12.5333 245.96 11.872 245.427 11.296C244.915 10.72 244.307 10.272 243.603 9.95201C242.92 9.61068 242.173 9.44001 241.363 9.44001C240.851 9.44001 240.317 9.53602 239.763 9.72802C239.229 9.92002 238.717 10.1973 238.227 10.56C237.736 10.9013 237.32 11.296 236.979 11.744C236.637 12.192 236.413 12.672 236.307 13.184V17.952C236.627 18.6773 237.053 19.3387 237.587 19.936C238.12 20.5333 238.739 21.0133 239.443 21.376C240.147 21.7173 240.872 21.888 241.619 21.888Z" fill="white"/>
<path d="M260.82 24.32C259.562 24.32 258.41 24.096 257.364 23.648C256.34 23.1787 255.444 22.5493 254.676 21.76C253.93 20.9493 253.343 20.0213 252.916 18.976C252.511 17.9307 252.308 16.8213 252.308 15.648C252.308 14.0693 252.671 12.6293 253.396 11.328C254.122 10.0267 255.124 8.98135 256.404 8.19201C257.706 7.40268 259.188 7.00801 260.852 7.00801C262.538 7.00801 263.999 7.41335 265.236 8.22401C266.495 9.01335 267.466 10.0587 268.148 11.36C268.852 12.64 269.204 14.0267 269.204 15.52C269.204 15.7333 269.194 15.9467 269.172 16.16C269.172 16.352 269.162 16.5013 269.14 16.608H255.284C255.37 17.696 255.668 18.6667 256.18 19.52C256.714 20.352 257.396 21.0133 258.228 21.504C259.06 21.9734 259.956 22.208 260.916 22.208C261.94 22.208 262.9 21.952 263.796 21.44C264.714 20.928 265.343 20.256 265.684 19.424L268.116 20.096C267.754 20.9067 267.21 21.632 266.484 22.272C265.78 22.912 264.938 23.4133 263.956 23.776C262.996 24.1387 261.951 24.32 260.82 24.32ZM255.188 14.656H266.58C266.495 13.568 266.186 12.608 265.652 11.776C265.119 10.944 264.436 10.2933 263.604 9.82401C262.772 9.35468 261.855 9.12001 260.852 9.12001C259.871 9.12001 258.964 9.35468 258.132 9.82401C257.3 10.2933 256.618 10.944 256.084 11.776C255.572 12.608 255.274 13.568 255.188 14.656Z" fill="white"/>
<path d="M286.83 24H284.014V14.656C284.014 12.8853 283.737 11.5947 283.182 10.784C282.649 9.95202 281.828 9.53601 280.718 9.53601C279.95 9.53601 279.182 9.72801 278.414 10.112C277.668 10.496 276.996 11.0187 276.398 11.68C275.822 12.32 275.406 13.0667 275.15 13.92V24H272.334V7.29601H274.894V10.88C275.342 10.0907 275.918 9.40801 276.622 8.83201C277.326 8.25601 278.126 7.80801 279.022 7.48801C279.918 7.16801 280.857 7.00801 281.838 7.00801C282.798 7.00801 283.598 7.18935 284.238 7.55202C284.9 7.89335 285.412 8.38401 285.774 9.02401C286.158 9.64268 286.425 10.3787 286.574 11.232C286.745 12.0853 286.83 13.0133 286.83 14.016V24Z" fill="white"/>
<path d="M296.937 24.32C295.551 24.32 294.249 24.096 293.033 23.648C291.817 23.1787 290.772 22.4853 289.897 21.568L290.985 19.584C291.945 20.48 292.905 21.12 293.865 21.504C294.825 21.888 295.807 22.08 296.809 22.08C297.961 22.08 298.9 21.8667 299.625 21.44C300.351 20.992 300.713 20.3413 300.713 19.488C300.713 18.8693 300.521 18.4107 300.137 18.112C299.775 17.8133 299.252 17.568 298.569 17.376C297.887 17.1627 297.076 16.928 296.137 16.672C294.985 16.3307 294.015 15.968 293.225 15.584C292.436 15.2 291.839 14.72 291.433 14.144C291.028 13.568 290.825 12.8427 290.825 11.968C290.825 10.9013 291.103 10.0053 291.657 9.28001C292.212 8.53335 292.969 7.96801 293.929 7.58401C294.911 7.20001 296.02 7.00801 297.257 7.00801C298.495 7.00801 299.615 7.20001 300.617 7.58401C301.62 7.96801 302.484 8.53335 303.209 9.28001L301.929 11.232C301.268 10.5493 300.543 10.048 299.753 9.72802C298.964 9.38668 298.079 9.21601 297.097 9.21601C296.521 9.21601 295.956 9.29068 295.401 9.44001C294.847 9.56801 294.388 9.81335 294.025 10.176C293.663 10.5173 293.481 11.008 293.481 11.648C293.481 12.1813 293.62 12.608 293.897 12.928C294.196 13.2267 294.623 13.4827 295.177 13.696C295.753 13.9093 296.447 14.144 297.257 14.4C298.516 14.7627 299.604 15.1253 300.521 15.488C301.46 15.8507 302.185 16.32 302.697 16.896C303.209 17.472 303.465 18.272 303.465 19.296C303.465 20.8747 302.868 22.112 301.673 23.008C300.479 23.8827 298.9 24.32 296.937 24.32Z" fill="white"/>
<path d="M314.928 24V7.29601H317.744V24H314.928ZM314.928 4.16002V0.640015H317.744V4.16002H314.928Z" fill="white"/>
<path d="M336.799 24H333.983V14.656C333.983 12.8853 333.706 11.5947 333.151 10.784C332.618 9.95202 331.797 9.53601 330.687 9.53601C329.919 9.53601 329.151 9.72801 328.383 10.112C327.637 10.496 326.965 11.0187 326.367 11.68C325.791 12.32 325.375 13.0667 325.119 13.92V24H322.303V7.29601H324.863V10.88C325.311 10.0907 325.887 9.40801 326.591 8.83201C327.295 8.25601 328.095 7.80801 328.991 7.48801C329.887 7.16801 330.826 7.00801 331.807 7.00801C332.767 7.00801 333.567 7.18935 334.207 7.55202C334.869 7.89335 335.381 8.38401 335.743 9.02401C336.127 9.64268 336.394 10.3787 336.543 11.232C336.714 12.0853 336.799 13.0133 336.799 14.016V24Z" fill="white"/>
<path d="M358.264 24.32C356.899 24.32 355.683 23.9787 354.616 23.296C353.549 22.6133 352.707 21.7493 352.088 20.704V30.816H349.272V7.29601H351.768V10.432C352.429 9.40801 353.293 8.58668 354.36 7.96801C355.427 7.32801 356.589 7.00801 357.848 7.00801C359 7.00801 360.056 7.24268 361.016 7.71202C361.976 8.18135 362.808 8.82135 363.512 9.63202C364.216 10.4427 364.76 11.3707 365.144 12.416C365.549 13.44 365.752 14.5173 365.752 15.648C365.752 17.2267 365.432 18.6773 364.792 20C364.173 21.3227 363.299 22.3787 362.168 23.168C361.037 23.936 359.736 24.32 358.264 24.32ZM357.4 21.888C358.232 21.888 358.979 21.7173 359.64 21.376C360.323 21.0133 360.899 20.544 361.368 19.968C361.859 19.3707 362.232 18.6987 362.488 17.952C362.744 17.2053 362.872 16.4373 362.872 15.648C362.872 14.816 362.723 14.0267 362.424 13.28C362.147 12.5333 361.741 11.872 361.208 11.296C360.696 10.72 360.088 10.272 359.384 9.95201C358.701 9.61068 357.955 9.44001 357.144 9.44001C356.632 9.44001 356.099 9.53602 355.544 9.72802C355.011 9.92002 354.499 10.1973 354.008 10.56C353.517 10.9013 353.101 11.296 352.76 11.744C352.419 12.192 352.195 12.672 352.088 13.184V17.952C352.408 18.6773 352.835 19.3387 353.368 19.936C353.901 20.5333 354.52 21.0133 355.224 21.376C355.928 21.7173 356.653 21.888 357.4 21.888Z" fill="white"/>
<path d="M376.601 24.32C375.343 24.32 374.191 24.096 373.145 23.648C372.121 23.1787 371.225 22.5493 370.457 21.76C369.711 20.9493 369.124 20.0213 368.697 18.976C368.292 17.9307 368.089 16.8213 368.089 15.648C368.089 14.0693 368.452 12.6293 369.177 11.328C369.903 10.0267 370.905 8.98135 372.185 8.19201C373.487 7.40268 374.969 7.00801 376.633 7.00801C378.319 7.00801 379.78 7.41335 381.017 8.22401C382.276 9.01335 383.247 10.0587 383.929 11.36C384.633 12.64 384.985 14.0267 384.985 15.52C384.985 15.7333 384.975 15.9467 384.953 16.16C384.953 16.352 384.943 16.5013 384.921 16.608H371.065C371.151 17.696 371.449 18.6667 371.961 19.52C372.495 20.352 373.177 21.0133 374.009 21.504C374.841 21.9734 375.737 22.208 376.697 22.208C377.721 22.208 378.681 21.952 379.577 21.44C380.495 20.928 381.124 20.256 381.465 19.424L383.897 20.096C383.535 20.9067 382.991 21.632 382.265 22.272C381.561 22.912 380.719 23.4133 379.737 23.776C378.777 24.1387 377.732 24.32 376.601 24.32ZM370.969 14.656H382.361C382.276 13.568 381.967 12.608 381.433 11.776C380.9 10.944 380.217 10.2933 379.385 9.82401C378.553 9.35468 377.636 9.12001 376.633 9.12001C375.652 9.12001 374.745 9.35468 373.913 9.82401C373.081 10.2933 372.399 10.944 371.865 11.776C371.353 12.608 371.055 13.568 370.969 14.656Z" fill="white"/>
<path d="M396.948 9.76001C395.54 9.78135 394.292 10.144 393.204 10.848C392.137 11.5307 391.38 12.48 390.932 13.696V24H388.116V7.29601H390.74V11.168C391.316 10.016 392.073 9.08801 393.012 8.38401C393.972 7.65868 394.974 7.25335 396.02 7.16801C396.233 7.16801 396.414 7.16801 396.564 7.16801C396.713 7.16801 396.841 7.17868 396.948 7.20001V9.76001Z" fill="white"/>
<path d="M405.469 24.32C404.082 24.32 402.781 24.096 401.565 23.648C400.349 23.1787 399.303 22.4853 398.429 21.568L399.517 19.584C400.477 20.48 401.437 21.12 402.397 21.504C403.357 21.888 404.338 22.08 405.341 22.08C406.493 22.08 407.431 21.8667 408.157 21.44C408.882 20.992 409.245 20.3413 409.245 19.488C409.245 18.8693 409.053 18.4107 408.669 18.112C408.306 17.8133 407.783 17.568 407.101 17.376C406.418 17.1627 405.607 16.928 404.669 16.672C403.517 16.3307 402.546 15.968 401.757 15.584C400.967 15.2 400.37 14.72 399.965 14.144C399.559 13.568 399.357 12.8427 399.357 11.968C399.357 10.9013 399.634 10.0053 400.189 9.28001C400.743 8.53335 401.501 7.96801 402.461 7.58401C403.442 7.20001 404.551 7.00801 405.789 7.00801C407.026 7.00801 408.146 7.20001 409.149 7.58401C410.151 7.96801 411.015 8.53335 411.741 9.28001L410.461 11.232C409.799 10.5493 409.074 10.048 408.285 9.72802C407.495 9.38668 406.61 9.21601 405.629 9.21601C405.053 9.21601 404.487 9.29068 403.933 9.44001C403.378 9.56801 402.919 9.81335 402.557 10.176C402.194 10.5173 402.013 11.008 402.013 11.648C402.013 12.1813 402.151 12.608 402.429 12.928C402.727 13.2267 403.154 13.4827 403.709 13.696C404.285 13.9093 404.978 14.144 405.789 14.4C407.047 14.7627 408.135 15.1253 409.053 15.488C409.991 15.8507 410.717 16.32 411.229 16.896C411.741 17.472 411.997 18.272 411.997 19.296C411.997 20.8747 411.399 22.112 410.205 23.008C409.01 23.8827 407.431 24.32 405.469 24.32Z" fill="white"/>
<path d="M422.662 24.32C421.403 24.32 420.262 24.096 419.238 23.648C418.214 23.1787 417.328 22.5493 416.582 21.76C415.835 20.9493 415.259 20.0213 414.854 18.976C414.448 17.9307 414.246 16.832 414.246 15.68C414.246 14.5067 414.448 13.3973 414.854 12.352C415.259 11.3067 415.835 10.3893 416.582 9.60001C417.328 8.78935 418.214 8.16001 419.238 7.71202C420.283 7.24268 421.424 7.00801 422.662 7.00801C423.92 7.00801 425.062 7.24268 426.086 7.71202C427.11 8.16001 427.995 8.78935 428.742 9.60001C429.51 10.3893 430.096 11.3067 430.502 12.352C430.907 13.3973 431.11 14.5067 431.11 15.68C431.11 16.832 430.907 17.9307 430.502 18.976C430.096 20.0213 429.52 20.9493 428.774 21.76C428.027 22.5493 427.131 23.1787 426.086 23.648C425.062 24.096 423.92 24.32 422.662 24.32ZM417.126 15.712C417.126 16.864 417.371 17.9093 417.862 18.848C418.374 19.7867 419.046 20.5333 419.878 21.088C420.71 21.6213 421.638 21.888 422.662 21.888C423.686 21.888 424.614 21.6107 425.446 21.056C426.299 20.5013 426.971 19.7547 427.462 18.816C427.974 17.856 428.23 16.8 428.23 15.648C428.23 14.496 427.974 13.4507 427.462 12.512C426.971 11.5733 426.299 10.8267 425.446 10.272C424.614 9.71735 423.686 9.44001 422.662 9.44001C421.638 9.44001 420.71 9.72801 419.878 10.304C419.046 10.8587 418.374 11.6053 417.862 12.544C417.371 13.4827 417.126 14.5387 417.126 15.712Z" fill="white"/>
<path d="M449.018 24H446.202V14.656C446.202 12.8853 445.925 11.5947 445.37 10.784C444.837 9.95202 444.015 9.53601 442.906 9.53601C442.138 9.53601 441.37 9.72801 440.602 10.112C439.855 10.496 439.183 11.0187 438.586 11.68C438.01 12.32 437.594 13.0667 437.338 13.92V24H434.522V7.29601H437.082V10.88C437.53 10.0907 438.106 9.40801 438.81 8.83201C439.514 8.25601 440.314 7.80801 441.21 7.48801C442.106 7.16801 443.045 7.00801 444.026 7.00801C444.986 7.00801 445.786 7.18935 446.426 7.55202C447.087 7.89335 447.599 8.38401 447.962 9.02401C448.346 9.64268 448.613 10.3787 448.762 11.232C448.933 12.0853 449.018 13.0133 449.018 14.016V24Z" fill="white"/>
<path d="M453.173 24V20.416H455.541V24H453.173Z" fill="white"/>
</svg>
