<svg width="480" height="155" viewBox="0 0 480 155" fill="none" xmlns="http://www.w3.org/2000/svg">
<path fill-rule="evenodd" clip-rule="evenodd" d="M70.0072 15.666V79.9999H77.7981V0.973816H69.8959L42.7682 48.2308L47.0169 55.8338L70.0072 15.666ZM42.9847 62.8786L41.4033 65.6416H36.5061L7.79095 15.666V79.9999H0V0.973816H8.01354L27.3704 34.9373L42.9847 62.8786ZM177.406 79.9999V73.099H132.107V42.9356H170.728V36.3686H132.107V7.87469H176.404V0.973816H124.316V79.9999H177.406ZM218.851 79.9999V0.973816H252.24C255.654 0.973816 258.77 1.67874 261.59 3.0886C264.409 4.49845 266.858 6.42773 268.935 8.87642C271.087 11.2509 272.719 13.9222 273.832 16.8903C275.02 19.7843 275.613 22.7524 275.613 25.7947C275.613 29.579 274.871 33.1408 273.387 36.4799C271.977 39.819 269.937 42.6387 267.266 44.939C264.669 47.2393 261.59 48.7605 258.028 49.5025L277.394 79.9999H268.601L250.014 50.8382H226.642V79.9999H218.851ZM226.642 43.9373H252.463C255.579 43.9373 258.288 43.084 260.588 41.3773C262.888 39.6706 264.669 37.4445 265.93 34.699C267.192 31.8793 267.822 28.9112 267.822 25.7947C267.822 22.604 267.08 19.6729 265.596 17.0016C264.186 14.2561 262.257 12.0672 259.809 10.4347C257.434 8.72802 254.763 7.87469 251.795 7.87469H226.642V43.9373ZM317.209 0.973816V79.9999H370.633V73.099H325V0.973816H317.209Z" fill="white"/>
<path fill-rule="evenodd" clip-rule="evenodd" d="M450.768 8.75064C447.393 7.58788 443.77 6.95652 440 6.95652C421.751 6.95652 406.957 21.7506 406.957 40C406.957 58.2494 421.751 73.0435 440 73.0435C458.249 73.0435 473.043 58.2494 473.043 40C473.043 28.0025 466.65 17.4984 457.083 11.7094L460.479 5.63286C472.17 12.6146 480 25.393 480 40C480 62.0914 462.091 80 440 80C417.909 80 400 62.0914 400 40C400 17.9086 417.909 0 440 0C445.003 0 449.792 0.918615 454.207 2.59639L450.768 8.75064Z" fill="white"/>
<path d="M13 147V124.28H22.728C23.7307 124.28 24.648 124.493 25.48 124.92C26.312 125.325 27.0373 125.88 27.656 126.584C28.2747 127.267 28.7547 128.045 29.096 128.92C29.4373 129.773 29.608 130.648 29.608 131.544C29.608 132.589 29.4053 133.581 29 134.52C28.616 135.459 28.0613 136.259 27.336 136.92C26.632 137.581 25.8 138.04 24.84 138.296L30.344 147H27.08L21.896 138.84H15.88V147H13ZM15.88 136.28H22.76C23.5493 136.28 24.232 136.067 24.808 135.64C25.4053 135.192 25.864 134.605 26.184 133.88C26.5253 133.155 26.696 132.376 26.696 131.544C26.696 130.691 26.504 129.912 26.12 129.208C25.736 128.483 25.2347 127.907 24.616 127.48C23.9973 127.053 23.3147 126.84 22.568 126.84H15.88V136.28Z" fill="white"/>
<path d="M40.444 147.32C39.1853 147.32 38.0333 147.096 36.988 146.648C35.964 146.179 35.068 145.549 34.3 144.76C33.5533 143.949 32.9667 143.021 32.54 141.976C32.1347 140.931 31.932 139.821 31.932 138.648C31.932 137.069 32.2947 135.629 33.02 134.328C33.7453 133.027 34.748 131.981 36.028 131.192C37.3293 130.403 38.812 130.008 40.476 130.008C42.1613 130.008 43.6227 130.413 44.86 131.224C46.1187 132.013 47.0893 133.059 47.772 134.36C48.476 135.64 48.828 137.027 48.828 138.52C48.828 138.733 48.8173 138.947 48.796 139.16C48.796 139.352 48.7853 139.501 48.764 139.608H34.908C34.9933 140.696 35.292 141.667 35.804 142.52C36.3373 143.352 37.02 144.013 37.852 144.504C38.684 144.973 39.58 145.208 40.54 145.208C41.564 145.208 42.524 144.952 43.42 144.44C44.3373 143.928 44.9667 143.256 45.308 142.424L47.74 143.096C47.3773 143.907 46.8333 144.632 46.108 145.272C45.404 145.912 44.5613 146.413 43.58 146.776C42.62 147.139 41.5747 147.32 40.444 147.32ZM34.812 137.656H46.204C46.1187 136.568 45.8093 135.608 45.276 134.776C44.7427 133.944 44.06 133.293 43.228 132.824C42.396 132.355 41.4787 132.12 40.476 132.12C39.4947 132.12 38.588 132.355 37.756 132.824C36.924 133.293 36.2413 133.944 35.708 134.776C35.196 135.608 34.8973 136.568 34.812 137.656Z" fill="white"/>
<path d="M50.6462 142.168C50.6462 141.101 50.9449 140.184 51.5422 139.416C52.1609 138.627 53.0036 138.019 54.0702 137.592C55.1369 137.165 56.3742 136.952 57.7822 136.952C58.5289 136.952 59.3182 137.016 60.1502 137.144C60.9823 137.251 61.7183 137.421 62.3582 137.656V136.44C62.3582 135.16 61.9743 134.157 61.2062 133.432C60.4382 132.685 59.3503 132.312 57.9422 132.312C57.0249 132.312 56.1396 132.483 55.2862 132.824C54.4542 133.144 53.5689 133.613 52.6302 134.232L51.6062 132.248C52.6942 131.501 53.7822 130.947 54.8702 130.584C55.9582 130.2 57.0889 130.008 58.2622 130.008C60.3956 130.008 62.0809 130.605 63.3182 131.8C64.5556 132.973 65.1742 134.616 65.1742 136.728V143.8C65.1742 144.141 65.2383 144.397 65.3662 144.568C65.5156 144.717 65.7503 144.803 66.0703 144.824V147C65.7929 147.043 65.5476 147.075 65.3343 147.096C65.1423 147.117 64.9822 147.128 64.8542 147.128C64.1929 147.128 63.6916 146.947 63.3503 146.584C63.0303 146.221 62.8489 145.837 62.8063 145.432L62.7422 144.376C62.0169 145.315 61.0676 146.04 59.8942 146.552C58.7209 147.064 57.5583 147.32 56.4062 147.32C55.2969 147.32 54.3049 147.096 53.4302 146.648C52.5556 146.179 51.8729 145.56 51.3822 144.792C50.8916 144.003 50.6462 143.128 50.6462 142.168ZM61.5262 143.352C61.7822 143.053 61.9849 142.755 62.1343 142.456C62.2836 142.136 62.3582 141.869 62.3582 141.656V139.576C61.6969 139.32 61.0036 139.128 60.2783 139C59.5529 138.851 58.8382 138.776 58.1342 138.776C56.7049 138.776 55.5422 139.064 54.6462 139.64C53.7716 140.195 53.3342 140.963 53.3342 141.944C53.3342 142.477 53.4729 143 53.7502 143.512C54.0489 144.003 54.4756 144.408 55.0303 144.728C55.6063 145.048 56.3102 145.208 57.1423 145.208C58.0169 145.208 58.8489 145.037 59.6382 144.696C60.4276 144.333 61.0569 143.885 61.5262 143.352Z" fill="white"/>
<path d="M69.741 123.64H72.557V142.68C72.557 143.597 72.685 144.163 72.941 144.376C73.197 144.589 73.5063 144.696 73.869 144.696C74.317 144.696 74.7437 144.653 75.149 144.568C75.5543 144.461 75.8957 144.355 76.173 144.248L76.621 146.552C76.1517 146.744 75.597 146.904 74.957 147.032C74.317 147.16 73.7517 147.224 73.261 147.224C72.173 147.224 71.309 146.915 70.669 146.296C70.0503 145.677 69.741 144.813 69.741 143.704V123.64Z" fill="white"/>
<path d="M84.8702 138.68C84.8702 137.101 85.1902 135.661 85.8302 134.36C86.4916 133.037 87.3876 131.981 88.5182 131.192C89.6702 130.403 90.9822 130.008 92.4542 130.008C93.7982 130.008 95.0036 130.36 96.0703 131.064C97.1369 131.768 97.9689 132.621 98.5663 133.624V123.64H101.382V143.8C101.382 144.141 101.446 144.397 101.574 144.568C101.724 144.717 101.958 144.803 102.278 144.824V147C101.745 147.085 101.329 147.128 101.03 147.128C100.476 147.128 99.9849 146.936 99.5583 146.552C99.1529 146.168 98.9502 145.741 98.9502 145.272V143.864C98.2889 144.931 97.4036 145.773 96.2943 146.392C95.1849 147.011 94.0329 147.32 92.8382 147.32C91.6862 147.32 90.6196 147.096 89.6383 146.648C88.6783 146.179 87.8356 145.539 87.1103 144.728C86.4062 143.917 85.8516 143 85.4463 141.976C85.0622 140.931 84.8702 139.832 84.8702 138.68ZM98.5663 141.144V136.344C98.3103 135.619 97.8942 134.968 97.3183 134.392C96.7422 133.795 96.0916 133.325 95.3662 132.984C94.6622 132.621 93.9583 132.44 93.2542 132.44C92.4222 132.44 91.6649 132.621 90.9822 132.984C90.3209 133.325 89.7449 133.795 89.2542 134.392C88.7849 134.968 88.4222 135.629 88.1663 136.376C87.9103 137.123 87.7822 137.901 87.7822 138.712C87.7822 139.544 87.9209 140.333 88.1982 141.08C88.4969 141.827 88.9022 142.488 89.4142 143.064C89.9476 143.64 90.5556 144.088 91.2383 144.408C91.9423 144.728 92.6996 144.888 93.5102 144.888C94.0222 144.888 94.5449 144.792 95.0782 144.6C95.6329 144.408 96.1556 144.141 96.6462 143.8C97.1369 143.459 97.5529 143.064 97.8942 142.616C98.2356 142.147 98.4596 141.656 98.5663 141.144Z" fill="white"/>
<path d="M104.771 142.168C104.771 141.101 105.07 140.184 105.667 139.416C106.286 138.627 107.129 138.019 108.195 137.592C109.262 137.165 110.499 136.952 111.907 136.952C112.654 136.952 113.443 137.016 114.275 137.144C115.107 137.251 115.843 137.421 116.483 137.656V136.44C116.483 135.16 116.099 134.157 115.331 133.432C114.563 132.685 113.475 132.312 112.067 132.312C111.15 132.312 110.265 132.483 109.411 132.824C108.579 133.144 107.694 133.613 106.755 134.232L105.731 132.248C106.819 131.501 107.907 130.947 108.995 130.584C110.083 130.2 111.214 130.008 112.387 130.008C114.521 130.008 116.206 130.605 117.443 131.8C118.681 132.973 119.299 134.616 119.299 136.728V143.8C119.299 144.141 119.363 144.397 119.491 144.568C119.641 144.717 119.875 144.803 120.195 144.824V147C119.918 147.043 119.673 147.075 119.459 147.096C119.267 147.117 119.107 147.128 118.979 147.128C118.318 147.128 117.817 146.947 117.475 146.584C117.155 146.221 116.974 145.837 116.931 145.432L116.867 144.376C116.142 145.315 115.193 146.04 114.019 146.552C112.846 147.064 111.683 147.32 110.531 147.32C109.422 147.32 108.43 147.096 107.555 146.648C106.681 146.179 105.998 145.56 105.507 144.792C105.017 144.003 104.771 143.128 104.771 142.168ZM115.651 143.352C115.907 143.053 116.11 142.755 116.259 142.456C116.409 142.136 116.483 141.869 116.483 141.656V139.576C115.822 139.32 115.129 139.128 114.403 139C113.678 138.851 112.963 138.776 112.259 138.776C110.83 138.776 109.667 139.064 108.771 139.64C107.897 140.195 107.459 140.963 107.459 141.944C107.459 142.477 107.598 143 107.875 143.512C108.174 144.003 108.601 144.408 109.155 144.728C109.731 145.048 110.435 145.208 111.267 145.208C112.142 145.208 112.974 145.037 113.763 144.696C114.553 144.333 115.182 143.885 115.651 143.352Z" fill="white"/>
<path d="M132.317 146.168C132.082 146.275 131.762 146.413 131.357 146.584C130.952 146.755 130.482 146.904 129.949 147.032C129.416 147.16 128.85 147.224 128.253 147.224C127.57 147.224 126.941 147.107 126.365 146.872C125.789 146.616 125.33 146.232 124.989 145.72C124.648 145.187 124.477 144.525 124.477 143.736V132.504H122.205V130.296H124.477V124.728H127.293V130.296H131.037V132.504H127.293V142.872C127.336 143.469 127.538 143.917 127.901 144.216C128.264 144.493 128.69 144.632 129.181 144.632C129.736 144.632 130.248 144.536 130.717 144.344C131.186 144.152 131.496 144.013 131.645 143.928L132.317 146.168Z" fill="white"/>
<path d="M134.927 147V130.296H137.743V147H134.927ZM134.927 127.16V123.64H137.743V127.16H134.927Z" fill="white"/>
<path d="M156.798 147H153.982V137.656C153.982 135.885 153.705 134.595 153.15 133.784C152.617 132.952 151.795 132.536 150.686 132.536C149.918 132.536 149.15 132.728 148.382 133.112C147.635 133.496 146.963 134.019 146.366 134.68C145.79 135.32 145.374 136.067 145.118 136.92V147H142.302V130.296H144.862V133.88C145.31 133.091 145.886 132.408 146.59 131.832C147.294 131.256 148.094 130.808 148.99 130.488C149.886 130.168 150.825 130.008 151.806 130.008C152.766 130.008 153.566 130.189 154.206 130.552C154.867 130.893 155.379 131.384 155.742 132.024C156.126 132.643 156.393 133.379 156.542 134.232C156.713 135.085 156.798 136.013 156.798 137.016V147Z" fill="white"/>
<path d="M167.833 147.192C166.702 147.192 165.657 146.968 164.697 146.52C163.758 146.051 162.948 145.421 162.265 144.632C161.582 143.821 161.049 142.904 160.665 141.88C160.302 140.856 160.121 139.789 160.121 138.68C160.121 137.507 160.302 136.397 160.665 135.352C161.049 134.307 161.582 133.389 162.265 132.6C162.969 131.789 163.79 131.16 164.729 130.712C165.668 130.243 166.713 130.008 167.865 130.008C169.252 130.008 170.457 130.349 171.481 131.032C172.526 131.715 173.401 132.579 174.105 133.624V130.296H176.601V146.808C176.601 148.387 176.217 149.72 175.449 150.808C174.702 151.896 173.678 152.717 172.377 153.272C171.097 153.848 169.668 154.136 168.089 154.136C166.212 154.136 164.676 153.805 163.481 153.144C162.286 152.483 161.294 151.587 160.505 150.456L162.137 149.016C162.798 149.997 163.652 150.733 164.697 151.224C165.764 151.715 166.894 151.96 168.089 151.96C169.113 151.96 170.052 151.768 170.905 151.384C171.78 151.021 172.473 150.456 172.985 149.688C173.518 148.92 173.785 147.96 173.785 146.808V143.864C173.166 144.888 172.313 145.699 171.225 146.296C170.158 146.893 169.028 147.192 167.833 147.192ZM168.697 144.888C169.294 144.888 169.87 144.781 170.425 144.568C170.98 144.355 171.492 144.077 171.961 143.736C172.43 143.373 172.825 142.968 173.145 142.52C173.465 142.072 173.678 141.613 173.785 141.144V136.344C173.486 135.576 173.06 134.904 172.505 134.328C171.95 133.731 171.321 133.272 170.617 132.952C169.913 132.611 169.188 132.44 168.441 132.44C167.588 132.44 166.82 132.621 166.137 132.984C165.476 133.347 164.91 133.837 164.441 134.456C163.972 135.053 163.609 135.725 163.353 136.472C163.097 137.219 162.969 137.976 162.969 138.744C162.969 139.576 163.118 140.365 163.417 141.112C163.716 141.837 164.121 142.488 164.633 143.064C165.145 143.64 165.753 144.088 166.457 144.408C167.161 144.728 167.908 144.888 168.697 144.888Z" fill="white"/>
<path d="M203.736 147H200.919V137.656C200.919 135.949 200.61 134.669 199.992 133.816C199.394 132.963 198.53 132.536 197.4 132.536C196.674 132.536 195.938 132.728 195.191 133.112C194.466 133.496 193.826 134.019 193.271 134.68C192.717 135.32 192.311 136.067 192.055 136.92V147H189.24V123.64H192.055V133.88C192.717 132.685 193.613 131.747 194.743 131.064C195.895 130.36 197.133 130.008 198.456 130.008C199.458 130.008 200.29 130.189 200.951 130.552C201.634 130.893 202.178 131.384 202.583 132.024C202.989 132.664 203.277 133.411 203.447 134.264C203.639 135.096 203.736 136.013 203.736 137.016V147Z" fill="white"/>
<path d="M206.803 142.168C206.803 141.101 207.101 140.184 207.699 139.416C208.317 138.627 209.16 138.019 210.227 137.592C211.293 137.165 212.531 136.952 213.939 136.952C214.685 136.952 215.475 137.016 216.307 137.144C217.139 137.251 217.874 137.421 218.514 137.656V136.44C218.514 135.16 218.131 134.157 217.363 133.432C216.594 132.685 215.507 132.312 214.098 132.312C213.181 132.312 212.296 132.483 211.443 132.824C210.611 133.144 209.725 133.613 208.786 134.232L207.762 132.248C208.85 131.501 209.939 130.947 211.027 130.584C212.115 130.2 213.245 130.008 214.419 130.008C216.552 130.008 218.237 130.605 219.475 131.8C220.712 132.973 221.331 134.616 221.331 136.728V143.8C221.331 144.141 221.394 144.397 221.522 144.568C221.672 144.717 221.906 144.803 222.227 144.824V147C221.949 147.043 221.704 147.075 221.49 147.096C221.298 147.117 221.139 147.128 221.01 147.128C220.349 147.128 219.848 146.947 219.507 146.584C219.186 146.221 219.005 145.837 218.962 145.432L218.898 144.376C218.173 145.315 217.224 146.04 216.051 146.552C214.877 147.064 213.714 147.32 212.562 147.32C211.453 147.32 210.461 147.096 209.587 146.648C208.712 146.179 208.029 145.56 207.538 144.792C207.048 144.003 206.803 143.128 206.803 142.168ZM217.682 143.352C217.938 143.053 218.141 142.755 218.29 142.456C218.44 142.136 218.514 141.869 218.514 141.656V139.576C217.853 139.32 217.16 139.128 216.434 139C215.709 138.851 214.994 138.776 214.29 138.776C212.861 138.776 211.699 139.064 210.803 139.64C209.928 140.195 209.49 140.963 209.49 141.944C209.49 142.477 209.629 143 209.906 143.512C210.205 144.003 210.632 144.408 211.186 144.728C211.762 145.048 212.466 145.208 213.298 145.208C214.173 145.208 215.005 145.037 215.794 144.696C216.584 144.333 217.213 143.885 217.682 143.352Z" fill="white"/>
<path d="M234.825 147.32C233.46 147.32 232.244 146.979 231.177 146.296C230.111 145.613 229.268 144.749 228.649 143.704V153.816H225.833V130.296H228.329V133.432C228.991 132.408 229.855 131.587 230.921 130.968C231.988 130.328 233.151 130.008 234.409 130.008C235.561 130.008 236.617 130.243 237.577 130.712C238.537 131.181 239.369 131.821 240.073 132.632C240.777 133.443 241.321 134.371 241.705 135.416C242.111 136.44 242.313 137.517 242.313 138.648C242.313 140.227 241.993 141.677 241.353 143C240.735 144.323 239.86 145.379 238.729 146.168C237.599 146.936 236.297 147.32 234.825 147.32ZM233.961 144.888C234.793 144.888 235.54 144.717 236.201 144.376C236.884 144.013 237.46 143.544 237.929 142.968C238.42 142.371 238.793 141.699 239.049 140.952C239.305 140.205 239.433 139.437 239.433 138.648C239.433 137.816 239.284 137.027 238.985 136.28C238.708 135.533 238.303 134.872 237.769 134.296C237.257 133.72 236.649 133.272 235.945 132.952C235.263 132.611 234.516 132.44 233.705 132.44C233.193 132.44 232.66 132.536 232.105 132.728C231.572 132.92 231.06 133.197 230.569 133.56C230.079 133.901 229.663 134.296 229.321 134.744C228.98 135.192 228.756 135.672 228.649 136.184V140.952C228.969 141.677 229.396 142.339 229.929 142.936C230.463 143.533 231.081 144.013 231.785 144.376C232.489 144.717 233.215 144.888 233.961 144.888Z" fill="white"/>
<path d="M254.763 147.32C253.397 147.32 252.181 146.979 251.115 146.296C250.048 145.613 249.205 144.749 248.587 143.704V153.816H245.771V130.296H248.267V133.432C248.928 132.408 249.792 131.587 250.859 130.968C251.925 130.328 253.088 130.008 254.347 130.008C255.499 130.008 256.555 130.243 257.515 130.712C258.475 131.181 259.307 131.821 260.011 132.632C260.715 133.443 261.259 134.371 261.643 135.416C262.048 136.44 262.251 137.517 262.251 138.648C262.251 140.227 261.931 141.677 261.291 143C260.672 144.323 259.797 145.379 258.667 146.168C257.536 146.936 256.235 147.32 254.763 147.32ZM253.899 144.888C254.731 144.888 255.477 144.717 256.139 144.376C256.821 144.013 257.397 143.544 257.867 142.968C258.357 142.371 258.731 141.699 258.987 140.952C259.243 140.205 259.371 139.437 259.371 138.648C259.371 137.816 259.221 137.027 258.923 136.28C258.645 135.533 258.24 134.872 257.707 134.296C257.195 133.72 256.587 133.272 255.883 132.952C255.2 132.611 254.453 132.44 253.643 132.44C253.131 132.44 252.597 132.536 252.043 132.728C251.509 132.92 250.997 133.197 250.507 133.56C250.016 133.901 249.6 134.296 249.259 134.744C248.917 135.192 248.693 135.672 248.587 136.184V140.952C248.907 141.677 249.333 142.339 249.867 142.936C250.4 143.533 251.019 144.013 251.723 144.376C252.427 144.717 253.152 144.888 253.899 144.888Z" fill="white"/>
<path d="M273.1 147.32C271.842 147.32 270.69 147.096 269.644 146.648C268.62 146.179 267.724 145.549 266.956 144.76C266.21 143.949 265.623 143.021 265.196 141.976C264.791 140.931 264.588 139.821 264.588 138.648C264.588 137.069 264.951 135.629 265.676 134.328C266.402 133.027 267.404 131.981 268.684 131.192C269.986 130.403 271.468 130.008 273.132 130.008C274.818 130.008 276.279 130.413 277.516 131.224C278.775 132.013 279.746 133.059 280.428 134.36C281.132 135.64 281.484 137.027 281.484 138.52C281.484 138.733 281.474 138.947 281.452 139.16C281.452 139.352 281.442 139.501 281.42 139.608H267.564C267.65 140.696 267.948 141.667 268.46 142.52C268.994 143.352 269.676 144.013 270.508 144.504C271.34 144.973 272.236 145.208 273.196 145.208C274.22 145.208 275.18 144.952 276.076 144.44C276.994 143.928 277.623 143.256 277.964 142.424L280.396 143.096C280.034 143.907 279.49 144.632 278.764 145.272C278.06 145.912 277.218 146.413 276.236 146.776C275.276 147.139 274.231 147.32 273.1 147.32ZM267.468 137.656H278.86C278.775 136.568 278.466 135.608 277.932 134.776C277.399 133.944 276.716 133.293 275.884 132.824C275.052 132.355 274.135 132.12 273.132 132.12C272.151 132.12 271.244 132.355 270.412 132.824C269.58 133.293 268.898 133.944 268.364 134.776C267.852 135.608 267.554 136.568 267.468 137.656Z" fill="white"/>
<path d="M299.111 147H296.294V137.656C296.294 135.885 296.017 134.595 295.462 133.784C294.929 132.952 294.108 132.536 292.999 132.536C292.23 132.536 291.462 132.728 290.694 133.112C289.948 133.496 289.276 134.019 288.678 134.68C288.103 135.32 287.687 136.067 287.431 136.92V147H284.615V130.296H287.174V133.88C287.622 133.091 288.198 132.408 288.902 131.832C289.607 131.256 290.406 130.808 291.302 130.488C292.198 130.168 293.137 130.008 294.118 130.008C295.078 130.008 295.878 130.189 296.518 130.552C297.18 130.893 297.692 131.384 298.055 132.024C298.439 132.643 298.705 133.379 298.854 134.232C299.025 135.085 299.111 136.013 299.111 137.016V147Z" fill="white"/>
<path d="M309.217 147.32C307.831 147.32 306.53 147.096 305.314 146.648C304.098 146.179 303.052 145.485 302.177 144.568L303.266 142.584C304.225 143.48 305.186 144.12 306.146 144.504C307.105 144.888 308.087 145.08 309.09 145.08C310.242 145.08 311.18 144.867 311.905 144.44C312.631 143.992 312.993 143.341 312.993 142.488C312.993 141.869 312.802 141.411 312.418 141.112C312.055 140.813 311.532 140.568 310.849 140.376C310.167 140.163 309.356 139.928 308.418 139.672C307.266 139.331 306.295 138.968 305.505 138.584C304.716 138.2 304.119 137.72 303.714 137.144C303.308 136.568 303.105 135.843 303.105 134.968C303.105 133.901 303.383 133.005 303.938 132.28C304.492 131.533 305.25 130.968 306.21 130.584C307.191 130.2 308.3 130.008 309.538 130.008C310.775 130.008 311.895 130.2 312.897 130.584C313.9 130.968 314.764 131.533 315.49 132.28L314.21 134.232C313.548 133.549 312.823 133.048 312.034 132.728C311.244 132.387 310.359 132.216 309.378 132.216C308.802 132.216 308.236 132.291 307.681 132.44C307.127 132.568 306.668 132.813 306.306 133.176C305.943 133.517 305.762 134.008 305.762 134.648C305.762 135.181 305.9 135.608 306.177 135.928C306.476 136.227 306.903 136.483 307.457 136.696C308.033 136.909 308.727 137.144 309.538 137.4C310.796 137.763 311.884 138.125 312.802 138.488C313.74 138.851 314.466 139.32 314.978 139.896C315.49 140.472 315.746 141.272 315.746 142.296C315.746 143.875 315.148 145.112 313.953 146.008C312.759 146.883 311.18 147.32 309.217 147.32Z" fill="white"/>
<path d="M327.208 147V130.296H330.024V147H327.208ZM327.208 127.16V123.64H330.024V127.16H327.208Z" fill="white"/>
<path d="M349.079 147H346.263V137.656C346.263 135.885 345.986 134.595 345.431 133.784C344.898 132.952 344.077 132.536 342.967 132.536C342.199 132.536 341.431 132.728 340.663 133.112C339.917 133.496 339.245 134.019 338.647 134.68C338.071 135.32 337.655 136.067 337.399 136.92V147H334.583V130.296H337.143V133.88C337.591 133.091 338.167 132.408 338.871 131.832C339.575 131.256 340.375 130.808 341.271 130.488C342.167 130.168 343.106 130.008 344.087 130.008C345.047 130.008 345.847 130.189 346.487 130.552C347.149 130.893 347.661 131.384 348.023 132.024C348.407 132.643 348.674 133.379 348.823 134.232C348.994 135.085 349.079 136.013 349.079 137.016V147Z" fill="white"/>
<path d="M370.544 147.32C369.179 147.32 367.963 146.979 366.896 146.296C365.829 145.613 364.987 144.749 364.368 143.704V153.816H361.552V130.296H364.048V133.432C364.709 132.408 365.573 131.587 366.64 130.968C367.707 130.328 368.869 130.008 370.128 130.008C371.28 130.008 372.336 130.243 373.296 130.712C374.256 131.181 375.088 131.821 375.792 132.632C376.496 133.443 377.04 134.371 377.424 135.416C377.829 136.44 378.032 137.517 378.032 138.648C378.032 140.227 377.712 141.677 377.072 143C376.453 144.323 375.579 145.379 374.448 146.168C373.317 146.936 372.016 147.32 370.544 147.32ZM369.68 144.888C370.512 144.888 371.259 144.717 371.92 144.376C372.603 144.013 373.179 143.544 373.648 142.968C374.139 142.371 374.512 141.699 374.768 140.952C375.024 140.205 375.152 139.437 375.152 138.648C375.152 137.816 375.003 137.027 374.704 136.28C374.427 135.533 374.021 134.872 373.488 134.296C372.976 133.72 372.368 133.272 371.664 132.952C370.981 132.611 370.235 132.44 369.424 132.44C368.912 132.44 368.379 132.536 367.824 132.728C367.291 132.92 366.779 133.197 366.288 133.56C365.797 133.901 365.381 134.296 365.04 134.744C364.699 135.192 364.475 135.672 364.368 136.184V140.952C364.688 141.677 365.115 142.339 365.648 142.936C366.181 143.533 366.8 144.013 367.504 144.376C368.208 144.717 368.933 144.888 369.68 144.888Z" fill="white"/>
<path d="M388.882 147.32C387.623 147.32 386.471 147.096 385.426 146.648C384.402 146.179 383.505 145.549 382.737 144.76C381.991 143.949 381.404 143.021 380.978 141.976C380.572 140.931 380.37 139.821 380.37 138.648C380.37 137.069 380.732 135.629 381.457 134.328C382.183 133.027 383.185 131.981 384.465 131.192C385.767 130.403 387.25 130.008 388.914 130.008C390.599 130.008 392.06 130.413 393.297 131.224C394.556 132.013 395.527 133.059 396.21 134.36C396.914 135.64 397.266 137.027 397.266 138.52C397.266 138.733 397.255 138.947 397.233 139.16C397.233 139.352 397.223 139.501 397.202 139.608H383.345C383.431 140.696 383.729 141.667 384.241 142.52C384.775 143.352 385.457 144.013 386.289 144.504C387.121 144.973 388.018 145.208 388.978 145.208C390.001 145.208 390.962 144.952 391.858 144.44C392.775 143.928 393.404 143.256 393.746 142.424L396.177 143.096C395.815 143.907 395.271 144.632 394.546 145.272C393.841 145.912 392.999 146.413 392.017 146.776C391.057 147.139 390.012 147.32 388.882 147.32ZM383.25 137.656H394.642C394.556 136.568 394.247 135.608 393.714 134.776C393.18 133.944 392.497 133.293 391.665 132.824C390.833 132.355 389.916 132.12 388.914 132.12C387.932 132.12 387.026 132.355 386.194 132.824C385.362 133.293 384.679 133.944 384.146 134.776C383.634 135.608 383.335 136.568 383.25 137.656Z" fill="white"/>
<path d="M409.228 132.76C407.82 132.781 406.572 133.144 405.484 133.848C404.417 134.531 403.66 135.48 403.212 136.696V147H400.396V130.296H403.02V134.168C403.596 133.016 404.353 132.088 405.292 131.384C406.252 130.659 407.254 130.253 408.3 130.168C408.513 130.168 408.694 130.168 408.844 130.168C408.993 130.168 409.121 130.179 409.228 130.2V132.76Z" fill="white"/>
<path d="M417.749 147.32C416.362 147.32 415.061 147.096 413.845 146.648C412.629 146.179 411.583 145.485 410.709 144.568L411.797 142.584C412.757 143.48 413.717 144.12 414.677 144.504C415.637 144.888 416.618 145.08 417.621 145.08C418.773 145.08 419.711 144.867 420.437 144.44C421.162 143.992 421.525 143.341 421.525 142.488C421.525 141.869 421.333 141.411 420.949 141.112C420.586 140.813 420.063 140.568 419.381 140.376C418.698 140.163 417.887 139.928 416.949 139.672C415.797 139.331 414.826 138.968 414.037 138.584C413.247 138.2 412.65 137.72 412.245 137.144C411.839 136.568 411.637 135.843 411.637 134.968C411.637 133.901 411.914 133.005 412.469 132.28C413.023 131.533 413.781 130.968 414.741 130.584C415.722 130.2 416.831 130.008 418.069 130.008C419.306 130.008 420.426 130.2 421.429 130.584C422.431 130.968 423.295 131.533 424.021 132.28L422.741 134.232C422.079 133.549 421.354 133.048 420.565 132.728C419.775 132.387 418.89 132.216 417.909 132.216C417.333 132.216 416.767 132.291 416.213 132.44C415.658 132.568 415.199 132.813 414.837 133.176C414.474 133.517 414.293 134.008 414.293 134.648C414.293 135.181 414.431 135.608 414.709 135.928C415.007 136.227 415.434 136.483 415.989 136.696C416.565 136.909 417.258 137.144 418.069 137.4C419.327 137.763 420.415 138.125 421.333 138.488C422.271 138.851 422.997 139.32 423.509 139.896C424.021 140.472 424.277 141.272 424.277 142.296C424.277 143.875 423.679 145.112 422.485 146.008C421.29 146.883 419.711 147.32 417.749 147.32Z" fill="white"/>
<path d="M434.942 147.32C433.683 147.32 432.542 147.096 431.518 146.648C430.494 146.179 429.608 145.549 428.862 144.76C428.115 143.949 427.539 143.021 427.134 141.976C426.728 140.931 426.526 139.832 426.526 138.68C426.526 137.507 426.728 136.397 427.134 135.352C427.539 134.307 428.115 133.389 428.862 132.6C429.608 131.789 430.494 131.16 431.518 130.712C432.563 130.243 433.704 130.008 434.942 130.008C436.2 130.008 437.342 130.243 438.366 130.712C439.39 131.16 440.275 131.789 441.022 132.6C441.79 133.389 442.376 134.307 442.782 135.352C443.187 136.397 443.39 137.507 443.39 138.68C443.39 139.832 443.187 140.931 442.782 141.976C442.376 143.021 441.8 143.949 441.054 144.76C440.307 145.549 439.411 146.179 438.366 146.648C437.342 147.096 436.2 147.32 434.942 147.32ZM429.406 138.712C429.406 139.864 429.651 140.909 430.142 141.848C430.654 142.787 431.326 143.533 432.158 144.088C432.99 144.621 433.918 144.888 434.942 144.888C435.966 144.888 436.894 144.611 437.726 144.056C438.579 143.501 439.251 142.755 439.742 141.816C440.254 140.856 440.51 139.8 440.51 138.648C440.51 137.496 440.254 136.451 439.742 135.512C439.251 134.573 438.579 133.827 437.726 133.272C436.894 132.717 435.966 132.44 434.942 132.44C433.918 132.44 432.99 132.728 432.158 133.304C431.326 133.859 430.654 134.605 430.142 135.544C429.651 136.483 429.406 137.539 429.406 138.712Z" fill="white"/>
<path d="M461.298 147H458.482V137.656C458.482 135.885 458.205 134.595 457.65 133.784C457.117 132.952 456.295 132.536 455.186 132.536C454.418 132.536 453.65 132.728 452.882 133.112C452.135 133.496 451.463 134.019 450.866 134.68C450.29 135.32 449.874 136.067 449.618 136.92V147H446.802V130.296H449.362V133.88C449.81 133.091 450.386 132.408 451.09 131.832C451.794 131.256 452.594 130.808 453.49 130.488C454.386 130.168 455.325 130.008 456.306 130.008C457.266 130.008 458.066 130.189 458.706 130.552C459.367 130.893 459.879 131.384 460.242 132.024C460.626 132.643 460.893 133.379 461.042 134.232C461.213 135.085 461.298 136.013 461.298 137.016V147Z" fill="white"/>
<path d="M465.453 147V143.416H467.821V147H465.453Z" fill="white"/>
</svg>
