<svg width="480" height="80" viewBox="0 0 480 80" fill="none" xmlns="http://www.w3.org/2000/svg">
<path fill-rule="evenodd" clip-rule="evenodd" d="M453.955 9.51523C450.506 7.91249 446.72 7.11112 442.596 7.11112C438.103 7.11112 434.022 8.03704 430.353 9.8889C426.758 11.7408 423.651 14.2593 421.03 17.4445C418.484 20.5556 416.499 24.0741 415.076 28C413.729 31.926 413.055 35.926 413.055 40C413.055 44.2963 413.766 48.4445 415.189 52.4445C416.612 56.3704 418.633 59.8889 421.254 63.0001C423.875 66.0371 426.983 68.4815 430.577 70.3334C434.247 72.1112 438.253 73.0001 442.596 73.0001C447.164 73.0001 451.245 72.0742 454.839 70.2223C458.509 68.2964 461.616 65.7778 464.162 62.6667C466.783 59.4815 468.768 55.926 470.115 52.0001C471.463 48.0741 472.137 44.0741 472.137 40C472.137 35.7037 471.426 31.5926 470.003 27.6667C468.58 23.7408 466.521 20.2222 463.825 17.1111C462.228 15.2146 460.449 13.5658 458.49 12.1648L462.071 5.82594C464.921 7.73867 467.453 10.0189 469.666 12.6667C472.961 16.5185 475.507 20.8148 477.304 25.5556C479.101 30.2963 480 35.1482 480 40.1112C480 45.3704 479.064 50.4075 477.192 55.2223C475.32 59.963 472.699 64.2223 469.329 68.0001C465.959 71.7038 461.991 74.6297 457.423 76.7778C452.855 78.926 447.913 80.0001 442.596 80.0001C436.98 80.0001 431.888 78.889 427.32 76.6667C422.752 74.4445 418.821 71.4445 415.526 67.6667C412.231 63.8149 409.685 59.5186 407.888 54.7778C406.091 49.963 405.192 45.0371 405.192 40C405.192 34.7408 406.128 29.7408 408 25C409.872 20.1852 412.493 15.9259 415.863 12.2222C419.307 8.44445 423.314 5.48149 427.881 3.33333C432.449 1.11111 437.392 0 442.708 0C448.133 0 453.068 1.07113 457.515 3.21338L453.955 9.51523ZM70.6521 15.2222V79.4445H78.5148V0.555556H70.5397L42.234 49.3298L46.5231 56.9221L70.6521 15.2222ZM8.08736 0.555556L36.8181 50.4195L43.4712 62.1965L41.7847 65.1112H36.8424L7.86272 15.2222V79.4445H0V0.555556H8.08736ZM179.04 79.4445V72.5556H133.324V42.4445H172.3V35.8889H133.324V7.44445H178.029V0.555556H125.461V79.4445H179.04ZM220.867 79.4445V0.555556H254.564C258.009 0.555556 261.154 1.25926 263.999 2.66667C266.845 4.07408 269.316 6 271.413 8.44445C273.584 10.8148 275.232 13.4815 276.355 16.4445C277.553 19.3334 278.152 22.2963 278.152 25.3334C278.152 29.1111 277.403 32.6667 275.906 36C274.483 39.3334 272.424 42.1482 269.728 44.4445C267.107 46.7408 263.999 48.2593 260.405 49L279.949 79.4445H271.076L252.317 50.3334H228.729V79.4445H220.867ZM228.729 43.4445H254.789C257.934 43.4445 260.667 42.5926 262.988 40.8889C265.31 39.1852 267.107 36.963 268.38 34.2223C269.653 31.4074 270.289 28.4445 270.289 25.3334C270.289 22.1482 269.541 19.2222 268.043 16.5556C266.62 13.8148 264.673 11.6296 262.202 10C259.806 8.29631 257.11 7.44445 254.115 7.44445H228.729V43.4445ZM321.208 0.555556V79.4445H375.124V72.5556H329.071V0.555556H321.208Z" fill="white"/>
</svg>
