<svg width="36" height="26" viewBox="0 0 36 26" fill="none" xmlns="http://www.w3.org/2000/svg">
<path d="M22.25 13L32.875 13C34.0486 13 35 13.9768 35 15.1818V22.8182C35 24.0232 34.0486 25 32.875 25H24.375C23.2014 25 22.25 24.0232 22.25 22.8182V13ZM22.25 13C22.25 7.54545 24.375 4.27273 30.75 0.999999" stroke="white" stroke-width="2" stroke-linecap="round"/>
<path d="M0.999999 13L11.625 13C12.7986 13 13.75 13.9768 13.75 15.1818L13.75 22.8182C13.75 24.0232 12.7986 25 11.625 25H3.125C1.95136 25 0.999999 24.0232 0.999999 22.8182L0.999999 13ZM0.999999 13C0.999999 7.54545 3.125 4.27273 9.5 0.999999" stroke="white" stroke-width="2" stroke-linecap="round"/>
</svg>
